%TF.GenerationSoftware,KiCad,Pcbnew,(6.0.0)*%
%TF.CreationDate,2022-11-20T17:05:32+07:00*%
%TF.ProjectId,ESP32-S3-MINI,45535033-322d-4533-932d-4d494e492e6b,rev?*%
%TF.SameCoordinates,Original*%
%TF.FileFunction,Copper,L1,Top*%
%TF.FilePolarity,Positive*%
%FSLAX46Y46*%
G04 Gerber Fmt 4.6, Leading zero omitted, Abs format (unit mm)*
G04 Created by KiCad (PCBNEW (6.0.0)) date 2022-11-20 17:05:32*
%MOMM*%
%LPD*%
G01*
G04 APERTURE LIST*
G04 Aperture macros list*
%AMRoundRect*
0 Rectangle with rounded corners*
0 $1 Rounding radius*
0 $2 $3 $4 $5 $6 $7 $8 $9 X,Y pos of 4 corners*
0 Add a 4 corners polygon primitive as box body*
4,1,4,$2,$3,$4,$5,$6,$7,$8,$9,$2,$3,0*
0 Add four circle primitives for the rounded corners*
1,1,$1+$1,$2,$3*
1,1,$1+$1,$4,$5*
1,1,$1+$1,$6,$7*
1,1,$1+$1,$8,$9*
0 Add four rect primitives between the rounded corners*
20,1,$1+$1,$2,$3,$4,$5,0*
20,1,$1+$1,$4,$5,$6,$7,0*
20,1,$1+$1,$6,$7,$8,$9,0*
20,1,$1+$1,$8,$9,$2,$3,0*%
%AMFreePoly0*
4,1,9,3.862500,-0.866500,0.737500,-0.866500,0.737500,-0.450000,-0.737500,-0.450000,-0.737500,0.450000,0.737500,0.450000,0.737500,0.866500,3.862500,0.866500,3.862500,-0.866500,3.862500,-0.866500,$1*%
G04 Aperture macros list end*
%TA.AperFunction,SMDPad,CuDef*%
%ADD10RoundRect,0.250000X-0.475000X0.250000X-0.475000X-0.250000X0.475000X-0.250000X0.475000X0.250000X0*%
%TD*%
%TA.AperFunction,ComponentPad*%
%ADD11C,6.000000*%
%TD*%
%TA.AperFunction,SMDPad,CuDef*%
%ADD12RoundRect,0.225000X-0.250000X0.225000X-0.250000X-0.225000X0.250000X-0.225000X0.250000X0.225000X0*%
%TD*%
%TA.AperFunction,SMDPad,CuDef*%
%ADD13RoundRect,0.218750X0.218750X0.256250X-0.218750X0.256250X-0.218750X-0.256250X0.218750X-0.256250X0*%
%TD*%
%TA.AperFunction,SMDPad,CuDef*%
%ADD14RoundRect,0.200000X0.200000X0.275000X-0.200000X0.275000X-0.200000X-0.275000X0.200000X-0.275000X0*%
%TD*%
%TA.AperFunction,SMDPad,CuDef*%
%ADD15RoundRect,0.006600X-0.313400X-0.103400X0.313400X-0.103400X0.313400X0.103400X-0.313400X0.103400X0*%
%TD*%
%TA.AperFunction,SMDPad,CuDef*%
%ADD16RoundRect,0.017600X-0.092400X-0.302400X0.092400X-0.302400X0.092400X0.302400X-0.092400X0.302400X0*%
%TD*%
%TA.AperFunction,SMDPad,CuDef*%
%ADD17R,1.700000X1.540000*%
%TD*%
%TA.AperFunction,SMDPad,CuDef*%
%ADD18RoundRect,0.225000X-0.225000X-0.250000X0.225000X-0.250000X0.225000X0.250000X-0.225000X0.250000X0*%
%TD*%
%TA.AperFunction,SMDPad,CuDef*%
%ADD19R,1.000000X1.500000*%
%TD*%
%TA.AperFunction,SMDPad,CuDef*%
%ADD20RoundRect,0.150000X0.587500X0.150000X-0.587500X0.150000X-0.587500X-0.150000X0.587500X-0.150000X0*%
%TD*%
%TA.AperFunction,SMDPad,CuDef*%
%ADD21RoundRect,0.150000X-0.150000X-0.600000X0.150000X-0.600000X0.150000X0.600000X-0.150000X0.600000X0*%
%TD*%
%TA.AperFunction,SMDPad,CuDef*%
%ADD22RoundRect,0.250000X-0.350000X-0.650000X0.350000X-0.650000X0.350000X0.650000X-0.350000X0.650000X0*%
%TD*%
%TA.AperFunction,SMDPad,CuDef*%
%ADD23RoundRect,0.150000X0.150000X0.600000X-0.150000X0.600000X-0.150000X-0.600000X0.150000X-0.600000X0*%
%TD*%
%TA.AperFunction,SMDPad,CuDef*%
%ADD24RoundRect,0.250000X0.350000X0.650000X-0.350000X0.650000X-0.350000X-0.650000X0.350000X-0.650000X0*%
%TD*%
%TA.AperFunction,SMDPad,CuDef*%
%ADD25RoundRect,0.200000X0.275000X-0.200000X0.275000X0.200000X-0.275000X0.200000X-0.275000X-0.200000X0*%
%TD*%
%TA.AperFunction,SMDPad,CuDef*%
%ADD26R,0.900000X1.300000*%
%TD*%
%TA.AperFunction,SMDPad,CuDef*%
%ADD27FreePoly0,90.000000*%
%TD*%
%TA.AperFunction,SMDPad,CuDef*%
%ADD28RoundRect,0.225000X0.225000X0.250000X-0.225000X0.250000X-0.225000X-0.250000X0.225000X-0.250000X0*%
%TD*%
%TA.AperFunction,SMDPad,CuDef*%
%ADD29RoundRect,0.200000X-0.275000X0.200000X-0.275000X-0.200000X0.275000X-0.200000X0.275000X0.200000X0*%
%TD*%
%TA.AperFunction,SMDPad,CuDef*%
%ADD30R,1.050000X0.650000*%
%TD*%
%TA.AperFunction,SMDPad,CuDef*%
%ADD31RoundRect,0.225000X0.250000X-0.225000X0.250000X0.225000X-0.250000X0.225000X-0.250000X-0.225000X0*%
%TD*%
%TA.AperFunction,SMDPad,CuDef*%
%ADD32RoundRect,0.062500X0.062500X-0.337500X0.062500X0.337500X-0.062500X0.337500X-0.062500X-0.337500X0*%
%TD*%
%TA.AperFunction,SMDPad,CuDef*%
%ADD33RoundRect,0.062500X0.337500X-0.062500X0.337500X0.062500X-0.337500X0.062500X-0.337500X-0.062500X0*%
%TD*%
%TA.AperFunction,SMDPad,CuDef*%
%ADD34R,3.350000X3.350000*%
%TD*%
%TA.AperFunction,SMDPad,CuDef*%
%ADD35R,1.200000X1.400000*%
%TD*%
%TA.AperFunction,SMDPad,CuDef*%
%ADD36RoundRect,0.150000X0.150000X-0.650000X0.150000X0.650000X-0.150000X0.650000X-0.150000X-0.650000X0*%
%TD*%
%TA.AperFunction,SMDPad,CuDef*%
%ADD37RoundRect,0.200000X-0.200000X-0.275000X0.200000X-0.275000X0.200000X0.275000X-0.200000X0.275000X0*%
%TD*%
%TA.AperFunction,SMDPad,CuDef*%
%ADD38R,1.200000X0.900000*%
%TD*%
%TA.AperFunction,SMDPad,CuDef*%
%ADD39RoundRect,0.250000X0.475000X-0.250000X0.475000X0.250000X-0.475000X0.250000X-0.475000X-0.250000X0*%
%TD*%
%TA.AperFunction,SMDPad,CuDef*%
%ADD40R,0.600000X1.160000*%
%TD*%
%TA.AperFunction,SMDPad,CuDef*%
%ADD41R,0.300000X1.160000*%
%TD*%
%TA.AperFunction,ComponentPad*%
%ADD42O,0.900000X1.700000*%
%TD*%
%TA.AperFunction,ComponentPad*%
%ADD43O,0.900000X2.000000*%
%TD*%
%TA.AperFunction,SMDPad,CuDef*%
%ADD44RoundRect,0.243750X0.456250X-0.243750X0.456250X0.243750X-0.456250X0.243750X-0.456250X-0.243750X0*%
%TD*%
%TA.AperFunction,SMDPad,CuDef*%
%ADD45R,1.800000X1.000000*%
%TD*%
%TA.AperFunction,SMDPad,CuDef*%
%ADD46R,2.000000X0.925000*%
%TD*%
%TA.AperFunction,SMDPad,CuDef*%
%ADD47RoundRect,0.050000X-0.050000X0.387500X-0.050000X-0.387500X0.050000X-0.387500X0.050000X0.387500X0*%
%TD*%
%TA.AperFunction,SMDPad,CuDef*%
%ADD48RoundRect,0.050000X-0.387500X0.050000X-0.387500X-0.050000X0.387500X-0.050000X0.387500X0.050000X0*%
%TD*%
%TA.AperFunction,SMDPad,CuDef*%
%ADD49R,5.600000X5.600000*%
%TD*%
%TA.AperFunction,ViaPad*%
%ADD50C,0.600000*%
%TD*%
%TA.AperFunction,ViaPad*%
%ADD51C,0.800000*%
%TD*%
%TA.AperFunction,Conductor*%
%ADD52C,0.150000*%
%TD*%
%TA.AperFunction,Conductor*%
%ADD53C,0.300000*%
%TD*%
%TA.AperFunction,Conductor*%
%ADD54C,0.500000*%
%TD*%
%TA.AperFunction,Conductor*%
%ADD55C,0.200000*%
%TD*%
%TA.AperFunction,Conductor*%
%ADD56C,0.290000*%
%TD*%
%TA.AperFunction,Conductor*%
%ADD57C,0.400000*%
%TD*%
G04 APERTURE END LIST*
D10*
%TO.P,C16,1*%
%TO.N,+3V3*%
X100200000Y-112750000D03*
%TO.P,C16,2*%
%TO.N,GND*%
X100200000Y-114650000D03*
%TD*%
D11*
%TO.P,H4,1*%
%TO.N,N/C*%
X99500000Y-149500000D03*
%TD*%
D12*
%TO.P,C10,1*%
%TO.N,Net-(C10-Pad1)*%
X135900000Y-115725000D03*
%TO.P,C10,2*%
%TO.N,GND*%
X135900000Y-117275000D03*
%TD*%
D13*
%TO.P,D2,1,K*%
%TO.N,GND*%
X140300000Y-130200000D03*
%TO.P,D2,2,A*%
%TO.N,Net-(D2-Pad2)*%
X138725000Y-130200000D03*
%TD*%
D14*
%TO.P,R6,1*%
%TO.N,+3V3*%
X126850000Y-132900000D03*
%TO.P,R6,2*%
%TO.N,/~{RESET}*%
X125200000Y-132900000D03*
%TD*%
D15*
%TO.P,U6,1,RESV_1*%
%TO.N,+3V3*%
X101000000Y-122200000D03*
%TO.P,U6,2,NC*%
%TO.N,unconnected-(U6-Pad2)*%
X101000000Y-122600000D03*
%TO.P,U6,3,NC*%
%TO.N,unconnected-(U6-Pad3)*%
X101000000Y-123000000D03*
%TO.P,U6,4,NC*%
%TO.N,unconnected-(U6-Pad4)*%
X101000000Y-123400000D03*
%TO.P,U6,5,NC*%
%TO.N,unconnected-(U6-Pad5)*%
X101000000Y-123800000D03*
%TO.P,U6,6,NC*%
%TO.N,unconnected-(U6-Pad6)*%
X101000000Y-124200000D03*
D16*
%TO.P,U6,7,AUX_CL*%
%TO.N,unconnected-(U6-Pad7)*%
X101545000Y-124745000D03*
%TO.P,U6,8,VDDIO*%
%TO.N,+3V3*%
X101945000Y-124745000D03*
%TO.P,U6,9,AD0/SDO*%
%TO.N,/SPI2_MISO*%
X102345000Y-124745000D03*
%TO.P,U6,10,REGOUT*%
%TO.N,/REGOUT*%
X102745000Y-124745000D03*
%TO.P,U6,11,FSYNC*%
%TO.N,GND*%
X103145000Y-124745000D03*
%TO.P,U6,12,INT*%
%TO.N,/GYRO_INT*%
X103545000Y-124745000D03*
D15*
%TO.P,U6,13,VDD*%
%TO.N,+3V3*%
X104090000Y-124200000D03*
%TO.P,U6,14,NC*%
%TO.N,unconnected-(U6-Pad14)*%
X104090000Y-123800000D03*
%TO.P,U6,15,NC*%
%TO.N,unconnected-(U6-Pad15)*%
X104090000Y-123400000D03*
%TO.P,U6,16,NC*%
%TO.N,unconnected-(U6-Pad16)*%
X104090000Y-123000000D03*
%TO.P,U6,17,NC*%
%TO.N,unconnected-(U6-Pad17)*%
X104090000Y-122600000D03*
%TO.P,U6,18,GND*%
%TO.N,GND*%
X104090000Y-122200000D03*
D16*
%TO.P,U6,19,RESV_19*%
%TO.N,unconnected-(U6-Pad19)*%
X103545000Y-121655000D03*
%TO.P,U6,20,RESV_20*%
%TO.N,GND*%
X103145000Y-121655000D03*
%TO.P,U6,21,AUX_DA*%
%TO.N,unconnected-(U6-Pad21)*%
X102745000Y-121655000D03*
%TO.P,U6,22,~{CS}*%
%TO.N,/SPI2_CS*%
X102345000Y-121655000D03*
%TO.P,U6,23,SCL/SCLK*%
%TO.N,/SPI2_CLK*%
X101945000Y-121655000D03*
%TO.P,U6,24,SDA/SDI*%
%TO.N,/SPI2_MOSI*%
X101545000Y-121655000D03*
D17*
%TO.P,U6,25,EXP*%
%TO.N,GND*%
X102545000Y-123200000D03*
%TD*%
D18*
%TO.P,C6,1*%
%TO.N,GND*%
X111025000Y-123500000D03*
%TO.P,C6,2*%
%TO.N,+3V3*%
X112575000Y-123500000D03*
%TD*%
D19*
%TO.P,D4,1,VDD*%
%TO.N,+3V3*%
X137400000Y-140850000D03*
%TO.P,D4,2,DOUT*%
%TO.N,unconnected-(D4-Pad2)*%
X140600000Y-140850000D03*
%TO.P,D4,3,VSS*%
%TO.N,GND*%
X140600000Y-135950000D03*
%TO.P,D4,4,DIN*%
%TO.N,/WS2812B*%
X137400000Y-135950000D03*
%TD*%
D20*
%TO.P,Q2,1,B*%
%TO.N,Net-(Q2-Pad1)*%
X110637500Y-139350000D03*
%TO.P,Q2,2,E*%
%TO.N,/~{DTR}*%
X110637500Y-137450000D03*
%TO.P,Q2,3,C*%
%TO.N,/BOOT*%
X108762500Y-138400000D03*
%TD*%
D12*
%TO.P,C14,1*%
%TO.N,+3V3*%
X123800000Y-139625000D03*
%TO.P,C14,2*%
%TO.N,GND*%
X123800000Y-141175000D03*
%TD*%
D11*
%TO.P,H2,1*%
%TO.N,N/C*%
X140500000Y-108500000D03*
%TD*%
D14*
%TO.P,R7,1*%
%TO.N,Net-(D1-Pad2)*%
X137225000Y-127900000D03*
%TO.P,R7,2*%
%TO.N,/~{TXT}*%
X135575000Y-127900000D03*
%TD*%
D21*
%TO.P,J5,1,Pin_1*%
%TO.N,GND*%
X106800000Y-144875000D03*
%TO.P,J5,2,Pin_2*%
%TO.N,+5V*%
X107800000Y-144875000D03*
%TO.P,J5,3,Pin_3*%
%TO.N,/UART1_TX*%
X108800000Y-144875000D03*
%TO.P,J5,4,Pin_4*%
%TO.N,/UART1_RX*%
X109800000Y-144875000D03*
D22*
%TO.P,J5,MP*%
%TO.N,N/C*%
X105500000Y-148775000D03*
X111100000Y-148775000D03*
%TD*%
D23*
%TO.P,J2,1,Pin_1*%
%TO.N,GND*%
X125800000Y-112870000D03*
%TO.P,J2,2,Pin_2*%
%TO.N,+5V*%
X124800000Y-112870000D03*
%TO.P,J2,3,Pin_3*%
%TO.N,/S1_OUT*%
X123800000Y-112870000D03*
%TO.P,J2,4,Pin_4*%
%TO.N,/S2_OUT*%
X122800000Y-112870000D03*
%TO.P,J2,5,Pin_5*%
%TO.N,/S3_OUT*%
X121800000Y-112870000D03*
%TO.P,J2,6,Pin_6*%
%TO.N,/S4_OUT*%
X120800000Y-112870000D03*
D24*
%TO.P,J2,MP*%
%TO.N,N/C*%
X119500000Y-108970000D03*
X127100000Y-108970000D03*
%TD*%
D25*
%TO.P,R4,1*%
%TO.N,/~{DTR}*%
X112500000Y-139225000D03*
%TO.P,R4,2*%
%TO.N,Net-(Q1-Pad1)*%
X112500000Y-137575000D03*
%TD*%
D20*
%TO.P,Q1,1,B*%
%TO.N,Net-(Q1-Pad1)*%
X110637500Y-135950000D03*
%TO.P,Q1,2,E*%
%TO.N,/~{RST}*%
X110637500Y-134050000D03*
%TO.P,Q1,3,C*%
%TO.N,/RESET*%
X108762500Y-135000000D03*
%TD*%
D26*
%TO.P,U5,1,GND*%
%TO.N,GND*%
X102400000Y-115550000D03*
D27*
%TO.P,U5,2,VO*%
%TO.N,+3V3*%
X103900000Y-115462500D03*
D26*
%TO.P,U5,3,VI*%
%TO.N,/VIN*%
X105400000Y-115550000D03*
%TD*%
D28*
%TO.P,C5,1*%
%TO.N,GND*%
X128375000Y-126000000D03*
%TO.P,C5,2*%
%TO.N,+3V3*%
X126825000Y-126000000D03*
%TD*%
D29*
%TO.P,R5,1*%
%TO.N,/~{RST}*%
X112500000Y-134175000D03*
%TO.P,R5,2*%
%TO.N,Net-(Q2-Pad1)*%
X112500000Y-135825000D03*
%TD*%
D28*
%TO.P,C12,1*%
%TO.N,GND*%
X126800000Y-136100000D03*
%TO.P,C12,2*%
%TO.N,/VUSB*%
X125250000Y-136100000D03*
%TD*%
D23*
%TO.P,J4,1,Pin_1*%
%TO.N,GND*%
X115800000Y-112870000D03*
%TO.P,J4,2,Pin_2*%
%TO.N,+5V*%
X114800000Y-112870000D03*
D24*
%TO.P,J4,MP*%
%TO.N,N/C*%
X113500000Y-108970000D03*
X117100000Y-108970000D03*
%TD*%
D12*
%TO.P,C11,1*%
%TO.N,/LNA_IN{slash}RF*%
X131500000Y-115825000D03*
%TO.P,C11,2*%
%TO.N,GND*%
X131500000Y-117375000D03*
%TD*%
D18*
%TO.P,C7,1*%
%TO.N,/XTAL_P*%
X130925000Y-120400000D03*
%TO.P,C7,2*%
%TO.N,GND*%
X132475000Y-120400000D03*
%TD*%
D30*
%TO.P,SW1,1,1*%
%TO.N,GND*%
X135275000Y-107925000D03*
X131125000Y-107925000D03*
%TO.P,SW1,2,2*%
%TO.N,/RESET*%
X135250000Y-110075000D03*
X131125000Y-110075000D03*
%TD*%
D31*
%TO.P,C18,1*%
%TO.N,GND*%
X103345000Y-127950000D03*
%TO.P,C18,2*%
%TO.N,/REGOUT*%
X103345000Y-126400000D03*
%TD*%
D32*
%TO.P,U4,1,~{DCD}*%
%TO.N,unconnected-(U4-Pad1)*%
X118300000Y-137650000D03*
%TO.P,U4,2,~{RI}/CLK*%
%TO.N,unconnected-(U4-Pad2)*%
X118800000Y-137650000D03*
%TO.P,U4,3,GND*%
%TO.N,GND*%
X119300000Y-137650000D03*
%TO.P,U4,4,D+*%
%TO.N,/USB_D+*%
X119800000Y-137650000D03*
%TO.P,U4,5,D-*%
%TO.N,/USB_D-*%
X120300000Y-137650000D03*
%TO.P,U4,6,VDD*%
%TO.N,+3V3*%
X120800000Y-137650000D03*
%TO.P,U4,7,VREGIN*%
%TO.N,/VUSB*%
X121300000Y-137650000D03*
D33*
%TO.P,U4,8,VBUS*%
X122250000Y-136700000D03*
%TO.P,U4,9,~{RST}*%
%TO.N,/~{RESET}*%
X122250000Y-136200000D03*
%TO.P,U4,10,NC*%
%TO.N,unconnected-(U4-Pad10)*%
X122250000Y-135700000D03*
%TO.P,U4,11,~{SUSPEND}*%
%TO.N,unconnected-(U4-Pad11)*%
X122250000Y-135200000D03*
%TO.P,U4,12,SUSPEND*%
%TO.N,unconnected-(U4-Pad12)*%
X122250000Y-134700000D03*
%TO.P,U4,13,CHREN*%
%TO.N,unconnected-(U4-Pad13)*%
X122250000Y-134200000D03*
%TO.P,U4,14,CHR1*%
%TO.N,unconnected-(U4-Pad14)*%
X122250000Y-133700000D03*
D32*
%TO.P,U4,15,CHR0*%
%TO.N,unconnected-(U4-Pad15)*%
X121300000Y-132750000D03*
%TO.P,U4,16,~{WAKEUP}/GPIO.3*%
%TO.N,unconnected-(U4-Pad16)*%
X120800000Y-132750000D03*
%TO.P,U4,17,RS485/GPIO.2*%
%TO.N,unconnected-(U4-Pad17)*%
X120300000Y-132750000D03*
%TO.P,U4,18,~{RXT}/GPIO.1*%
%TO.N,/~{RXT}*%
X119800000Y-132750000D03*
%TO.P,U4,19,~{TXT}/GPIO.0*%
%TO.N,/~{TXT}*%
X119300000Y-132750000D03*
%TO.P,U4,20,GPIO.6*%
%TO.N,unconnected-(U4-Pad20)*%
X118800000Y-132750000D03*
%TO.P,U4,21,GPIO.5*%
%TO.N,unconnected-(U4-Pad21)*%
X118300000Y-132750000D03*
D33*
%TO.P,U4,22,GPIO.4*%
%TO.N,unconnected-(U4-Pad22)*%
X117350000Y-133700000D03*
%TO.P,U4,23,~{CTS}*%
%TO.N,unconnected-(U4-Pad23)*%
X117350000Y-134200000D03*
%TO.P,U4,24,~{RTS}*%
%TO.N,/~{RST}*%
X117350000Y-134700000D03*
%TO.P,U4,25,RXD*%
%TO.N,/UART_RX*%
X117350000Y-135200000D03*
%TO.P,U4,26,TXD*%
%TO.N,/UART_TX*%
X117350000Y-135700000D03*
%TO.P,U4,27,~{DSR}*%
%TO.N,unconnected-(U4-Pad27)*%
X117350000Y-136200000D03*
%TO.P,U4,28,~{DTR}*%
%TO.N,/~{DTR}*%
X117350000Y-136700000D03*
D34*
%TO.P,U4,29,GND*%
%TO.N,GND*%
X119800000Y-135200000D03*
%TD*%
D35*
%TO.P,Y2,1,1*%
%TO.N,/XTAL_P*%
X130850000Y-122100000D03*
%TO.P,Y2,2,2*%
%TO.N,GND*%
X130850000Y-124300000D03*
%TO.P,Y2,3,3*%
%TO.N,/XTAL_N*%
X132550000Y-124300000D03*
%TO.P,Y2,4,4*%
%TO.N,GND*%
X132550000Y-122100000D03*
%TD*%
D36*
%TO.P,U2,1,~{CS}*%
%TO.N,/SPI_CS0*%
X101395000Y-140300000D03*
%TO.P,U2,2,DO(IO1)*%
%TO.N,/SPI_Q*%
X102665000Y-140300000D03*
%TO.P,U2,3,IO2*%
%TO.N,/SPI_WP*%
X103935000Y-140300000D03*
%TO.P,U2,4,GND*%
%TO.N,GND*%
X105205000Y-140300000D03*
%TO.P,U2,5,DI(IO0)*%
%TO.N,/SPI_D*%
X105205000Y-133100000D03*
%TO.P,U2,6,CLK*%
%TO.N,/SPI_CLK*%
X103935000Y-133100000D03*
%TO.P,U2,7,IO3*%
%TO.N,/SPI_HD*%
X102665000Y-133100000D03*
%TO.P,U2,8,VCC*%
%TO.N,+3V3*%
X101395000Y-133100000D03*
%TD*%
D11*
%TO.P,H1,1*%
%TO.N,N/C*%
X99500000Y-108500000D03*
%TD*%
D21*
%TO.P,J3,1,Pin_1*%
%TO.N,GND*%
X130200000Y-144975000D03*
%TO.P,J3,2,Pin_2*%
%TO.N,+5V*%
X131200000Y-144975000D03*
%TO.P,J3,3,Pin_3*%
%TO.N,/I2C_SCL*%
X132200000Y-144975000D03*
%TO.P,J3,4,Pin_4*%
%TO.N,/I2C_SDA*%
X133200000Y-144975000D03*
D22*
%TO.P,J3,MP*%
%TO.N,N/C*%
X134500000Y-148875000D03*
X128900000Y-148875000D03*
%TD*%
D37*
%TO.P,R2,1*%
%TO.N,/RESET*%
X132375000Y-111700000D03*
%TO.P,R2,2*%
%TO.N,+3V3*%
X134025000Y-111700000D03*
%TD*%
D12*
%TO.P,C3,1*%
%TO.N,GND*%
X121900000Y-116525000D03*
%TO.P,C3,2*%
%TO.N,+3V3*%
X121900000Y-118075000D03*
%TD*%
D13*
%TO.P,D6,1,K*%
%TO.N,GND*%
X140287500Y-125500000D03*
%TO.P,D6,2,A*%
%TO.N,Net-(D6-Pad2)*%
X138712500Y-125500000D03*
%TD*%
D14*
%TO.P,R1,1*%
%TO.N,Net-(C10-Pad1)*%
X134525000Y-115800000D03*
%TO.P,R1,2*%
%TO.N,/LNA_IN{slash}RF*%
X132875000Y-115800000D03*
%TD*%
D38*
%TO.P,D5,1,K*%
%TO.N,/VIN*%
X110000000Y-115450000D03*
%TO.P,D5,2,A*%
%TO.N,+5V*%
X110000000Y-112150000D03*
%TD*%
D18*
%TO.P,C13,1*%
%TO.N,/VUSB*%
X125250000Y-134500000D03*
%TO.P,C13,2*%
%TO.N,GND*%
X126800000Y-134500000D03*
%TD*%
D12*
%TO.P,C19,1*%
%TO.N,GND*%
X105945000Y-122525000D03*
%TO.P,C19,2*%
%TO.N,+3V3*%
X105945000Y-124075000D03*
%TD*%
D11*
%TO.P,H3,1*%
%TO.N,N/C*%
X140500000Y-149500000D03*
%TD*%
D12*
%TO.P,C4,1*%
%TO.N,GND*%
X123400000Y-116525000D03*
%TO.P,C4,2*%
%TO.N,+3V3*%
X123400000Y-118075000D03*
%TD*%
D25*
%TO.P,R3,1*%
%TO.N,/BOOT*%
X103500000Y-109825000D03*
%TO.P,R3,2*%
%TO.N,+3V3*%
X103500000Y-108175000D03*
%TD*%
D28*
%TO.P,C1,1*%
%TO.N,GND*%
X128375000Y-122100000D03*
%TO.P,C1,2*%
%TO.N,+3V3*%
X126825000Y-122100000D03*
%TD*%
%TO.P,C8,1*%
%TO.N,/XTAL_N*%
X132475000Y-126000000D03*
%TO.P,C8,2*%
%TO.N,GND*%
X130925000Y-126000000D03*
%TD*%
D38*
%TO.P,D3,1,K*%
%TO.N,/VIN*%
X129000000Y-140550000D03*
%TO.P,D3,2,A*%
%TO.N,/VUSB*%
X129000000Y-137250000D03*
%TD*%
D12*
%TO.P,C9,1*%
%TO.N,GND*%
X101445000Y-129625000D03*
%TO.P,C9,2*%
%TO.N,+3V3*%
X101445000Y-131175000D03*
%TD*%
D30*
%TO.P,SW2,1,1*%
%TO.N,GND*%
X105025000Y-107925000D03*
X109175000Y-107925000D03*
%TO.P,SW2,2,2*%
%TO.N,/BOOT*%
X105025000Y-110075000D03*
X109150000Y-110075000D03*
%TD*%
D39*
%TO.P,C15,1*%
%TO.N,/VIN*%
X107600000Y-114650000D03*
%TO.P,C15,2*%
%TO.N,GND*%
X107600000Y-112750000D03*
%TD*%
D28*
%TO.P,C2,1*%
%TO.N,GND*%
X128375000Y-120400000D03*
%TO.P,C2,2*%
%TO.N,+3V3*%
X126825000Y-120400000D03*
%TD*%
D13*
%TO.P,D1,1,K*%
%TO.N,GND*%
X140287500Y-127900000D03*
%TO.P,D1,2,A*%
%TO.N,Net-(D1-Pad2)*%
X138712500Y-127900000D03*
%TD*%
D31*
%TO.P,C17,1*%
%TO.N,GND*%
X101445000Y-127950000D03*
%TO.P,C17,2*%
%TO.N,+3V3*%
X101445000Y-126400000D03*
%TD*%
D14*
%TO.P,R10,1*%
%TO.N,Net-(D6-Pad2)*%
X137225000Y-125500000D03*
%TO.P,R10,2*%
%TO.N,+3V3*%
X135575000Y-125500000D03*
%TD*%
D40*
%TO.P,J1,A1,GND*%
%TO.N,GND*%
X116800000Y-143890000D03*
%TO.P,J1,A4,VBUS*%
%TO.N,/VBUS*%
X117600000Y-143890000D03*
D41*
%TO.P,J1,A5,CC1*%
%TO.N,unconnected-(J1-PadA5)*%
X118750000Y-143890000D03*
%TO.P,J1,A6,D+*%
%TO.N,/USB_D+*%
X119750000Y-143890000D03*
%TO.P,J1,A7,D-*%
%TO.N,/USB_D-*%
X120250000Y-143890000D03*
%TO.P,J1,A8,SBU1*%
%TO.N,unconnected-(J1-PadA8)*%
X121250000Y-143890000D03*
D40*
%TO.P,J1,A9,VBUS*%
%TO.N,/VBUS*%
X122400000Y-143890000D03*
%TO.P,J1,A12,GND*%
%TO.N,GND*%
X123200000Y-143890000D03*
%TO.P,J1,B1,GND*%
X123200000Y-143890000D03*
%TO.P,J1,B4,VBUS*%
%TO.N,/VBUS*%
X122400000Y-143890000D03*
D41*
%TO.P,J1,B5,CC2*%
%TO.N,unconnected-(J1-PadB5)*%
X121750000Y-143890000D03*
%TO.P,J1,B6,D+*%
%TO.N,/USB_D+*%
X120750000Y-143890000D03*
%TO.P,J1,B7,D-*%
%TO.N,/USB_D-*%
X119250000Y-143890000D03*
%TO.P,J1,B8,SBU2*%
%TO.N,unconnected-(J1-PadB8)*%
X118250000Y-143890000D03*
D40*
%TO.P,J1,B9,VBUS*%
%TO.N,/VBUS*%
X117600000Y-143890000D03*
%TO.P,J1,B12,GND*%
%TO.N,GND*%
X116800000Y-143890000D03*
D42*
%TO.P,J1,S1,SHIELD*%
X115680000Y-148640000D03*
D43*
X115680000Y-144470000D03*
D42*
X124320000Y-148640000D03*
D43*
X124320000Y-144470000D03*
%TD*%
D44*
%TO.P,F1,1*%
%TO.N,/VBUS*%
X126800000Y-139837500D03*
%TO.P,F1,2*%
%TO.N,/VUSB*%
X126800000Y-137962500D03*
%TD*%
D14*
%TO.P,R8,1*%
%TO.N,Net-(D2-Pad2)*%
X137225000Y-130200000D03*
%TO.P,R8,2*%
%TO.N,/~{RXT}*%
X135575000Y-130200000D03*
%TD*%
D30*
%TO.P,SW3,1,1*%
%TO.N,+3V3*%
X122075000Y-141775000D03*
X117925000Y-141775000D03*
%TO.P,SW3,2,2*%
%TO.N,/USER_BTN*%
X117950000Y-139625000D03*
X122075000Y-139625000D03*
%TD*%
D25*
%TO.P,R9,1*%
%TO.N,GND*%
X116200000Y-141225000D03*
%TO.P,R9,2*%
%TO.N,/USER_BTN*%
X116200000Y-139575000D03*
%TD*%
D45*
%TO.P,Y1,1,1*%
%TO.N,/XTAL_32K_N*%
X111800000Y-127750000D03*
%TO.P,Y1,2,2*%
%TO.N,/XTAL_32K_P*%
X111800000Y-125250000D03*
%TD*%
D46*
%TO.P,U3,1*%
%TO.N,Net-(C10-Pad1)*%
X139500000Y-115750000D03*
%TO.P,U3,2*%
%TO.N,unconnected-(U3-Pad2)*%
X139500000Y-118450000D03*
%TD*%
D47*
%TO.P,U1,1,LNA_IN/RF*%
%TO.N,/LNA_IN{slash}RF*%
X122500000Y-121162500D03*
%TO.P,U1,2,VDD3P3*%
%TO.N,+3V3*%
X122100000Y-121162500D03*
%TO.P,U1,3,VDD3P3*%
X121700000Y-121162500D03*
%TO.P,U1,4,CHIP_PU/RESET*%
%TO.N,/RESET*%
X121300000Y-121162500D03*
%TO.P,U1,5,GPIO0/BOOT*%
%TO.N,/BOOT*%
X120900000Y-121162500D03*
%TO.P,U1,6,GPIO1/ADC1_CH0*%
%TO.N,unconnected-(U1-Pad6)*%
X120500000Y-121162500D03*
%TO.P,U1,7,GPIO2/ADC1_CH1*%
%TO.N,/WS2812B*%
X120100000Y-121162500D03*
%TO.P,U1,8,GPIO3/ADC1_CH2*%
%TO.N,/USER_BTN*%
X119700000Y-121162500D03*
%TO.P,U1,9,GPIO4/ADC1_CH3*%
%TO.N,unconnected-(U1-Pad9)*%
X119300000Y-121162500D03*
%TO.P,U1,10,GPIO5/ADC1_CH4*%
%TO.N,/S1_OUT*%
X118900000Y-121162500D03*
%TO.P,U1,11,GPIO6/ADC1_CH5*%
%TO.N,/S2_OUT*%
X118500000Y-121162500D03*
%TO.P,U1,12,GPIO7/ADC1_CH6*%
%TO.N,/S3_OUT*%
X118100000Y-121162500D03*
%TO.P,U1,13,GPIO8/ADC1_CH7*%
%TO.N,/S4_OUT*%
X117700000Y-121162500D03*
%TO.P,U1,14,GPIO9/ADC1_CH8*%
%TO.N,unconnected-(U1-Pad14)*%
X117300000Y-121162500D03*
D48*
%TO.P,U1,15,GPIO10/ADC1_CH9*%
%TO.N,/SPI2_CS*%
X116462500Y-122000000D03*
%TO.P,U1,16,GPIO11/ADC2_CH0*%
%TO.N,/SPI2_MOSI*%
X116462500Y-122400000D03*
%TO.P,U1,17,GPIO12/ADC2_CH1*%
%TO.N,/SPI2_CLK*%
X116462500Y-122800000D03*
%TO.P,U1,18,GPIO13/ADC2_CH2*%
%TO.N,/SPI2_MISO*%
X116462500Y-123200000D03*
%TO.P,U1,19,GPIO14/ADC2_CH3*%
%TO.N,/GYRO_INT*%
X116462500Y-123600000D03*
%TO.P,U1,20,VDD3P3_RTC*%
%TO.N,+3V3*%
X116462500Y-124000000D03*
%TO.P,U1,21,GPIO15/ADC2_CH4/XTAL_32K_P*%
%TO.N,/XTAL_32K_P*%
X116462500Y-124400000D03*
%TO.P,U1,22,GPIO16/ADC2_CH5/XTAL_32K_N*%
%TO.N,/XTAL_32K_N*%
X116462500Y-124800000D03*
%TO.P,U1,23,GPIO17/ADC2_CH6/DAC_2*%
%TO.N,/UART1_TX*%
X116462500Y-125200000D03*
%TO.P,U1,24,GPIO18/ADC2_CH7/DAC_1*%
%TO.N,/UART1_RX*%
X116462500Y-125600000D03*
%TO.P,U1,25,GPIO19/USB_D-/ADC2_CH8*%
%TO.N,unconnected-(U1-Pad25)*%
X116462500Y-126000000D03*
%TO.P,U1,26,GPIO20/USB_D+/ADC2_CH9*%
%TO.N,unconnected-(U1-Pad26)*%
X116462500Y-126400000D03*
%TO.P,U1,27,GPIO21*%
%TO.N,unconnected-(U1-Pad27)*%
X116462500Y-126800000D03*
%TO.P,U1,28,SPI_CS1/GPIO26*%
%TO.N,unconnected-(U1-Pad28)*%
X116462500Y-127200000D03*
D47*
%TO.P,U1,29,VDD_SPI*%
%TO.N,+3V3*%
X117300000Y-128037500D03*
%TO.P,U1,30,SPIHD/GPIO27*%
%TO.N,/SPI_HD*%
X117700000Y-128037500D03*
%TO.P,U1,31,SPIWP/GPIO28*%
%TO.N,/SPI_WP*%
X118100000Y-128037500D03*
%TO.P,U1,32,SPICS0/GPIO29*%
%TO.N,/SPI_CS0*%
X118500000Y-128037500D03*
%TO.P,U1,33,SPICLK/GPIO30*%
%TO.N,/SPI_CLK*%
X118900000Y-128037500D03*
%TO.P,U1,34,SPIQ/GPIO31*%
%TO.N,/SPI_Q*%
X119300000Y-128037500D03*
%TO.P,U1,35,SPID/GPIO32*%
%TO.N,/SPI_D*%
X119700000Y-128037500D03*
%TO.P,U1,36,SPICLK_N/GPIO48*%
%TO.N,unconnected-(U1-Pad36)*%
X120100000Y-128037500D03*
%TO.P,U1,37,SPICLK_P/GPIO47*%
%TO.N,unconnected-(U1-Pad37)*%
X120500000Y-128037500D03*
%TO.P,U1,38,GPIO33*%
%TO.N,unconnected-(U1-Pad38)*%
X120900000Y-128037500D03*
%TO.P,U1,39,GPIO34*%
%TO.N,/I2C_SCL*%
X121300000Y-128037500D03*
%TO.P,U1,40,GPIO35*%
%TO.N,/I2C_SDA*%
X121700000Y-128037500D03*
%TO.P,U1,41,GPIO36*%
%TO.N,unconnected-(U1-Pad41)*%
X122100000Y-128037500D03*
%TO.P,U1,42,GPIO37*%
%TO.N,unconnected-(U1-Pad42)*%
X122500000Y-128037500D03*
D48*
%TO.P,U1,43,GPIO38*%
%TO.N,unconnected-(U1-Pad43)*%
X123337500Y-127200000D03*
%TO.P,U1,44,MTCK/JTAG/GPIO39*%
%TO.N,unconnected-(U1-Pad44)*%
X123337500Y-126800000D03*
%TO.P,U1,45,MTDO/JTAG/GPIO40*%
%TO.N,unconnected-(U1-Pad45)*%
X123337500Y-126400000D03*
%TO.P,U1,46,VDD3P3_CPU*%
%TO.N,+3V3*%
X123337500Y-126000000D03*
%TO.P,U1,47,MTDI/JTAG/GPIO41*%
%TO.N,unconnected-(U1-Pad47)*%
X123337500Y-125600000D03*
%TO.P,U1,48,MTMS/JTAG/GPIO42*%
%TO.N,unconnected-(U1-Pad48)*%
X123337500Y-125200000D03*
%TO.P,U1,49,U0TXD/PROG/GPIO43*%
%TO.N,/UART_RX*%
X123337500Y-124800000D03*
%TO.P,U1,50,U0RXD/PROG/GPIO44*%
%TO.N,/UART_TX*%
X123337500Y-124400000D03*
%TO.P,U1,51,GPIO45*%
%TO.N,unconnected-(U1-Pad51)*%
X123337500Y-124000000D03*
%TO.P,U1,52,GPIO46*%
%TO.N,unconnected-(U1-Pad52)*%
X123337500Y-123600000D03*
%TO.P,U1,53,XTAL_N*%
%TO.N,/XTAL_N*%
X123337500Y-123200000D03*
%TO.P,U1,54,XTAL_P*%
%TO.N,/XTAL_P*%
X123337500Y-122800000D03*
%TO.P,U1,55,VDDA*%
%TO.N,+3V3*%
X123337500Y-122400000D03*
%TO.P,U1,56,VDDA*%
X123337500Y-122000000D03*
D49*
%TO.P,U1,57,GND*%
%TO.N,GND*%
X119900000Y-124600000D03*
%TD*%
D50*
%TO.N,GND*%
X123400000Y-115800000D03*
X117100000Y-115900000D03*
X102300000Y-116500000D03*
D51*
X116700000Y-113200000D03*
D50*
X130900000Y-126900000D03*
X104900000Y-126000000D03*
X121100000Y-133900000D03*
X105900000Y-107900000D03*
X100300000Y-115600000D03*
X119900000Y-124600000D03*
X103300000Y-128700000D03*
X131500000Y-118100000D03*
X103100000Y-123200000D03*
D51*
X132000000Y-108000000D03*
D50*
X108100000Y-111200000D03*
X111500000Y-121400000D03*
X106800000Y-111200000D03*
D51*
X106000000Y-144900000D03*
D50*
X110106233Y-123606233D03*
X118500000Y-133900000D03*
X120400000Y-129300000D03*
X114200000Y-136200000D03*
X101200000Y-116500000D03*
X129100000Y-122100000D03*
D51*
X116700000Y-112100000D03*
D50*
X121100000Y-136500000D03*
X118800000Y-125800000D03*
X121000000Y-123400000D03*
X127600000Y-134400000D03*
X108900000Y-126399503D03*
X132500000Y-119600000D03*
X121000000Y-125800000D03*
D51*
X140600000Y-137000000D03*
X126600000Y-112800000D03*
D50*
X105200000Y-141500000D03*
D51*
X130200000Y-146200000D03*
D50*
X118500000Y-136500000D03*
X102300000Y-129600000D03*
X108400000Y-107900000D03*
X124600000Y-141200000D03*
X121900000Y-115800000D03*
X113700000Y-133100000D03*
X127500000Y-136100000D03*
X116200000Y-142000000D03*
X105900000Y-140300000D03*
X123800000Y-142000000D03*
X105200000Y-122200000D03*
D51*
X119800000Y-135200000D03*
D50*
X118800000Y-123400000D03*
D51*
X129500000Y-145000000D03*
D50*
X107500000Y-111900000D03*
X119100000Y-138600000D03*
D51*
X134400000Y-107900000D03*
X140300000Y-131300000D03*
D50*
X135900000Y-118200000D03*
X116100000Y-133100000D03*
X101400000Y-128600000D03*
X129100000Y-120400000D03*
X115400000Y-128000000D03*
X102000000Y-123200000D03*
X128400000Y-126800000D03*
D51*
X106800000Y-146100000D03*
D50*
X100300000Y-116500000D03*
X123900000Y-129300000D03*
X114800000Y-120400000D03*
D51*
X125800000Y-111600000D03*
D50*
X99400000Y-116500000D03*
%TO.N,+3V3*%
X123800000Y-138900000D03*
X121800000Y-118900000D03*
X122800000Y-118900000D03*
X134700000Y-111700000D03*
X127500000Y-132900000D03*
X101700000Y-125600000D03*
D51*
X113452973Y-123821620D03*
X134800000Y-125500000D03*
X99000000Y-113100000D03*
D50*
X122000000Y-141100000D03*
X101395000Y-131795000D03*
X116300000Y-128300000D03*
X103500000Y-108800000D03*
X105100000Y-124200000D03*
X100900000Y-121600000D03*
X126000000Y-122000000D03*
X117900000Y-141200000D03*
D51*
X137400000Y-139800000D03*
X99000000Y-112300000D03*
X138300000Y-140800000D03*
D50*
X125900000Y-126000000D03*
D51*
%TO.N,+5V*%
X106400000Y-117600000D03*
X104200000Y-117550500D03*
D50*
%TO.N,/WS2812B*%
X131500000Y-136000000D03*
X119725500Y-118100000D03*
X110000000Y-141918267D03*
X133900000Y-136000000D03*
X117000000Y-118100000D03*
X107200000Y-142200000D03*
D51*
%TO.N,/VBUS*%
X122400000Y-142800000D03*
X117600000Y-142800000D03*
D50*
%TO.N,/USB_D+*%
X120900000Y-145300000D03*
X119700011Y-145300000D03*
%TO.N,/I2C_SDA*%
X123000000Y-131700000D03*
X123000000Y-129325500D03*
%TO.N,/I2C_SCL*%
X121500000Y-131673540D03*
X121300000Y-129300000D03*
%TO.N,/~{RST}*%
X113725500Y-134000000D03*
X115574500Y-133800000D03*
%TO.N,/RESET*%
X120874500Y-118700000D03*
X109100000Y-122700000D03*
X108900000Y-128400000D03*
X108800000Y-132800000D03*
%TO.N,/BOOT*%
X113900000Y-116800000D03*
X107598945Y-127850989D03*
X120000000Y-116800000D03*
X107993483Y-133518983D03*
X108100000Y-123000000D03*
X108000000Y-116700000D03*
X111000000Y-116600000D03*
X117125500Y-116800000D03*
%TO.N,/USER_BTN*%
X107000000Y-141400000D03*
X117000000Y-119500000D03*
X118900000Y-139600000D03*
X121000000Y-139600000D03*
X109356233Y-141343767D03*
X119525500Y-119556233D03*
%TO.N,/SPI2_CS*%
X114856233Y-121243767D03*
X112400000Y-121300000D03*
%TO.N,/GYRO_INT*%
X106700000Y-125600000D03*
X108900000Y-125600000D03*
D51*
%TO.N,/SPI_WP*%
X106700000Y-131900000D03*
X106700000Y-129100000D03*
D50*
%TO.N,/UART_RX*%
X114200000Y-135300000D03*
X115800000Y-135125500D03*
%TO.N,/UART1_TX*%
X113000000Y-131574500D03*
X113300000Y-128425500D03*
%TO.N,/UART1_RX*%
X114300000Y-131700000D03*
X114500000Y-128000000D03*
D51*
%TO.N,/VIN*%
X104900000Y-143900000D03*
X112100000Y-143900000D03*
%TD*%
D52*
%TO.N,GND*%
X103145000Y-122600000D02*
X102545000Y-123200000D01*
D53*
X132550000Y-120475000D02*
X132475000Y-120400000D01*
D52*
X104090000Y-122200000D02*
X104700000Y-122200000D01*
D53*
X123400000Y-116525000D02*
X123400000Y-115800000D01*
D54*
X106025000Y-144875000D02*
X106000000Y-144900000D01*
D52*
X111025000Y-123500000D02*
X110212466Y-123500000D01*
D53*
X132550000Y-122100000D02*
X132550000Y-120475000D01*
D52*
X103145000Y-123800000D02*
X102545000Y-123200000D01*
D53*
X128375000Y-126000000D02*
X128375000Y-126775000D01*
D52*
X102300000Y-129600000D02*
X101470000Y-129600000D01*
D53*
X140600000Y-135950000D02*
X140600000Y-137000000D01*
X105200000Y-122200000D02*
X104700000Y-122200000D01*
D52*
X101400000Y-127995000D02*
X101445000Y-127950000D01*
D53*
X116200000Y-141225000D02*
X116200000Y-142000000D01*
X131925000Y-107925000D02*
X132000000Y-108000000D01*
D52*
X101470000Y-129600000D02*
X101445000Y-129625000D01*
D53*
X131125000Y-107925000D02*
X131925000Y-107925000D01*
X105400000Y-122400000D02*
X105200000Y-122200000D01*
X121900000Y-116525000D02*
X121900000Y-115800000D01*
D54*
X126530000Y-112870000D02*
X126600000Y-112800000D01*
D55*
X123800000Y-141175000D02*
X123800000Y-142000000D01*
D53*
X129100000Y-120400000D02*
X128375000Y-120400000D01*
X105205000Y-140300000D02*
X105900000Y-140300000D01*
X132500000Y-119600000D02*
X132475000Y-119625000D01*
X116260000Y-143890000D02*
X115680000Y-144470000D01*
X135900000Y-118200000D02*
X135900000Y-117275000D01*
X140287500Y-130187500D02*
X140300000Y-130200000D01*
D55*
X123800000Y-141175000D02*
X124575000Y-141175000D01*
X124575000Y-141175000D02*
X124600000Y-141200000D01*
D54*
X125800000Y-112870000D02*
X126530000Y-112870000D01*
D53*
X126800000Y-134500000D02*
X127500000Y-134500000D01*
X128375000Y-122100000D02*
X129100000Y-122100000D01*
D52*
X103145000Y-121655000D02*
X103145000Y-122600000D01*
X110212466Y-123500000D02*
X110106233Y-123606233D01*
X119300000Y-138400000D02*
X119100000Y-138600000D01*
D54*
X125800000Y-112870000D02*
X125800000Y-111600000D01*
D56*
X131500000Y-117375000D02*
X131500000Y-118100000D01*
D53*
X123740000Y-143890000D02*
X124320000Y-144470000D01*
X132475000Y-119625000D02*
X132475000Y-120400000D01*
X134425000Y-107925000D02*
X134400000Y-107900000D01*
X140287500Y-125500000D02*
X140287500Y-130187500D01*
X130925000Y-126000000D02*
X130925000Y-126875000D01*
X116800000Y-143890000D02*
X116260000Y-143890000D01*
X123200000Y-143890000D02*
X123740000Y-143890000D01*
D52*
X101400000Y-128600000D02*
X101400000Y-127995000D01*
D53*
X126800000Y-136100000D02*
X127500000Y-136100000D01*
D52*
X108425000Y-107925000D02*
X108400000Y-107900000D01*
D53*
X127500000Y-134500000D02*
X127600000Y-134400000D01*
D52*
X103145000Y-124745000D02*
X103145000Y-123800000D01*
D53*
X130925000Y-126000000D02*
X130925000Y-124375000D01*
D54*
X106800000Y-144875000D02*
X106800000Y-146100000D01*
D53*
X105945000Y-122525000D02*
X105820000Y-122400000D01*
D52*
X119300000Y-137650000D02*
X119300000Y-138400000D01*
X103345000Y-128655000D02*
X103300000Y-128700000D01*
X109175000Y-107925000D02*
X108425000Y-107925000D01*
D54*
X129525000Y-144975000D02*
X129500000Y-145000000D01*
X106800000Y-144875000D02*
X106025000Y-144875000D01*
D53*
X105205000Y-141495000D02*
X105200000Y-141500000D01*
X130925000Y-124375000D02*
X130850000Y-124300000D01*
D52*
X105025000Y-107925000D02*
X105875000Y-107925000D01*
D53*
X140300000Y-130200000D02*
X140300000Y-131300000D01*
X105820000Y-122400000D02*
X105400000Y-122400000D01*
X128375000Y-126775000D02*
X128400000Y-126800000D01*
D52*
X105875000Y-107925000D02*
X105900000Y-107900000D01*
D53*
X135275000Y-107925000D02*
X134425000Y-107925000D01*
X105205000Y-140300000D02*
X105205000Y-141495000D01*
D52*
X103345000Y-127950000D02*
X103345000Y-128655000D01*
D53*
X130925000Y-126875000D02*
X130900000Y-126900000D01*
D54*
X130200000Y-144975000D02*
X129525000Y-144975000D01*
X130200000Y-144975000D02*
X130200000Y-146200000D01*
D53*
%TO.N,+3V3*%
X126100000Y-122100000D02*
X126000000Y-122000000D01*
D52*
X124000000Y-122400000D02*
X123337500Y-122400000D01*
X134025000Y-111700000D02*
X134700000Y-111700000D01*
D55*
X123600000Y-138700000D02*
X121100000Y-138700000D01*
D53*
X113131353Y-123500000D02*
X113452973Y-123821620D01*
D52*
X124100000Y-122300000D02*
X124000000Y-122400000D01*
D53*
X101445000Y-125855000D02*
X101700000Y-125600000D01*
X121800000Y-118900000D02*
X121900000Y-118800000D01*
D52*
X101945000Y-125355000D02*
X101945000Y-124745000D01*
X101900000Y-125400000D02*
X101945000Y-125355000D01*
X121700000Y-119000000D02*
X121700000Y-121162500D01*
D55*
X122075000Y-141775000D02*
X122075000Y-141175000D01*
D52*
X123337500Y-122000000D02*
X124100000Y-122000000D01*
X122800000Y-118900000D02*
X122100000Y-119600000D01*
D53*
X101445000Y-131745000D02*
X101395000Y-131795000D01*
D52*
X117300000Y-128400000D02*
X117200000Y-128500000D01*
D53*
X121900000Y-118800000D02*
X121900000Y-118075000D01*
X101700000Y-125600000D02*
X101900000Y-125400000D01*
D52*
X104700000Y-124200000D02*
X104090000Y-124200000D01*
D53*
X101445000Y-131175000D02*
X101445000Y-131745000D01*
D52*
X100900000Y-122100000D02*
X101000000Y-122200000D01*
D55*
X116462500Y-124000000D02*
X113600000Y-124000000D01*
D53*
X123400000Y-118300000D02*
X123400000Y-118075000D01*
D52*
X117200000Y-128500000D02*
X116500000Y-128500000D01*
X116500000Y-128500000D02*
X116300000Y-128300000D01*
X122100000Y-119600000D02*
X122100000Y-121162500D01*
D53*
X101445000Y-126400000D02*
X101445000Y-125855000D01*
X137400000Y-140850000D02*
X138250000Y-140850000D01*
D52*
X100900000Y-121600000D02*
X100900000Y-122100000D01*
X117300000Y-128037500D02*
X117300000Y-128400000D01*
D53*
X105225000Y-124075000D02*
X105100000Y-124200000D01*
X138250000Y-140850000D02*
X138300000Y-140800000D01*
X101395000Y-133100000D02*
X101395000Y-131795000D01*
X105945000Y-124075000D02*
X105225000Y-124075000D01*
X122800000Y-118900000D02*
X123400000Y-118300000D01*
D55*
X113100000Y-123500000D02*
X113500000Y-123900000D01*
X112575000Y-123500000D02*
X113100000Y-123500000D01*
X120800000Y-138400000D02*
X120800000Y-137650000D01*
D53*
X135575000Y-125500000D02*
X134800000Y-125500000D01*
D52*
X121800000Y-118900000D02*
X121700000Y-119000000D01*
D53*
X137400000Y-140850000D02*
X137400000Y-139800000D01*
X117925000Y-141775000D02*
X117925000Y-141225000D01*
D55*
X121100000Y-138700000D02*
X120800000Y-138400000D01*
D53*
X117925000Y-141225000D02*
X117900000Y-141200000D01*
X124100000Y-122000000D02*
X126000000Y-122000000D01*
D55*
X113600000Y-124000000D02*
X113500000Y-123900000D01*
X123800000Y-138900000D02*
X123600000Y-138700000D01*
X123800000Y-139625000D02*
X123800000Y-138900000D01*
D53*
X126825000Y-122100000D02*
X126100000Y-122100000D01*
X126825000Y-120400000D02*
X126825000Y-122100000D01*
D55*
X122075000Y-141175000D02*
X122000000Y-141100000D01*
D52*
X124100000Y-122000000D02*
X124100000Y-122300000D01*
D53*
X105100000Y-124200000D02*
X104700000Y-124200000D01*
D52*
X103500000Y-108175000D02*
X103500000Y-108800000D01*
D55*
X126825000Y-126000000D02*
X125900000Y-126000000D01*
D53*
X112575000Y-123500000D02*
X113131353Y-123500000D01*
D55*
X123337500Y-126000000D02*
X125900000Y-126000000D01*
D53*
X126850000Y-132900000D02*
X127500000Y-132900000D01*
D52*
%TO.N,/XTAL_P*%
X126000000Y-123100000D02*
X129000000Y-123100000D01*
X129000000Y-123100000D02*
X130000000Y-122100000D01*
X130925000Y-120400000D02*
X130850000Y-120475000D01*
X125700000Y-122800000D02*
X126000000Y-123100000D01*
X130000000Y-122100000D02*
X130850000Y-122100000D01*
X123337500Y-122800000D02*
X125700000Y-122800000D01*
X130850000Y-120475000D02*
X130850000Y-122100000D01*
%TO.N,/XTAL_N*%
X132550000Y-123550000D02*
X132550000Y-124300000D01*
X132200000Y-123200000D02*
X132550000Y-123550000D01*
X124000000Y-123200000D02*
X124400000Y-123600000D01*
X123337500Y-123200000D02*
X124000000Y-123200000D01*
X132550000Y-124300000D02*
X132550000Y-125925000D01*
X124400000Y-123600000D02*
X129600000Y-123600000D01*
X132550000Y-125925000D02*
X132475000Y-126000000D01*
X130000000Y-123200000D02*
X132200000Y-123200000D01*
X129600000Y-123600000D02*
X130000000Y-123200000D01*
D56*
%TO.N,Net-(C10-Pad1)*%
X134525000Y-115800000D02*
X135825000Y-115800000D01*
X135925000Y-115750000D02*
X139500000Y-115750000D01*
X135900000Y-115725000D02*
X135925000Y-115750000D01*
X135825000Y-115800000D02*
X135900000Y-115725000D01*
%TO.N,/LNA_IN{slash}RF*%
X131525000Y-115800000D02*
X131500000Y-115825000D01*
X131475000Y-115800000D02*
X126000000Y-115800000D01*
X125300000Y-116500000D02*
X125300000Y-119100000D01*
X122519520Y-120500000D02*
X122519520Y-120500000D01*
D55*
X122500000Y-121162500D02*
X122500000Y-120500000D01*
D56*
X132875000Y-115800000D02*
X131525000Y-115800000D01*
X131500000Y-115825000D02*
X131475000Y-115800000D01*
X124600000Y-119800000D02*
X123219520Y-119800000D01*
X125300000Y-116500000D02*
G75*
G02*
X126000000Y-115800000I699999J1D01*
G01*
X124600000Y-119800000D02*
G75*
G03*
X125300000Y-119100000I1J699999D01*
G01*
X122519520Y-120500000D02*
G75*
G02*
X123219520Y-119800000I699999J1D01*
G01*
D55*
%TO.N,/VUSB*%
X123900000Y-136100000D02*
X123300000Y-136700000D01*
X123300000Y-136700000D02*
X122800000Y-136700000D01*
X123300000Y-138100000D02*
X123100000Y-138300000D01*
D52*
X122250000Y-136700000D02*
X122800000Y-136700000D01*
D53*
X125250000Y-136100000D02*
X125150000Y-136000000D01*
X128350000Y-137250000D02*
X129000000Y-137250000D01*
D55*
X121500000Y-138300000D02*
X121300000Y-138100000D01*
D53*
X126800000Y-137962500D02*
X127637500Y-137962500D01*
D55*
X121300000Y-138100000D02*
X121300000Y-137650000D01*
D53*
X127637500Y-137962500D02*
X128350000Y-137250000D01*
X126800000Y-137962500D02*
X125662500Y-137962500D01*
D55*
X123100000Y-138300000D02*
X121500000Y-138300000D01*
X123300000Y-136700000D02*
X123300000Y-138100000D01*
D53*
X125250000Y-137550000D02*
X125250000Y-136100000D01*
D57*
X125250000Y-134500000D02*
X125250000Y-136100000D01*
D53*
X125662500Y-137962500D02*
X125250000Y-137550000D01*
D55*
X125250000Y-136100000D02*
X123900000Y-136100000D01*
D54*
%TO.N,+5V*%
X107800000Y-147200000D02*
X103500000Y-147200000D01*
X124800000Y-112870000D02*
X124800000Y-111000000D01*
X103500000Y-147200000D02*
X98600000Y-142300000D01*
X99949500Y-117550500D02*
X104200000Y-117550500D01*
X106400000Y-117600000D02*
X111700000Y-117600000D01*
X112600000Y-116700000D02*
X112600000Y-112870000D01*
X107800000Y-149300000D02*
X107800000Y-147200000D01*
X124800000Y-111000000D02*
X124500000Y-110700000D01*
X112600000Y-112870000D02*
X114800000Y-112870000D01*
X124500000Y-110700000D02*
X115200000Y-110700000D01*
X130800000Y-150400000D02*
X108900000Y-150400000D01*
X115200000Y-110700000D02*
X114800000Y-111100000D01*
X98600000Y-118900000D02*
X99949500Y-117550500D01*
X98600000Y-142300000D02*
X98600000Y-118900000D01*
X108900000Y-150400000D02*
X107800000Y-149300000D01*
X107800000Y-147200000D02*
X107800000Y-144875000D01*
X131200000Y-144975000D02*
X131200000Y-150000000D01*
X131200000Y-150000000D02*
X130800000Y-150400000D01*
X114800000Y-111100000D02*
X114800000Y-112870000D01*
X111700000Y-117600000D02*
X112600000Y-116700000D01*
D52*
%TO.N,/REGOUT*%
X102745000Y-125545000D02*
X103345000Y-126145000D01*
X102745000Y-124745000D02*
X102745000Y-125545000D01*
X103345000Y-126145000D02*
X103345000Y-126400000D01*
D53*
%TO.N,Net-(D1-Pad2)*%
X138712500Y-127900000D02*
X137225000Y-127900000D01*
%TO.N,Net-(D2-Pad2)*%
X138725000Y-130200000D02*
X137225000Y-130200000D01*
D52*
%TO.N,/WS2812B*%
X131100000Y-143500000D02*
X131500000Y-143100000D01*
X111300000Y-143218267D02*
X111300000Y-146000000D01*
X101105704Y-142500000D02*
X99850481Y-141244777D01*
X106900000Y-142500000D02*
X101105704Y-142500000D01*
X127700000Y-147400000D02*
X128500000Y-146600000D01*
X111300000Y-146000000D02*
X112700000Y-147400000D01*
X128500000Y-144500000D02*
X129500000Y-143500000D01*
X119725500Y-118925500D02*
X120100000Y-119300000D01*
X119725500Y-118100000D02*
X119725500Y-118925500D01*
X120100000Y-119300000D02*
X120100000Y-121162500D01*
X99850480Y-120449520D02*
X101200000Y-119100000D01*
X128500000Y-146600000D02*
X128500000Y-144500000D01*
X113400000Y-118100000D02*
X117000000Y-118100000D01*
X110000000Y-141918267D02*
X111300000Y-143218267D01*
X129500000Y-143500000D02*
X131100000Y-143500000D01*
X112700000Y-147400000D02*
X127700000Y-147400000D01*
X101200000Y-119100000D02*
X112400000Y-119100000D01*
X99850481Y-141244777D02*
X99850480Y-120449520D01*
D53*
X133950000Y-135950000D02*
X133900000Y-136000000D01*
D52*
X107200000Y-142200000D02*
X106900000Y-142500000D01*
X131500000Y-143100000D02*
X131500000Y-136000000D01*
D53*
X137400000Y-135950000D02*
X133950000Y-135950000D01*
D52*
X112400000Y-119100000D02*
X113400000Y-118100000D01*
D53*
%TO.N,/VBUS*%
X122400000Y-142800000D02*
X125900000Y-142800000D01*
X126800000Y-141900000D02*
X126800000Y-139837500D01*
X125900000Y-142800000D02*
X126800000Y-141900000D01*
X117600000Y-143890000D02*
X117600000Y-142800000D01*
X122400000Y-142800000D02*
X122400000Y-143890000D01*
D55*
%TO.N,/USB_D-*%
X120250000Y-143890000D02*
X120250000Y-144450000D01*
X119100000Y-144769511D02*
X119250000Y-144619511D01*
X120300000Y-145547838D02*
X119948327Y-145899511D01*
X119100000Y-145600000D02*
X119100000Y-144769511D01*
X120250000Y-143890000D02*
X120300000Y-143840000D01*
X120300000Y-144500000D02*
X120300000Y-145547838D01*
X119948327Y-145899511D02*
X119399511Y-145899511D01*
X120300000Y-143840000D02*
X120300000Y-137650000D01*
X119399511Y-145899511D02*
X119100000Y-145600000D01*
X119250000Y-144619511D02*
X119250000Y-143890000D01*
X120250000Y-144450000D02*
X120300000Y-144500000D01*
%TO.N,/USB_D+*%
X120750000Y-145150000D02*
X120750000Y-143890000D01*
X120900000Y-145300000D02*
X120750000Y-145150000D01*
X119700011Y-145300000D02*
X119750000Y-145250011D01*
X119800000Y-137650000D02*
X119800000Y-143840000D01*
X119750000Y-145250011D02*
X119750000Y-143890000D01*
X119800000Y-143840000D02*
X119750000Y-143890000D01*
D52*
%TO.N,/S1_OUT*%
X123800000Y-114400000D02*
X123800000Y-112870000D01*
X118900000Y-121162500D02*
X118900000Y-115700000D01*
X118900000Y-115700000D02*
X119800000Y-114800000D01*
X123400000Y-114800000D02*
X123800000Y-114400000D01*
X119800000Y-114800000D02*
X123400000Y-114800000D01*
%TO.N,/S2_OUT*%
X119449520Y-114450480D02*
X118500000Y-115400000D01*
X122800000Y-114200000D02*
X122549520Y-114450480D01*
X118500000Y-115400000D02*
X118500000Y-121162500D01*
X122800000Y-112870000D02*
X122800000Y-114200000D01*
X122549520Y-114450480D02*
X119449520Y-114450480D01*
%TO.N,/S3_OUT*%
X119100000Y-114100000D02*
X121600000Y-114100000D01*
X121800000Y-113900000D02*
X121800000Y-112870000D01*
X121600000Y-114100000D02*
X121800000Y-113900000D01*
X118100000Y-115100000D02*
X119100000Y-114100000D01*
X118100000Y-121162500D02*
X118100000Y-115100000D01*
%TO.N,/S4_OUT*%
X118730000Y-112870000D02*
X117700000Y-113900000D01*
X120800000Y-112870000D02*
X118730000Y-112870000D01*
X117700000Y-113900000D02*
X117700000Y-121162500D01*
%TO.N,/I2C_SDA*%
X130200000Y-131500000D02*
X133200000Y-134500000D01*
X123000000Y-129325500D02*
X122325500Y-129325500D01*
X122325500Y-129325500D02*
X121700000Y-128700000D01*
X133200000Y-134500000D02*
X133200000Y-144975000D01*
X121700000Y-128700000D02*
X121700000Y-128037500D01*
X123000000Y-131700000D02*
X123200000Y-131500000D01*
X123200000Y-131500000D02*
X130200000Y-131500000D01*
%TO.N,/I2C_SCL*%
X124100000Y-131900000D02*
X129900000Y-131900000D01*
X121500000Y-131800000D02*
X122100000Y-132400000D01*
X132200000Y-134200000D02*
X132200000Y-144975000D01*
X129900000Y-131900000D02*
X132200000Y-134200000D01*
X123600000Y-132400000D02*
X124100000Y-131900000D01*
X122100000Y-132400000D02*
X123600000Y-132400000D01*
X121500000Y-131673540D02*
X121500000Y-131800000D01*
X121300000Y-128037500D02*
X121300000Y-129300000D01*
%TO.N,Net-(Q1-Pad1)*%
X110875000Y-135950000D02*
X112500000Y-137575000D01*
X110637500Y-135950000D02*
X110875000Y-135950000D01*
%TO.N,/~{RST}*%
X113725500Y-134000000D02*
X112675000Y-134000000D01*
X112375000Y-134050000D02*
X112500000Y-134175000D01*
X112675000Y-134000000D02*
X112500000Y-134175000D01*
X115574500Y-133800000D02*
X116474500Y-134700000D01*
X116474500Y-134700000D02*
X117350000Y-134700000D01*
X110637500Y-134050000D02*
X112375000Y-134050000D01*
%TO.N,/RESET*%
X120874500Y-118874500D02*
X120874500Y-115425500D01*
X109100000Y-123000000D02*
X109100000Y-122700000D01*
X121300000Y-121162500D02*
X121300000Y-119300000D01*
X121300000Y-119300000D02*
X120874500Y-118874500D01*
X120874500Y-115425500D02*
X121100000Y-115200000D01*
X131125000Y-110075000D02*
X132375000Y-110075000D01*
X125800000Y-115200000D02*
X129300000Y-111700000D01*
X121100000Y-115200000D02*
X125800000Y-115200000D01*
X132375000Y-110075000D02*
X135250000Y-110075000D01*
X108900000Y-128400000D02*
X108300000Y-127800000D01*
X108300000Y-127800000D02*
X108300000Y-123800000D01*
X108300000Y-123800000D02*
X109100000Y-123000000D01*
X108762500Y-132837500D02*
X108800000Y-132800000D01*
X132375000Y-111700000D02*
X132375000Y-110075000D01*
X129300000Y-111700000D02*
X132375000Y-111700000D01*
X108762500Y-135000000D02*
X108762500Y-132837500D01*
%TO.N,Net-(Q2-Pad1)*%
X110637500Y-138837500D02*
X109500000Y-137700000D01*
X111875000Y-135200000D02*
X112500000Y-135825000D01*
X110000000Y-135200000D02*
X111875000Y-135200000D01*
X110637500Y-139350000D02*
X110637500Y-138837500D01*
X109500000Y-137700000D02*
X109500000Y-135700000D01*
X109500000Y-135700000D02*
X110000000Y-135200000D01*
%TO.N,/~{DTR}*%
X110650000Y-137450000D02*
X112425000Y-139225000D01*
X117350000Y-136700000D02*
X115900000Y-136700000D01*
X113375000Y-139225000D02*
X112500000Y-139225000D01*
X112425000Y-139225000D02*
X112500000Y-139225000D01*
X110637500Y-137450000D02*
X110650000Y-137450000D01*
X115900000Y-136700000D02*
X113375000Y-139225000D01*
%TO.N,/BOOT*%
X109000000Y-110225000D02*
X109000000Y-113100000D01*
X107598945Y-127850989D02*
X107900000Y-127549934D01*
X111000000Y-113900000D02*
X111000000Y-116600000D01*
X109300000Y-113400000D02*
X110500000Y-113400000D01*
X110900000Y-116700000D02*
X111000000Y-116600000D01*
X107750480Y-137387980D02*
X108762500Y-138400000D01*
X109000000Y-113100000D02*
X109300000Y-113400000D01*
X120300000Y-117100000D02*
X120000000Y-116800000D01*
X110500000Y-113400000D02*
X111000000Y-113900000D01*
X105025000Y-110075000D02*
X109150000Y-110075000D01*
X108000000Y-116700000D02*
X110900000Y-116700000D01*
X120900000Y-121162500D02*
X120900000Y-119600000D01*
X120900000Y-119600000D02*
X120300000Y-119000000D01*
X107900000Y-123400000D02*
X107900000Y-123200000D01*
X107750480Y-133761986D02*
X107750480Y-137387980D01*
X107900000Y-127549934D02*
X107900000Y-123400000D01*
X120300000Y-119000000D02*
X120300000Y-117100000D01*
X105025000Y-110075000D02*
X103750000Y-110075000D01*
X107993483Y-133518983D02*
X107750480Y-133761986D01*
X103750000Y-110075000D02*
X103500000Y-109825000D01*
X109150000Y-110075000D02*
X109000000Y-110225000D01*
X117125500Y-116800000D02*
X113900000Y-116800000D01*
X107900000Y-123200000D02*
X108100000Y-123000000D01*
%TO.N,/~{RESET}*%
X123700000Y-135700000D02*
X123700000Y-133400000D01*
X123200000Y-136200000D02*
X123700000Y-135700000D01*
X123700000Y-133400000D02*
X124200000Y-132900000D01*
X122250000Y-136200000D02*
X123200000Y-136200000D01*
X124200000Y-132900000D02*
X125200000Y-132900000D01*
%TO.N,/~{TXT}*%
X119300000Y-132750000D02*
X119300000Y-131700000D01*
X129450480Y-130749520D02*
X132300000Y-127900000D01*
X120250480Y-130749520D02*
X129450480Y-130749520D01*
X132300000Y-127900000D02*
X135575000Y-127900000D01*
X119300000Y-131700000D02*
X120250480Y-130749520D01*
%TO.N,/~{RXT}*%
X130600000Y-130200000D02*
X129700960Y-131099040D01*
X129700960Y-131099040D02*
X120600960Y-131099040D01*
X119800000Y-131900000D02*
X119800000Y-132750000D01*
X120600960Y-131099040D02*
X119800000Y-131900000D01*
X135575000Y-130200000D02*
X130600000Y-130200000D01*
%TO.N,/USER_BTN*%
X119700000Y-119730733D02*
X119700000Y-121162500D01*
X106300000Y-142100000D02*
X101200000Y-142100000D01*
X109356233Y-141343767D02*
X112256233Y-141343767D01*
X101200000Y-142100000D02*
X100200000Y-141100000D01*
X119525500Y-119556233D02*
X119700000Y-119730733D01*
X117950000Y-139625000D02*
X116250000Y-139625000D01*
X112256233Y-141343767D02*
X114025000Y-139575000D01*
X107000000Y-141400000D02*
X106300000Y-142100000D01*
D55*
X118875000Y-139625000D02*
X118900000Y-139600000D01*
X121000000Y-139600000D02*
X122050000Y-139600000D01*
X122050000Y-139600000D02*
X122075000Y-139625000D01*
D52*
X116250000Y-139625000D02*
X116200000Y-139575000D01*
X101300000Y-119500000D02*
X117000000Y-119500000D01*
X114025000Y-139575000D02*
X116200000Y-139575000D01*
X100200000Y-120600000D02*
X101300000Y-119500000D01*
X100200000Y-141100000D02*
X100200000Y-120600000D01*
D55*
X117950000Y-139625000D02*
X118875000Y-139625000D01*
D52*
%TO.N,/SPI2_CS*%
X102500000Y-120700000D02*
X111800000Y-120700000D01*
X115612466Y-122000000D02*
X116462500Y-122000000D01*
X114856233Y-121243767D02*
X115612466Y-122000000D01*
X102345000Y-121655000D02*
X102345000Y-120855000D01*
X111800000Y-120700000D02*
X112400000Y-121300000D01*
X102345000Y-120855000D02*
X102500000Y-120700000D01*
%TO.N,/SPI2_MOSI*%
X102100000Y-119900000D02*
X101545000Y-120455000D01*
X116462500Y-122400000D02*
X115200000Y-122400000D01*
X112700000Y-119900000D02*
X102100000Y-119900000D01*
X115200000Y-122400000D02*
X112700000Y-119900000D01*
X101545000Y-120455000D02*
X101545000Y-121655000D01*
%TO.N,/SPI2_CLK*%
X101945000Y-121655000D02*
X101945000Y-120655000D01*
X114900000Y-122800000D02*
X116462500Y-122800000D01*
X102300000Y-120300000D02*
X112400000Y-120300000D01*
X101945000Y-120655000D02*
X102300000Y-120300000D01*
X112400000Y-120300000D02*
X114900000Y-122800000D01*
%TO.N,/SPI2_MISO*%
X107350000Y-122750000D02*
X108000000Y-122100000D01*
X102900000Y-127200000D02*
X106600000Y-127200000D01*
X102345000Y-126645000D02*
X102900000Y-127200000D01*
X114700000Y-123200000D02*
X116462500Y-123200000D01*
X113600000Y-122100000D02*
X114700000Y-123200000D01*
X108000000Y-122100000D02*
X113600000Y-122100000D01*
X102345000Y-124745000D02*
X102345000Y-126645000D01*
X106600000Y-127200000D02*
X107350000Y-126450000D01*
X107350000Y-126450000D02*
X107350000Y-122750000D01*
%TO.N,/GYRO_INT*%
X103800000Y-125300000D02*
X103545000Y-125045000D01*
X113400000Y-122600000D02*
X114400000Y-123600000D01*
X114400000Y-123600000D02*
X116462500Y-123600000D01*
X110300000Y-122600000D02*
X113400000Y-122600000D01*
X108900000Y-125600000D02*
X108900000Y-124000000D01*
X108900000Y-124000000D02*
X110300000Y-122600000D01*
X106400000Y-125300000D02*
X103800000Y-125300000D01*
X106700000Y-125600000D02*
X106400000Y-125300000D01*
X103545000Y-125045000D02*
X103545000Y-124745000D01*
%TO.N,/XTAL_32K_P*%
X113800000Y-124400000D02*
X116462500Y-124400000D01*
X112950000Y-125250000D02*
X113800000Y-124400000D01*
X111800000Y-125250000D02*
X112950000Y-125250000D01*
%TO.N,/XTAL_32K_N*%
X112000000Y-126400000D02*
X112700000Y-126400000D01*
X112700000Y-126400000D02*
X114300000Y-124800000D01*
X114300000Y-124800000D02*
X116462500Y-124800000D01*
X111800000Y-126600000D02*
X112000000Y-126400000D01*
X111800000Y-127750000D02*
X111800000Y-126600000D01*
%TO.N,/SPI_HD*%
X104574511Y-128425489D02*
X102665000Y-130335000D01*
X107825489Y-128425489D02*
X104574511Y-128425489D01*
X117300000Y-129000000D02*
X108400000Y-129000000D01*
X117700000Y-128037500D02*
X117700000Y-128600000D01*
X108400000Y-129000000D02*
X107825489Y-128425489D01*
X117700000Y-128600000D02*
X117300000Y-129000000D01*
X102665000Y-130335000D02*
X102665000Y-133100000D01*
%TO.N,/SPI_WP*%
X106500000Y-132100000D02*
X106500000Y-133700000D01*
X103935000Y-136265000D02*
X103935000Y-140300000D01*
X106700000Y-131900000D02*
X106500000Y-132100000D01*
X117400000Y-129400000D02*
X118100000Y-128700000D01*
X107000000Y-129400000D02*
X117400000Y-129400000D01*
X106700000Y-129100000D02*
X107000000Y-129400000D01*
X118100000Y-128700000D02*
X118100000Y-128037500D01*
X106500000Y-133700000D02*
X103935000Y-136265000D01*
%TO.N,/SPI_CS0*%
X117500000Y-129800000D02*
X104200000Y-129800000D01*
X118500000Y-128037500D02*
X118500000Y-128800000D01*
X103300000Y-130700000D02*
X103300000Y-134300000D01*
X118500000Y-128800000D02*
X117500000Y-129800000D01*
X103300000Y-134300000D02*
X101395000Y-136205000D01*
X101395000Y-136205000D02*
X101395000Y-140300000D01*
X104200000Y-129800000D02*
X103300000Y-130700000D01*
%TO.N,/SPI_CLK*%
X104700000Y-130200000D02*
X103935000Y-130965000D01*
X118900000Y-128894296D02*
X117594296Y-130200000D01*
X118900000Y-128037500D02*
X118900000Y-128894296D01*
X103935000Y-130965000D02*
X103935000Y-133100000D01*
X117594296Y-130200000D02*
X104700000Y-130200000D01*
%TO.N,/SPI_Q*%
X104600000Y-134600000D02*
X102665000Y-136535000D01*
X105250000Y-130600000D02*
X104600000Y-131250000D01*
X119300000Y-128988592D02*
X117688592Y-130600000D01*
X119300000Y-128037500D02*
X119300000Y-128988592D01*
X102665000Y-136535000D02*
X102665000Y-140300000D01*
X117688592Y-130600000D02*
X105250000Y-130600000D01*
X104600000Y-131250000D02*
X104600000Y-134600000D01*
%TO.N,/SPI_D*%
X105205000Y-131595000D02*
X105205000Y-133100000D01*
X117800000Y-131000000D02*
X105800000Y-131000000D01*
X119700000Y-128037500D02*
X119700000Y-129100000D01*
X119700000Y-129100000D02*
X117800000Y-131000000D01*
X105800000Y-131000000D02*
X105205000Y-131595000D01*
%TO.N,/UART_RX*%
X128700000Y-124800000D02*
X123337500Y-124800000D01*
X114300011Y-135199989D02*
X114300011Y-132799989D01*
X128500000Y-129900000D02*
X129500000Y-128900000D01*
X114200000Y-135300000D02*
X114300011Y-135199989D01*
X115874500Y-135200000D02*
X117350000Y-135200000D01*
X119500000Y-129900000D02*
X128500000Y-129900000D01*
X118000000Y-131400000D02*
X119500000Y-129900000D01*
X115800000Y-135125500D02*
X115874500Y-135200000D01*
X129500000Y-125600000D02*
X128700000Y-124800000D01*
X129500000Y-128900000D02*
X129500000Y-125600000D01*
X114300011Y-132799989D02*
X115700000Y-131400000D01*
X115700000Y-131400000D02*
X118000000Y-131400000D01*
%TO.N,/UART_TX*%
X118200000Y-131900000D02*
X119700000Y-130400000D01*
X115400000Y-136000000D02*
X114900000Y-135500000D01*
X128700000Y-130400000D02*
X130000000Y-129100000D01*
X117350000Y-135700000D02*
X116500000Y-135700000D01*
X115900000Y-131900000D02*
X118200000Y-131900000D01*
X114900000Y-135500000D02*
X114900000Y-132900000D01*
X116500000Y-135700000D02*
X116200000Y-136000000D01*
X130000000Y-125400000D02*
X129000000Y-124400000D01*
X130000000Y-129100000D02*
X130000000Y-125400000D01*
X116200000Y-136000000D02*
X115400000Y-136000000D01*
X129000000Y-124400000D02*
X123337500Y-124400000D01*
X114900000Y-132900000D02*
X115900000Y-131900000D01*
X119700000Y-130400000D02*
X128700000Y-130400000D01*
%TO.N,/UART1_TX*%
X113400000Y-128325500D02*
X113400000Y-126400000D01*
X108800000Y-142200000D02*
X108800000Y-144875000D01*
X106900000Y-133000000D02*
X106900000Y-140300000D01*
X106900000Y-140300000D02*
X108800000Y-142200000D01*
X108325500Y-131574500D02*
X106900000Y-133000000D01*
X113000000Y-131574500D02*
X108325500Y-131574500D01*
X113400000Y-126400000D02*
X114600000Y-125200000D01*
X114600000Y-125200000D02*
X116462500Y-125200000D01*
X113300000Y-128425500D02*
X113400000Y-128325500D01*
%TO.N,/UART1_RX*%
X114500000Y-128000000D02*
X114299040Y-127799040D01*
X109800000Y-144875000D02*
X109800000Y-142600000D01*
X113900000Y-132200000D02*
X114300000Y-131800000D01*
X107300000Y-133400000D02*
X108500000Y-132200000D01*
X107300000Y-140100000D02*
X107300000Y-133400000D01*
X114299040Y-126400960D02*
X115100000Y-125600000D01*
X114300000Y-131800000D02*
X114300000Y-131700000D01*
X115100000Y-125600000D02*
X116462500Y-125600000D01*
X114299040Y-127799040D02*
X114299040Y-126400960D01*
X109800000Y-142600000D02*
X107300000Y-140100000D01*
X108500000Y-132200000D02*
X113900000Y-132200000D01*
D54*
%TO.N,/VIN*%
X128600000Y-143300000D02*
X129000000Y-142900000D01*
X105000000Y-118400000D02*
X105400000Y-118000000D01*
X99325961Y-119574039D02*
X100500000Y-118400000D01*
X125800000Y-146500000D02*
X126200000Y-146100000D01*
X112100000Y-143900000D02*
X113500000Y-143900000D01*
X126500000Y-143300000D02*
X128600000Y-143300000D01*
X126200000Y-146100000D02*
X126200000Y-143600000D01*
X113800000Y-144200000D02*
X113800000Y-145900000D01*
X129000000Y-142900000D02*
X129000000Y-140550000D01*
X113800000Y-145900000D02*
X114400000Y-146500000D01*
X114400000Y-146500000D02*
X125800000Y-146500000D01*
X99325961Y-141462040D02*
X99325961Y-119574039D01*
X105400000Y-118000000D02*
X105400000Y-115550000D01*
X100500000Y-118400000D02*
X105000000Y-118400000D01*
X104900000Y-143900000D02*
X101763921Y-143900000D01*
X113500000Y-143900000D02*
X113800000Y-144200000D01*
X126200000Y-143600000D02*
X126500000Y-143300000D01*
X101763921Y-143900000D02*
X99325961Y-141462040D01*
D53*
%TO.N,Net-(D6-Pad2)*%
X138712500Y-125500000D02*
X137225000Y-125500000D01*
%TD*%
%TA.AperFunction,Conductor*%
%TO.N,/VIN*%
G36*
X110015931Y-114020002D02*
G01*
X110036905Y-114036905D01*
X110563095Y-114563095D01*
X110597121Y-114625407D01*
X110600000Y-114652190D01*
X110600000Y-115847810D01*
X110579998Y-115915931D01*
X110563095Y-115936905D01*
X110336905Y-116163095D01*
X110274593Y-116197121D01*
X110247810Y-116200000D01*
X108076118Y-116200000D01*
X108074739Y-116199898D01*
X108074739Y-116199907D01*
X107938649Y-116199075D01*
X107938643Y-116199075D01*
X107931376Y-116199031D01*
X107928894Y-116199740D01*
X107925088Y-116200000D01*
X105026000Y-116200000D01*
X104957879Y-116179998D01*
X104911386Y-116126342D01*
X104900000Y-116074000D01*
X104900000Y-115026000D01*
X104920002Y-114957879D01*
X104973658Y-114911386D01*
X105026000Y-114900000D01*
X105100000Y-114900000D01*
X105100000Y-114552190D01*
X105120002Y-114484069D01*
X105136905Y-114463095D01*
X105563095Y-114036905D01*
X105625407Y-114002879D01*
X105652190Y-114000000D01*
X109947810Y-114000000D01*
X110015931Y-114020002D01*
G37*
%TD.AperFunction*%
%TD*%
%TA.AperFunction,Conductor*%
%TO.N,GND*%
G36*
X100801081Y-114001078D02*
G01*
X100905856Y-114014872D01*
X100937628Y-114023385D01*
X101027569Y-114060640D01*
X101056052Y-114077084D01*
X101139906Y-114141428D01*
X101152288Y-114152288D01*
X101900000Y-114900000D01*
X102340081Y-114900000D01*
X102359793Y-114901551D01*
X102469349Y-114918903D01*
X102506838Y-114931084D01*
X102596724Y-114976883D01*
X102628616Y-115000055D01*
X102699945Y-115071384D01*
X102723117Y-115103276D01*
X102768915Y-115193160D01*
X102781097Y-115230652D01*
X102798449Y-115340208D01*
X102800000Y-115359919D01*
X102800000Y-116491742D01*
X102798922Y-116508188D01*
X102785128Y-116612963D01*
X102776615Y-116644735D01*
X102739361Y-116734674D01*
X102722914Y-116763160D01*
X102663651Y-116840393D01*
X102640393Y-116863651D01*
X102563160Y-116922914D01*
X102534674Y-116939361D01*
X102444735Y-116976615D01*
X102412963Y-116985128D01*
X102308188Y-116998922D01*
X102291742Y-117000000D01*
X99408258Y-117000000D01*
X99391812Y-116998922D01*
X99287037Y-116985128D01*
X99255265Y-116976615D01*
X99165326Y-116939361D01*
X99136840Y-116922914D01*
X99059607Y-116863651D01*
X99036349Y-116840393D01*
X98977086Y-116763160D01*
X98960639Y-116734674D01*
X98923385Y-116644735D01*
X98914872Y-116612963D01*
X98901078Y-116508188D01*
X98900000Y-116491742D01*
X98900000Y-114508258D01*
X98901078Y-114491812D01*
X98914872Y-114387037D01*
X98923385Y-114355265D01*
X98960639Y-114265326D01*
X98977086Y-114236840D01*
X99036349Y-114159607D01*
X99059607Y-114136349D01*
X99136840Y-114077086D01*
X99165326Y-114060639D01*
X99255265Y-114023385D01*
X99287037Y-114014872D01*
X99391812Y-114001078D01*
X99408258Y-114000000D01*
X100784635Y-114000000D01*
X100801081Y-114001078D01*
G37*
%TD.AperFunction*%
%TD*%
%TA.AperFunction,Conductor*%
%TO.N,+5V*%
G36*
X114608188Y-111701078D02*
G01*
X114712963Y-111714872D01*
X114744735Y-111723385D01*
X114834674Y-111760639D01*
X114863160Y-111777086D01*
X114940393Y-111836349D01*
X114963651Y-111859607D01*
X115022914Y-111936840D01*
X115039361Y-111965326D01*
X115076615Y-112055265D01*
X115085128Y-112087037D01*
X115098922Y-112191812D01*
X115100000Y-112208258D01*
X115100000Y-113091742D01*
X115098922Y-113108188D01*
X115085128Y-113212963D01*
X115076615Y-113244735D01*
X115039361Y-113334674D01*
X115022914Y-113363160D01*
X114963651Y-113440393D01*
X114940393Y-113463651D01*
X114863160Y-113522914D01*
X114834674Y-113539361D01*
X114744735Y-113576615D01*
X114712963Y-113585128D01*
X114608188Y-113598922D01*
X114591742Y-113600000D01*
X111815365Y-113600000D01*
X111798919Y-113598922D01*
X111694144Y-113585128D01*
X111662372Y-113576615D01*
X111572431Y-113539360D01*
X111543948Y-113522916D01*
X111460094Y-113458572D01*
X111447712Y-113447712D01*
X110600000Y-112600000D01*
X109859919Y-112600000D01*
X109840208Y-112598449D01*
X109809705Y-112593618D01*
X109730651Y-112581097D01*
X109693162Y-112568916D01*
X109603275Y-112523116D01*
X109571384Y-112499945D01*
X109500055Y-112428616D01*
X109476883Y-112396724D01*
X109431085Y-112306840D01*
X109418903Y-112269348D01*
X109403122Y-112169711D01*
X109403122Y-112130289D01*
X109405338Y-112116297D01*
X109418903Y-112030651D01*
X109431085Y-111993160D01*
X109459782Y-111936840D01*
X109476884Y-111903275D01*
X109500055Y-111871384D01*
X109571384Y-111800055D01*
X109603276Y-111776883D01*
X109693162Y-111731084D01*
X109730651Y-111718903D01*
X109840207Y-111701551D01*
X109859919Y-111700000D01*
X114591742Y-111700000D01*
X114608188Y-111701078D01*
G37*
%TD.AperFunction*%
%TD*%
%TA.AperFunction,Conductor*%
%TO.N,GND*%
G36*
X108108188Y-110901078D02*
G01*
X108212963Y-110914872D01*
X108244735Y-110923385D01*
X108334674Y-110960639D01*
X108363160Y-110977086D01*
X108440393Y-111036349D01*
X108463651Y-111059607D01*
X108522914Y-111136840D01*
X108539361Y-111165326D01*
X108576615Y-111255265D01*
X108585128Y-111287037D01*
X108598922Y-111391812D01*
X108600000Y-111408258D01*
X108600000Y-112691742D01*
X108598922Y-112708188D01*
X108585128Y-112812963D01*
X108576615Y-112844735D01*
X108539361Y-112934674D01*
X108522914Y-112963160D01*
X108463651Y-113040393D01*
X108440393Y-113063651D01*
X108363160Y-113122914D01*
X108334674Y-113139361D01*
X108244735Y-113176615D01*
X108212963Y-113185128D01*
X108108188Y-113198922D01*
X108091742Y-113200000D01*
X106508258Y-113200000D01*
X106491812Y-113198922D01*
X106387037Y-113185128D01*
X106355265Y-113176615D01*
X106265326Y-113139361D01*
X106236840Y-113122914D01*
X106159607Y-113063651D01*
X106136349Y-113040393D01*
X106077086Y-112963160D01*
X106060639Y-112934674D01*
X106023385Y-112844735D01*
X106014872Y-112812963D01*
X106001078Y-112708188D01*
X106000000Y-112691742D01*
X106000000Y-111408258D01*
X106001078Y-111391812D01*
X106014872Y-111287037D01*
X106023385Y-111255265D01*
X106060639Y-111165326D01*
X106077086Y-111136840D01*
X106136349Y-111059607D01*
X106159607Y-111036349D01*
X106236840Y-110977086D01*
X106265326Y-110960639D01*
X106355265Y-110923385D01*
X106387037Y-110914872D01*
X106491812Y-110901078D01*
X106508258Y-110900000D01*
X108091742Y-110900000D01*
X108108188Y-110901078D01*
G37*
%TD.AperFunction*%
%TD*%
%TA.AperFunction,Conductor*%
%TO.N,GND*%
G36*
X116808188Y-111701078D02*
G01*
X116912963Y-111714872D01*
X116944735Y-111723385D01*
X117034674Y-111760639D01*
X117063160Y-111777086D01*
X117140393Y-111836349D01*
X117163651Y-111859607D01*
X117222914Y-111936840D01*
X117239361Y-111965326D01*
X117276615Y-112055265D01*
X117285128Y-112087037D01*
X117298922Y-112191812D01*
X117300000Y-112208258D01*
X117300000Y-113091742D01*
X117298922Y-113108188D01*
X117285128Y-113212963D01*
X117276615Y-113244735D01*
X117239361Y-113334674D01*
X117222914Y-113363160D01*
X117163651Y-113440393D01*
X117140393Y-113463651D01*
X117063160Y-113522914D01*
X117034674Y-113539361D01*
X116944735Y-113576615D01*
X116912963Y-113585128D01*
X116808188Y-113598922D01*
X116791742Y-113600000D01*
X116008258Y-113600000D01*
X115991812Y-113598922D01*
X115887037Y-113585128D01*
X115855265Y-113576615D01*
X115765326Y-113539361D01*
X115736840Y-113522914D01*
X115659607Y-113463651D01*
X115636349Y-113440393D01*
X115577086Y-113363160D01*
X115560639Y-113334674D01*
X115523385Y-113244735D01*
X115514872Y-113212963D01*
X115501078Y-113108188D01*
X115500000Y-113091742D01*
X115500000Y-112208258D01*
X115501078Y-112191812D01*
X115514872Y-112087037D01*
X115523385Y-112055265D01*
X115560639Y-111965326D01*
X115577086Y-111936840D01*
X115636349Y-111859607D01*
X115659607Y-111836349D01*
X115736840Y-111777086D01*
X115765326Y-111760639D01*
X115855265Y-111723385D01*
X115887037Y-111714872D01*
X115991812Y-111701078D01*
X116008258Y-111700000D01*
X116791742Y-111700000D01*
X116808188Y-111701078D01*
G37*
%TD.AperFunction*%
%TD*%
%TA.AperFunction,Conductor*%
%TO.N,+3V3*%
G36*
X104642121Y-111620002D02*
G01*
X104688614Y-111673658D01*
X104700000Y-111726000D01*
X104700000Y-114574000D01*
X104679998Y-114642121D01*
X104626342Y-114688614D01*
X104574000Y-114700000D01*
X104300000Y-114700000D01*
X104300000Y-115974000D01*
X104279998Y-116042121D01*
X104226342Y-116088614D01*
X104174000Y-116100000D01*
X103626000Y-116100000D01*
X103557879Y-116079998D01*
X103511386Y-116026342D01*
X103500000Y-115974000D01*
X103500000Y-114600000D01*
X103226000Y-114600000D01*
X103157879Y-114579998D01*
X103111386Y-114526342D01*
X103100000Y-114474000D01*
X103100000Y-113400000D01*
X98728798Y-113497138D01*
X98660251Y-113478654D01*
X98612578Y-113426045D01*
X98600000Y-113371169D01*
X98600000Y-112026000D01*
X98620002Y-111957879D01*
X98673658Y-111911386D01*
X98726000Y-111900000D01*
X100100000Y-111900000D01*
X100363095Y-111636905D01*
X100425407Y-111602879D01*
X100452190Y-111600000D01*
X104574000Y-111600000D01*
X104642121Y-111620002D01*
G37*
%TD.AperFunction*%
%TD*%
M02*
