M48
; DRILL file {KiCad (6.0.0)} date Sun Nov 20 17:05:29 2022
; FORMAT={-:-/ absolute / metric / decimal}
; #@! TF.CreationDate,2022-11-20T17:05:29+07:00
; #@! TF.GenerationSoftware,Kicad,Pcbnew,(6.0.0)
; #@! TF.FileFunction,Plated,1,4,PTH
FMAT,2
METRIC
; #@! TA.AperFunction,Plated,PTH,ViaDrill
T1C0.300
; #@! TA.AperFunction,Plated,PTH,ViaDrill
T2C0.400
; #@! TA.AperFunction,Plated,PTH,ComponentDrill
T3C0.600
; #@! TA.AperFunction,Plated,PTH,ComponentDrill
T4C3.000
%
G90
G05
T1
X99.4Y-116.5
X100.3Y-115.6
X100.3Y-116.5
X100.9Y-121.6
X101.2Y-116.5
X101.395Y-131.795
X101.4Y-128.6
X101.7Y-125.6
X102.0Y-123.2
X102.3Y-116.5
X102.3Y-129.6
X103.1Y-123.2
X103.3Y-128.7
X103.5Y-108.8
X104.9Y-126.0
X105.1Y-124.2
X105.2Y-122.2
X105.2Y-141.5
X105.9Y-107.9
X105.9Y-140.3
X106.7Y-125.6
X106.8Y-111.2
X107.0Y-141.4
X107.2Y-142.2
X107.5Y-111.9
X107.599Y-127.851
X107.993Y-133.519
X108.0Y-116.7
X108.1Y-111.2
X108.1Y-123.0
X108.4Y-107.9
X108.8Y-132.8
X108.9Y-125.6
X108.9Y-126.4
X108.9Y-128.4
X109.1Y-122.7
X109.356Y-141.344
X110.0Y-141.918
X110.106Y-123.606
X111.0Y-116.6
X111.5Y-121.4
X112.4Y-121.3
X113.0Y-131.575
X113.3Y-128.425
X113.7Y-133.1
X113.725Y-134.0
X113.9Y-116.8
X114.2Y-135.3
X114.2Y-136.2
X114.3Y-131.7
X114.5Y-128.0
X114.8Y-120.4
X114.856Y-121.244
X115.4Y-128.0
X115.575Y-133.8
X115.8Y-135.125
X116.1Y-133.1
X116.2Y-142.0
X116.3Y-128.3
X117.0Y-118.1
X117.0Y-119.5
X117.1Y-115.9
X117.125Y-116.8
X117.9Y-141.2
X118.5Y-133.9
X118.5Y-136.5
X118.8Y-123.4
X118.8Y-125.8
X118.9Y-139.6
X119.1Y-138.6
X119.525Y-119.556
X119.7Y-145.3
X119.725Y-118.1
X119.9Y-124.6
X120.0Y-116.8
X120.4Y-129.3
X120.874Y-118.7
X120.9Y-145.3
X121.0Y-123.4
X121.0Y-125.8
X121.0Y-139.6
X121.1Y-133.9
X121.1Y-136.5
X121.3Y-129.3
X121.5Y-131.674
X121.8Y-118.9
X121.9Y-115.8
X122.0Y-141.1
X122.8Y-118.9
X123.0Y-129.326
X123.0Y-131.7
X123.4Y-115.8
X123.8Y-138.9
X123.8Y-142.0
X123.9Y-129.3
X124.6Y-141.2
X125.9Y-126.0
X126.0Y-122.0
X127.5Y-132.9
X127.5Y-136.1
X127.6Y-134.4
X128.4Y-126.8
X129.1Y-120.4
X129.1Y-122.1
X130.9Y-126.9
X131.5Y-118.1
X131.5Y-136.0
X132.5Y-119.6
X133.9Y-136.0
X134.7Y-111.7
X135.9Y-118.2
T2
X99.0Y-112.3
X99.0Y-113.1
X104.2Y-117.55
X104.9Y-143.9
X106.0Y-144.9
X106.4Y-117.6
X106.7Y-129.1
X106.7Y-131.9
X106.8Y-146.1
X112.1Y-143.9
X113.453Y-123.822
X116.7Y-112.1
X116.7Y-113.2
X117.6Y-142.8
X119.8Y-135.2
X122.4Y-142.8
X125.8Y-111.6
X126.6Y-112.8
X129.5Y-145.0
X130.2Y-146.2
X132.0Y-108.0
X134.4Y-107.9
X134.8Y-125.5
X137.4Y-139.8
X138.3Y-140.8
X140.3Y-131.3
X140.6Y-137.0
T4
X99.5Y-108.5
X99.5Y-149.5
X140.5Y-108.5
X140.5Y-149.5
T3
G00X115.68Y-145.02
M15
G01X115.68Y-143.92
M16
G05
G00X115.68Y-149.04
M15
G01X115.68Y-148.24
M16
G05
G00X124.32Y-145.02
M15
G01X124.32Y-143.92
M16
G05
G00X124.32Y-149.04
M15
G01X124.32Y-148.24
M16
G05
T0
M30
