%TF.GenerationSoftware,KiCad,Pcbnew,(6.0.0)*%
%TF.CreationDate,2022-11-20T17:05:32+07:00*%
%TF.ProjectId,ESP32-S3-MINI,45535033-322d-4533-932d-4d494e492e6b,rev?*%
%TF.SameCoordinates,Original*%
%TF.FileFunction,Copper,L3,Inr*%
%TF.FilePolarity,Positive*%
%FSLAX46Y46*%
G04 Gerber Fmt 4.6, Leading zero omitted, Abs format (unit mm)*
G04 Created by KiCad (PCBNEW (6.0.0)) date 2022-11-20 17:05:32*
%MOMM*%
%LPD*%
G01*
G04 APERTURE LIST*
%TA.AperFunction,ComponentPad*%
%ADD10C,6.000000*%
%TD*%
%TA.AperFunction,ComponentPad*%
%ADD11O,0.900000X1.700000*%
%TD*%
%TA.AperFunction,ComponentPad*%
%ADD12O,0.900000X2.000000*%
%TD*%
%TA.AperFunction,ViaPad*%
%ADD13C,0.600000*%
%TD*%
%TA.AperFunction,ViaPad*%
%ADD14C,0.800000*%
%TD*%
G04 APERTURE END LIST*
D10*
%TO.N,N/C*%
%TO.C,H4*%
X99500000Y-149500000D03*
%TD*%
%TO.N,N/C*%
%TO.C,H2*%
X140500000Y-108500000D03*
%TD*%
%TO.N,N/C*%
%TO.C,H1*%
X99500000Y-108500000D03*
%TD*%
%TO.N,N/C*%
%TO.C,H3*%
X140500000Y-149500000D03*
%TD*%
D11*
%TO.N,GND*%
%TO.C,J1*%
X115680000Y-148640000D03*
D12*
X115680000Y-144470000D03*
D11*
X124320000Y-148640000D03*
D12*
X124320000Y-144470000D03*
%TD*%
D13*
%TO.N,GND*%
X123400000Y-115800000D03*
X117100000Y-115900000D03*
X102300000Y-116500000D03*
D14*
X116700000Y-113200000D03*
D13*
X130900000Y-126900000D03*
X104900000Y-126000000D03*
X121100000Y-133900000D03*
X105900000Y-107900000D03*
X100300000Y-115600000D03*
X119900000Y-124600000D03*
X103300000Y-128700000D03*
X131500000Y-118100000D03*
X103100000Y-123200000D03*
D14*
X132000000Y-108000000D03*
D13*
X108100000Y-111200000D03*
X111500000Y-121400000D03*
X106800000Y-111200000D03*
D14*
X106000000Y-144900000D03*
D13*
X110106233Y-123606233D03*
X118500000Y-133900000D03*
X120400000Y-129300000D03*
X114200000Y-136200000D03*
X101200000Y-116500000D03*
X129100000Y-122100000D03*
D14*
X116700000Y-112100000D03*
D13*
X121100000Y-136500000D03*
X118800000Y-125800000D03*
X121000000Y-123400000D03*
X127600000Y-134400000D03*
X108900000Y-126399503D03*
X132500000Y-119600000D03*
X121000000Y-125800000D03*
D14*
X140600000Y-137000000D03*
X126600000Y-112800000D03*
D13*
X105200000Y-141500000D03*
D14*
X130200000Y-146200000D03*
D13*
X118500000Y-136500000D03*
X102300000Y-129600000D03*
X108400000Y-107900000D03*
X124600000Y-141200000D03*
X121900000Y-115800000D03*
X113700000Y-133100000D03*
X127500000Y-136100000D03*
X116200000Y-142000000D03*
X105900000Y-140300000D03*
X123800000Y-142000000D03*
X105200000Y-122200000D03*
D14*
X119800000Y-135200000D03*
D13*
X118800000Y-123400000D03*
D14*
X129500000Y-145000000D03*
D13*
X107500000Y-111900000D03*
X119100000Y-138600000D03*
D14*
X134400000Y-107900000D03*
X140300000Y-131300000D03*
D13*
X135900000Y-118200000D03*
X116100000Y-133100000D03*
X101400000Y-128600000D03*
X129100000Y-120400000D03*
X115400000Y-128000000D03*
X102000000Y-123200000D03*
X128400000Y-126800000D03*
D14*
X106800000Y-146100000D03*
D13*
X100300000Y-116500000D03*
X123900000Y-129300000D03*
X114800000Y-120400000D03*
D14*
X125800000Y-111600000D03*
D13*
X99400000Y-116500000D03*
%TO.N,+3V3*%
X123800000Y-138900000D03*
X121800000Y-118900000D03*
X122800000Y-118900000D03*
X134700000Y-111700000D03*
X127500000Y-132900000D03*
X101700000Y-125600000D03*
D14*
X113452973Y-123821620D03*
X134800000Y-125500000D03*
X99000000Y-113100000D03*
D13*
X122000000Y-141100000D03*
X101395000Y-131795000D03*
X116300000Y-128300000D03*
X103500000Y-108800000D03*
X105100000Y-124200000D03*
X100900000Y-121600000D03*
X126000000Y-122000000D03*
X117900000Y-141200000D03*
D14*
X137400000Y-139800000D03*
X99000000Y-112300000D03*
X138300000Y-140800000D03*
D13*
X125900000Y-126000000D03*
D14*
%TO.N,+5V*%
X106400000Y-117600000D03*
X104200000Y-117550500D03*
D13*
%TO.N,/WS2812B*%
X131500000Y-136000000D03*
X119725500Y-118100000D03*
X110000000Y-141918267D03*
X133900000Y-136000000D03*
X117000000Y-118100000D03*
X107200000Y-142200000D03*
D14*
%TO.N,/VBUS*%
X122400000Y-142800000D03*
X117600000Y-142800000D03*
D13*
%TO.N,/USB_D+*%
X120900000Y-145300000D03*
X119700011Y-145300000D03*
%TO.N,/I2C_SDA*%
X123000000Y-131700000D03*
X123000000Y-129325500D03*
%TO.N,/I2C_SCL*%
X121500000Y-131673540D03*
X121300000Y-129300000D03*
%TO.N,/~{RST}*%
X113725500Y-134000000D03*
X115574500Y-133800000D03*
%TO.N,/RESET*%
X120874500Y-118700000D03*
X109100000Y-122700000D03*
X108900000Y-128400000D03*
X108800000Y-132800000D03*
%TO.N,/BOOT*%
X113900000Y-116800000D03*
X107598945Y-127850989D03*
X120000000Y-116800000D03*
X107993483Y-133518983D03*
X108100000Y-123000000D03*
X108000000Y-116700000D03*
X111000000Y-116600000D03*
X117125500Y-116800000D03*
%TO.N,/USER_BTN*%
X107000000Y-141400000D03*
X117000000Y-119500000D03*
X118900000Y-139600000D03*
X121000000Y-139600000D03*
X109356233Y-141343767D03*
X119525500Y-119556233D03*
%TO.N,/SPI2_CS*%
X114856233Y-121243767D03*
X112400000Y-121300000D03*
%TO.N,/GYRO_INT*%
X106700000Y-125600000D03*
X108900000Y-125600000D03*
D14*
%TO.N,/SPI_WP*%
X106700000Y-131900000D03*
X106700000Y-129100000D03*
D13*
%TO.N,/UART_RX*%
X114200000Y-135300000D03*
X115800000Y-135125500D03*
%TO.N,/UART1_TX*%
X113000000Y-131574500D03*
X113300000Y-128425500D03*
%TO.N,/UART1_RX*%
X114300000Y-131700000D03*
X114500000Y-128000000D03*
D14*
%TO.N,/VIN*%
X104900000Y-143900000D03*
X112100000Y-143900000D03*
%TD*%
%TA.AperFunction,Conductor*%
%TO.N,+3V3*%
G36*
X102520649Y-106881022D02*
G01*
X102690772Y-106956915D01*
X102818067Y-107000000D01*
X103005219Y-107063345D01*
X103005224Y-107063346D01*
X103007994Y-107064284D01*
X103102001Y-107086605D01*
X103330973Y-107140971D01*
X103330984Y-107140973D01*
X103333835Y-107141650D01*
X103495020Y-107164343D01*
X103662550Y-107187930D01*
X103662556Y-107187931D01*
X103665464Y-107188340D01*
X103668398Y-107188477D01*
X103668399Y-107188477D01*
X103988941Y-107203434D01*
X103993500Y-107203802D01*
X103999284Y-107205142D01*
X104000000Y-107205143D01*
X104008718Y-107203154D01*
X104036733Y-107200000D01*
X105639408Y-107200000D01*
X105707529Y-107220002D01*
X105754022Y-107273658D01*
X105764126Y-107343932D01*
X105734632Y-107408512D01*
X105694854Y-107438049D01*
X105693529Y-107438428D01*
X105572280Y-107514930D01*
X105477377Y-107622388D01*
X105416447Y-107752163D01*
X105394391Y-107893823D01*
X105395555Y-107902725D01*
X105395555Y-107902728D01*
X105396269Y-107908188D01*
X105412980Y-108035979D01*
X105470720Y-108167203D01*
X105476497Y-108174076D01*
X105476498Y-108174077D01*
X105483792Y-108182754D01*
X105562970Y-108276948D01*
X105682313Y-108356390D01*
X105819157Y-108399142D01*
X105828129Y-108399306D01*
X105828132Y-108399307D01*
X105893463Y-108400504D01*
X105962499Y-108401770D01*
X105971533Y-108399307D01*
X106092158Y-108366421D01*
X106092160Y-108366420D01*
X106100817Y-108364060D01*
X106222991Y-108289045D01*
X106319200Y-108182754D01*
X106381710Y-108053733D01*
X106405496Y-107912354D01*
X106405647Y-107900000D01*
X106396426Y-107835609D01*
X106386596Y-107766968D01*
X106386595Y-107766965D01*
X106385323Y-107758082D01*
X106325984Y-107627572D01*
X106294134Y-107590608D01*
X106238260Y-107525763D01*
X106238257Y-107525760D01*
X106232400Y-107518963D01*
X106112095Y-107440985D01*
X106106543Y-107439325D01*
X106054302Y-107393648D01*
X106034603Y-107325439D01*
X106054908Y-107257408D01*
X106108770Y-107211155D01*
X106160602Y-107200000D01*
X108139408Y-107200000D01*
X108207529Y-107220002D01*
X108254022Y-107273658D01*
X108264126Y-107343932D01*
X108234632Y-107408512D01*
X108194854Y-107438049D01*
X108193529Y-107438428D01*
X108072280Y-107514930D01*
X107977377Y-107622388D01*
X107916447Y-107752163D01*
X107894391Y-107893823D01*
X107895555Y-107902725D01*
X107895555Y-107902728D01*
X107896269Y-107908188D01*
X107912980Y-108035979D01*
X107970720Y-108167203D01*
X107976497Y-108174076D01*
X107976498Y-108174077D01*
X107983792Y-108182754D01*
X108062970Y-108276948D01*
X108182313Y-108356390D01*
X108319157Y-108399142D01*
X108328129Y-108399306D01*
X108328132Y-108399307D01*
X108393463Y-108400504D01*
X108462499Y-108401770D01*
X108471533Y-108399307D01*
X108592158Y-108366421D01*
X108592160Y-108366420D01*
X108600817Y-108364060D01*
X108722991Y-108289045D01*
X108819200Y-108182754D01*
X108881710Y-108053733D01*
X108905496Y-107912354D01*
X108905647Y-107900000D01*
X108896426Y-107835609D01*
X108886596Y-107766968D01*
X108886595Y-107766965D01*
X108885323Y-107758082D01*
X108825984Y-107627572D01*
X108794134Y-107590608D01*
X108738260Y-107525763D01*
X108738257Y-107525760D01*
X108732400Y-107518963D01*
X108612095Y-107440985D01*
X108606543Y-107439325D01*
X108554302Y-107393648D01*
X108534603Y-107325439D01*
X108554908Y-107257408D01*
X108608770Y-107211155D01*
X108660602Y-107200000D01*
X131728743Y-107200000D01*
X131796864Y-107220002D01*
X131843357Y-107273658D01*
X131853461Y-107343932D01*
X131823967Y-107408512D01*
X131776961Y-107442409D01*
X131697159Y-107475464D01*
X131571718Y-107571718D01*
X131475464Y-107697159D01*
X131414956Y-107843238D01*
X131394318Y-108000000D01*
X131414956Y-108156762D01*
X131475464Y-108302841D01*
X131571718Y-108428282D01*
X131697159Y-108524536D01*
X131843238Y-108585044D01*
X132000000Y-108605682D01*
X132008188Y-108604604D01*
X132148574Y-108586122D01*
X132156762Y-108585044D01*
X132302841Y-108524536D01*
X132428282Y-108428282D01*
X132524536Y-108302841D01*
X132585044Y-108156762D01*
X132605682Y-108000000D01*
X132585044Y-107843238D01*
X132524536Y-107697159D01*
X132428282Y-107571718D01*
X132302841Y-107475464D01*
X132223039Y-107442409D01*
X132167758Y-107397861D01*
X132145337Y-107330497D01*
X132162895Y-107261706D01*
X132214857Y-107213328D01*
X132271257Y-107200000D01*
X133954643Y-107200000D01*
X134022764Y-107220002D01*
X134069257Y-107273658D01*
X134079361Y-107343932D01*
X134049867Y-107408512D01*
X134031347Y-107425962D01*
X133978268Y-107466691D01*
X133978264Y-107466695D01*
X133971718Y-107471718D01*
X133875464Y-107597159D01*
X133814956Y-107743238D01*
X133813878Y-107751426D01*
X133804637Y-107821619D01*
X133794318Y-107900000D01*
X133795396Y-107908188D01*
X133811048Y-108027074D01*
X133814956Y-108056762D01*
X133875464Y-108202841D01*
X133971718Y-108328282D01*
X134097159Y-108424536D01*
X134243238Y-108485044D01*
X134400000Y-108505682D01*
X134408188Y-108504604D01*
X134426616Y-108502178D01*
X134556762Y-108485044D01*
X134702841Y-108424536D01*
X134828282Y-108328282D01*
X134924536Y-108202841D01*
X134985044Y-108056762D01*
X134988953Y-108027074D01*
X135004604Y-107908188D01*
X135005682Y-107900000D01*
X134995363Y-107821619D01*
X134986122Y-107751426D01*
X134985044Y-107743238D01*
X134924536Y-107597159D01*
X134828282Y-107471718D01*
X134821736Y-107466695D01*
X134821732Y-107466691D01*
X134768653Y-107425962D01*
X134726786Y-107368624D01*
X134722564Y-107297753D01*
X134757328Y-107235851D01*
X134820041Y-107202569D01*
X134845357Y-107200000D01*
X135962690Y-107200000D01*
X135991139Y-107203254D01*
X135991917Y-107203434D01*
X135999286Y-107205142D01*
X136000002Y-107205143D01*
X136005831Y-107203814D01*
X136010044Y-107203480D01*
X136331603Y-107188474D01*
X136331606Y-107188474D01*
X136334536Y-107188337D01*
X136656434Y-107143016D01*
X136726677Y-107153325D01*
X136780197Y-107199975D01*
X136800000Y-107267785D01*
X136800000Y-123700000D01*
X141674000Y-123700000D01*
X141742121Y-123720002D01*
X141788614Y-123773658D01*
X141800000Y-123826000D01*
X141800000Y-144962690D01*
X141796746Y-144991139D01*
X141796590Y-144991812D01*
X141794858Y-144999286D01*
X141794857Y-145000002D01*
X141796186Y-145005831D01*
X141796520Y-145010044D01*
X141811372Y-145328282D01*
X141811664Y-145334537D01*
X141858356Y-145666165D01*
X141859031Y-145669008D01*
X141859032Y-145669013D01*
X141869561Y-145713358D01*
X141935723Y-145992004D01*
X141936661Y-145994774D01*
X141936662Y-145994779D01*
X141991103Y-146155624D01*
X142043092Y-146309225D01*
X142112796Y-146465475D01*
X142118399Y-146478034D01*
X142127885Y-146548394D01*
X142097826Y-146612713D01*
X142037765Y-146650570D01*
X141966771Y-146649947D01*
X141941861Y-146639356D01*
X141920998Y-146627696D01*
X141905218Y-146618877D01*
X141575304Y-146480194D01*
X141571935Y-146479203D01*
X141571931Y-146479201D01*
X141334739Y-146409392D01*
X141231989Y-146379151D01*
X140950508Y-146329518D01*
X140883009Y-146317616D01*
X140883007Y-146317616D01*
X140879549Y-146317006D01*
X140876040Y-146316785D01*
X140876038Y-146316785D01*
X140525897Y-146294756D01*
X140525891Y-146294756D01*
X140522379Y-146294535D01*
X140420609Y-146299512D01*
X140168437Y-146311845D01*
X140168428Y-146311846D01*
X140164930Y-146312017D01*
X140161462Y-146312579D01*
X140161459Y-146312579D01*
X139815132Y-146368672D01*
X139815129Y-146368673D01*
X139811657Y-146369235D01*
X139466963Y-146465475D01*
X139135146Y-146599538D01*
X139132061Y-146601206D01*
X139132059Y-146601207D01*
X139096206Y-146620593D01*
X138820341Y-146769753D01*
X138526471Y-146973998D01*
X138523829Y-146976311D01*
X138523825Y-146976314D01*
X138313420Y-147160509D01*
X138257199Y-147209727D01*
X138015882Y-147474003D01*
X137805528Y-147763531D01*
X137628757Y-148074703D01*
X137487775Y-148403640D01*
X137384337Y-148746242D01*
X137383701Y-148749709D01*
X137321281Y-149089812D01*
X137319734Y-149098239D01*
X137294769Y-149455244D01*
X137309756Y-149812806D01*
X137364506Y-150166470D01*
X137458337Y-150511827D01*
X137459630Y-150515092D01*
X137577812Y-150813586D01*
X137590080Y-150844572D01*
X137591735Y-150847684D01*
X137591737Y-150847689D01*
X137644064Y-150946101D01*
X137658384Y-151015638D01*
X137632836Y-151081879D01*
X137575532Y-151123791D01*
X137504664Y-151128069D01*
X137478673Y-151119029D01*
X137381404Y-151072744D01*
X137381398Y-151072741D01*
X137378583Y-151071402D01*
X137375665Y-151070352D01*
X137375658Y-151070349D01*
X137048779Y-150952714D01*
X137048773Y-150952712D01*
X137045852Y-150951661D01*
X136871298Y-150907694D01*
X136705949Y-150866046D01*
X136705941Y-150866044D01*
X136702942Y-150865289D01*
X136353191Y-150813127D01*
X136005542Y-150795956D01*
X136005404Y-150795944D01*
X136000717Y-150794858D01*
X136000001Y-150794857D01*
X135991283Y-150796846D01*
X135963268Y-150800000D01*
X104037312Y-150800000D01*
X104008863Y-150796746D01*
X104000716Y-150794858D01*
X104000000Y-150794857D01*
X103997872Y-150795342D01*
X103995335Y-150795050D01*
X103995378Y-150795911D01*
X103646810Y-150813127D01*
X103453773Y-150841916D01*
X103300134Y-150864829D01*
X103300129Y-150864830D01*
X103297058Y-150865288D01*
X103294043Y-150866047D01*
X103294040Y-150866048D01*
X103108318Y-150912827D01*
X102954147Y-150951659D01*
X102779705Y-151014436D01*
X102624342Y-151070347D01*
X102624337Y-151070349D01*
X102621417Y-151071400D01*
X102570037Y-151095849D01*
X102526388Y-151116619D01*
X102456281Y-151127827D01*
X102391244Y-151099354D01*
X102351926Y-151040239D01*
X102350808Y-150969252D01*
X102357141Y-150951594D01*
X102495192Y-150641528D01*
X102495194Y-150641523D01*
X102496624Y-150638311D01*
X102604835Y-150297186D01*
X102674347Y-149946125D01*
X102695529Y-149693878D01*
X102704110Y-149591688D01*
X102704111Y-149591677D01*
X102704293Y-149589504D01*
X102704853Y-149549451D01*
X102705513Y-149502178D01*
X102705513Y-149502166D01*
X102705543Y-149500000D01*
X102705202Y-149493890D01*
X102693320Y-149281368D01*
X102685566Y-149142682D01*
X102684978Y-149139205D01*
X102675121Y-149080925D01*
X115029500Y-149080925D01*
X115032130Y-149101744D01*
X115037746Y-149146195D01*
X115044929Y-149203058D01*
X115105432Y-149355871D01*
X115202037Y-149488837D01*
X115328674Y-149593600D01*
X115477387Y-149663579D01*
X115485170Y-149665064D01*
X115485174Y-149665065D01*
X115631044Y-149692891D01*
X115631046Y-149692891D01*
X115638830Y-149694376D01*
X115720845Y-149689216D01*
X115794949Y-149684554D01*
X115794951Y-149684554D01*
X115802860Y-149684056D01*
X115810396Y-149681607D01*
X115810398Y-149681607D01*
X115865882Y-149663579D01*
X115959171Y-149633268D01*
X116097940Y-149545202D01*
X116140388Y-149500000D01*
X116205023Y-149431170D01*
X116210448Y-149425393D01*
X116252720Y-149348502D01*
X116285807Y-149288316D01*
X116289627Y-149281368D01*
X116309734Y-149203058D01*
X116328529Y-149129855D01*
X116328529Y-149129852D01*
X116330500Y-149122177D01*
X116330500Y-149080925D01*
X123669500Y-149080925D01*
X123672130Y-149101744D01*
X123677746Y-149146195D01*
X123684929Y-149203058D01*
X123745432Y-149355871D01*
X123842037Y-149488837D01*
X123968674Y-149593600D01*
X124117387Y-149663579D01*
X124125170Y-149665064D01*
X124125174Y-149665065D01*
X124271044Y-149692891D01*
X124271046Y-149692891D01*
X124278830Y-149694376D01*
X124360845Y-149689216D01*
X124434949Y-149684554D01*
X124434951Y-149684554D01*
X124442860Y-149684056D01*
X124450396Y-149681607D01*
X124450398Y-149681607D01*
X124505882Y-149663579D01*
X124599171Y-149633268D01*
X124737940Y-149545202D01*
X124780388Y-149500000D01*
X124845023Y-149431170D01*
X124850448Y-149425393D01*
X124892720Y-149348502D01*
X124925807Y-149288316D01*
X124929627Y-149281368D01*
X124949734Y-149203058D01*
X124968529Y-149129855D01*
X124968529Y-149129852D01*
X124970500Y-149122177D01*
X124970500Y-148199075D01*
X124955071Y-148076942D01*
X124894568Y-147924129D01*
X124797963Y-147791163D01*
X124671326Y-147686400D01*
X124522613Y-147616421D01*
X124514830Y-147614936D01*
X124514826Y-147614935D01*
X124368956Y-147587109D01*
X124368954Y-147587109D01*
X124361170Y-147585624D01*
X124279155Y-147590784D01*
X124205051Y-147595446D01*
X124205049Y-147595446D01*
X124197140Y-147595944D01*
X124189604Y-147598393D01*
X124189602Y-147598393D01*
X124147637Y-147612028D01*
X124040829Y-147646732D01*
X123902060Y-147734798D01*
X123789552Y-147854607D01*
X123785735Y-147861551D01*
X123785733Y-147861553D01*
X123744506Y-147936545D01*
X123710373Y-147998632D01*
X123708403Y-148006304D01*
X123708402Y-148006307D01*
X123671471Y-148150145D01*
X123669500Y-148157823D01*
X123669500Y-149080925D01*
X116330500Y-149080925D01*
X116330500Y-148199075D01*
X116315071Y-148076942D01*
X116254568Y-147924129D01*
X116157963Y-147791163D01*
X116031326Y-147686400D01*
X115882613Y-147616421D01*
X115874830Y-147614936D01*
X115874826Y-147614935D01*
X115728956Y-147587109D01*
X115728954Y-147587109D01*
X115721170Y-147585624D01*
X115639155Y-147590784D01*
X115565051Y-147595446D01*
X115565049Y-147595446D01*
X115557140Y-147595944D01*
X115549604Y-147598393D01*
X115549602Y-147598393D01*
X115507637Y-147612028D01*
X115400829Y-147646732D01*
X115262060Y-147734798D01*
X115149552Y-147854607D01*
X115145735Y-147861551D01*
X115145733Y-147861553D01*
X115104506Y-147936545D01*
X115070373Y-147998632D01*
X115068403Y-148006304D01*
X115068402Y-148006307D01*
X115031471Y-148150145D01*
X115029500Y-148157823D01*
X115029500Y-149080925D01*
X102675121Y-149080925D01*
X102626472Y-148793298D01*
X102626471Y-148793294D01*
X102625883Y-148789817D01*
X102527239Y-148445804D01*
X102479354Y-148329627D01*
X102392201Y-148118176D01*
X102392197Y-148118168D01*
X102390863Y-148114931D01*
X102218455Y-147801321D01*
X102211290Y-147791163D01*
X102014194Y-147511763D01*
X102014193Y-147511762D01*
X102012163Y-147508884D01*
X101774560Y-147241265D01*
X101508605Y-147001799D01*
X101505755Y-146999758D01*
X101505748Y-146999753D01*
X101220470Y-146795514D01*
X101220467Y-146795512D01*
X101217616Y-146793471D01*
X100905218Y-146618877D01*
X100575304Y-146480194D01*
X100571935Y-146479203D01*
X100571931Y-146479201D01*
X100334739Y-146409392D01*
X100231989Y-146379151D01*
X99950508Y-146329518D01*
X99883009Y-146317616D01*
X99883007Y-146317616D01*
X99879549Y-146317006D01*
X99876040Y-146316785D01*
X99876038Y-146316785D01*
X99525897Y-146294756D01*
X99525891Y-146294756D01*
X99522379Y-146294535D01*
X99420609Y-146299512D01*
X99168437Y-146311845D01*
X99168428Y-146311846D01*
X99164930Y-146312017D01*
X99161462Y-146312579D01*
X99161459Y-146312579D01*
X98815132Y-146368672D01*
X98815129Y-146368673D01*
X98811657Y-146369235D01*
X98466963Y-146465475D01*
X98135146Y-146599538D01*
X98132055Y-146601209D01*
X98132045Y-146601214D01*
X98055546Y-146642577D01*
X97986110Y-146657383D01*
X97919693Y-146632298D01*
X97877381Y-146575288D01*
X97872608Y-146504452D01*
X97880548Y-146480409D01*
X97939360Y-146348574D01*
X97956913Y-146309227D01*
X98027729Y-146100000D01*
X106194318Y-146100000D01*
X106214956Y-146256762D01*
X106275464Y-146402841D01*
X106371718Y-146528282D01*
X106497159Y-146624536D01*
X106643238Y-146685044D01*
X106800000Y-146705682D01*
X106808188Y-146704604D01*
X106948574Y-146686122D01*
X106956762Y-146685044D01*
X107102841Y-146624536D01*
X107228282Y-146528282D01*
X107324536Y-146402841D01*
X107385044Y-146256762D01*
X107405682Y-146100000D01*
X107385044Y-145943238D01*
X107324536Y-145797159D01*
X107228282Y-145671718D01*
X107102841Y-145575464D01*
X106956762Y-145514956D01*
X106800000Y-145494318D01*
X106643238Y-145514956D01*
X106635609Y-145518116D01*
X106531694Y-145561159D01*
X106461104Y-145568748D01*
X106437438Y-145556902D01*
X106436076Y-145595041D01*
X106393227Y-145655213D01*
X106378267Y-145666692D01*
X106378264Y-145666695D01*
X106371718Y-145671718D01*
X106275464Y-145797159D01*
X106214956Y-145943238D01*
X106194318Y-146100000D01*
X98027729Y-146100000D01*
X98044170Y-146051426D01*
X98063343Y-145994780D01*
X98063344Y-145994775D01*
X98064282Y-145992005D01*
X98130443Y-145713358D01*
X98140972Y-145669013D01*
X98140973Y-145669009D01*
X98141648Y-145666165D01*
X98188339Y-145334536D01*
X98189823Y-145302728D01*
X98203433Y-145011058D01*
X98203801Y-145006502D01*
X98205142Y-145000717D01*
X98205143Y-145000001D01*
X98203154Y-144991283D01*
X98200000Y-144963268D01*
X98200000Y-144900000D01*
X105394318Y-144900000D01*
X105395396Y-144908188D01*
X105408351Y-145006588D01*
X105414956Y-145056762D01*
X105475464Y-145202841D01*
X105497102Y-145231040D01*
X105550017Y-145300000D01*
X105571718Y-145328282D01*
X105697159Y-145424536D01*
X105843238Y-145485044D01*
X106000000Y-145505682D01*
X106008188Y-145504604D01*
X106148574Y-145486122D01*
X106156762Y-145485044D01*
X106230997Y-145454295D01*
X106268306Y-145438841D01*
X106338896Y-145431252D01*
X106362562Y-145443098D01*
X106363924Y-145404959D01*
X106406773Y-145344787D01*
X106421733Y-145333308D01*
X106421736Y-145333305D01*
X106428282Y-145328282D01*
X106449984Y-145300000D01*
X106502898Y-145231040D01*
X106524536Y-145202841D01*
X106583320Y-145060925D01*
X115029500Y-145060925D01*
X115029997Y-145064856D01*
X115042571Y-145164391D01*
X115044929Y-145183058D01*
X115105432Y-145335871D01*
X115110090Y-145342282D01*
X115110091Y-145342284D01*
X115172146Y-145427696D01*
X115202037Y-145468837D01*
X115328674Y-145573600D01*
X115335847Y-145576975D01*
X115335848Y-145576976D01*
X115362266Y-145589407D01*
X115477387Y-145643579D01*
X115485170Y-145645064D01*
X115485174Y-145645065D01*
X115631044Y-145672891D01*
X115631046Y-145672891D01*
X115638830Y-145674376D01*
X115724072Y-145669013D01*
X115794949Y-145664554D01*
X115794951Y-145664554D01*
X115802860Y-145664056D01*
X115810396Y-145661607D01*
X115810398Y-145661607D01*
X115861309Y-145645065D01*
X115959171Y-145613268D01*
X116097940Y-145525202D01*
X116116271Y-145505682D01*
X116205023Y-145411170D01*
X116210448Y-145405393D01*
X116224822Y-145379248D01*
X116270081Y-145296921D01*
X116289627Y-145261368D01*
X116300208Y-145220160D01*
X116328529Y-145109855D01*
X116328529Y-145109852D01*
X116330500Y-145102177D01*
X116330500Y-145018624D01*
X116609031Y-145018624D01*
X116648428Y-145156471D01*
X116724930Y-145277720D01*
X116832388Y-145372623D01*
X116962163Y-145433553D01*
X117071009Y-145450500D01*
X117145940Y-145450500D01*
X117197627Y-145443098D01*
X117243032Y-145436596D01*
X117243035Y-145436595D01*
X117251918Y-145435323D01*
X117382428Y-145375984D01*
X117428981Y-145335871D01*
X117477781Y-145293823D01*
X119194402Y-145293823D01*
X119195566Y-145302725D01*
X119195566Y-145302728D01*
X119196825Y-145312354D01*
X119212991Y-145435979D01*
X119270731Y-145567203D01*
X119276508Y-145574076D01*
X119276509Y-145574077D01*
X119351474Y-145663259D01*
X119362981Y-145676948D01*
X119482324Y-145756390D01*
X119619168Y-145799142D01*
X119628140Y-145799306D01*
X119628143Y-145799307D01*
X119693474Y-145800504D01*
X119762510Y-145801770D01*
X119771544Y-145799307D01*
X119892169Y-145766421D01*
X119892171Y-145766420D01*
X119900828Y-145764060D01*
X120023002Y-145689045D01*
X120032761Y-145678264D01*
X120113189Y-145589407D01*
X120119211Y-145582754D01*
X120157074Y-145504604D01*
X120177807Y-145461812D01*
X120177807Y-145461811D01*
X120181721Y-145453733D01*
X120182097Y-145451498D01*
X120219974Y-145395482D01*
X120285226Y-145367506D01*
X120355245Y-145379248D01*
X120407800Y-145426982D01*
X120415566Y-145441857D01*
X120470720Y-145567203D01*
X120476497Y-145574076D01*
X120476498Y-145574077D01*
X120551463Y-145663259D01*
X120562970Y-145676948D01*
X120682313Y-145756390D01*
X120819157Y-145799142D01*
X120828129Y-145799306D01*
X120828132Y-145799307D01*
X120893463Y-145800504D01*
X120962499Y-145801770D01*
X120971533Y-145799307D01*
X121092158Y-145766421D01*
X121092160Y-145766420D01*
X121100817Y-145764060D01*
X121222991Y-145689045D01*
X121232750Y-145678264D01*
X121313178Y-145589407D01*
X121319200Y-145582754D01*
X121357063Y-145504604D01*
X121377795Y-145461814D01*
X121377796Y-145461812D01*
X121381710Y-145453733D01*
X121405496Y-145312354D01*
X121405647Y-145300000D01*
X121391650Y-145202262D01*
X121386596Y-145166968D01*
X121386595Y-145166965D01*
X121385323Y-145158082D01*
X121325984Y-145027572D01*
X121318274Y-145018624D01*
X122389031Y-145018624D01*
X122428428Y-145156471D01*
X122504930Y-145277720D01*
X122612388Y-145372623D01*
X122742163Y-145433553D01*
X122851009Y-145450500D01*
X122925940Y-145450500D01*
X122977627Y-145443098D01*
X123023032Y-145436596D01*
X123023035Y-145436595D01*
X123031918Y-145435323D01*
X123162428Y-145375984D01*
X123208981Y-145335871D01*
X123264237Y-145288260D01*
X123264240Y-145288257D01*
X123271037Y-145282400D01*
X123349015Y-145162095D01*
X123379271Y-145060925D01*
X123669500Y-145060925D01*
X123669997Y-145064856D01*
X123682571Y-145164391D01*
X123684929Y-145183058D01*
X123745432Y-145335871D01*
X123750090Y-145342282D01*
X123750091Y-145342284D01*
X123812146Y-145427696D01*
X123842037Y-145468837D01*
X123968674Y-145573600D01*
X123975847Y-145576975D01*
X123975848Y-145576976D01*
X124002266Y-145589407D01*
X124117387Y-145643579D01*
X124125170Y-145645064D01*
X124125174Y-145645065D01*
X124271044Y-145672891D01*
X124271046Y-145672891D01*
X124278830Y-145674376D01*
X124364072Y-145669013D01*
X124434949Y-145664554D01*
X124434951Y-145664554D01*
X124442860Y-145664056D01*
X124450396Y-145661607D01*
X124450398Y-145661607D01*
X124501309Y-145645065D01*
X124599171Y-145613268D01*
X124737940Y-145525202D01*
X124756271Y-145505682D01*
X124845023Y-145411170D01*
X124850448Y-145405393D01*
X124864822Y-145379248D01*
X124910081Y-145296921D01*
X124929627Y-145261368D01*
X124940208Y-145220160D01*
X124968529Y-145109855D01*
X124968529Y-145109852D01*
X124970500Y-145102177D01*
X124970500Y-145000000D01*
X128894318Y-145000000D01*
X128914956Y-145156762D01*
X128975464Y-145302841D01*
X129031588Y-145375984D01*
X129058588Y-145411170D01*
X129071718Y-145428282D01*
X129197159Y-145524536D01*
X129343238Y-145585044D01*
X129500000Y-145605682D01*
X129508188Y-145604604D01*
X129586319Y-145594318D01*
X129642383Y-145586937D01*
X129712532Y-145597876D01*
X129765630Y-145645004D01*
X129784820Y-145713358D01*
X129764009Y-145781236D01*
X129758792Y-145788563D01*
X129710387Y-145851647D01*
X129675464Y-145897159D01*
X129614956Y-146043238D01*
X129594318Y-146200000D01*
X129614956Y-146356762D01*
X129675464Y-146502841D01*
X129680491Y-146509392D01*
X129759772Y-146612713D01*
X129771718Y-146628282D01*
X129897159Y-146724536D01*
X130043238Y-146785044D01*
X130200000Y-146805682D01*
X130208188Y-146804604D01*
X130348574Y-146786122D01*
X130356762Y-146785044D01*
X130502841Y-146724536D01*
X130628282Y-146628282D01*
X130640229Y-146612713D01*
X130719509Y-146509392D01*
X130724536Y-146502841D01*
X130785044Y-146356762D01*
X130805682Y-146200000D01*
X130785044Y-146043238D01*
X130724536Y-145897159D01*
X130628282Y-145771718D01*
X130611798Y-145759069D01*
X130592082Y-145743941D01*
X130502841Y-145675464D01*
X130356762Y-145614956D01*
X130343941Y-145613268D01*
X130208188Y-145595396D01*
X130200000Y-145594318D01*
X130057617Y-145613063D01*
X129987468Y-145602124D01*
X129934370Y-145554996D01*
X129915180Y-145486642D01*
X129935991Y-145418764D01*
X129941208Y-145411437D01*
X130019509Y-145309392D01*
X130024536Y-145302841D01*
X130085044Y-145156762D01*
X130105682Y-145000000D01*
X130085044Y-144843238D01*
X130024536Y-144697159D01*
X129928282Y-144571718D01*
X129802841Y-144475464D01*
X129656762Y-144414956D01*
X129500000Y-144394318D01*
X129343238Y-144414956D01*
X129197159Y-144475464D01*
X129071718Y-144571718D01*
X128975464Y-144697159D01*
X128914956Y-144843238D01*
X128894318Y-145000000D01*
X124970500Y-145000000D01*
X124970500Y-143879075D01*
X124955071Y-143756942D01*
X124894568Y-143604129D01*
X124884745Y-143590608D01*
X124802623Y-143477577D01*
X124797963Y-143471163D01*
X124671326Y-143366400D01*
X124522613Y-143296421D01*
X124514830Y-143294936D01*
X124514826Y-143294935D01*
X124368956Y-143267109D01*
X124368954Y-143267109D01*
X124361170Y-143265624D01*
X124279155Y-143270784D01*
X124205051Y-143275446D01*
X124205049Y-143275446D01*
X124197140Y-143275944D01*
X124189604Y-143278393D01*
X124189602Y-143278393D01*
X124147637Y-143292028D01*
X124040829Y-143326732D01*
X123902060Y-143414798D01*
X123896633Y-143420577D01*
X123896632Y-143420578D01*
X123811146Y-143511612D01*
X123789552Y-143534607D01*
X123785735Y-143541551D01*
X123785733Y-143541553D01*
X123744506Y-143616545D01*
X123710373Y-143678632D01*
X123708403Y-143686304D01*
X123708402Y-143686307D01*
X123688247Y-143764807D01*
X123669500Y-143837823D01*
X123669500Y-145060925D01*
X123379271Y-145060925D01*
X123390093Y-145024739D01*
X123390149Y-145015659D01*
X123390914Y-144890351D01*
X123390969Y-144881376D01*
X123351572Y-144743529D01*
X123275070Y-144622280D01*
X123167612Y-144527377D01*
X123037837Y-144466447D01*
X122928991Y-144449500D01*
X122854060Y-144449500D01*
X122812661Y-144455429D01*
X122756968Y-144463404D01*
X122756965Y-144463405D01*
X122748082Y-144464677D01*
X122617572Y-144524016D01*
X122610768Y-144529878D01*
X122610769Y-144529878D01*
X122515763Y-144611740D01*
X122515760Y-144611743D01*
X122508963Y-144617600D01*
X122430985Y-144737905D01*
X122389907Y-144875261D01*
X122389031Y-145018624D01*
X121318274Y-145018624D01*
X121295171Y-144991812D01*
X121238260Y-144925763D01*
X121238257Y-144925760D01*
X121232400Y-144918963D01*
X121112095Y-144840985D01*
X120974739Y-144799907D01*
X120965763Y-144799852D01*
X120965762Y-144799852D01*
X120905555Y-144799484D01*
X120831376Y-144799031D01*
X120693529Y-144838428D01*
X120572280Y-144914930D01*
X120477377Y-145022388D01*
X120416447Y-145152163D01*
X120414986Y-145151477D01*
X120381549Y-145202262D01*
X120316647Y-145231040D01*
X120246489Y-145220160D01*
X120193350Y-145173078D01*
X120186387Y-145157603D01*
X120185334Y-145158082D01*
X120178948Y-145144036D01*
X120125995Y-145027572D01*
X120095182Y-144991812D01*
X120038271Y-144925763D01*
X120038268Y-144925760D01*
X120032411Y-144918963D01*
X119912106Y-144840985D01*
X119774750Y-144799907D01*
X119765774Y-144799852D01*
X119765773Y-144799852D01*
X119705566Y-144799484D01*
X119631387Y-144799031D01*
X119493540Y-144838428D01*
X119372291Y-144914930D01*
X119277388Y-145022388D01*
X119216458Y-145152163D01*
X119211648Y-145183058D01*
X119195984Y-145283663D01*
X119194402Y-145293823D01*
X117477781Y-145293823D01*
X117484237Y-145288260D01*
X117484240Y-145288257D01*
X117491037Y-145282400D01*
X117569015Y-145162095D01*
X117610093Y-145024739D01*
X117610149Y-145015659D01*
X117610914Y-144890351D01*
X117610969Y-144881376D01*
X117571572Y-144743529D01*
X117495070Y-144622280D01*
X117387612Y-144527377D01*
X117257837Y-144466447D01*
X117148991Y-144449500D01*
X117074060Y-144449500D01*
X117032661Y-144455429D01*
X116976968Y-144463404D01*
X116976965Y-144463405D01*
X116968082Y-144464677D01*
X116837572Y-144524016D01*
X116830768Y-144529878D01*
X116830769Y-144529878D01*
X116735763Y-144611740D01*
X116735760Y-144611743D01*
X116728963Y-144617600D01*
X116650985Y-144737905D01*
X116609907Y-144875261D01*
X116609031Y-145018624D01*
X116330500Y-145018624D01*
X116330500Y-143879075D01*
X116315071Y-143756942D01*
X116254568Y-143604129D01*
X116244745Y-143590608D01*
X116162623Y-143477577D01*
X116157963Y-143471163D01*
X116031326Y-143366400D01*
X115882613Y-143296421D01*
X115874830Y-143294936D01*
X115874826Y-143294935D01*
X115728956Y-143267109D01*
X115728954Y-143267109D01*
X115721170Y-143265624D01*
X115639155Y-143270784D01*
X115565051Y-143275446D01*
X115565049Y-143275446D01*
X115557140Y-143275944D01*
X115549604Y-143278393D01*
X115549602Y-143278393D01*
X115507637Y-143292028D01*
X115400829Y-143326732D01*
X115262060Y-143414798D01*
X115256633Y-143420577D01*
X115256632Y-143420578D01*
X115171146Y-143511612D01*
X115149552Y-143534607D01*
X115145735Y-143541551D01*
X115145733Y-143541553D01*
X115104506Y-143616545D01*
X115070373Y-143678632D01*
X115068403Y-143686304D01*
X115068402Y-143686307D01*
X115048247Y-143764807D01*
X115029500Y-143837823D01*
X115029500Y-145060925D01*
X106583320Y-145060925D01*
X106585044Y-145056762D01*
X106591650Y-145006588D01*
X106604604Y-144908188D01*
X106605682Y-144900000D01*
X106592497Y-144799852D01*
X106586122Y-144751426D01*
X106585044Y-144743238D01*
X106524536Y-144597159D01*
X106428282Y-144471718D01*
X106302841Y-144375464D01*
X106156762Y-144314956D01*
X106000000Y-144294318D01*
X105843238Y-144314956D01*
X105697159Y-144375464D01*
X105571718Y-144471718D01*
X105475464Y-144597159D01*
X105414956Y-144743238D01*
X105413878Y-144751426D01*
X105407503Y-144799852D01*
X105394318Y-144900000D01*
X98200000Y-144900000D01*
X98200000Y-143900000D01*
X104294318Y-143900000D01*
X104314956Y-144056762D01*
X104375464Y-144202841D01*
X104471718Y-144328282D01*
X104597159Y-144424536D01*
X104743238Y-144485044D01*
X104900000Y-144505682D01*
X104908188Y-144504604D01*
X105048574Y-144486122D01*
X105056762Y-144485044D01*
X105202841Y-144424536D01*
X105328282Y-144328282D01*
X105424536Y-144202841D01*
X105485044Y-144056762D01*
X105505682Y-143900000D01*
X111494318Y-143900000D01*
X111514956Y-144056762D01*
X111575464Y-144202841D01*
X111671718Y-144328282D01*
X111797159Y-144424536D01*
X111943238Y-144485044D01*
X112100000Y-144505682D01*
X112108188Y-144504604D01*
X112248574Y-144486122D01*
X112256762Y-144485044D01*
X112402841Y-144424536D01*
X112528282Y-144328282D01*
X112624536Y-144202841D01*
X112685044Y-144056762D01*
X112705682Y-143900000D01*
X112685044Y-143743238D01*
X112624536Y-143597159D01*
X112528282Y-143471718D01*
X112520974Y-143466110D01*
X112415326Y-143385044D01*
X112402841Y-143375464D01*
X112256762Y-143314956D01*
X112100000Y-143294318D01*
X111943238Y-143314956D01*
X111797159Y-143375464D01*
X111784674Y-143385044D01*
X111679027Y-143466110D01*
X111671718Y-143471718D01*
X111575464Y-143597159D01*
X111514956Y-143743238D01*
X111494318Y-143900000D01*
X105505682Y-143900000D01*
X105485044Y-143743238D01*
X105424536Y-143597159D01*
X105328282Y-143471718D01*
X105320974Y-143466110D01*
X105215326Y-143385044D01*
X105202841Y-143375464D01*
X105056762Y-143314956D01*
X104900000Y-143294318D01*
X104743238Y-143314956D01*
X104597159Y-143375464D01*
X104584674Y-143385044D01*
X104479027Y-143466110D01*
X104471718Y-143471718D01*
X104375464Y-143597159D01*
X104314956Y-143743238D01*
X104294318Y-143900000D01*
X98200000Y-143900000D01*
X98200000Y-142800000D01*
X116994318Y-142800000D01*
X117014956Y-142956762D01*
X117075464Y-143102841D01*
X117171718Y-143228282D01*
X117297159Y-143324536D01*
X117443238Y-143385044D01*
X117600000Y-143405682D01*
X117608188Y-143404604D01*
X117748574Y-143386122D01*
X117756762Y-143385044D01*
X117902841Y-143324536D01*
X118028282Y-143228282D01*
X118124536Y-143102841D01*
X118185044Y-142956762D01*
X118205682Y-142800000D01*
X121794318Y-142800000D01*
X121814956Y-142956762D01*
X121875464Y-143102841D01*
X121971718Y-143228282D01*
X122097159Y-143324536D01*
X122243238Y-143385044D01*
X122400000Y-143405682D01*
X122408188Y-143404604D01*
X122548574Y-143386122D01*
X122556762Y-143385044D01*
X122702841Y-143324536D01*
X122828282Y-143228282D01*
X122924536Y-143102841D01*
X122985044Y-142956762D01*
X123005682Y-142800000D01*
X122987128Y-142659069D01*
X122986122Y-142651426D01*
X122985044Y-142643238D01*
X122924536Y-142497159D01*
X122828282Y-142371718D01*
X122702841Y-142275464D01*
X122556762Y-142214956D01*
X122501450Y-142207674D01*
X122408188Y-142195396D01*
X122400000Y-142194318D01*
X122391812Y-142195396D01*
X122298551Y-142207674D01*
X122243238Y-142214956D01*
X122097159Y-142275464D01*
X121971718Y-142371718D01*
X121875464Y-142497159D01*
X121814956Y-142643238D01*
X121813878Y-142651426D01*
X121812872Y-142659069D01*
X121794318Y-142800000D01*
X118205682Y-142800000D01*
X118187128Y-142659069D01*
X118186122Y-142651426D01*
X118185044Y-142643238D01*
X118124536Y-142497159D01*
X118028282Y-142371718D01*
X117902841Y-142275464D01*
X117756762Y-142214956D01*
X117701450Y-142207674D01*
X117608188Y-142195396D01*
X117600000Y-142194318D01*
X117591812Y-142195396D01*
X117498551Y-142207674D01*
X117443238Y-142214956D01*
X117297159Y-142275464D01*
X117171718Y-142371718D01*
X117075464Y-142497159D01*
X117014956Y-142643238D01*
X117013878Y-142651426D01*
X117012872Y-142659069D01*
X116994318Y-142800000D01*
X98200000Y-142800000D01*
X98200000Y-141493823D01*
X104694391Y-141493823D01*
X104695555Y-141502725D01*
X104695555Y-141502728D01*
X104701197Y-141545871D01*
X104712980Y-141635979D01*
X104728686Y-141671674D01*
X104757547Y-141737264D01*
X104770720Y-141767203D01*
X104776497Y-141774076D01*
X104776498Y-141774077D01*
X104849594Y-141861035D01*
X104862970Y-141876948D01*
X104982313Y-141956390D01*
X105119157Y-141999142D01*
X105128129Y-141999306D01*
X105128132Y-141999307D01*
X105193463Y-142000504D01*
X105262499Y-142001770D01*
X105271533Y-141999307D01*
X105392158Y-141966421D01*
X105392160Y-141966420D01*
X105400817Y-141964060D01*
X105522991Y-141889045D01*
X105543829Y-141866024D01*
X105607953Y-141795180D01*
X105619200Y-141782754D01*
X105661007Y-141696465D01*
X105677795Y-141661814D01*
X105677795Y-141661813D01*
X105681710Y-141653733D01*
X105705496Y-141512354D01*
X105705647Y-141500000D01*
X105690923Y-141397183D01*
X105690442Y-141393823D01*
X106494391Y-141393823D01*
X106495555Y-141402725D01*
X106495555Y-141402728D01*
X106498808Y-141427603D01*
X106512980Y-141535979D01*
X106570720Y-141667203D01*
X106576497Y-141674076D01*
X106576498Y-141674077D01*
X106611451Y-141715659D01*
X106662970Y-141776948D01*
X106711785Y-141809442D01*
X106757406Y-141863838D01*
X106766378Y-141934265D01*
X106756021Y-141967873D01*
X106716447Y-142052163D01*
X106712100Y-142080081D01*
X106699375Y-142161814D01*
X106694391Y-142193823D01*
X106695555Y-142202725D01*
X106695555Y-142202728D01*
X106702912Y-142258983D01*
X106712980Y-142335979D01*
X106770720Y-142467203D01*
X106776497Y-142474076D01*
X106776498Y-142474077D01*
X106802314Y-142504789D01*
X106862970Y-142576948D01*
X106982313Y-142656390D01*
X107119157Y-142699142D01*
X107128129Y-142699306D01*
X107128132Y-142699307D01*
X107193463Y-142700504D01*
X107262499Y-142701770D01*
X107271533Y-142699307D01*
X107392158Y-142666421D01*
X107392160Y-142666420D01*
X107400817Y-142664060D01*
X107522991Y-142589045D01*
X107619200Y-142482754D01*
X107664602Y-142389045D01*
X107677795Y-142361814D01*
X107677795Y-142361813D01*
X107681710Y-142353733D01*
X107705496Y-142212354D01*
X107705647Y-142200000D01*
X107695203Y-142127074D01*
X107686596Y-142066968D01*
X107686595Y-142066965D01*
X107685323Y-142058082D01*
X107625984Y-141927572D01*
X107592787Y-141889045D01*
X107538260Y-141825763D01*
X107538257Y-141825760D01*
X107532400Y-141818963D01*
X107489411Y-141791099D01*
X107443127Y-141737264D01*
X107433296Y-141666951D01*
X107444551Y-141630429D01*
X107481710Y-141553733D01*
X107505496Y-141412354D01*
X107505647Y-141400000D01*
X107496709Y-141337590D01*
X108850624Y-141337590D01*
X108851788Y-141346492D01*
X108851788Y-141346495D01*
X108856817Y-141384950D01*
X108869213Y-141479746D01*
X108926953Y-141610970D01*
X108932730Y-141617843D01*
X108932731Y-141617844D01*
X108998819Y-141696465D01*
X109019203Y-141720715D01*
X109026680Y-141725692D01*
X109122397Y-141789407D01*
X109138546Y-141800157D01*
X109275390Y-141842909D01*
X109284362Y-141843073D01*
X109284365Y-141843074D01*
X109335175Y-141844005D01*
X109377300Y-141844777D01*
X109445042Y-141866024D01*
X109490544Y-141920523D01*
X109499926Y-141954419D01*
X109511815Y-142045341D01*
X109511816Y-142045345D01*
X109512980Y-142054246D01*
X109570720Y-142185470D01*
X109576497Y-142192343D01*
X109576498Y-142192344D01*
X109650593Y-142280491D01*
X109662970Y-142295215D01*
X109670447Y-142300192D01*
X109750880Y-142353733D01*
X109782313Y-142374657D01*
X109790888Y-142377336D01*
X109805577Y-142381925D01*
X109919157Y-142417409D01*
X109928129Y-142417573D01*
X109928132Y-142417574D01*
X109993463Y-142418771D01*
X110062499Y-142420037D01*
X110071533Y-142417574D01*
X110192158Y-142384688D01*
X110192160Y-142384687D01*
X110200817Y-142382327D01*
X110322991Y-142307312D01*
X110352531Y-142274677D01*
X110390441Y-142232794D01*
X110419200Y-142201021D01*
X110481710Y-142072000D01*
X110494863Y-141993823D01*
X115694391Y-141993823D01*
X115695555Y-142002725D01*
X115695555Y-142002728D01*
X115702020Y-142052163D01*
X115712980Y-142135979D01*
X115770720Y-142267203D01*
X115776497Y-142274076D01*
X115776498Y-142274077D01*
X115857190Y-142370072D01*
X115862970Y-142376948D01*
X115982313Y-142456390D01*
X116119157Y-142499142D01*
X116128129Y-142499306D01*
X116128132Y-142499307D01*
X116193463Y-142500504D01*
X116262499Y-142501770D01*
X116271533Y-142499307D01*
X116392158Y-142466421D01*
X116392160Y-142466420D01*
X116400817Y-142464060D01*
X116522991Y-142389045D01*
X116532750Y-142378264D01*
X116613178Y-142289407D01*
X116619200Y-142282754D01*
X116659294Y-142200000D01*
X116677795Y-142161814D01*
X116677795Y-142161813D01*
X116681710Y-142153733D01*
X116705496Y-142012354D01*
X116705647Y-142000000D01*
X116704762Y-141993823D01*
X123294391Y-141993823D01*
X123295555Y-142002725D01*
X123295555Y-142002728D01*
X123302020Y-142052163D01*
X123312980Y-142135979D01*
X123370720Y-142267203D01*
X123376497Y-142274076D01*
X123376498Y-142274077D01*
X123457190Y-142370072D01*
X123462970Y-142376948D01*
X123582313Y-142456390D01*
X123719157Y-142499142D01*
X123728129Y-142499306D01*
X123728132Y-142499307D01*
X123793463Y-142500504D01*
X123862499Y-142501770D01*
X123871533Y-142499307D01*
X123992158Y-142466421D01*
X123992160Y-142466420D01*
X124000817Y-142464060D01*
X124122991Y-142389045D01*
X124132750Y-142378264D01*
X124213178Y-142289407D01*
X124219200Y-142282754D01*
X124259294Y-142200000D01*
X124277795Y-142161814D01*
X124277795Y-142161813D01*
X124281710Y-142153733D01*
X124305496Y-142012354D01*
X124305647Y-142000000D01*
X124293942Y-141918267D01*
X124286596Y-141866968D01*
X124286595Y-141866965D01*
X124285323Y-141858082D01*
X124281609Y-141849913D01*
X124281608Y-141849910D01*
X124278963Y-141844093D01*
X124268975Y-141773803D01*
X124298576Y-141709271D01*
X124358365Y-141670986D01*
X124431235Y-141671674D01*
X124519157Y-141699142D01*
X124528129Y-141699306D01*
X124528132Y-141699307D01*
X124593463Y-141700504D01*
X124662499Y-141701770D01*
X124671533Y-141699307D01*
X124792158Y-141666421D01*
X124792160Y-141666420D01*
X124800817Y-141664060D01*
X124922991Y-141589045D01*
X125019200Y-141482754D01*
X125081710Y-141353733D01*
X125105496Y-141212354D01*
X125105647Y-141200000D01*
X125093464Y-141114930D01*
X125086596Y-141066968D01*
X125086595Y-141066965D01*
X125085323Y-141058082D01*
X125025984Y-140927572D01*
X124989088Y-140884752D01*
X124938260Y-140825763D01*
X124938257Y-140825760D01*
X124932400Y-140818963D01*
X124812095Y-140740985D01*
X124674739Y-140699907D01*
X124665763Y-140699852D01*
X124665762Y-140699852D01*
X124605555Y-140699484D01*
X124531376Y-140699031D01*
X124393529Y-140738428D01*
X124272280Y-140814930D01*
X124177377Y-140922388D01*
X124116447Y-141052163D01*
X124094391Y-141193823D01*
X124095555Y-141202725D01*
X124095555Y-141202728D01*
X124102020Y-141252163D01*
X124112980Y-141335979D01*
X124116597Y-141344199D01*
X124122316Y-141357196D01*
X124131445Y-141427603D01*
X124101059Y-141491769D01*
X124040806Y-141529321D01*
X123970886Y-141528661D01*
X123874739Y-141499907D01*
X123865763Y-141499852D01*
X123865762Y-141499852D01*
X123805555Y-141499484D01*
X123731376Y-141499031D01*
X123593529Y-141538428D01*
X123472280Y-141614930D01*
X123466338Y-141621658D01*
X123466337Y-141621659D01*
X123430874Y-141661814D01*
X123377377Y-141722388D01*
X123316447Y-141852163D01*
X123307210Y-141911490D01*
X123298431Y-141967878D01*
X123294391Y-141993823D01*
X116704762Y-141993823D01*
X116693942Y-141918267D01*
X116686596Y-141866968D01*
X116686595Y-141866965D01*
X116685323Y-141858082D01*
X116681608Y-141849910D01*
X116654868Y-141791099D01*
X116625984Y-141727572D01*
X116577226Y-141670986D01*
X116538260Y-141625763D01*
X116538257Y-141625760D01*
X116532400Y-141618963D01*
X116412095Y-141540985D01*
X116274739Y-141499907D01*
X116265763Y-141499852D01*
X116265762Y-141499852D01*
X116205555Y-141499484D01*
X116131376Y-141499031D01*
X115993529Y-141538428D01*
X115872280Y-141614930D01*
X115866338Y-141621658D01*
X115866337Y-141621659D01*
X115830874Y-141661814D01*
X115777377Y-141722388D01*
X115716447Y-141852163D01*
X115707210Y-141911490D01*
X115698431Y-141967878D01*
X115694391Y-141993823D01*
X110494863Y-141993823D01*
X110505496Y-141930621D01*
X110505647Y-141918267D01*
X110495025Y-141844093D01*
X110486596Y-141785235D01*
X110486595Y-141785232D01*
X110485323Y-141776349D01*
X110425984Y-141645839D01*
X110388856Y-141602750D01*
X110338260Y-141544030D01*
X110338257Y-141544027D01*
X110332400Y-141537230D01*
X110212095Y-141459252D01*
X110074739Y-141418174D01*
X110065763Y-141418119D01*
X110065762Y-141418119D01*
X110033300Y-141417921D01*
X109980924Y-141417601D01*
X109912928Y-141397183D01*
X109866764Y-141343244D01*
X109856968Y-141309466D01*
X109848439Y-141249913D01*
X109841556Y-141201849D01*
X109782217Y-141071339D01*
X109733612Y-141014930D01*
X109694493Y-140969530D01*
X109694490Y-140969527D01*
X109688633Y-140962730D01*
X109568328Y-140884752D01*
X109430972Y-140843674D01*
X109421996Y-140843619D01*
X109421995Y-140843619D01*
X109361788Y-140843251D01*
X109287609Y-140842798D01*
X109149762Y-140882195D01*
X109028513Y-140958697D01*
X108933610Y-141066155D01*
X108872680Y-141195930D01*
X108866481Y-141235746D01*
X108855003Y-141309466D01*
X108850624Y-141337590D01*
X107496709Y-141337590D01*
X107485323Y-141258082D01*
X107475168Y-141235746D01*
X107460155Y-141202728D01*
X107425984Y-141127572D01*
X107407598Y-141106234D01*
X107338260Y-141025763D01*
X107338257Y-141025760D01*
X107332400Y-141018963D01*
X107212095Y-140940985D01*
X107074739Y-140899907D01*
X107065763Y-140899852D01*
X107065762Y-140899852D01*
X107005555Y-140899484D01*
X106931376Y-140899031D01*
X106793529Y-140938428D01*
X106672280Y-141014930D01*
X106666338Y-141021658D01*
X106666337Y-141021659D01*
X106651527Y-141038428D01*
X106577377Y-141122388D01*
X106516447Y-141252163D01*
X106515066Y-141261035D01*
X106499375Y-141361814D01*
X106494391Y-141393823D01*
X105690442Y-141393823D01*
X105686596Y-141366968D01*
X105686595Y-141366965D01*
X105685323Y-141358082D01*
X105678815Y-141343767D01*
X105643896Y-141266968D01*
X105625984Y-141227572D01*
X105591717Y-141187803D01*
X105538260Y-141125763D01*
X105538257Y-141125760D01*
X105532400Y-141118963D01*
X105412095Y-141040985D01*
X105274739Y-140999907D01*
X105265763Y-140999852D01*
X105265762Y-140999852D01*
X105205555Y-140999484D01*
X105131376Y-140999031D01*
X104993529Y-141038428D01*
X104872280Y-141114930D01*
X104777377Y-141222388D01*
X104716447Y-141352163D01*
X104714142Y-141366968D01*
X104696583Y-141479746D01*
X104694391Y-141493823D01*
X98200000Y-141493823D01*
X98200000Y-140293823D01*
X105394391Y-140293823D01*
X105395555Y-140302725D01*
X105395555Y-140302728D01*
X105396814Y-140312354D01*
X105412980Y-140435979D01*
X105470720Y-140567203D01*
X105476497Y-140574076D01*
X105476498Y-140574077D01*
X105483792Y-140582754D01*
X105562970Y-140676948D01*
X105570447Y-140681925D01*
X105666511Y-140745871D01*
X105682313Y-140756390D01*
X105819157Y-140799142D01*
X105828129Y-140799306D01*
X105828132Y-140799307D01*
X105893463Y-140800504D01*
X105962499Y-140801770D01*
X105971533Y-140799307D01*
X106092158Y-140766421D01*
X106092160Y-140766420D01*
X106100817Y-140764060D01*
X106222991Y-140689045D01*
X106319200Y-140582754D01*
X106381710Y-140453733D01*
X106405496Y-140312354D01*
X106405647Y-140300000D01*
X106385323Y-140158082D01*
X106325984Y-140027572D01*
X106292787Y-139989045D01*
X106238260Y-139925763D01*
X106238257Y-139925760D01*
X106232400Y-139918963D01*
X106112095Y-139840985D01*
X105974739Y-139799907D01*
X105965763Y-139799852D01*
X105965762Y-139799852D01*
X105905555Y-139799484D01*
X105831376Y-139799031D01*
X105693529Y-139838428D01*
X105572280Y-139914930D01*
X105477377Y-140022388D01*
X105416447Y-140152163D01*
X105394391Y-140293823D01*
X98200000Y-140293823D01*
X98200000Y-139593823D01*
X118394391Y-139593823D01*
X118395555Y-139602725D01*
X118395555Y-139602728D01*
X118396814Y-139612354D01*
X118412980Y-139735979D01*
X118470720Y-139867203D01*
X118476497Y-139874076D01*
X118476498Y-139874077D01*
X118557190Y-139970072D01*
X118562970Y-139976948D01*
X118682313Y-140056390D01*
X118819157Y-140099142D01*
X118828129Y-140099306D01*
X118828132Y-140099307D01*
X118893463Y-140100504D01*
X118962499Y-140101770D01*
X118971533Y-140099307D01*
X119092158Y-140066421D01*
X119092160Y-140066420D01*
X119100817Y-140064060D01*
X119222991Y-139989045D01*
X119319200Y-139882754D01*
X119381710Y-139753733D01*
X119405496Y-139612354D01*
X119405647Y-139600000D01*
X119404762Y-139593823D01*
X120494391Y-139593823D01*
X120495555Y-139602725D01*
X120495555Y-139602728D01*
X120496814Y-139612354D01*
X120512980Y-139735979D01*
X120570720Y-139867203D01*
X120576497Y-139874076D01*
X120576498Y-139874077D01*
X120657190Y-139970072D01*
X120662970Y-139976948D01*
X120782313Y-140056390D01*
X120919157Y-140099142D01*
X120928129Y-140099306D01*
X120928132Y-140099307D01*
X120993463Y-140100504D01*
X121062499Y-140101770D01*
X121071533Y-140099307D01*
X121192158Y-140066421D01*
X121192160Y-140066420D01*
X121200817Y-140064060D01*
X121322991Y-139989045D01*
X121419200Y-139882754D01*
X121481710Y-139753733D01*
X121505496Y-139612354D01*
X121505647Y-139600000D01*
X121485323Y-139458082D01*
X121425984Y-139327572D01*
X121407598Y-139306234D01*
X121338260Y-139225763D01*
X121338257Y-139225760D01*
X121332400Y-139218963D01*
X121212095Y-139140985D01*
X121074739Y-139099907D01*
X121065763Y-139099852D01*
X121065762Y-139099852D01*
X121005555Y-139099484D01*
X120931376Y-139099031D01*
X120793529Y-139138428D01*
X120672280Y-139214930D01*
X120577377Y-139322388D01*
X120516447Y-139452163D01*
X120494391Y-139593823D01*
X119404762Y-139593823D01*
X119385323Y-139458082D01*
X119325984Y-139327572D01*
X119309438Y-139308370D01*
X119264755Y-139256512D01*
X119235441Y-139191849D01*
X119245740Y-139121603D01*
X119292382Y-139068077D01*
X119299020Y-139064550D01*
X119300817Y-139064060D01*
X119422991Y-138989045D01*
X119519200Y-138882754D01*
X119581710Y-138753733D01*
X119605496Y-138612354D01*
X119605647Y-138600000D01*
X119585323Y-138458082D01*
X119525984Y-138327572D01*
X119507598Y-138306234D01*
X119438260Y-138225763D01*
X119438257Y-138225760D01*
X119432400Y-138218963D01*
X119312095Y-138140985D01*
X119174739Y-138099907D01*
X119165763Y-138099852D01*
X119165762Y-138099852D01*
X119105555Y-138099484D01*
X119031376Y-138099031D01*
X118893529Y-138138428D01*
X118772280Y-138214930D01*
X118677377Y-138322388D01*
X118616447Y-138452163D01*
X118594391Y-138593823D01*
X118595555Y-138602725D01*
X118595555Y-138602728D01*
X118596814Y-138612354D01*
X118612980Y-138735979D01*
X118670720Y-138867203D01*
X118676497Y-138874076D01*
X118676498Y-138874077D01*
X118735999Y-138944862D01*
X118764520Y-139009877D01*
X118753364Y-139079992D01*
X118706072Y-139132944D01*
X118698337Y-139137054D01*
X118693529Y-139138428D01*
X118572280Y-139214930D01*
X118477377Y-139322388D01*
X118416447Y-139452163D01*
X118394391Y-139593823D01*
X98200000Y-139593823D01*
X98200000Y-136193823D01*
X113694391Y-136193823D01*
X113695555Y-136202725D01*
X113695555Y-136202728D01*
X113702225Y-136253733D01*
X113712980Y-136335979D01*
X113770720Y-136467203D01*
X113776497Y-136474076D01*
X113776498Y-136474077D01*
X113854121Y-136566421D01*
X113862970Y-136576948D01*
X113982313Y-136656390D01*
X113990888Y-136659069D01*
X114006864Y-136664060D01*
X114119157Y-136699142D01*
X114128129Y-136699306D01*
X114128132Y-136699307D01*
X114193463Y-136700504D01*
X114262499Y-136701770D01*
X114271533Y-136699307D01*
X114392158Y-136666421D01*
X114392160Y-136666420D01*
X114400817Y-136664060D01*
X114522991Y-136589045D01*
X114532750Y-136578264D01*
X114609181Y-136493823D01*
X117994391Y-136493823D01*
X117995555Y-136502725D01*
X117995555Y-136502728D01*
X118002923Y-136559069D01*
X118012980Y-136635979D01*
X118070720Y-136767203D01*
X118076497Y-136774076D01*
X118076498Y-136774077D01*
X118157190Y-136870072D01*
X118162970Y-136876948D01*
X118282313Y-136956390D01*
X118419157Y-136999142D01*
X118428129Y-136999306D01*
X118428132Y-136999307D01*
X118493463Y-137000504D01*
X118562499Y-137001770D01*
X118571533Y-136999307D01*
X118692158Y-136966421D01*
X118692160Y-136966420D01*
X118700817Y-136964060D01*
X118822991Y-136889045D01*
X118919200Y-136782754D01*
X118981710Y-136653733D01*
X119005496Y-136512354D01*
X119005647Y-136500000D01*
X119004762Y-136493823D01*
X120594391Y-136493823D01*
X120595555Y-136502725D01*
X120595555Y-136502728D01*
X120602923Y-136559069D01*
X120612980Y-136635979D01*
X120670720Y-136767203D01*
X120676497Y-136774076D01*
X120676498Y-136774077D01*
X120757190Y-136870072D01*
X120762970Y-136876948D01*
X120882313Y-136956390D01*
X121019157Y-136999142D01*
X121028129Y-136999306D01*
X121028132Y-136999307D01*
X121093463Y-137000504D01*
X121162499Y-137001770D01*
X121168991Y-137000000D01*
X139994318Y-137000000D01*
X140014956Y-137156762D01*
X140075464Y-137302841D01*
X140171718Y-137428282D01*
X140297159Y-137524536D01*
X140443238Y-137585044D01*
X140600000Y-137605682D01*
X140608188Y-137604604D01*
X140748574Y-137586122D01*
X140756762Y-137585044D01*
X140902841Y-137524536D01*
X141028282Y-137428282D01*
X141124536Y-137302841D01*
X141185044Y-137156762D01*
X141205682Y-137000000D01*
X141185044Y-136843238D01*
X141124536Y-136697159D01*
X141028282Y-136571718D01*
X141011798Y-136559069D01*
X140937124Y-136501770D01*
X140902841Y-136475464D01*
X140756762Y-136414956D01*
X140600000Y-136394318D01*
X140443238Y-136414956D01*
X140297159Y-136475464D01*
X140262876Y-136501770D01*
X140188203Y-136559069D01*
X140171718Y-136571718D01*
X140075464Y-136697159D01*
X140014956Y-136843238D01*
X139994318Y-137000000D01*
X121168991Y-137000000D01*
X121171533Y-136999307D01*
X121292158Y-136966421D01*
X121292160Y-136966420D01*
X121300817Y-136964060D01*
X121422991Y-136889045D01*
X121519200Y-136782754D01*
X121581710Y-136653733D01*
X121605496Y-136512354D01*
X121605647Y-136500000D01*
X121597473Y-136442924D01*
X121586596Y-136366968D01*
X121586595Y-136366965D01*
X121585323Y-136358082D01*
X121575274Y-136335979D01*
X121566179Y-136315977D01*
X121525984Y-136227572D01*
X121496904Y-136193823D01*
X121438260Y-136125763D01*
X121438257Y-136125760D01*
X121432400Y-136118963D01*
X121393614Y-136093823D01*
X126994391Y-136093823D01*
X126995555Y-136102725D01*
X126995555Y-136102728D01*
X127002225Y-136153733D01*
X127012980Y-136235979D01*
X127070720Y-136367203D01*
X127076497Y-136374076D01*
X127076498Y-136374077D01*
X127154121Y-136466421D01*
X127162970Y-136476948D01*
X127282313Y-136556390D01*
X127419157Y-136599142D01*
X127428129Y-136599306D01*
X127428132Y-136599307D01*
X127493463Y-136600504D01*
X127562499Y-136601770D01*
X127571533Y-136599307D01*
X127692158Y-136566421D01*
X127692160Y-136566420D01*
X127700817Y-136564060D01*
X127822991Y-136489045D01*
X127857054Y-136451413D01*
X127913178Y-136389407D01*
X127919200Y-136382754D01*
X127964426Y-136289407D01*
X127977795Y-136261814D01*
X127977795Y-136261813D01*
X127981710Y-136253733D01*
X128005496Y-136112354D01*
X128005647Y-136100000D01*
X127997473Y-136042924D01*
X127990442Y-135993823D01*
X130994391Y-135993823D01*
X130995555Y-136002725D01*
X130995555Y-136002728D01*
X131002020Y-136052163D01*
X131012980Y-136135979D01*
X131016597Y-136144199D01*
X131050289Y-136220769D01*
X131070720Y-136267203D01*
X131076497Y-136274076D01*
X131076498Y-136274077D01*
X131154581Y-136366968D01*
X131162970Y-136376948D01*
X131282313Y-136456390D01*
X131419157Y-136499142D01*
X131428129Y-136499306D01*
X131428132Y-136499307D01*
X131493463Y-136500504D01*
X131562499Y-136501770D01*
X131571533Y-136499307D01*
X131692158Y-136466421D01*
X131692160Y-136466420D01*
X131700817Y-136464060D01*
X131822991Y-136389045D01*
X131919200Y-136282754D01*
X131981710Y-136153733D01*
X132005496Y-136012354D01*
X132005647Y-136000000D01*
X132004762Y-135993823D01*
X133394391Y-135993823D01*
X133395555Y-136002725D01*
X133395555Y-136002728D01*
X133402020Y-136052163D01*
X133412980Y-136135979D01*
X133416597Y-136144199D01*
X133450289Y-136220769D01*
X133470720Y-136267203D01*
X133476497Y-136274076D01*
X133476498Y-136274077D01*
X133554581Y-136366968D01*
X133562970Y-136376948D01*
X133682313Y-136456390D01*
X133819157Y-136499142D01*
X133828129Y-136499306D01*
X133828132Y-136499307D01*
X133893463Y-136500504D01*
X133962499Y-136501770D01*
X133971533Y-136499307D01*
X134092158Y-136466421D01*
X134092160Y-136466420D01*
X134100817Y-136464060D01*
X134222991Y-136389045D01*
X134319200Y-136282754D01*
X134381710Y-136153733D01*
X134405496Y-136012354D01*
X134405647Y-136000000D01*
X134385323Y-135858082D01*
X134375168Y-135835746D01*
X134336546Y-135750802D01*
X134325984Y-135727572D01*
X134292787Y-135689045D01*
X134238260Y-135625763D01*
X134238257Y-135625760D01*
X134232400Y-135618963D01*
X134112095Y-135540985D01*
X133974739Y-135499907D01*
X133965763Y-135499852D01*
X133965762Y-135499852D01*
X133905555Y-135499484D01*
X133831376Y-135499031D01*
X133693529Y-135538428D01*
X133572280Y-135614930D01*
X133566338Y-135621658D01*
X133566337Y-135621659D01*
X133551527Y-135638428D01*
X133477377Y-135722388D01*
X133416447Y-135852163D01*
X133415066Y-135861035D01*
X133399956Y-135958082D01*
X133394391Y-135993823D01*
X132004762Y-135993823D01*
X131985323Y-135858082D01*
X131975168Y-135835746D01*
X131936546Y-135750802D01*
X131925984Y-135727572D01*
X131892787Y-135689045D01*
X131838260Y-135625763D01*
X131838257Y-135625760D01*
X131832400Y-135618963D01*
X131712095Y-135540985D01*
X131574739Y-135499907D01*
X131565763Y-135499852D01*
X131565762Y-135499852D01*
X131505555Y-135499484D01*
X131431376Y-135499031D01*
X131293529Y-135538428D01*
X131172280Y-135614930D01*
X131166338Y-135621658D01*
X131166337Y-135621659D01*
X131151527Y-135638428D01*
X131077377Y-135722388D01*
X131016447Y-135852163D01*
X131015066Y-135861035D01*
X130999956Y-135958082D01*
X130994391Y-135993823D01*
X127990442Y-135993823D01*
X127986596Y-135966968D01*
X127986595Y-135966965D01*
X127985323Y-135958082D01*
X127975168Y-135935746D01*
X127943896Y-135866968D01*
X127925984Y-135827572D01*
X127890268Y-135786122D01*
X127838260Y-135725763D01*
X127838257Y-135725760D01*
X127832400Y-135718963D01*
X127712095Y-135640985D01*
X127574739Y-135599907D01*
X127565763Y-135599852D01*
X127565762Y-135599852D01*
X127505555Y-135599484D01*
X127431376Y-135599031D01*
X127293529Y-135638428D01*
X127172280Y-135714930D01*
X127166338Y-135721658D01*
X127166337Y-135721659D01*
X127158517Y-135730514D01*
X127077377Y-135822388D01*
X127016447Y-135952163D01*
X127015066Y-135961035D01*
X126999956Y-136058082D01*
X126994391Y-136093823D01*
X121393614Y-136093823D01*
X121312095Y-136040985D01*
X121174739Y-135999907D01*
X121165763Y-135999852D01*
X121165762Y-135999852D01*
X121105555Y-135999484D01*
X121031376Y-135999031D01*
X120893529Y-136038428D01*
X120772280Y-136114930D01*
X120677377Y-136222388D01*
X120616447Y-136352163D01*
X120609884Y-136394318D01*
X120596171Y-136482391D01*
X120594391Y-136493823D01*
X119004762Y-136493823D01*
X118997473Y-136442924D01*
X118986596Y-136366968D01*
X118986595Y-136366965D01*
X118985323Y-136358082D01*
X118975274Y-136335979D01*
X118966179Y-136315977D01*
X118925984Y-136227572D01*
X118896904Y-136193823D01*
X118838260Y-136125763D01*
X118838257Y-136125760D01*
X118832400Y-136118963D01*
X118712095Y-136040985D01*
X118574739Y-135999907D01*
X118565763Y-135999852D01*
X118565762Y-135999852D01*
X118505555Y-135999484D01*
X118431376Y-135999031D01*
X118293529Y-136038428D01*
X118172280Y-136114930D01*
X118077377Y-136222388D01*
X118016447Y-136352163D01*
X118009884Y-136394318D01*
X117996171Y-136482391D01*
X117994391Y-136493823D01*
X114609181Y-136493823D01*
X114613178Y-136489407D01*
X114619200Y-136482754D01*
X114654089Y-136410743D01*
X114677795Y-136361814D01*
X114677795Y-136361813D01*
X114681710Y-136353733D01*
X114705496Y-136212354D01*
X114705647Y-136200000D01*
X114693464Y-136114930D01*
X114686596Y-136066968D01*
X114686595Y-136066965D01*
X114685323Y-136058082D01*
X114625984Y-135927572D01*
X114620126Y-135920773D01*
X114620123Y-135920769D01*
X114543100Y-135831381D01*
X114513786Y-135766719D01*
X114524085Y-135696473D01*
X114545138Y-135664578D01*
X114613176Y-135589411D01*
X114613181Y-135589404D01*
X114619200Y-135582754D01*
X114681710Y-135453733D01*
X114705496Y-135312354D01*
X114705647Y-135300000D01*
X114691326Y-135200000D01*
X114686596Y-135166968D01*
X114686595Y-135166965D01*
X114685323Y-135158082D01*
X114667700Y-135119323D01*
X115294391Y-135119323D01*
X115295555Y-135128225D01*
X115295555Y-135128228D01*
X115298391Y-135149913D01*
X115312980Y-135261479D01*
X115370720Y-135392703D01*
X115376497Y-135399576D01*
X115376498Y-135399577D01*
X115383792Y-135408254D01*
X115462970Y-135502448D01*
X115517022Y-135538428D01*
X115547901Y-135558983D01*
X115582313Y-135581890D01*
X115719157Y-135624642D01*
X115728129Y-135624806D01*
X115728132Y-135624807D01*
X115793463Y-135626004D01*
X115862499Y-135627270D01*
X115871533Y-135624807D01*
X115992158Y-135591921D01*
X115992160Y-135591920D01*
X116000817Y-135589560D01*
X116122991Y-135514545D01*
X116134801Y-135501498D01*
X116213178Y-135414907D01*
X116219200Y-135408254D01*
X116270327Y-135302728D01*
X116277795Y-135287314D01*
X116277795Y-135287313D01*
X116281710Y-135279233D01*
X116295040Y-135200000D01*
X119194318Y-135200000D01*
X119214956Y-135356762D01*
X119275464Y-135502841D01*
X119371718Y-135628282D01*
X119378264Y-135633305D01*
X119388273Y-135640985D01*
X119497159Y-135724536D01*
X119643238Y-135785044D01*
X119800000Y-135805682D01*
X119808188Y-135804604D01*
X119948574Y-135786122D01*
X119956762Y-135785044D01*
X120102841Y-135724536D01*
X120211727Y-135640985D01*
X120221736Y-135633305D01*
X120228282Y-135628282D01*
X120324536Y-135502841D01*
X120385044Y-135356762D01*
X120405682Y-135200000D01*
X120385044Y-135043238D01*
X120324536Y-134897159D01*
X120228282Y-134771718D01*
X120102841Y-134675464D01*
X119956762Y-134614956D01*
X119800000Y-134594318D01*
X119643238Y-134614956D01*
X119497159Y-134675464D01*
X119371718Y-134771718D01*
X119275464Y-134897159D01*
X119214956Y-135043238D01*
X119194318Y-135200000D01*
X116295040Y-135200000D01*
X116305496Y-135137854D01*
X116305647Y-135125500D01*
X116293866Y-135043238D01*
X116286596Y-134992468D01*
X116286595Y-134992465D01*
X116285323Y-134983582D01*
X116225984Y-134853072D01*
X116180174Y-134799907D01*
X116138260Y-134751263D01*
X116138257Y-134751260D01*
X116132400Y-134744463D01*
X116012095Y-134666485D01*
X115874739Y-134625407D01*
X115865763Y-134625352D01*
X115865762Y-134625352D01*
X115805555Y-134624984D01*
X115731376Y-134624531D01*
X115593529Y-134663928D01*
X115472280Y-134740430D01*
X115466338Y-134747158D01*
X115466337Y-134747159D01*
X115440029Y-134776948D01*
X115377377Y-134847888D01*
X115316447Y-134977663D01*
X115294391Y-135119323D01*
X114667700Y-135119323D01*
X114625984Y-135027572D01*
X114588080Y-134983582D01*
X114538260Y-134925763D01*
X114538257Y-134925760D01*
X114532400Y-134918963D01*
X114412095Y-134840985D01*
X114274739Y-134799907D01*
X114265763Y-134799852D01*
X114265762Y-134799852D01*
X114205555Y-134799484D01*
X114131376Y-134799031D01*
X113993529Y-134838428D01*
X113872280Y-134914930D01*
X113777377Y-135022388D01*
X113716447Y-135152163D01*
X113715066Y-135161035D01*
X113696663Y-135279233D01*
X113694391Y-135293823D01*
X113695555Y-135302725D01*
X113695555Y-135302728D01*
X113702621Y-135356762D01*
X113712980Y-135435979D01*
X113770720Y-135567203D01*
X113776497Y-135574076D01*
X113776498Y-135574077D01*
X113797474Y-135599031D01*
X113821212Y-135627270D01*
X113857077Y-135669937D01*
X113885598Y-135734952D01*
X113874442Y-135805067D01*
X113855068Y-135834419D01*
X113777377Y-135922388D01*
X113716447Y-136052163D01*
X113715066Y-136061035D01*
X113699375Y-136161814D01*
X113694391Y-136193823D01*
X98200000Y-136193823D01*
X98200000Y-133512806D01*
X107487874Y-133512806D01*
X107489038Y-133521708D01*
X107489038Y-133521711D01*
X107493962Y-133559364D01*
X107506463Y-133654962D01*
X107510080Y-133663182D01*
X107549233Y-133752163D01*
X107564203Y-133786186D01*
X107569980Y-133793059D01*
X107569981Y-133793060D01*
X107650673Y-133889055D01*
X107656453Y-133895931D01*
X107775796Y-133975373D01*
X107912640Y-134018125D01*
X107921612Y-134018289D01*
X107921615Y-134018290D01*
X107986946Y-134019487D01*
X108055982Y-134020753D01*
X108065016Y-134018290D01*
X108185641Y-133985404D01*
X108185643Y-133985403D01*
X108194300Y-133983043D01*
X108316474Y-133908028D01*
X108323875Y-133899852D01*
X108406661Y-133808390D01*
X108412683Y-133801737D01*
X108475193Y-133672716D01*
X108498979Y-133531337D01*
X108499130Y-133518983D01*
X108484176Y-133414564D01*
X108494318Y-133344297D01*
X108540841Y-133290667D01*
X108608973Y-133270703D01*
X108646474Y-133276435D01*
X108719157Y-133299142D01*
X108728129Y-133299306D01*
X108728132Y-133299307D01*
X108793463Y-133300504D01*
X108862499Y-133301770D01*
X108871533Y-133299307D01*
X108992158Y-133266421D01*
X108992160Y-133266420D01*
X109000817Y-133264060D01*
X109122991Y-133189045D01*
X109209181Y-133093823D01*
X113194391Y-133093823D01*
X113195555Y-133102725D01*
X113195555Y-133102728D01*
X113196814Y-133112354D01*
X113212980Y-133235979D01*
X113270720Y-133367203D01*
X113276497Y-133374076D01*
X113276498Y-133374077D01*
X113279010Y-133377065D01*
X113358562Y-133471704D01*
X113362970Y-133476948D01*
X113362213Y-133477584D01*
X113395448Y-133531109D01*
X113394345Y-133602097D01*
X113368457Y-133648132D01*
X113339609Y-133680797D01*
X113302877Y-133722388D01*
X113241947Y-133852163D01*
X113234650Y-133899031D01*
X113222301Y-133978347D01*
X113219891Y-133993823D01*
X113221055Y-134002725D01*
X113221055Y-134002728D01*
X113227725Y-134053733D01*
X113238480Y-134135979D01*
X113296220Y-134267203D01*
X113301997Y-134274076D01*
X113301998Y-134274077D01*
X113379621Y-134366421D01*
X113388470Y-134376948D01*
X113507813Y-134456390D01*
X113644657Y-134499142D01*
X113653629Y-134499306D01*
X113653632Y-134499307D01*
X113718963Y-134500504D01*
X113787999Y-134501770D01*
X113797033Y-134499307D01*
X113917658Y-134466421D01*
X113917660Y-134466420D01*
X113926317Y-134464060D01*
X114048491Y-134389045D01*
X114082554Y-134351413D01*
X114138678Y-134289407D01*
X114144700Y-134282754D01*
X114190102Y-134189045D01*
X114203295Y-134161814D01*
X114203295Y-134161813D01*
X114207210Y-134153733D01*
X114230996Y-134012354D01*
X114231147Y-134000000D01*
X114222973Y-133942924D01*
X114212096Y-133866968D01*
X114212095Y-133866965D01*
X114210823Y-133858082D01*
X114181606Y-133793823D01*
X115068891Y-133793823D01*
X115070055Y-133802725D01*
X115070055Y-133802728D01*
X115076520Y-133852163D01*
X115087480Y-133935979D01*
X115145220Y-134067203D01*
X115150997Y-134074076D01*
X115150998Y-134074077D01*
X115229278Y-134167203D01*
X115237470Y-134176948D01*
X115356813Y-134256390D01*
X115493657Y-134299142D01*
X115502629Y-134299306D01*
X115502632Y-134299307D01*
X115567963Y-134300504D01*
X115636999Y-134301770D01*
X115646033Y-134299307D01*
X115766658Y-134266421D01*
X115766660Y-134266420D01*
X115775317Y-134264060D01*
X115897491Y-134189045D01*
X115993700Y-134082754D01*
X116041086Y-133984950D01*
X116052295Y-133961814D01*
X116052295Y-133961813D01*
X116056210Y-133953733D01*
X116066289Y-133893823D01*
X117994391Y-133893823D01*
X117995555Y-133902725D01*
X117995555Y-133902728D01*
X118001197Y-133945871D01*
X118012980Y-134035979D01*
X118016597Y-134044199D01*
X118050289Y-134120769D01*
X118070720Y-134167203D01*
X118076497Y-134174076D01*
X118076498Y-134174077D01*
X118154121Y-134266421D01*
X118162970Y-134276948D01*
X118282313Y-134356390D01*
X118419157Y-134399142D01*
X118428129Y-134399306D01*
X118428132Y-134399307D01*
X118493463Y-134400504D01*
X118562499Y-134401770D01*
X118571533Y-134399307D01*
X118692158Y-134366421D01*
X118692160Y-134366420D01*
X118700817Y-134364060D01*
X118822991Y-134289045D01*
X118857054Y-134251413D01*
X118913178Y-134189407D01*
X118919200Y-134182754D01*
X118964426Y-134089407D01*
X118977795Y-134061814D01*
X118977795Y-134061813D01*
X118981710Y-134053733D01*
X119005496Y-133912354D01*
X119005647Y-133900000D01*
X119004762Y-133893823D01*
X120594391Y-133893823D01*
X120595555Y-133902725D01*
X120595555Y-133902728D01*
X120601197Y-133945871D01*
X120612980Y-134035979D01*
X120616597Y-134044199D01*
X120650289Y-134120769D01*
X120670720Y-134167203D01*
X120676497Y-134174076D01*
X120676498Y-134174077D01*
X120754121Y-134266421D01*
X120762970Y-134276948D01*
X120882313Y-134356390D01*
X121019157Y-134399142D01*
X121028129Y-134399306D01*
X121028132Y-134399307D01*
X121093463Y-134400504D01*
X121162499Y-134401770D01*
X121171533Y-134399307D01*
X121191648Y-134393823D01*
X127094391Y-134393823D01*
X127095555Y-134402725D01*
X127095555Y-134402728D01*
X127102923Y-134459069D01*
X127112980Y-134535979D01*
X127170720Y-134667203D01*
X127176497Y-134674076D01*
X127176498Y-134674077D01*
X127254351Y-134766695D01*
X127262970Y-134776948D01*
X127270447Y-134781925D01*
X127367109Y-134846269D01*
X127382313Y-134856390D01*
X127519157Y-134899142D01*
X127528129Y-134899306D01*
X127528132Y-134899307D01*
X127593463Y-134900504D01*
X127662499Y-134901770D01*
X127671533Y-134899307D01*
X127792158Y-134866421D01*
X127792160Y-134866420D01*
X127800817Y-134864060D01*
X127922991Y-134789045D01*
X127932750Y-134778264D01*
X128013178Y-134689407D01*
X128019200Y-134682754D01*
X128054089Y-134610743D01*
X128077795Y-134561814D01*
X128077795Y-134561813D01*
X128081710Y-134553733D01*
X128105496Y-134412354D01*
X128105647Y-134400000D01*
X128091556Y-134301605D01*
X128086596Y-134266968D01*
X128086595Y-134266965D01*
X128085323Y-134258082D01*
X128025984Y-134127572D01*
X127979890Y-134074077D01*
X127938260Y-134025763D01*
X127938257Y-134025760D01*
X127932400Y-134018963D01*
X127812095Y-133940985D01*
X127674739Y-133899907D01*
X127665763Y-133899852D01*
X127665762Y-133899852D01*
X127605555Y-133899484D01*
X127531376Y-133899031D01*
X127393529Y-133938428D01*
X127272280Y-134014930D01*
X127177377Y-134122388D01*
X127116447Y-134252163D01*
X127109133Y-134299142D01*
X127096171Y-134382391D01*
X127094391Y-134393823D01*
X121191648Y-134393823D01*
X121292158Y-134366421D01*
X121292160Y-134366420D01*
X121300817Y-134364060D01*
X121422991Y-134289045D01*
X121457054Y-134251413D01*
X121513178Y-134189407D01*
X121519200Y-134182754D01*
X121564426Y-134089407D01*
X121577795Y-134061814D01*
X121577795Y-134061813D01*
X121581710Y-134053733D01*
X121605496Y-133912354D01*
X121605647Y-133900000D01*
X121591326Y-133800000D01*
X121586596Y-133766968D01*
X121586595Y-133766965D01*
X121585323Y-133758082D01*
X121575168Y-133735746D01*
X121550184Y-133680797D01*
X121525984Y-133627572D01*
X121473293Y-133566421D01*
X121438260Y-133525763D01*
X121438257Y-133525760D01*
X121432400Y-133518963D01*
X121312095Y-133440985D01*
X121174739Y-133399907D01*
X121165763Y-133399852D01*
X121165762Y-133399852D01*
X121105555Y-133399484D01*
X121031376Y-133399031D01*
X120893529Y-133438428D01*
X120772280Y-133514930D01*
X120766338Y-133521658D01*
X120766337Y-133521659D01*
X120728890Y-133564060D01*
X120677377Y-133622388D01*
X120616447Y-133752163D01*
X120608574Y-133802728D01*
X120599956Y-133858082D01*
X120594391Y-133893823D01*
X119004762Y-133893823D01*
X118991326Y-133800000D01*
X118986596Y-133766968D01*
X118986595Y-133766965D01*
X118985323Y-133758082D01*
X118975168Y-133735746D01*
X118950184Y-133680797D01*
X118925984Y-133627572D01*
X118873293Y-133566421D01*
X118838260Y-133525763D01*
X118838257Y-133525760D01*
X118832400Y-133518963D01*
X118712095Y-133440985D01*
X118574739Y-133399907D01*
X118565763Y-133399852D01*
X118565762Y-133399852D01*
X118505555Y-133399484D01*
X118431376Y-133399031D01*
X118293529Y-133438428D01*
X118172280Y-133514930D01*
X118166338Y-133521658D01*
X118166337Y-133521659D01*
X118128890Y-133564060D01*
X118077377Y-133622388D01*
X118016447Y-133752163D01*
X118008574Y-133802728D01*
X117999956Y-133858082D01*
X117994391Y-133893823D01*
X116066289Y-133893823D01*
X116079996Y-133812354D01*
X116080147Y-133800000D01*
X116071695Y-133740982D01*
X116081838Y-133670714D01*
X116128360Y-133617084D01*
X116163280Y-133601557D01*
X116292158Y-133566421D01*
X116292160Y-133566420D01*
X116300817Y-133564060D01*
X116422991Y-133489045D01*
X116519200Y-133382754D01*
X116581710Y-133253733D01*
X116605496Y-133112354D01*
X116605647Y-133100000D01*
X116594031Y-133018890D01*
X116586596Y-132966968D01*
X116586595Y-132966965D01*
X116585323Y-132958082D01*
X116575274Y-132935979D01*
X116529700Y-132835746D01*
X116525984Y-132827572D01*
X116496904Y-132793823D01*
X116438260Y-132725763D01*
X116438257Y-132725760D01*
X116432400Y-132718963D01*
X116312095Y-132640985D01*
X116174739Y-132599907D01*
X116165763Y-132599852D01*
X116165762Y-132599852D01*
X116105555Y-132599484D01*
X116031376Y-132599031D01*
X115893529Y-132638428D01*
X115772280Y-132714930D01*
X115677377Y-132822388D01*
X115616447Y-132952163D01*
X115607210Y-133011490D01*
X115598536Y-133067203D01*
X115594391Y-133093823D01*
X115595555Y-133102725D01*
X115595555Y-133102729D01*
X115603122Y-133160596D01*
X115592121Y-133230735D01*
X115544947Y-133283792D01*
X115505592Y-133298036D01*
X115505876Y-133299031D01*
X115368029Y-133338428D01*
X115246780Y-133414930D01*
X115240838Y-133421658D01*
X115240837Y-133421659D01*
X115226027Y-133438428D01*
X115151877Y-133522388D01*
X115090947Y-133652163D01*
X115088059Y-133670714D01*
X115071360Y-133777966D01*
X115068891Y-133793823D01*
X114181606Y-133793823D01*
X114151484Y-133727572D01*
X114057900Y-133618963D01*
X114060249Y-133616939D01*
X114030351Y-133570079D01*
X114030586Y-133499083D01*
X114057948Y-133450425D01*
X114113178Y-133389407D01*
X114119200Y-133382754D01*
X114181710Y-133253733D01*
X114205496Y-133112354D01*
X114205647Y-133100000D01*
X114194031Y-133018890D01*
X114186596Y-132966968D01*
X114186595Y-132966965D01*
X114185323Y-132958082D01*
X114175274Y-132935979D01*
X114129700Y-132835746D01*
X114125984Y-132827572D01*
X114096904Y-132793823D01*
X114038260Y-132725763D01*
X114038257Y-132725760D01*
X114032400Y-132718963D01*
X113912095Y-132640985D01*
X113774739Y-132599907D01*
X113765763Y-132599852D01*
X113765762Y-132599852D01*
X113705555Y-132599484D01*
X113631376Y-132599031D01*
X113493529Y-132638428D01*
X113372280Y-132714930D01*
X113277377Y-132822388D01*
X113216447Y-132952163D01*
X113207210Y-133011490D01*
X113198536Y-133067203D01*
X113194391Y-133093823D01*
X109209181Y-133093823D01*
X109219200Y-133082754D01*
X109281710Y-132953733D01*
X109305496Y-132812354D01*
X109305647Y-132800000D01*
X109293464Y-132714930D01*
X109286596Y-132666968D01*
X109286595Y-132666965D01*
X109285323Y-132658082D01*
X109225984Y-132527572D01*
X109190268Y-132486122D01*
X109138260Y-132425763D01*
X109138257Y-132425760D01*
X109132400Y-132418963D01*
X109012095Y-132340985D01*
X108874739Y-132299907D01*
X108865763Y-132299852D01*
X108865762Y-132299852D01*
X108805555Y-132299484D01*
X108731376Y-132299031D01*
X108593529Y-132338428D01*
X108472280Y-132414930D01*
X108466338Y-132421658D01*
X108466337Y-132421659D01*
X108424828Y-132468659D01*
X108377377Y-132522388D01*
X108316447Y-132652163D01*
X108294391Y-132793823D01*
X108295555Y-132802725D01*
X108295555Y-132802728D01*
X108309019Y-132905689D01*
X108298019Y-132975828D01*
X108250844Y-133028885D01*
X108182474Y-133048016D01*
X108147981Y-133042743D01*
X108101643Y-133028885D01*
X108068222Y-133018890D01*
X108059246Y-133018835D01*
X108059245Y-133018835D01*
X107999038Y-133018467D01*
X107924859Y-133018014D01*
X107787012Y-133057411D01*
X107665763Y-133133913D01*
X107659821Y-133140641D01*
X107659820Y-133140642D01*
X107627756Y-133176948D01*
X107570860Y-133241371D01*
X107509930Y-133371146D01*
X107503859Y-133410140D01*
X107490011Y-133499083D01*
X107487874Y-133512806D01*
X98200000Y-133512806D01*
X98200000Y-131900000D01*
X106094318Y-131900000D01*
X106095396Y-131908188D01*
X106112871Y-132040921D01*
X106114956Y-132056762D01*
X106175464Y-132202841D01*
X106271718Y-132328282D01*
X106278264Y-132333305D01*
X106288273Y-132340985D01*
X106397159Y-132424536D01*
X106543238Y-132485044D01*
X106700000Y-132505682D01*
X106708188Y-132504604D01*
X106848574Y-132486122D01*
X106856762Y-132485044D01*
X107002841Y-132424536D01*
X107111727Y-132340985D01*
X107121736Y-132333305D01*
X107128282Y-132328282D01*
X107224536Y-132202841D01*
X107285044Y-132056762D01*
X107287130Y-132040921D01*
X107304604Y-131908188D01*
X107305682Y-131900000D01*
X107285044Y-131743238D01*
X107224536Y-131597159D01*
X107202409Y-131568323D01*
X112494391Y-131568323D01*
X112495555Y-131577225D01*
X112495555Y-131577228D01*
X112499159Y-131604789D01*
X112512980Y-131710479D01*
X112524348Y-131736314D01*
X112560176Y-131817739D01*
X112570720Y-131841703D01*
X112576497Y-131848576D01*
X112576498Y-131848577D01*
X112657190Y-131944572D01*
X112662970Y-131951448D01*
X112782313Y-132030890D01*
X112919157Y-132073642D01*
X112928129Y-132073806D01*
X112928132Y-132073807D01*
X112993463Y-132075004D01*
X113062499Y-132076270D01*
X113071533Y-132073807D01*
X113192158Y-132040921D01*
X113192160Y-132040920D01*
X113200817Y-132038560D01*
X113322991Y-131963545D01*
X113351071Y-131932523D01*
X113413178Y-131863907D01*
X113419200Y-131857254D01*
X113481710Y-131728233D01*
X113487499Y-131693823D01*
X113794391Y-131693823D01*
X113795555Y-131702725D01*
X113795555Y-131702728D01*
X113798897Y-131728282D01*
X113812980Y-131835979D01*
X113816597Y-131844199D01*
X113865978Y-131956425D01*
X113870720Y-131967203D01*
X113876497Y-131974076D01*
X113876498Y-131974077D01*
X113932686Y-132040921D01*
X113962970Y-132076948D01*
X114082313Y-132156390D01*
X114219157Y-132199142D01*
X114228129Y-132199306D01*
X114228132Y-132199307D01*
X114293463Y-132200504D01*
X114362499Y-132201770D01*
X114371533Y-132199307D01*
X114492158Y-132166421D01*
X114492160Y-132166420D01*
X114500817Y-132164060D01*
X114622991Y-132089045D01*
X114645307Y-132064391D01*
X114713178Y-131989407D01*
X114719200Y-131982754D01*
X114781710Y-131853733D01*
X114805496Y-131712354D01*
X114805647Y-131700000D01*
X114800973Y-131667363D01*
X120994391Y-131667363D01*
X120995555Y-131676265D01*
X120995555Y-131676268D01*
X121000029Y-131710479D01*
X121012980Y-131809519D01*
X121070720Y-131940743D01*
X121076497Y-131947616D01*
X121076498Y-131947617D01*
X121154928Y-132040921D01*
X121162970Y-132050488D01*
X121202720Y-132076948D01*
X121227948Y-132093741D01*
X121282313Y-132129930D01*
X121419157Y-132172682D01*
X121428129Y-132172846D01*
X121428132Y-132172847D01*
X121493463Y-132174044D01*
X121562499Y-132175310D01*
X121571533Y-132172847D01*
X121692158Y-132139961D01*
X121692160Y-132139960D01*
X121700817Y-132137600D01*
X121822991Y-132062585D01*
X121919200Y-131956294D01*
X121973179Y-131844881D01*
X121977795Y-131835354D01*
X121977795Y-131835353D01*
X121981710Y-131827273D01*
X122004162Y-131693823D01*
X122494391Y-131693823D01*
X122495555Y-131702725D01*
X122495555Y-131702728D01*
X122498897Y-131728282D01*
X122512980Y-131835979D01*
X122516597Y-131844199D01*
X122565978Y-131956425D01*
X122570720Y-131967203D01*
X122576497Y-131974076D01*
X122576498Y-131974077D01*
X122632686Y-132040921D01*
X122662970Y-132076948D01*
X122782313Y-132156390D01*
X122919157Y-132199142D01*
X122928129Y-132199306D01*
X122928132Y-132199307D01*
X122993463Y-132200504D01*
X123062499Y-132201770D01*
X123071533Y-132199307D01*
X123192158Y-132166421D01*
X123192160Y-132166420D01*
X123200817Y-132164060D01*
X123322991Y-132089045D01*
X123345307Y-132064391D01*
X123413178Y-131989407D01*
X123419200Y-131982754D01*
X123481710Y-131853733D01*
X123505496Y-131712354D01*
X123505647Y-131700000D01*
X123490919Y-131597159D01*
X123486596Y-131566968D01*
X123486595Y-131566965D01*
X123485323Y-131558082D01*
X123473293Y-131531622D01*
X123442724Y-131464391D01*
X123425984Y-131427572D01*
X123407598Y-131406234D01*
X123338260Y-131325763D01*
X123338257Y-131325760D01*
X123332400Y-131318963D01*
X123303144Y-131300000D01*
X139694318Y-131300000D01*
X139695396Y-131308188D01*
X139712943Y-131441468D01*
X139714956Y-131456762D01*
X139775464Y-131602841D01*
X139780491Y-131609392D01*
X139850017Y-131700000D01*
X139871718Y-131728282D01*
X139878264Y-131733305D01*
X139891209Y-131743238D01*
X139997159Y-131824536D01*
X140143238Y-131885044D01*
X140300000Y-131905682D01*
X140308188Y-131904604D01*
X140448574Y-131886122D01*
X140456762Y-131885044D01*
X140602841Y-131824536D01*
X140708791Y-131743238D01*
X140721736Y-131733305D01*
X140728282Y-131728282D01*
X140749984Y-131700000D01*
X140819509Y-131609392D01*
X140824536Y-131602841D01*
X140885044Y-131456762D01*
X140887058Y-131441468D01*
X140904604Y-131308188D01*
X140905682Y-131300000D01*
X140892497Y-131199852D01*
X140886122Y-131151426D01*
X140885044Y-131143238D01*
X140824536Y-130997159D01*
X140728282Y-130871718D01*
X140602841Y-130775464D01*
X140456762Y-130714956D01*
X140300000Y-130694318D01*
X140143238Y-130714956D01*
X139997159Y-130775464D01*
X139871718Y-130871718D01*
X139775464Y-130997159D01*
X139714956Y-131143238D01*
X139713878Y-131151426D01*
X139707503Y-131199852D01*
X139694318Y-131300000D01*
X123303144Y-131300000D01*
X123212095Y-131240985D01*
X123074739Y-131199907D01*
X123065763Y-131199852D01*
X123065762Y-131199852D01*
X123005555Y-131199484D01*
X122931376Y-131199031D01*
X122793529Y-131238428D01*
X122672280Y-131314930D01*
X122577377Y-131422388D01*
X122516447Y-131552163D01*
X122512213Y-131579359D01*
X122498299Y-131668724D01*
X122494391Y-131693823D01*
X122004162Y-131693823D01*
X122005496Y-131685894D01*
X122005647Y-131673540D01*
X121994430Y-131595211D01*
X121986596Y-131540508D01*
X121986595Y-131540505D01*
X121985323Y-131531622D01*
X121925984Y-131401112D01*
X121851747Y-131314956D01*
X121838260Y-131299303D01*
X121838257Y-131299300D01*
X121832400Y-131292503D01*
X121712095Y-131214525D01*
X121574739Y-131173447D01*
X121565763Y-131173392D01*
X121565762Y-131173392D01*
X121505555Y-131173024D01*
X121431376Y-131172571D01*
X121293529Y-131211968D01*
X121172280Y-131288470D01*
X121166338Y-131295198D01*
X121166337Y-131295199D01*
X121146098Y-131318116D01*
X121077377Y-131395928D01*
X121016447Y-131525703D01*
X121008425Y-131577228D01*
X121004134Y-131604789D01*
X120994391Y-131667363D01*
X114800973Y-131667363D01*
X114790919Y-131597159D01*
X114786596Y-131566968D01*
X114786595Y-131566965D01*
X114785323Y-131558082D01*
X114773293Y-131531622D01*
X114742724Y-131464391D01*
X114725984Y-131427572D01*
X114707598Y-131406234D01*
X114638260Y-131325763D01*
X114638257Y-131325760D01*
X114632400Y-131318963D01*
X114512095Y-131240985D01*
X114374739Y-131199907D01*
X114365763Y-131199852D01*
X114365762Y-131199852D01*
X114305555Y-131199484D01*
X114231376Y-131199031D01*
X114093529Y-131238428D01*
X113972280Y-131314930D01*
X113877377Y-131422388D01*
X113816447Y-131552163D01*
X113812213Y-131579359D01*
X113798299Y-131668724D01*
X113794391Y-131693823D01*
X113487499Y-131693823D01*
X113505496Y-131586854D01*
X113505647Y-131574500D01*
X113490928Y-131471718D01*
X113486596Y-131441468D01*
X113486595Y-131441465D01*
X113485323Y-131432582D01*
X113425984Y-131302072D01*
X113369020Y-131235962D01*
X113338260Y-131200263D01*
X113338257Y-131200260D01*
X113332400Y-131193463D01*
X113212095Y-131115485D01*
X113074739Y-131074407D01*
X113065763Y-131074352D01*
X113065762Y-131074352D01*
X113005555Y-131073984D01*
X112931376Y-131073531D01*
X112793529Y-131112928D01*
X112672280Y-131189430D01*
X112666338Y-131196158D01*
X112666337Y-131196159D01*
X112663027Y-131199907D01*
X112577377Y-131296888D01*
X112516447Y-131426663D01*
X112515066Y-131435535D01*
X112498722Y-131540508D01*
X112494391Y-131568323D01*
X107202409Y-131568323D01*
X107128282Y-131471718D01*
X107002841Y-131375464D01*
X106856762Y-131314956D01*
X106700000Y-131294318D01*
X106543238Y-131314956D01*
X106397159Y-131375464D01*
X106271718Y-131471718D01*
X106175464Y-131597159D01*
X106114956Y-131743238D01*
X106094318Y-131900000D01*
X98200000Y-131900000D01*
X98200000Y-129593823D01*
X101794391Y-129593823D01*
X101795555Y-129602725D01*
X101795555Y-129602728D01*
X101798407Y-129624536D01*
X101812980Y-129735979D01*
X101870720Y-129867203D01*
X101876497Y-129874076D01*
X101876498Y-129874077D01*
X101883792Y-129882754D01*
X101962970Y-129976948D01*
X102082313Y-130056390D01*
X102219157Y-130099142D01*
X102228129Y-130099306D01*
X102228132Y-130099307D01*
X102293463Y-130100504D01*
X102362499Y-130101770D01*
X102371533Y-130099307D01*
X102492158Y-130066421D01*
X102492160Y-130066420D01*
X102500817Y-130064060D01*
X102622991Y-129989045D01*
X102719200Y-129882754D01*
X102768068Y-129781890D01*
X102777795Y-129761814D01*
X102777795Y-129761813D01*
X102781710Y-129753733D01*
X102805496Y-129612354D01*
X102805647Y-129600000D01*
X102785323Y-129458082D01*
X102775274Y-129435979D01*
X102763185Y-129409392D01*
X102725984Y-129327572D01*
X102696904Y-129293823D01*
X102638260Y-129225763D01*
X102638257Y-129225760D01*
X102632400Y-129218963D01*
X102512095Y-129140985D01*
X102374739Y-129099907D01*
X102365763Y-129099852D01*
X102365762Y-129099852D01*
X102305555Y-129099484D01*
X102231376Y-129099031D01*
X102093529Y-129138428D01*
X101972280Y-129214930D01*
X101877377Y-129322388D01*
X101816447Y-129452163D01*
X101814142Y-129466968D01*
X101798536Y-129567203D01*
X101794391Y-129593823D01*
X98200000Y-129593823D01*
X98200000Y-128593823D01*
X100894391Y-128593823D01*
X100895555Y-128602725D01*
X100895555Y-128602728D01*
X100896814Y-128612354D01*
X100912980Y-128735979D01*
X100970720Y-128867203D01*
X100976497Y-128874076D01*
X100976498Y-128874077D01*
X101046685Y-128957575D01*
X101062970Y-128976948D01*
X101182313Y-129056390D01*
X101319157Y-129099142D01*
X101328129Y-129099306D01*
X101328132Y-129099307D01*
X101393463Y-129100504D01*
X101462499Y-129101770D01*
X101471533Y-129099307D01*
X101592158Y-129066421D01*
X101592160Y-129066420D01*
X101600817Y-129064060D01*
X101722991Y-128989045D01*
X101819200Y-128882754D01*
X101868051Y-128781925D01*
X101877795Y-128761814D01*
X101877795Y-128761813D01*
X101881710Y-128753733D01*
X101891789Y-128693823D01*
X102794391Y-128693823D01*
X102795555Y-128702725D01*
X102795555Y-128702728D01*
X102802225Y-128753733D01*
X102812980Y-128835979D01*
X102816597Y-128844199D01*
X102866484Y-128957575D01*
X102870720Y-128967203D01*
X102876497Y-128974076D01*
X102876498Y-128974077D01*
X102954121Y-129066421D01*
X102962970Y-129076948D01*
X102970447Y-129081925D01*
X103066511Y-129145871D01*
X103082313Y-129156390D01*
X103219157Y-129199142D01*
X103228129Y-129199306D01*
X103228132Y-129199307D01*
X103293463Y-129200504D01*
X103362499Y-129201770D01*
X103371533Y-129199307D01*
X103492158Y-129166421D01*
X103492160Y-129166420D01*
X103500817Y-129164060D01*
X103605149Y-129100000D01*
X106094318Y-129100000D01*
X106114956Y-129256762D01*
X106175464Y-129402841D01*
X106271718Y-129528282D01*
X106397159Y-129624536D01*
X106543238Y-129685044D01*
X106700000Y-129705682D01*
X106708188Y-129704604D01*
X106848574Y-129686122D01*
X106856762Y-129685044D01*
X107002841Y-129624536D01*
X107128282Y-129528282D01*
X107224536Y-129402841D01*
X107269693Y-129293823D01*
X119894391Y-129293823D01*
X119895555Y-129302725D01*
X119895555Y-129302728D01*
X119898126Y-129322388D01*
X119912980Y-129435979D01*
X119916597Y-129444199D01*
X119955805Y-129533305D01*
X119970720Y-129567203D01*
X119976497Y-129574076D01*
X119976498Y-129574077D01*
X120056739Y-129669535D01*
X120062970Y-129676948D01*
X120182313Y-129756390D01*
X120190888Y-129759069D01*
X120206864Y-129764060D01*
X120319157Y-129799142D01*
X120328129Y-129799306D01*
X120328132Y-129799307D01*
X120393463Y-129800504D01*
X120462499Y-129801770D01*
X120471533Y-129799307D01*
X120592158Y-129766421D01*
X120592160Y-129766420D01*
X120600817Y-129764060D01*
X120722991Y-129689045D01*
X120729014Y-129682391D01*
X120729018Y-129682388D01*
X120755764Y-129652839D01*
X120816307Y-129615758D01*
X120887287Y-129617295D01*
X120945630Y-129656319D01*
X120962970Y-129676948D01*
X121082313Y-129756390D01*
X121090888Y-129759069D01*
X121106864Y-129764060D01*
X121219157Y-129799142D01*
X121228129Y-129799306D01*
X121228132Y-129799307D01*
X121293463Y-129800504D01*
X121362499Y-129801770D01*
X121371533Y-129799307D01*
X121492158Y-129766421D01*
X121492160Y-129766420D01*
X121500817Y-129764060D01*
X121622991Y-129689045D01*
X121640164Y-129670073D01*
X121713178Y-129589407D01*
X121719200Y-129582754D01*
X121781710Y-129453733D01*
X121804324Y-129319323D01*
X122494391Y-129319323D01*
X122495555Y-129328225D01*
X122495555Y-129328228D01*
X122503685Y-129390401D01*
X122512980Y-129461479D01*
X122570720Y-129592703D01*
X122576497Y-129599576D01*
X122576498Y-129599577D01*
X122655651Y-129693741D01*
X122662970Y-129702448D01*
X122722641Y-129742169D01*
X122755528Y-129764060D01*
X122782313Y-129781890D01*
X122919157Y-129824642D01*
X122928129Y-129824806D01*
X122928132Y-129824807D01*
X122993463Y-129826004D01*
X123062499Y-129827270D01*
X123071533Y-129824807D01*
X123192158Y-129791921D01*
X123192160Y-129791920D01*
X123200817Y-129789560D01*
X123322991Y-129714545D01*
X123366876Y-129666061D01*
X123427419Y-129628980D01*
X123498399Y-129630517D01*
X123549791Y-129664889D01*
X123550503Y-129664093D01*
X123556149Y-129669141D01*
X123556738Y-129669535D01*
X123557188Y-129670070D01*
X123562970Y-129676948D01*
X123682313Y-129756390D01*
X123690888Y-129759069D01*
X123706864Y-129764060D01*
X123819157Y-129799142D01*
X123828129Y-129799306D01*
X123828132Y-129799307D01*
X123893463Y-129800504D01*
X123962499Y-129801770D01*
X123971533Y-129799307D01*
X124092158Y-129766421D01*
X124092160Y-129766420D01*
X124100817Y-129764060D01*
X124222991Y-129689045D01*
X124240164Y-129670073D01*
X124313178Y-129589407D01*
X124319200Y-129582754D01*
X124381710Y-129453733D01*
X124405496Y-129312354D01*
X124405647Y-129300000D01*
X124393464Y-129214930D01*
X124386596Y-129166968D01*
X124386595Y-129166965D01*
X124385323Y-129158082D01*
X124325984Y-129027572D01*
X124287366Y-128982754D01*
X124238260Y-128925763D01*
X124238257Y-128925760D01*
X124232400Y-128918963D01*
X124112095Y-128840985D01*
X123974739Y-128799907D01*
X123965763Y-128799852D01*
X123965762Y-128799852D01*
X123905555Y-128799484D01*
X123831376Y-128799031D01*
X123693529Y-128838428D01*
X123572280Y-128914930D01*
X123566337Y-128921659D01*
X123566336Y-128921660D01*
X123533592Y-128958735D01*
X123473505Y-128996553D01*
X123402512Y-128995882D01*
X123343698Y-128957575D01*
X123332400Y-128944463D01*
X123212095Y-128866485D01*
X123074739Y-128825407D01*
X123065763Y-128825352D01*
X123065762Y-128825352D01*
X123005555Y-128824984D01*
X122931376Y-128824531D01*
X122793529Y-128863928D01*
X122672280Y-128940430D01*
X122577377Y-129047888D01*
X122516447Y-129177663D01*
X122510777Y-129214080D01*
X122496233Y-129307493D01*
X122494391Y-129319323D01*
X121804324Y-129319323D01*
X121805496Y-129312354D01*
X121805647Y-129300000D01*
X121793464Y-129214930D01*
X121786596Y-129166968D01*
X121786595Y-129166965D01*
X121785323Y-129158082D01*
X121725984Y-129027572D01*
X121687366Y-128982754D01*
X121638260Y-128925763D01*
X121638257Y-128925760D01*
X121632400Y-128918963D01*
X121512095Y-128840985D01*
X121374739Y-128799907D01*
X121365763Y-128799852D01*
X121365762Y-128799852D01*
X121305555Y-128799484D01*
X121231376Y-128799031D01*
X121093529Y-128838428D01*
X120972280Y-128914930D01*
X120946198Y-128944463D01*
X120944715Y-128946142D01*
X120884630Y-128983961D01*
X120813636Y-128983291D01*
X120754820Y-128944983D01*
X120739416Y-128927105D01*
X120738259Y-128925762D01*
X120738257Y-128925760D01*
X120732400Y-128918963D01*
X120612095Y-128840985D01*
X120474739Y-128799907D01*
X120465763Y-128799852D01*
X120465762Y-128799852D01*
X120405555Y-128799484D01*
X120331376Y-128799031D01*
X120193529Y-128838428D01*
X120072280Y-128914930D01*
X120066338Y-128921658D01*
X120066337Y-128921659D01*
X120040192Y-128951263D01*
X119977377Y-129022388D01*
X119916447Y-129152163D01*
X119894391Y-129293823D01*
X107269693Y-129293823D01*
X107285044Y-129256762D01*
X107305682Y-129100000D01*
X107287084Y-128958735D01*
X107286122Y-128951426D01*
X107285044Y-128943238D01*
X107224536Y-128797159D01*
X107150119Y-128700177D01*
X107133305Y-128678264D01*
X107128282Y-128671718D01*
X107002841Y-128575464D01*
X106856762Y-128514956D01*
X106700000Y-128494318D01*
X106543238Y-128514956D01*
X106397159Y-128575464D01*
X106271718Y-128671718D01*
X106266695Y-128678264D01*
X106249881Y-128700177D01*
X106175464Y-128797159D01*
X106114956Y-128943238D01*
X106113878Y-128951426D01*
X106112916Y-128958735D01*
X106094318Y-129100000D01*
X103605149Y-129100000D01*
X103622991Y-129089045D01*
X103657054Y-129051413D01*
X103713178Y-128989407D01*
X103719200Y-128982754D01*
X103766770Y-128884569D01*
X103777795Y-128861814D01*
X103777795Y-128861813D01*
X103781710Y-128853733D01*
X103805496Y-128712354D01*
X103805647Y-128700000D01*
X103791326Y-128600000D01*
X103786596Y-128566968D01*
X103786595Y-128566965D01*
X103785323Y-128558082D01*
X103775274Y-128535979D01*
X103757307Y-128496464D01*
X103725984Y-128427572D01*
X103696904Y-128393823D01*
X108394391Y-128393823D01*
X108395555Y-128402725D01*
X108395555Y-128402728D01*
X108402794Y-128458082D01*
X108412980Y-128535979D01*
X108470720Y-128667203D01*
X108476497Y-128674076D01*
X108476498Y-128674077D01*
X108557190Y-128770072D01*
X108562970Y-128776948D01*
X108570447Y-128781925D01*
X108666511Y-128845871D01*
X108682313Y-128856390D01*
X108690888Y-128859069D01*
X108706390Y-128863912D01*
X108819157Y-128899142D01*
X108828129Y-128899306D01*
X108828132Y-128899307D01*
X108893463Y-128900504D01*
X108962499Y-128901770D01*
X108971533Y-128899307D01*
X109092158Y-128866421D01*
X109092160Y-128866420D01*
X109100817Y-128864060D01*
X109222991Y-128789045D01*
X109319200Y-128682754D01*
X109368746Y-128580491D01*
X109377795Y-128561814D01*
X109377795Y-128561813D01*
X109381710Y-128553733D01*
X109404324Y-128419323D01*
X112794391Y-128419323D01*
X112795555Y-128428225D01*
X112795555Y-128428228D01*
X112798391Y-128449913D01*
X112812980Y-128561479D01*
X112870720Y-128692703D01*
X112876497Y-128699576D01*
X112876498Y-128699577D01*
X112953017Y-128790608D01*
X112962970Y-128802448D01*
X113017022Y-128838428D01*
X113066511Y-128871371D01*
X113082313Y-128881890D01*
X113219157Y-128924642D01*
X113228129Y-128924806D01*
X113228132Y-128924807D01*
X113293463Y-128926004D01*
X113362499Y-128927270D01*
X113371533Y-128924807D01*
X113492158Y-128891921D01*
X113492160Y-128891920D01*
X113500817Y-128889560D01*
X113622991Y-128814545D01*
X113634801Y-128801498D01*
X113713178Y-128714907D01*
X113719200Y-128708254D01*
X113770327Y-128602728D01*
X113777795Y-128587314D01*
X113777795Y-128587313D01*
X113781710Y-128579233D01*
X113805496Y-128437854D01*
X113805647Y-128425500D01*
X113794877Y-128350296D01*
X113786596Y-128292468D01*
X113786595Y-128292465D01*
X113785323Y-128283582D01*
X113781002Y-128274077D01*
X113757168Y-128221659D01*
X113725984Y-128153072D01*
X113693747Y-128115659D01*
X113638260Y-128051263D01*
X113638257Y-128051260D01*
X113632400Y-128044463D01*
X113554272Y-127993823D01*
X113994391Y-127993823D01*
X113995555Y-128002725D01*
X113995555Y-128002728D01*
X114001013Y-128044463D01*
X114012980Y-128135979D01*
X114016597Y-128144199D01*
X114055838Y-128233380D01*
X114070720Y-128267203D01*
X114076497Y-128274076D01*
X114076498Y-128274077D01*
X114142498Y-128352594D01*
X114162970Y-128376948D01*
X114204900Y-128404859D01*
X114243208Y-128430359D01*
X114282313Y-128456390D01*
X114419157Y-128499142D01*
X114428129Y-128499306D01*
X114428132Y-128499307D01*
X114493463Y-128500504D01*
X114562499Y-128501770D01*
X114571533Y-128499307D01*
X114692158Y-128466421D01*
X114692160Y-128466420D01*
X114700817Y-128464060D01*
X114822991Y-128389045D01*
X114829014Y-128382391D01*
X114829018Y-128382388D01*
X114855764Y-128352839D01*
X114916307Y-128315758D01*
X114987287Y-128317295D01*
X115045630Y-128356319D01*
X115062970Y-128376948D01*
X115104900Y-128404859D01*
X115143208Y-128430359D01*
X115182313Y-128456390D01*
X115319157Y-128499142D01*
X115328129Y-128499306D01*
X115328132Y-128499307D01*
X115393463Y-128500504D01*
X115462499Y-128501770D01*
X115471533Y-128499307D01*
X115592158Y-128466421D01*
X115592160Y-128466420D01*
X115600817Y-128464060D01*
X115722991Y-128389045D01*
X115740164Y-128370073D01*
X115813178Y-128289407D01*
X115819200Y-128282754D01*
X115881710Y-128153733D01*
X115905496Y-128012354D01*
X115905647Y-128000000D01*
X115897473Y-127942924D01*
X115886596Y-127866968D01*
X115886595Y-127866965D01*
X115885323Y-127858082D01*
X115879909Y-127846173D01*
X115866179Y-127815977D01*
X115825984Y-127727572D01*
X115787829Y-127683291D01*
X115738260Y-127625763D01*
X115738257Y-127625760D01*
X115732400Y-127618963D01*
X115612095Y-127540985D01*
X115474739Y-127499907D01*
X115465763Y-127499852D01*
X115465762Y-127499852D01*
X115405555Y-127499484D01*
X115331376Y-127499031D01*
X115193529Y-127538428D01*
X115072280Y-127614930D01*
X115062714Y-127625762D01*
X115044715Y-127646142D01*
X114984630Y-127683961D01*
X114913636Y-127683291D01*
X114854820Y-127644983D01*
X114846927Y-127635822D01*
X114838259Y-127625762D01*
X114838257Y-127625760D01*
X114832400Y-127618963D01*
X114712095Y-127540985D01*
X114574739Y-127499907D01*
X114565763Y-127499852D01*
X114565762Y-127499852D01*
X114505555Y-127499484D01*
X114431376Y-127499031D01*
X114293529Y-127538428D01*
X114172280Y-127614930D01*
X114166338Y-127621658D01*
X114166337Y-127621659D01*
X114162713Y-127625763D01*
X114077377Y-127722388D01*
X114016447Y-127852163D01*
X114014142Y-127866968D01*
X113996845Y-127978063D01*
X113994391Y-127993823D01*
X113554272Y-127993823D01*
X113512095Y-127966485D01*
X113374739Y-127925407D01*
X113365763Y-127925352D01*
X113365762Y-127925352D01*
X113305555Y-127924984D01*
X113231376Y-127924531D01*
X113093529Y-127963928D01*
X112972280Y-128040430D01*
X112877377Y-128147888D01*
X112816447Y-128277663D01*
X112808958Y-128325763D01*
X112796233Y-128407493D01*
X112794391Y-128419323D01*
X109404324Y-128419323D01*
X109405496Y-128412354D01*
X109405647Y-128400000D01*
X109393464Y-128314930D01*
X109386596Y-128266968D01*
X109386595Y-128266965D01*
X109385323Y-128258082D01*
X109325984Y-128127572D01*
X109260232Y-128051263D01*
X109238260Y-128025763D01*
X109238257Y-128025760D01*
X109232400Y-128018963D01*
X109112095Y-127940985D01*
X108974739Y-127899907D01*
X108965763Y-127899852D01*
X108965762Y-127899852D01*
X108905555Y-127899484D01*
X108831376Y-127899031D01*
X108693529Y-127938428D01*
X108572280Y-128014930D01*
X108566338Y-128021658D01*
X108566337Y-128021659D01*
X108540192Y-128051263D01*
X108477377Y-128122388D01*
X108416447Y-128252163D01*
X108410648Y-128289407D01*
X108396171Y-128382391D01*
X108394391Y-128393823D01*
X103696904Y-128393823D01*
X103692787Y-128389045D01*
X103638260Y-128325763D01*
X103638257Y-128325760D01*
X103632400Y-128318963D01*
X103512095Y-128240985D01*
X103374739Y-128199907D01*
X103365763Y-128199852D01*
X103365762Y-128199852D01*
X103305555Y-128199484D01*
X103231376Y-128199031D01*
X103093529Y-128238428D01*
X102972280Y-128314930D01*
X102966338Y-128321658D01*
X102966337Y-128321659D01*
X102938871Y-128352759D01*
X102877377Y-128422388D01*
X102816447Y-128552163D01*
X102811342Y-128584950D01*
X102797833Y-128671718D01*
X102794391Y-128693823D01*
X101891789Y-128693823D01*
X101905496Y-128612354D01*
X101905647Y-128600000D01*
X101895203Y-128527074D01*
X101886596Y-128466968D01*
X101886595Y-128466965D01*
X101885323Y-128458082D01*
X101875168Y-128435746D01*
X101852072Y-128384950D01*
X101825984Y-128327572D01*
X101787366Y-128282754D01*
X101738260Y-128225763D01*
X101738257Y-128225760D01*
X101732400Y-128218963D01*
X101612095Y-128140985D01*
X101474739Y-128099907D01*
X101465763Y-128099852D01*
X101465762Y-128099852D01*
X101405555Y-128099484D01*
X101331376Y-128099031D01*
X101193529Y-128138428D01*
X101072280Y-128214930D01*
X101066338Y-128221658D01*
X101066337Y-128221659D01*
X101051527Y-128238428D01*
X100977377Y-128322388D01*
X100916447Y-128452163D01*
X100909133Y-128499142D01*
X100896467Y-128580491D01*
X100894391Y-128593823D01*
X98200000Y-128593823D01*
X98200000Y-127844812D01*
X107093336Y-127844812D01*
X107094500Y-127853714D01*
X107094500Y-127853717D01*
X107100877Y-127902480D01*
X107111925Y-127986968D01*
X107115542Y-127995188D01*
X107162752Y-128102480D01*
X107169665Y-128118192D01*
X107175442Y-128125065D01*
X107175443Y-128125066D01*
X107254929Y-128219626D01*
X107261915Y-128227937D01*
X107269392Y-128232914D01*
X107345509Y-128283582D01*
X107381258Y-128307379D01*
X107389833Y-128310058D01*
X107390777Y-128310353D01*
X107518102Y-128350131D01*
X107527074Y-128350295D01*
X107527077Y-128350296D01*
X107592408Y-128351493D01*
X107661444Y-128352759D01*
X107670478Y-128350296D01*
X107791103Y-128317410D01*
X107791105Y-128317409D01*
X107799762Y-128315049D01*
X107921936Y-128240034D01*
X107948995Y-128210140D01*
X108012123Y-128140396D01*
X108018145Y-128133743D01*
X108058106Y-128051263D01*
X108076740Y-128012803D01*
X108076740Y-128012802D01*
X108080655Y-128004722D01*
X108104441Y-127863343D01*
X108104592Y-127850989D01*
X108086918Y-127727572D01*
X108085541Y-127717957D01*
X108085540Y-127717954D01*
X108084268Y-127709071D01*
X108024929Y-127578561D01*
X107996761Y-127545871D01*
X107937205Y-127476752D01*
X107937202Y-127476749D01*
X107931345Y-127469952D01*
X107811040Y-127391974D01*
X107673684Y-127350896D01*
X107664708Y-127350841D01*
X107664707Y-127350841D01*
X107604500Y-127350473D01*
X107530321Y-127350020D01*
X107392474Y-127389417D01*
X107271225Y-127465919D01*
X107176322Y-127573377D01*
X107115392Y-127703152D01*
X107093336Y-127844812D01*
X98200000Y-127844812D01*
X98200000Y-125993823D01*
X104394391Y-125993823D01*
X104395555Y-126002725D01*
X104395555Y-126002728D01*
X104402912Y-126058983D01*
X104412980Y-126135979D01*
X104416597Y-126144199D01*
X104463884Y-126251666D01*
X104470720Y-126267203D01*
X104476497Y-126274076D01*
X104476498Y-126274077D01*
X104500373Y-126302480D01*
X104562970Y-126376948D01*
X104570447Y-126381925D01*
X104666511Y-126445871D01*
X104682313Y-126456390D01*
X104819157Y-126499142D01*
X104828129Y-126499306D01*
X104828132Y-126499307D01*
X104893463Y-126500504D01*
X104962499Y-126501770D01*
X104971533Y-126499307D01*
X105092158Y-126466421D01*
X105092160Y-126466420D01*
X105100817Y-126464060D01*
X105216019Y-126393326D01*
X108394391Y-126393326D01*
X108395555Y-126402228D01*
X108395555Y-126402231D01*
X108402988Y-126459069D01*
X108412980Y-126535482D01*
X108470720Y-126666706D01*
X108476497Y-126673579D01*
X108476498Y-126673580D01*
X108554999Y-126766968D01*
X108562970Y-126776451D01*
X108682313Y-126855893D01*
X108819157Y-126898645D01*
X108828129Y-126898809D01*
X108828132Y-126898810D01*
X108893064Y-126900000D01*
X108962499Y-126901273D01*
X108971533Y-126898810D01*
X109092158Y-126865924D01*
X109092160Y-126865923D01*
X109100817Y-126863563D01*
X109214400Y-126793823D01*
X127894391Y-126793823D01*
X127895555Y-126802725D01*
X127895555Y-126802728D01*
X127896814Y-126812354D01*
X127912980Y-126935979D01*
X127970720Y-127067203D01*
X127976497Y-127074076D01*
X127976498Y-127074077D01*
X127983792Y-127082754D01*
X128062970Y-127176948D01*
X128182313Y-127256390D01*
X128319157Y-127299142D01*
X128328129Y-127299306D01*
X128328132Y-127299307D01*
X128393463Y-127300504D01*
X128462499Y-127301770D01*
X128471533Y-127299307D01*
X128592158Y-127266421D01*
X128592160Y-127266420D01*
X128600817Y-127264060D01*
X128722991Y-127189045D01*
X128819200Y-127082754D01*
X128881710Y-126953733D01*
X128891789Y-126893823D01*
X130394391Y-126893823D01*
X130395555Y-126902725D01*
X130395555Y-126902728D01*
X130402225Y-126953733D01*
X130412980Y-127035979D01*
X130470720Y-127167203D01*
X130476497Y-127174076D01*
X130476498Y-127174077D01*
X130554121Y-127266421D01*
X130562970Y-127276948D01*
X130570447Y-127281925D01*
X130674060Y-127350896D01*
X130682313Y-127356390D01*
X130819157Y-127399142D01*
X130828129Y-127399306D01*
X130828132Y-127399307D01*
X130893463Y-127400504D01*
X130962499Y-127401770D01*
X130971533Y-127399307D01*
X131092158Y-127366421D01*
X131092160Y-127366420D01*
X131100817Y-127364060D01*
X131222991Y-127289045D01*
X131257054Y-127251413D01*
X131313178Y-127189407D01*
X131319200Y-127182754D01*
X131364426Y-127089407D01*
X131377795Y-127061814D01*
X131377795Y-127061813D01*
X131381710Y-127053733D01*
X131405496Y-126912354D01*
X131405647Y-126900000D01*
X131391326Y-126800000D01*
X131386596Y-126766968D01*
X131386595Y-126766965D01*
X131385323Y-126758082D01*
X131325984Y-126627572D01*
X131261932Y-126553236D01*
X131238260Y-126525763D01*
X131238257Y-126525760D01*
X131232400Y-126518963D01*
X131112095Y-126440985D01*
X130974739Y-126399907D01*
X130965763Y-126399852D01*
X130965762Y-126399852D01*
X130905555Y-126399484D01*
X130831376Y-126399031D01*
X130693529Y-126438428D01*
X130572280Y-126514930D01*
X130566338Y-126521658D01*
X130566337Y-126521659D01*
X130531313Y-126561317D01*
X130477377Y-126622388D01*
X130416447Y-126752163D01*
X130411891Y-126781428D01*
X130398735Y-126865924D01*
X130394391Y-126893823D01*
X128891789Y-126893823D01*
X128905496Y-126812354D01*
X128905647Y-126800000D01*
X128888785Y-126682257D01*
X128886596Y-126666968D01*
X128886595Y-126666965D01*
X128885323Y-126658082D01*
X128875168Y-126635746D01*
X128841327Y-126561317D01*
X128825984Y-126527572D01*
X128801487Y-126499142D01*
X128738260Y-126425763D01*
X128738257Y-126425760D01*
X128732400Y-126418963D01*
X128612095Y-126340985D01*
X128474739Y-126299907D01*
X128465763Y-126299852D01*
X128465762Y-126299852D01*
X128405555Y-126299484D01*
X128331376Y-126299031D01*
X128193529Y-126338428D01*
X128072280Y-126414930D01*
X128066338Y-126421658D01*
X128066337Y-126421659D01*
X128028890Y-126464060D01*
X127977377Y-126522388D01*
X127916447Y-126652163D01*
X127910726Y-126688910D01*
X127896321Y-126781428D01*
X127894391Y-126793823D01*
X109214400Y-126793823D01*
X109222991Y-126788548D01*
X109319200Y-126682257D01*
X109381710Y-126553236D01*
X109405496Y-126411857D01*
X109405647Y-126399503D01*
X109397267Y-126340985D01*
X109386596Y-126266471D01*
X109386595Y-126266468D01*
X109385323Y-126257585D01*
X109325984Y-126127075D01*
X109304038Y-126101605D01*
X109287463Y-126082369D01*
X109258149Y-126017706D01*
X109268448Y-125947460D01*
X109289501Y-125915566D01*
X109313176Y-125889411D01*
X109313181Y-125889404D01*
X109319200Y-125882754D01*
X109362287Y-125793823D01*
X118294391Y-125793823D01*
X118295555Y-125802725D01*
X118295555Y-125802728D01*
X118302020Y-125852163D01*
X118312980Y-125935979D01*
X118370720Y-126067203D01*
X118376497Y-126074076D01*
X118376498Y-126074077D01*
X118457190Y-126170072D01*
X118462970Y-126176948D01*
X118582313Y-126256390D01*
X118719157Y-126299142D01*
X118728129Y-126299306D01*
X118728132Y-126299307D01*
X118793463Y-126300504D01*
X118862499Y-126301770D01*
X118871533Y-126299307D01*
X118992158Y-126266421D01*
X118992160Y-126266420D01*
X119000817Y-126264060D01*
X119122991Y-126189045D01*
X119219200Y-126082754D01*
X119268051Y-125981925D01*
X119277795Y-125961814D01*
X119277795Y-125961813D01*
X119281710Y-125953733D01*
X119305496Y-125812354D01*
X119305647Y-125800000D01*
X119304762Y-125793823D01*
X120494391Y-125793823D01*
X120495555Y-125802725D01*
X120495555Y-125802728D01*
X120502020Y-125852163D01*
X120512980Y-125935979D01*
X120570720Y-126067203D01*
X120576497Y-126074076D01*
X120576498Y-126074077D01*
X120657190Y-126170072D01*
X120662970Y-126176948D01*
X120782313Y-126256390D01*
X120919157Y-126299142D01*
X120928129Y-126299306D01*
X120928132Y-126299307D01*
X120993463Y-126300504D01*
X121062499Y-126301770D01*
X121071533Y-126299307D01*
X121192158Y-126266421D01*
X121192160Y-126266420D01*
X121200817Y-126264060D01*
X121322991Y-126189045D01*
X121419200Y-126082754D01*
X121468051Y-125981925D01*
X121477795Y-125961814D01*
X121477795Y-125961813D01*
X121481710Y-125953733D01*
X121505496Y-125812354D01*
X121505647Y-125800000D01*
X121485323Y-125658082D01*
X121425984Y-125527572D01*
X121368652Y-125461035D01*
X121338260Y-125425763D01*
X121338257Y-125425760D01*
X121332400Y-125418963D01*
X121212095Y-125340985D01*
X121074739Y-125299907D01*
X121065763Y-125299852D01*
X121065762Y-125299852D01*
X121005555Y-125299484D01*
X120931376Y-125299031D01*
X120793529Y-125338428D01*
X120672280Y-125414930D01*
X120577377Y-125522388D01*
X120516447Y-125652163D01*
X120515066Y-125661035D01*
X120499375Y-125761814D01*
X120494391Y-125793823D01*
X119304762Y-125793823D01*
X119285323Y-125658082D01*
X119225984Y-125527572D01*
X119168652Y-125461035D01*
X119138260Y-125425763D01*
X119138257Y-125425760D01*
X119132400Y-125418963D01*
X119012095Y-125340985D01*
X118874739Y-125299907D01*
X118865763Y-125299852D01*
X118865762Y-125299852D01*
X118805555Y-125299484D01*
X118731376Y-125299031D01*
X118593529Y-125338428D01*
X118472280Y-125414930D01*
X118377377Y-125522388D01*
X118316447Y-125652163D01*
X118315066Y-125661035D01*
X118299375Y-125761814D01*
X118294391Y-125793823D01*
X109362287Y-125793823D01*
X109381710Y-125753733D01*
X109405496Y-125612354D01*
X109405647Y-125600000D01*
X109397473Y-125542924D01*
X109386596Y-125466968D01*
X109386595Y-125466965D01*
X109385323Y-125458082D01*
X109325984Y-125327572D01*
X109301391Y-125299031D01*
X109238260Y-125225763D01*
X109238257Y-125225760D01*
X109232400Y-125218963D01*
X109112095Y-125140985D01*
X108974739Y-125099907D01*
X108965763Y-125099852D01*
X108965762Y-125099852D01*
X108905555Y-125099484D01*
X108831376Y-125099031D01*
X108693529Y-125138428D01*
X108572280Y-125214930D01*
X108477377Y-125322388D01*
X108416447Y-125452163D01*
X108394391Y-125593823D01*
X108395555Y-125602725D01*
X108395555Y-125602728D01*
X108402020Y-125652163D01*
X108412980Y-125735979D01*
X108470720Y-125867203D01*
X108476497Y-125874076D01*
X108476498Y-125874077D01*
X108513796Y-125918449D01*
X108542317Y-125983465D01*
X108531159Y-126053579D01*
X108511786Y-126082930D01*
X108477377Y-126121891D01*
X108416447Y-126251666D01*
X108409014Y-126299408D01*
X108396094Y-126382391D01*
X108394391Y-126393326D01*
X105216019Y-126393326D01*
X105222991Y-126389045D01*
X105319200Y-126282754D01*
X105368051Y-126181925D01*
X105377795Y-126161814D01*
X105377795Y-126161813D01*
X105381710Y-126153733D01*
X105405496Y-126012354D01*
X105405647Y-126000000D01*
X105389809Y-125889407D01*
X105386596Y-125866968D01*
X105386595Y-125866965D01*
X105385323Y-125858082D01*
X105325984Y-125727572D01*
X105268652Y-125661035D01*
X105238260Y-125625763D01*
X105238257Y-125625760D01*
X105232400Y-125618963D01*
X105193614Y-125593823D01*
X106194391Y-125593823D01*
X106195555Y-125602725D01*
X106195555Y-125602728D01*
X106202020Y-125652163D01*
X106212980Y-125735979D01*
X106270720Y-125867203D01*
X106276497Y-125874076D01*
X106276498Y-125874077D01*
X106357190Y-125970072D01*
X106362970Y-125976948D01*
X106482313Y-126056390D01*
X106619157Y-126099142D01*
X106628129Y-126099306D01*
X106628132Y-126099307D01*
X106693463Y-126100504D01*
X106762499Y-126101770D01*
X106771533Y-126099307D01*
X106892158Y-126066421D01*
X106892160Y-126066420D01*
X106900817Y-126064060D01*
X107022991Y-125989045D01*
X107119200Y-125882754D01*
X107181710Y-125753733D01*
X107205496Y-125612354D01*
X107205647Y-125600000D01*
X107197473Y-125542924D01*
X107186596Y-125466968D01*
X107186595Y-125466965D01*
X107185323Y-125458082D01*
X107125984Y-125327572D01*
X107101391Y-125299031D01*
X107038260Y-125225763D01*
X107038257Y-125225760D01*
X107032400Y-125218963D01*
X106912095Y-125140985D01*
X106774739Y-125099907D01*
X106765763Y-125099852D01*
X106765762Y-125099852D01*
X106705555Y-125099484D01*
X106631376Y-125099031D01*
X106493529Y-125138428D01*
X106372280Y-125214930D01*
X106277377Y-125322388D01*
X106216447Y-125452163D01*
X106194391Y-125593823D01*
X105193614Y-125593823D01*
X105112095Y-125540985D01*
X104974739Y-125499907D01*
X104965763Y-125499852D01*
X104965762Y-125499852D01*
X104905555Y-125499484D01*
X104831376Y-125499031D01*
X104693529Y-125538428D01*
X104572280Y-125614930D01*
X104477377Y-125722388D01*
X104416447Y-125852163D01*
X104413035Y-125874077D01*
X104396004Y-125983465D01*
X104394391Y-125993823D01*
X98200000Y-125993823D01*
X98200000Y-124593823D01*
X119394391Y-124593823D01*
X119395555Y-124602725D01*
X119395555Y-124602728D01*
X119396814Y-124612354D01*
X119412980Y-124735979D01*
X119470720Y-124867203D01*
X119476497Y-124874076D01*
X119476498Y-124874077D01*
X119483792Y-124882754D01*
X119562970Y-124976948D01*
X119682313Y-125056390D01*
X119819157Y-125099142D01*
X119828129Y-125099306D01*
X119828132Y-125099307D01*
X119893463Y-125100504D01*
X119962499Y-125101770D01*
X119971533Y-125099307D01*
X120092158Y-125066421D01*
X120092160Y-125066420D01*
X120100817Y-125064060D01*
X120222991Y-124989045D01*
X120319200Y-124882754D01*
X120381710Y-124753733D01*
X120405496Y-124612354D01*
X120405647Y-124600000D01*
X120385323Y-124458082D01*
X120325984Y-124327572D01*
X120307598Y-124306234D01*
X120238260Y-124225763D01*
X120238257Y-124225760D01*
X120232400Y-124218963D01*
X120112095Y-124140985D01*
X119974739Y-124099907D01*
X119965763Y-124099852D01*
X119965762Y-124099852D01*
X119905555Y-124099484D01*
X119831376Y-124099031D01*
X119693529Y-124138428D01*
X119572280Y-124214930D01*
X119477377Y-124322388D01*
X119416447Y-124452163D01*
X119394391Y-124593823D01*
X98200000Y-124593823D01*
X98200000Y-123193823D01*
X101494391Y-123193823D01*
X101495555Y-123202725D01*
X101495555Y-123202728D01*
X101502020Y-123252163D01*
X101512980Y-123335979D01*
X101516597Y-123344199D01*
X101564423Y-123452891D01*
X101570720Y-123467203D01*
X101576497Y-123474076D01*
X101576498Y-123474077D01*
X101657190Y-123570072D01*
X101662970Y-123576948D01*
X101782313Y-123656390D01*
X101919157Y-123699142D01*
X101928129Y-123699306D01*
X101928132Y-123699307D01*
X101993463Y-123700504D01*
X102062499Y-123701770D01*
X102071533Y-123699307D01*
X102192158Y-123666421D01*
X102192160Y-123666420D01*
X102200817Y-123664060D01*
X102322991Y-123589045D01*
X102419200Y-123482754D01*
X102435701Y-123448696D01*
X102483404Y-123396113D01*
X102551963Y-123377668D01*
X102619611Y-123399216D01*
X102664422Y-123452890D01*
X102670720Y-123467203D01*
X102676497Y-123474076D01*
X102676498Y-123474077D01*
X102757190Y-123570072D01*
X102762970Y-123576948D01*
X102882313Y-123656390D01*
X103019157Y-123699142D01*
X103028129Y-123699306D01*
X103028132Y-123699307D01*
X103093463Y-123700504D01*
X103162499Y-123701770D01*
X103171533Y-123699307D01*
X103292158Y-123666421D01*
X103292160Y-123666420D01*
X103300817Y-123664060D01*
X103405058Y-123600056D01*
X109600624Y-123600056D01*
X109601788Y-123608958D01*
X109601788Y-123608961D01*
X109608341Y-123659069D01*
X109619213Y-123742212D01*
X109622830Y-123750432D01*
X109669453Y-123856390D01*
X109676953Y-123873436D01*
X109682730Y-123880309D01*
X109682731Y-123880310D01*
X109690025Y-123888987D01*
X109769203Y-123983181D01*
X109888546Y-124062623D01*
X110025390Y-124105375D01*
X110034362Y-124105539D01*
X110034365Y-124105540D01*
X110099696Y-124106737D01*
X110168732Y-124108003D01*
X110177766Y-124105540D01*
X110298391Y-124072654D01*
X110298393Y-124072653D01*
X110307050Y-124070293D01*
X110429224Y-123995278D01*
X110525433Y-123888987D01*
X110587943Y-123759966D01*
X110611729Y-123618587D01*
X110611880Y-123606233D01*
X110596920Y-123501770D01*
X110592829Y-123473201D01*
X110592828Y-123473198D01*
X110591556Y-123464315D01*
X110559505Y-123393823D01*
X118294391Y-123393823D01*
X118295555Y-123402725D01*
X118295555Y-123402728D01*
X118302835Y-123458396D01*
X118312980Y-123535979D01*
X118370720Y-123667203D01*
X118376497Y-123674076D01*
X118376498Y-123674077D01*
X118415102Y-123720002D01*
X118462970Y-123776948D01*
X118582313Y-123856390D01*
X118719157Y-123899142D01*
X118728129Y-123899306D01*
X118728132Y-123899307D01*
X118793463Y-123900504D01*
X118862499Y-123901770D01*
X118871533Y-123899307D01*
X118992158Y-123866421D01*
X118992160Y-123866420D01*
X119000817Y-123864060D01*
X119122991Y-123789045D01*
X119136919Y-123773658D01*
X119213178Y-123689407D01*
X119219200Y-123682754D01*
X119268051Y-123581925D01*
X119277795Y-123561814D01*
X119277795Y-123561813D01*
X119281710Y-123553733D01*
X119305496Y-123412354D01*
X119305647Y-123400000D01*
X119304762Y-123393823D01*
X120494391Y-123393823D01*
X120495555Y-123402725D01*
X120495555Y-123402728D01*
X120502835Y-123458396D01*
X120512980Y-123535979D01*
X120570720Y-123667203D01*
X120576497Y-123674076D01*
X120576498Y-123674077D01*
X120615102Y-123720002D01*
X120662970Y-123776948D01*
X120782313Y-123856390D01*
X120919157Y-123899142D01*
X120928129Y-123899306D01*
X120928132Y-123899307D01*
X120993463Y-123900504D01*
X121062499Y-123901770D01*
X121071533Y-123899307D01*
X121192158Y-123866421D01*
X121192160Y-123866420D01*
X121200817Y-123864060D01*
X121322991Y-123789045D01*
X121336919Y-123773658D01*
X121413178Y-123689407D01*
X121419200Y-123682754D01*
X121468051Y-123581925D01*
X121477795Y-123561814D01*
X121477795Y-123561813D01*
X121481710Y-123553733D01*
X121505496Y-123412354D01*
X121505647Y-123400000D01*
X121489809Y-123289407D01*
X121486596Y-123266968D01*
X121486595Y-123266965D01*
X121485323Y-123258082D01*
X121473463Y-123231996D01*
X121440439Y-123159364D01*
X121425984Y-123127572D01*
X121387338Y-123082721D01*
X121338260Y-123025763D01*
X121338257Y-123025760D01*
X121332400Y-123018963D01*
X121212095Y-122940985D01*
X121074739Y-122899907D01*
X121065763Y-122899852D01*
X121065762Y-122899852D01*
X121005555Y-122899484D01*
X120931376Y-122899031D01*
X120793529Y-122938428D01*
X120672280Y-123014930D01*
X120577377Y-123122388D01*
X120516447Y-123252163D01*
X120513035Y-123274077D01*
X120496171Y-123382391D01*
X120494391Y-123393823D01*
X119304762Y-123393823D01*
X119289809Y-123289407D01*
X119286596Y-123266968D01*
X119286595Y-123266965D01*
X119285323Y-123258082D01*
X119273463Y-123231996D01*
X119240439Y-123159364D01*
X119225984Y-123127572D01*
X119187338Y-123082721D01*
X119138260Y-123025763D01*
X119138257Y-123025760D01*
X119132400Y-123018963D01*
X119012095Y-122940985D01*
X118874739Y-122899907D01*
X118865763Y-122899852D01*
X118865762Y-122899852D01*
X118805555Y-122899484D01*
X118731376Y-122899031D01*
X118593529Y-122938428D01*
X118472280Y-123014930D01*
X118377377Y-123122388D01*
X118316447Y-123252163D01*
X118313035Y-123274077D01*
X118296171Y-123382391D01*
X118294391Y-123393823D01*
X110559505Y-123393823D01*
X110532217Y-123333805D01*
X110493961Y-123289407D01*
X110444493Y-123231996D01*
X110444490Y-123231993D01*
X110438633Y-123225196D01*
X110318328Y-123147218D01*
X110180972Y-123106140D01*
X110171996Y-123106085D01*
X110171995Y-123106085D01*
X110111788Y-123105717D01*
X110037609Y-123105264D01*
X109899762Y-123144661D01*
X109778513Y-123221163D01*
X109683610Y-123328621D01*
X109622680Y-123458396D01*
X109615927Y-123501770D01*
X109604222Y-123576948D01*
X109600624Y-123600056D01*
X103405058Y-123600056D01*
X103422991Y-123589045D01*
X103519200Y-123482754D01*
X103570114Y-123377668D01*
X103577795Y-123361814D01*
X103577795Y-123361813D01*
X103581710Y-123353733D01*
X103605496Y-123212354D01*
X103605647Y-123200000D01*
X103592433Y-123107731D01*
X103586596Y-123066968D01*
X103586595Y-123066965D01*
X103585323Y-123058082D01*
X103556106Y-122993823D01*
X107594391Y-122993823D01*
X107595555Y-123002725D01*
X107595555Y-123002728D01*
X107602020Y-123052163D01*
X107612980Y-123135979D01*
X107616597Y-123144199D01*
X107655229Y-123231996D01*
X107670720Y-123267203D01*
X107676497Y-123274076D01*
X107676498Y-123274077D01*
X107757190Y-123370072D01*
X107762970Y-123376948D01*
X107804900Y-123404859D01*
X107873118Y-123450269D01*
X107882313Y-123456390D01*
X108019157Y-123499142D01*
X108028129Y-123499306D01*
X108028132Y-123499307D01*
X108093463Y-123500504D01*
X108162499Y-123501770D01*
X108171533Y-123499307D01*
X108292158Y-123466421D01*
X108292160Y-123466420D01*
X108300817Y-123464060D01*
X108422991Y-123389045D01*
X108519200Y-123282754D01*
X108581710Y-123153733D01*
X108582677Y-123147987D01*
X108621555Y-123090485D01*
X108686806Y-123062506D01*
X108756825Y-123074246D01*
X108771640Y-123082719D01*
X108882313Y-123156390D01*
X109019157Y-123199142D01*
X109028129Y-123199306D01*
X109028132Y-123199307D01*
X109093463Y-123200504D01*
X109162499Y-123201770D01*
X109171533Y-123199307D01*
X109292158Y-123166421D01*
X109292160Y-123166420D01*
X109300817Y-123164060D01*
X109422991Y-123089045D01*
X109519200Y-122982754D01*
X109581710Y-122853733D01*
X109605496Y-122712354D01*
X109605647Y-122700000D01*
X109591556Y-122601605D01*
X109586596Y-122566968D01*
X109586595Y-122566965D01*
X109585323Y-122558082D01*
X109525984Y-122427572D01*
X109479890Y-122374077D01*
X109438260Y-122325763D01*
X109438257Y-122325760D01*
X109432400Y-122318963D01*
X109312095Y-122240985D01*
X109174739Y-122199907D01*
X109165763Y-122199852D01*
X109165762Y-122199852D01*
X109105555Y-122199484D01*
X109031376Y-122199031D01*
X108893529Y-122238428D01*
X108772280Y-122314930D01*
X108677377Y-122422388D01*
X108616447Y-122552163D01*
X108616441Y-122552199D01*
X108579872Y-122607737D01*
X108514968Y-122636512D01*
X108444810Y-122625629D01*
X108429889Y-122617335D01*
X108319633Y-122545871D01*
X108319634Y-122545871D01*
X108312095Y-122540985D01*
X108174739Y-122499907D01*
X108165763Y-122499852D01*
X108165762Y-122499852D01*
X108105555Y-122499484D01*
X108031376Y-122499031D01*
X107893529Y-122538428D01*
X107772280Y-122614930D01*
X107766338Y-122621658D01*
X107766337Y-122621659D01*
X107728890Y-122664060D01*
X107677377Y-122722388D01*
X107616447Y-122852163D01*
X107609150Y-122899031D01*
X107598536Y-122967203D01*
X107594391Y-122993823D01*
X103556106Y-122993823D01*
X103525984Y-122927572D01*
X103468652Y-122861035D01*
X103438260Y-122825763D01*
X103438257Y-122825760D01*
X103432400Y-122818963D01*
X103312095Y-122740985D01*
X103174739Y-122699907D01*
X103165763Y-122699852D01*
X103165762Y-122699852D01*
X103105555Y-122699484D01*
X103031376Y-122699031D01*
X102893529Y-122738428D01*
X102772280Y-122814930D01*
X102677377Y-122922388D01*
X102673563Y-122930512D01*
X102673562Y-122930513D01*
X102664355Y-122950123D01*
X102617297Y-123003283D01*
X102548968Y-123022564D01*
X102481063Y-123001843D01*
X102435600Y-122948721D01*
X102429702Y-122935748D01*
X102429700Y-122935745D01*
X102425984Y-122927572D01*
X102368652Y-122861035D01*
X102338260Y-122825763D01*
X102338257Y-122825760D01*
X102332400Y-122818963D01*
X102212095Y-122740985D01*
X102074739Y-122699907D01*
X102065763Y-122699852D01*
X102065762Y-122699852D01*
X102005555Y-122699484D01*
X101931376Y-122699031D01*
X101793529Y-122738428D01*
X101672280Y-122814930D01*
X101577377Y-122922388D01*
X101516447Y-123052163D01*
X101508179Y-123105264D01*
X101500887Y-123152104D01*
X101494391Y-123193823D01*
X98200000Y-123193823D01*
X98200000Y-122193823D01*
X104694391Y-122193823D01*
X104695555Y-122202725D01*
X104695555Y-122202728D01*
X104701197Y-122245871D01*
X104712980Y-122335979D01*
X104716597Y-122344199D01*
X104750289Y-122420769D01*
X104770720Y-122467203D01*
X104776497Y-122474076D01*
X104776498Y-122474077D01*
X104854121Y-122566421D01*
X104862970Y-122576948D01*
X104982313Y-122656390D01*
X105119157Y-122699142D01*
X105128129Y-122699306D01*
X105128132Y-122699307D01*
X105193463Y-122700504D01*
X105262499Y-122701770D01*
X105271533Y-122699307D01*
X105392158Y-122666421D01*
X105392160Y-122666420D01*
X105400817Y-122664060D01*
X105522991Y-122589045D01*
X105557054Y-122551413D01*
X105613178Y-122489407D01*
X105619200Y-122482754D01*
X105664426Y-122389407D01*
X105677795Y-122361814D01*
X105677795Y-122361813D01*
X105681710Y-122353733D01*
X105705496Y-122212354D01*
X105705647Y-122200000D01*
X105691326Y-122100000D01*
X105690441Y-122093823D01*
X128594391Y-122093823D01*
X128595555Y-122102725D01*
X128595555Y-122102728D01*
X128596814Y-122112354D01*
X128612980Y-122235979D01*
X128670720Y-122367203D01*
X128676497Y-122374076D01*
X128676498Y-122374077D01*
X128683792Y-122382754D01*
X128762970Y-122476948D01*
X128770447Y-122481925D01*
X128866511Y-122545871D01*
X128882313Y-122556390D01*
X129019157Y-122599142D01*
X129028129Y-122599306D01*
X129028132Y-122599307D01*
X129093463Y-122600504D01*
X129162499Y-122601770D01*
X129171533Y-122599307D01*
X129292158Y-122566421D01*
X129292160Y-122566420D01*
X129300817Y-122564060D01*
X129422991Y-122489045D01*
X129519200Y-122382754D01*
X129581710Y-122253733D01*
X129605496Y-122112354D01*
X129605647Y-122100000D01*
X129585323Y-121958082D01*
X129575168Y-121935746D01*
X129540439Y-121859364D01*
X129525984Y-121827572D01*
X129501487Y-121799142D01*
X129438260Y-121725763D01*
X129438257Y-121725760D01*
X129432400Y-121718963D01*
X129312095Y-121640985D01*
X129174739Y-121599907D01*
X129165763Y-121599852D01*
X129165762Y-121599852D01*
X129105555Y-121599484D01*
X129031376Y-121599031D01*
X128893529Y-121638428D01*
X128772280Y-121714930D01*
X128766338Y-121721658D01*
X128766337Y-121721659D01*
X128728890Y-121764060D01*
X128677377Y-121822388D01*
X128616447Y-121952163D01*
X128615066Y-121961035D01*
X128599956Y-122058082D01*
X128594391Y-122093823D01*
X105690441Y-122093823D01*
X105686596Y-122066968D01*
X105686595Y-122066965D01*
X105685323Y-122058082D01*
X105625984Y-121927572D01*
X105601487Y-121899142D01*
X105538260Y-121825763D01*
X105538257Y-121825760D01*
X105532400Y-121818963D01*
X105412095Y-121740985D01*
X105274739Y-121699907D01*
X105265763Y-121699852D01*
X105265762Y-121699852D01*
X105205555Y-121699484D01*
X105131376Y-121699031D01*
X104993529Y-121738428D01*
X104872280Y-121814930D01*
X104866338Y-121821658D01*
X104866337Y-121821659D01*
X104828890Y-121864060D01*
X104777377Y-121922388D01*
X104716447Y-122052163D01*
X104694391Y-122193823D01*
X98200000Y-122193823D01*
X98200000Y-121393823D01*
X110994391Y-121393823D01*
X110995555Y-121402725D01*
X110995555Y-121402728D01*
X111002225Y-121453733D01*
X111012980Y-121535979D01*
X111070720Y-121667203D01*
X111076497Y-121674076D01*
X111076498Y-121674077D01*
X111154121Y-121766421D01*
X111162970Y-121776948D01*
X111282313Y-121856390D01*
X111419157Y-121899142D01*
X111428129Y-121899306D01*
X111428132Y-121899307D01*
X111493463Y-121900504D01*
X111562499Y-121901770D01*
X111571533Y-121899307D01*
X111692158Y-121866421D01*
X111692160Y-121866420D01*
X111700817Y-121864060D01*
X111822991Y-121789045D01*
X111829012Y-121782393D01*
X111829018Y-121782388D01*
X111903678Y-121699904D01*
X111964221Y-121662823D01*
X112035201Y-121664360D01*
X112066912Y-121679572D01*
X112166511Y-121745871D01*
X112182313Y-121756390D01*
X112319157Y-121799142D01*
X112328129Y-121799306D01*
X112328132Y-121799307D01*
X112393463Y-121800504D01*
X112462499Y-121801770D01*
X112471533Y-121799307D01*
X112592158Y-121766421D01*
X112592160Y-121766420D01*
X112600817Y-121764060D01*
X112722991Y-121689045D01*
X112731566Y-121679572D01*
X112813178Y-121589407D01*
X112819200Y-121582754D01*
X112881710Y-121453733D01*
X112905496Y-121312354D01*
X112905647Y-121300000D01*
X112885323Y-121158082D01*
X112825984Y-121027572D01*
X112801344Y-120998976D01*
X112738260Y-120925763D01*
X112738257Y-120925760D01*
X112732400Y-120918963D01*
X112612095Y-120840985D01*
X112474739Y-120799907D01*
X112465763Y-120799852D01*
X112465762Y-120799852D01*
X112405555Y-120799484D01*
X112331376Y-120799031D01*
X112193529Y-120838428D01*
X112072280Y-120914930D01*
X112015243Y-120979513D01*
X111998054Y-120998976D01*
X111937968Y-121036795D01*
X111866975Y-121036125D01*
X111833356Y-121017488D01*
X111832400Y-121018963D01*
X111719633Y-120945871D01*
X111719634Y-120945871D01*
X111712095Y-120940985D01*
X111574739Y-120899907D01*
X111565763Y-120899852D01*
X111565762Y-120899852D01*
X111505555Y-120899484D01*
X111431376Y-120899031D01*
X111293529Y-120938428D01*
X111172280Y-121014930D01*
X111166338Y-121021658D01*
X111166337Y-121021659D01*
X111124829Y-121068659D01*
X111077377Y-121122388D01*
X111016447Y-121252163D01*
X111015066Y-121261035D01*
X110996583Y-121379746D01*
X110994391Y-121393823D01*
X98200000Y-121393823D01*
X98200000Y-120393823D01*
X114294391Y-120393823D01*
X114295555Y-120402725D01*
X114295555Y-120402728D01*
X114296814Y-120412354D01*
X114312980Y-120535979D01*
X114370720Y-120667203D01*
X114376497Y-120674076D01*
X114376498Y-120674077D01*
X114460281Y-120773749D01*
X114488802Y-120838764D01*
X114477646Y-120908879D01*
X114458272Y-120938230D01*
X114433610Y-120966155D01*
X114372680Y-121095930D01*
X114350624Y-121237590D01*
X114351788Y-121246492D01*
X114351788Y-121246495D01*
X114358155Y-121295184D01*
X114369213Y-121379746D01*
X114426953Y-121510970D01*
X114432730Y-121517843D01*
X114432731Y-121517844D01*
X114492886Y-121589407D01*
X114519203Y-121620715D01*
X114638546Y-121700157D01*
X114775390Y-121742909D01*
X114784362Y-121743073D01*
X114784365Y-121743074D01*
X114849696Y-121744271D01*
X114918732Y-121745537D01*
X114927766Y-121743074D01*
X115048391Y-121710188D01*
X115048393Y-121710187D01*
X115057050Y-121707827D01*
X115179224Y-121632812D01*
X115275433Y-121526521D01*
X115337943Y-121397500D01*
X115361729Y-121256121D01*
X115361880Y-121243767D01*
X115345240Y-121127572D01*
X115342829Y-121110735D01*
X115342828Y-121110732D01*
X115341556Y-121101849D01*
X115282217Y-120971339D01*
X115196732Y-120872129D01*
X115167418Y-120807466D01*
X115177717Y-120737221D01*
X115198769Y-120705326D01*
X115213178Y-120689407D01*
X115219200Y-120682754D01*
X115281710Y-120553733D01*
X115305496Y-120412354D01*
X115305647Y-120400000D01*
X115304762Y-120393823D01*
X128594391Y-120393823D01*
X128595555Y-120402725D01*
X128595555Y-120402728D01*
X128596814Y-120412354D01*
X128612980Y-120535979D01*
X128670720Y-120667203D01*
X128676497Y-120674076D01*
X128676498Y-120674077D01*
X128729576Y-120737221D01*
X128762970Y-120776948D01*
X128770447Y-120781925D01*
X128866511Y-120845871D01*
X128882313Y-120856390D01*
X129019157Y-120899142D01*
X129028129Y-120899306D01*
X129028132Y-120899307D01*
X129093463Y-120900504D01*
X129162499Y-120901770D01*
X129171533Y-120899307D01*
X129292158Y-120866421D01*
X129292160Y-120866420D01*
X129300817Y-120864060D01*
X129422991Y-120789045D01*
X129519200Y-120682754D01*
X129581710Y-120553733D01*
X129605496Y-120412354D01*
X129605647Y-120400000D01*
X129585323Y-120258082D01*
X129525984Y-120127572D01*
X129501487Y-120099142D01*
X129438260Y-120025763D01*
X129438257Y-120025760D01*
X129432400Y-120018963D01*
X129312095Y-119940985D01*
X129174739Y-119899907D01*
X129165763Y-119899852D01*
X129165762Y-119899852D01*
X129105555Y-119899484D01*
X129031376Y-119899031D01*
X128893529Y-119938428D01*
X128772280Y-120014930D01*
X128766338Y-120021658D01*
X128766337Y-120021659D01*
X128728890Y-120064060D01*
X128677377Y-120122388D01*
X128616447Y-120252163D01*
X128594391Y-120393823D01*
X115304762Y-120393823D01*
X115285323Y-120258082D01*
X115225984Y-120127572D01*
X115201487Y-120099142D01*
X115138260Y-120025763D01*
X115138257Y-120025760D01*
X115132400Y-120018963D01*
X115012095Y-119940985D01*
X114874739Y-119899907D01*
X114865763Y-119899852D01*
X114865762Y-119899852D01*
X114805555Y-119899484D01*
X114731376Y-119899031D01*
X114593529Y-119938428D01*
X114472280Y-120014930D01*
X114466338Y-120021658D01*
X114466337Y-120021659D01*
X114428890Y-120064060D01*
X114377377Y-120122388D01*
X114316447Y-120252163D01*
X114294391Y-120393823D01*
X98200000Y-120393823D01*
X98200000Y-119493823D01*
X116494391Y-119493823D01*
X116495555Y-119502725D01*
X116495555Y-119502728D01*
X116496814Y-119512354D01*
X116512980Y-119635979D01*
X116570720Y-119767203D01*
X116576497Y-119774076D01*
X116576498Y-119774077D01*
X116636653Y-119845640D01*
X116662970Y-119876948D01*
X116670447Y-119881925D01*
X116766511Y-119945871D01*
X116782313Y-119956390D01*
X116919157Y-119999142D01*
X116928129Y-119999306D01*
X116928132Y-119999307D01*
X116993463Y-120000504D01*
X117062499Y-120001770D01*
X117071533Y-119999307D01*
X117192158Y-119966421D01*
X117192160Y-119966420D01*
X117200817Y-119964060D01*
X117322991Y-119889045D01*
X117419200Y-119782754D01*
X117481710Y-119653733D01*
X117499153Y-119550056D01*
X119019891Y-119550056D01*
X119021055Y-119558958D01*
X119021055Y-119558961D01*
X119022314Y-119568587D01*
X119038480Y-119692212D01*
X119042097Y-119700432D01*
X119074766Y-119774677D01*
X119096220Y-119823436D01*
X119101997Y-119830309D01*
X119101998Y-119830310D01*
X119138788Y-119874077D01*
X119188470Y-119933181D01*
X119238405Y-119966421D01*
X119287961Y-119999408D01*
X119307813Y-120012623D01*
X119444657Y-120055375D01*
X119453629Y-120055539D01*
X119453632Y-120055540D01*
X119518963Y-120056737D01*
X119587999Y-120058003D01*
X119597033Y-120055540D01*
X119717658Y-120022654D01*
X119717660Y-120022653D01*
X119726317Y-120020293D01*
X119848491Y-119945278D01*
X119887230Y-119902480D01*
X119938678Y-119845640D01*
X119944700Y-119838987D01*
X120007210Y-119709966D01*
X120026750Y-119593823D01*
X131994391Y-119593823D01*
X131995555Y-119602725D01*
X131995555Y-119602728D01*
X132002225Y-119653733D01*
X132012980Y-119735979D01*
X132070720Y-119867203D01*
X132076497Y-119874076D01*
X132076498Y-119874077D01*
X132154121Y-119966421D01*
X132162970Y-119976948D01*
X132282313Y-120056390D01*
X132419157Y-120099142D01*
X132428129Y-120099306D01*
X132428132Y-120099307D01*
X132493463Y-120100504D01*
X132562499Y-120101770D01*
X132571533Y-120099307D01*
X132692158Y-120066421D01*
X132692160Y-120066420D01*
X132700817Y-120064060D01*
X132822991Y-119989045D01*
X132857054Y-119951413D01*
X132913178Y-119889407D01*
X132919200Y-119882754D01*
X132964426Y-119789407D01*
X132977795Y-119761814D01*
X132977795Y-119761813D01*
X132981710Y-119753733D01*
X133005496Y-119612354D01*
X133005647Y-119600000D01*
X132991326Y-119500000D01*
X132986596Y-119466968D01*
X132986595Y-119466965D01*
X132985323Y-119458082D01*
X132925984Y-119327572D01*
X132878007Y-119271892D01*
X132838260Y-119225763D01*
X132838257Y-119225760D01*
X132832400Y-119218963D01*
X132712095Y-119140985D01*
X132574739Y-119099907D01*
X132565763Y-119099852D01*
X132565762Y-119099852D01*
X132505555Y-119099484D01*
X132431376Y-119099031D01*
X132293529Y-119138428D01*
X132172280Y-119214930D01*
X132077377Y-119322388D01*
X132016447Y-119452163D01*
X132015066Y-119461035D01*
X131997574Y-119573382D01*
X131994391Y-119593823D01*
X120026750Y-119593823D01*
X120030996Y-119568587D01*
X120031147Y-119556233D01*
X120020939Y-119484950D01*
X120012096Y-119423201D01*
X120012095Y-119423198D01*
X120010823Y-119414315D01*
X119951484Y-119283805D01*
X119933098Y-119262467D01*
X119863760Y-119181996D01*
X119863757Y-119181993D01*
X119857900Y-119175196D01*
X119737595Y-119097218D01*
X119600239Y-119056140D01*
X119591263Y-119056085D01*
X119591262Y-119056085D01*
X119531055Y-119055717D01*
X119456876Y-119055264D01*
X119319029Y-119094661D01*
X119197780Y-119171163D01*
X119102877Y-119278621D01*
X119041947Y-119408396D01*
X119040566Y-119417268D01*
X119025015Y-119517149D01*
X119019891Y-119550056D01*
X117499153Y-119550056D01*
X117505496Y-119512354D01*
X117505647Y-119500000D01*
X117493376Y-119414315D01*
X117486596Y-119366968D01*
X117486595Y-119366965D01*
X117485323Y-119358082D01*
X117475168Y-119335746D01*
X117429700Y-119235746D01*
X117425984Y-119227572D01*
X117401487Y-119199142D01*
X117338260Y-119125763D01*
X117338257Y-119125760D01*
X117332400Y-119118963D01*
X117212095Y-119040985D01*
X117074739Y-118999907D01*
X117065763Y-118999852D01*
X117065762Y-118999852D01*
X117005555Y-118999484D01*
X116931376Y-118999031D01*
X116793529Y-119038428D01*
X116672280Y-119114930D01*
X116666338Y-119121658D01*
X116666337Y-119121659D01*
X116628890Y-119164060D01*
X116577377Y-119222388D01*
X116516447Y-119352163D01*
X116515066Y-119361035D01*
X116499956Y-119458082D01*
X116494391Y-119493823D01*
X98200000Y-119493823D01*
X98200000Y-118693823D01*
X120368891Y-118693823D01*
X120370055Y-118702725D01*
X120370055Y-118702728D01*
X120371314Y-118712354D01*
X120387480Y-118835979D01*
X120445220Y-118967203D01*
X120450997Y-118974076D01*
X120450998Y-118974077D01*
X120458292Y-118982754D01*
X120537470Y-119076948D01*
X120544947Y-119081925D01*
X120641011Y-119145871D01*
X120656813Y-119156390D01*
X120793657Y-119199142D01*
X120802629Y-119199306D01*
X120802632Y-119199307D01*
X120867963Y-119200504D01*
X120936999Y-119201770D01*
X120946033Y-119199307D01*
X121066658Y-119166421D01*
X121066660Y-119166420D01*
X121075317Y-119164060D01*
X121197491Y-119089045D01*
X121293700Y-118982754D01*
X121356210Y-118853733D01*
X121379996Y-118712354D01*
X121380147Y-118700000D01*
X121366056Y-118601605D01*
X121361096Y-118566968D01*
X121361095Y-118566965D01*
X121359823Y-118558082D01*
X121300484Y-118427572D01*
X121254390Y-118374077D01*
X121212760Y-118325763D01*
X121212757Y-118325760D01*
X121206900Y-118318963D01*
X121086595Y-118240985D01*
X120949239Y-118199907D01*
X120940263Y-118199852D01*
X120940262Y-118199852D01*
X120880055Y-118199484D01*
X120805876Y-118199031D01*
X120668029Y-118238428D01*
X120546780Y-118314930D01*
X120451877Y-118422388D01*
X120390947Y-118552163D01*
X120368891Y-118693823D01*
X98200000Y-118693823D01*
X98200000Y-117550500D01*
X103594318Y-117550500D01*
X103614956Y-117707262D01*
X103675464Y-117853341D01*
X103771718Y-117978782D01*
X103897159Y-118075036D01*
X104043238Y-118135544D01*
X104200000Y-118156182D01*
X104208188Y-118155104D01*
X104348574Y-118136622D01*
X104356762Y-118135544D01*
X104502841Y-118075036D01*
X104628282Y-117978782D01*
X104724536Y-117853341D01*
X104785044Y-117707262D01*
X104799165Y-117600000D01*
X105794318Y-117600000D01*
X105814956Y-117756762D01*
X105875464Y-117902841D01*
X105971718Y-118028282D01*
X106097159Y-118124536D01*
X106243238Y-118185044D01*
X106400000Y-118205682D01*
X106408188Y-118204604D01*
X106548574Y-118186122D01*
X106556762Y-118185044D01*
X106702841Y-118124536D01*
X106742867Y-118093823D01*
X116494391Y-118093823D01*
X116495555Y-118102725D01*
X116495555Y-118102728D01*
X116502404Y-118155104D01*
X116512980Y-118235979D01*
X116570720Y-118367203D01*
X116576497Y-118374076D01*
X116576498Y-118374077D01*
X116583792Y-118382754D01*
X116662970Y-118476948D01*
X116782313Y-118556390D01*
X116919157Y-118599142D01*
X116928129Y-118599306D01*
X116928132Y-118599307D01*
X116993463Y-118600504D01*
X117062499Y-118601770D01*
X117071533Y-118599307D01*
X117192158Y-118566421D01*
X117192160Y-118566420D01*
X117200817Y-118564060D01*
X117322991Y-118489045D01*
X117419200Y-118382754D01*
X117481710Y-118253733D01*
X117505496Y-118112354D01*
X117505647Y-118100000D01*
X117504762Y-118093823D01*
X119219891Y-118093823D01*
X119221055Y-118102725D01*
X119221055Y-118102728D01*
X119227904Y-118155104D01*
X119238480Y-118235979D01*
X119296220Y-118367203D01*
X119301997Y-118374076D01*
X119301998Y-118374077D01*
X119309292Y-118382754D01*
X119388470Y-118476948D01*
X119507813Y-118556390D01*
X119644657Y-118599142D01*
X119653629Y-118599306D01*
X119653632Y-118599307D01*
X119718963Y-118600504D01*
X119787999Y-118601770D01*
X119797033Y-118599307D01*
X119917658Y-118566421D01*
X119917660Y-118566420D01*
X119926317Y-118564060D01*
X120048491Y-118489045D01*
X120144700Y-118382754D01*
X120207210Y-118253733D01*
X120230996Y-118112354D01*
X120231147Y-118100000D01*
X120230262Y-118093823D01*
X130994391Y-118093823D01*
X130995555Y-118102725D01*
X130995555Y-118102728D01*
X131002404Y-118155104D01*
X131012980Y-118235979D01*
X131070720Y-118367203D01*
X131076497Y-118374076D01*
X131076498Y-118374077D01*
X131083792Y-118382754D01*
X131162970Y-118476948D01*
X131282313Y-118556390D01*
X131419157Y-118599142D01*
X131428129Y-118599306D01*
X131428132Y-118599307D01*
X131493463Y-118600504D01*
X131562499Y-118601770D01*
X131571533Y-118599307D01*
X131692158Y-118566421D01*
X131692160Y-118566420D01*
X131700817Y-118564060D01*
X131822991Y-118489045D01*
X131919200Y-118382754D01*
X131981710Y-118253733D01*
X131991789Y-118193823D01*
X135394391Y-118193823D01*
X135395555Y-118202725D01*
X135395555Y-118202728D01*
X135401197Y-118245871D01*
X135412980Y-118335979D01*
X135416597Y-118344199D01*
X135450289Y-118420769D01*
X135470720Y-118467203D01*
X135476497Y-118474076D01*
X135476498Y-118474077D01*
X135554121Y-118566421D01*
X135562970Y-118576948D01*
X135682313Y-118656390D01*
X135819157Y-118699142D01*
X135828129Y-118699306D01*
X135828132Y-118699307D01*
X135893463Y-118700504D01*
X135962499Y-118701770D01*
X135971533Y-118699307D01*
X136092158Y-118666421D01*
X136092160Y-118666420D01*
X136100817Y-118664060D01*
X136222991Y-118589045D01*
X136257054Y-118551413D01*
X136313178Y-118489407D01*
X136319200Y-118482754D01*
X136364426Y-118389407D01*
X136377795Y-118361814D01*
X136377795Y-118361813D01*
X136381710Y-118353733D01*
X136405496Y-118212354D01*
X136405647Y-118200000D01*
X136391326Y-118100000D01*
X136386596Y-118066968D01*
X136386595Y-118066965D01*
X136385323Y-118058082D01*
X136325984Y-117927572D01*
X136267667Y-117859892D01*
X136238260Y-117825763D01*
X136238257Y-117825760D01*
X136232400Y-117818963D01*
X136112095Y-117740985D01*
X135974739Y-117699907D01*
X135965763Y-117699852D01*
X135965762Y-117699852D01*
X135905555Y-117699484D01*
X135831376Y-117699031D01*
X135693529Y-117738428D01*
X135572280Y-117814930D01*
X135477377Y-117922388D01*
X135416447Y-118052163D01*
X135412886Y-118075036D01*
X135396250Y-118181884D01*
X135394391Y-118193823D01*
X131991789Y-118193823D01*
X132005496Y-118112354D01*
X132005647Y-118100000D01*
X131989007Y-117983805D01*
X131986596Y-117966968D01*
X131986595Y-117966965D01*
X131985323Y-117958082D01*
X131975168Y-117935746D01*
X131963185Y-117909392D01*
X131925984Y-117827572D01*
X131907598Y-117806234D01*
X131838260Y-117725763D01*
X131838257Y-117725760D01*
X131832400Y-117718963D01*
X131712095Y-117640985D01*
X131574739Y-117599907D01*
X131565763Y-117599852D01*
X131565762Y-117599852D01*
X131505555Y-117599484D01*
X131431376Y-117599031D01*
X131293529Y-117638428D01*
X131172280Y-117714930D01*
X131166338Y-117721658D01*
X131166337Y-117721659D01*
X131151527Y-117738428D01*
X131077377Y-117822388D01*
X131016447Y-117952163D01*
X131007210Y-118011490D01*
X130998099Y-118070009D01*
X130994391Y-118093823D01*
X120230262Y-118093823D01*
X120214507Y-117983805D01*
X120212096Y-117966968D01*
X120212095Y-117966965D01*
X120210823Y-117958082D01*
X120200668Y-117935746D01*
X120188685Y-117909392D01*
X120151484Y-117827572D01*
X120133098Y-117806234D01*
X120063760Y-117725763D01*
X120063757Y-117725760D01*
X120057900Y-117718963D01*
X119937595Y-117640985D01*
X119800239Y-117599907D01*
X119791263Y-117599852D01*
X119791262Y-117599852D01*
X119731055Y-117599484D01*
X119656876Y-117599031D01*
X119519029Y-117638428D01*
X119397780Y-117714930D01*
X119391838Y-117721658D01*
X119391837Y-117721659D01*
X119377027Y-117738428D01*
X119302877Y-117822388D01*
X119241947Y-117952163D01*
X119232710Y-118011490D01*
X119223599Y-118070009D01*
X119219891Y-118093823D01*
X117504762Y-118093823D01*
X117489007Y-117983805D01*
X117486596Y-117966968D01*
X117486595Y-117966965D01*
X117485323Y-117958082D01*
X117475168Y-117935746D01*
X117463185Y-117909392D01*
X117425984Y-117827572D01*
X117407598Y-117806234D01*
X117338260Y-117725763D01*
X117338257Y-117725760D01*
X117332400Y-117718963D01*
X117212095Y-117640985D01*
X117074739Y-117599907D01*
X117065763Y-117599852D01*
X117065762Y-117599852D01*
X117005555Y-117599484D01*
X116931376Y-117599031D01*
X116793529Y-117638428D01*
X116672280Y-117714930D01*
X116666338Y-117721658D01*
X116666337Y-117721659D01*
X116651527Y-117738428D01*
X116577377Y-117822388D01*
X116516447Y-117952163D01*
X116507210Y-118011490D01*
X116498099Y-118070009D01*
X116494391Y-118093823D01*
X106742867Y-118093823D01*
X106828282Y-118028282D01*
X106924536Y-117902841D01*
X106985044Y-117756762D01*
X107005682Y-117600000D01*
X106985044Y-117443238D01*
X106924536Y-117297159D01*
X106828282Y-117171718D01*
X106811798Y-117159069D01*
X106737124Y-117101770D01*
X106702841Y-117075464D01*
X106556762Y-117014956D01*
X106400000Y-116994318D01*
X106243238Y-117014956D01*
X106097159Y-117075464D01*
X106062876Y-117101770D01*
X105988203Y-117159069D01*
X105971718Y-117171718D01*
X105875464Y-117297159D01*
X105814956Y-117443238D01*
X105794318Y-117600000D01*
X104799165Y-117600000D01*
X104805682Y-117550500D01*
X104785044Y-117393738D01*
X104724536Y-117247659D01*
X104628282Y-117122218D01*
X104502841Y-117025964D01*
X104356762Y-116965456D01*
X104346159Y-116964060D01*
X104278381Y-116955137D01*
X104200000Y-116944818D01*
X104121619Y-116955137D01*
X104053842Y-116964060D01*
X104043238Y-116965456D01*
X103897159Y-117025964D01*
X103771718Y-117122218D01*
X103675464Y-117247659D01*
X103614956Y-117393738D01*
X103594318Y-117550500D01*
X98200000Y-117550500D01*
X98200000Y-116493823D01*
X98894391Y-116493823D01*
X98895555Y-116502725D01*
X98895555Y-116502728D01*
X98902020Y-116552163D01*
X98912980Y-116635979D01*
X98916597Y-116644199D01*
X98964423Y-116752891D01*
X98970720Y-116767203D01*
X98976497Y-116774076D01*
X98976498Y-116774077D01*
X99054778Y-116867203D01*
X99062970Y-116876948D01*
X99182313Y-116956390D01*
X99190888Y-116959069D01*
X99206864Y-116964060D01*
X99319157Y-116999142D01*
X99328129Y-116999306D01*
X99328132Y-116999307D01*
X99393463Y-117000504D01*
X99462499Y-117001770D01*
X99471533Y-116999307D01*
X99592158Y-116966421D01*
X99592160Y-116966420D01*
X99600817Y-116964060D01*
X99722991Y-116889045D01*
X99729014Y-116882391D01*
X99729018Y-116882388D01*
X99755764Y-116852839D01*
X99816307Y-116815758D01*
X99887287Y-116817295D01*
X99945630Y-116856319D01*
X99962970Y-116876948D01*
X100082313Y-116956390D01*
X100090888Y-116959069D01*
X100106864Y-116964060D01*
X100219157Y-116999142D01*
X100228129Y-116999306D01*
X100228132Y-116999307D01*
X100293463Y-117000504D01*
X100362499Y-117001770D01*
X100371533Y-116999307D01*
X100492158Y-116966421D01*
X100492160Y-116966420D01*
X100500817Y-116964060D01*
X100622991Y-116889045D01*
X100629014Y-116882391D01*
X100629018Y-116882388D01*
X100655764Y-116852839D01*
X100716307Y-116815758D01*
X100787287Y-116817295D01*
X100845630Y-116856319D01*
X100862970Y-116876948D01*
X100982313Y-116956390D01*
X100990888Y-116959069D01*
X101006864Y-116964060D01*
X101119157Y-116999142D01*
X101128129Y-116999306D01*
X101128132Y-116999307D01*
X101193463Y-117000504D01*
X101262499Y-117001770D01*
X101271533Y-116999307D01*
X101392158Y-116966421D01*
X101392160Y-116966420D01*
X101400817Y-116964060D01*
X101522991Y-116889045D01*
X101540164Y-116870073D01*
X101613178Y-116789407D01*
X101619200Y-116782754D01*
X101635701Y-116748696D01*
X101683404Y-116696113D01*
X101751963Y-116677668D01*
X101819611Y-116699216D01*
X101864422Y-116752890D01*
X101870720Y-116767203D01*
X101876497Y-116774076D01*
X101876498Y-116774077D01*
X101954778Y-116867203D01*
X101962970Y-116876948D01*
X102082313Y-116956390D01*
X102090888Y-116959069D01*
X102106864Y-116964060D01*
X102219157Y-116999142D01*
X102228129Y-116999306D01*
X102228132Y-116999307D01*
X102293463Y-117000504D01*
X102362499Y-117001770D01*
X102371533Y-116999307D01*
X102492158Y-116966421D01*
X102492160Y-116966420D01*
X102500817Y-116964060D01*
X102622991Y-116889045D01*
X102640164Y-116870073D01*
X102713178Y-116789407D01*
X102719200Y-116782754D01*
X102762287Y-116693823D01*
X107494391Y-116693823D01*
X107495555Y-116702725D01*
X107495555Y-116702728D01*
X107501566Y-116748696D01*
X107512980Y-116835979D01*
X107570720Y-116967203D01*
X107576497Y-116974076D01*
X107576498Y-116974077D01*
X107654121Y-117066421D01*
X107662970Y-117076948D01*
X107782313Y-117156390D01*
X107919157Y-117199142D01*
X107928129Y-117199306D01*
X107928132Y-117199307D01*
X107993463Y-117200504D01*
X108062499Y-117201770D01*
X108071533Y-117199307D01*
X108192158Y-117166421D01*
X108192160Y-117166420D01*
X108200817Y-117164060D01*
X108322991Y-117089045D01*
X108357054Y-117051413D01*
X108413178Y-116989407D01*
X108419200Y-116982754D01*
X108464602Y-116889045D01*
X108477795Y-116861814D01*
X108477795Y-116861813D01*
X108481710Y-116853733D01*
X108505496Y-116712354D01*
X108505647Y-116700000D01*
X108491326Y-116600000D01*
X108490441Y-116593823D01*
X110494391Y-116593823D01*
X110495555Y-116602725D01*
X110495555Y-116602728D01*
X110502020Y-116652163D01*
X110512980Y-116735979D01*
X110570720Y-116867203D01*
X110576497Y-116874076D01*
X110576498Y-116874077D01*
X110652404Y-116964378D01*
X110662970Y-116976948D01*
X110782313Y-117056390D01*
X110919157Y-117099142D01*
X110928129Y-117099306D01*
X110928132Y-117099307D01*
X110993463Y-117100504D01*
X111062499Y-117101770D01*
X111071533Y-117099307D01*
X111192158Y-117066421D01*
X111192160Y-117066420D01*
X111200817Y-117064060D01*
X111322991Y-116989045D01*
X111357054Y-116951413D01*
X111413178Y-116889407D01*
X111419200Y-116882754D01*
X111462287Y-116793823D01*
X113394391Y-116793823D01*
X113395555Y-116802725D01*
X113395555Y-116802728D01*
X113402108Y-116852839D01*
X113412980Y-116935979D01*
X113470720Y-117067203D01*
X113476497Y-117074076D01*
X113476498Y-117074077D01*
X113554121Y-117166421D01*
X113562970Y-117176948D01*
X113682313Y-117256390D01*
X113819157Y-117299142D01*
X113828129Y-117299306D01*
X113828132Y-117299307D01*
X113893463Y-117300504D01*
X113962499Y-117301770D01*
X113971533Y-117299307D01*
X114092158Y-117266421D01*
X114092160Y-117266420D01*
X114100817Y-117264060D01*
X114222991Y-117189045D01*
X114232750Y-117178264D01*
X114313178Y-117089407D01*
X114319200Y-117082754D01*
X114361007Y-116996464D01*
X114377795Y-116961814D01*
X114377795Y-116961813D01*
X114381710Y-116953733D01*
X114405496Y-116812354D01*
X114405647Y-116800000D01*
X114391214Y-116699216D01*
X114386596Y-116666968D01*
X114386595Y-116666965D01*
X114385323Y-116658082D01*
X114375274Y-116635979D01*
X114343896Y-116566968D01*
X114325984Y-116527572D01*
X114296904Y-116493823D01*
X114238260Y-116425763D01*
X114238257Y-116425760D01*
X114232400Y-116418963D01*
X114112095Y-116340985D01*
X113974739Y-116299907D01*
X113965763Y-116299852D01*
X113965762Y-116299852D01*
X113905555Y-116299484D01*
X113831376Y-116299031D01*
X113693529Y-116338428D01*
X113572280Y-116414930D01*
X113477377Y-116522388D01*
X113416447Y-116652163D01*
X113414142Y-116666968D01*
X113397372Y-116774679D01*
X113394391Y-116793823D01*
X111462287Y-116793823D01*
X111466586Y-116784950D01*
X111477795Y-116761814D01*
X111477795Y-116761813D01*
X111481710Y-116753733D01*
X111505496Y-116612354D01*
X111505647Y-116600000D01*
X111491326Y-116500000D01*
X111486596Y-116466968D01*
X111486595Y-116466965D01*
X111485323Y-116458082D01*
X111475168Y-116435746D01*
X111459868Y-116402097D01*
X111425984Y-116327572D01*
X111401391Y-116299031D01*
X111338260Y-116225763D01*
X111338257Y-116225760D01*
X111332400Y-116218963D01*
X111212095Y-116140985D01*
X111074739Y-116099907D01*
X111065763Y-116099852D01*
X111065762Y-116099852D01*
X111005555Y-116099484D01*
X110931376Y-116099031D01*
X110793529Y-116138428D01*
X110672280Y-116214930D01*
X110666338Y-116221658D01*
X110666337Y-116221659D01*
X110628890Y-116264060D01*
X110577377Y-116322388D01*
X110516447Y-116452163D01*
X110515066Y-116461035D01*
X110499956Y-116558082D01*
X110494391Y-116593823D01*
X108490441Y-116593823D01*
X108486596Y-116566968D01*
X108486595Y-116566965D01*
X108485323Y-116558082D01*
X108475168Y-116535746D01*
X108443896Y-116466968D01*
X108425984Y-116427572D01*
X108366134Y-116358113D01*
X108338260Y-116325763D01*
X108338257Y-116325760D01*
X108332400Y-116318963D01*
X108212095Y-116240985D01*
X108074739Y-116199907D01*
X108065763Y-116199852D01*
X108065762Y-116199852D01*
X108005555Y-116199484D01*
X107931376Y-116199031D01*
X107793529Y-116238428D01*
X107672280Y-116314930D01*
X107666338Y-116321658D01*
X107666337Y-116321659D01*
X107651527Y-116338428D01*
X107577377Y-116422388D01*
X107516447Y-116552163D01*
X107515066Y-116561035D01*
X107499375Y-116661814D01*
X107494391Y-116693823D01*
X102762287Y-116693823D01*
X102781710Y-116653733D01*
X102805496Y-116512354D01*
X102805647Y-116500000D01*
X102793464Y-116414930D01*
X102786596Y-116366968D01*
X102786595Y-116366965D01*
X102785323Y-116358082D01*
X102775168Y-116335746D01*
X102763525Y-116310140D01*
X102725984Y-116227572D01*
X102687366Y-116182754D01*
X102638260Y-116125763D01*
X102638257Y-116125760D01*
X102632400Y-116118963D01*
X102512095Y-116040985D01*
X102374739Y-115999907D01*
X102365763Y-115999852D01*
X102365762Y-115999852D01*
X102305555Y-115999484D01*
X102231376Y-115999031D01*
X102093529Y-116038428D01*
X101972280Y-116114930D01*
X101966338Y-116121658D01*
X101966337Y-116121659D01*
X101944715Y-116146142D01*
X101877377Y-116222388D01*
X101873563Y-116230512D01*
X101873562Y-116230513D01*
X101864355Y-116250123D01*
X101817297Y-116303283D01*
X101748968Y-116322564D01*
X101681063Y-116301843D01*
X101635600Y-116248721D01*
X101629702Y-116235748D01*
X101629700Y-116235745D01*
X101625984Y-116227572D01*
X101587366Y-116182754D01*
X101538260Y-116125763D01*
X101538257Y-116125760D01*
X101532400Y-116118963D01*
X101412095Y-116040985D01*
X101274739Y-115999907D01*
X101265763Y-115999852D01*
X101265762Y-115999852D01*
X101205555Y-115999484D01*
X101131376Y-115999031D01*
X100993529Y-116038428D01*
X100872280Y-116114930D01*
X100847298Y-116143217D01*
X100844715Y-116146142D01*
X100784630Y-116183961D01*
X100713636Y-116183291D01*
X100654820Y-116144983D01*
X100643099Y-116131379D01*
X100613786Y-116066717D01*
X100624086Y-115996472D01*
X100645138Y-115964578D01*
X100709182Y-115893823D01*
X116594391Y-115893823D01*
X116595555Y-115902725D01*
X116595555Y-115902728D01*
X116602225Y-115953733D01*
X116612980Y-116035979D01*
X116616597Y-116044199D01*
X116660943Y-116144982D01*
X116670720Y-116167203D01*
X116676497Y-116174076D01*
X116676498Y-116174077D01*
X116689080Y-116189045D01*
X116758562Y-116271704D01*
X116762970Y-116276948D01*
X116762213Y-116277584D01*
X116795448Y-116331109D01*
X116794345Y-116402097D01*
X116768457Y-116448132D01*
X116702877Y-116522388D01*
X116641947Y-116652163D01*
X116639642Y-116666968D01*
X116622872Y-116774679D01*
X116619891Y-116793823D01*
X116621055Y-116802725D01*
X116621055Y-116802728D01*
X116627608Y-116852839D01*
X116638480Y-116935979D01*
X116696220Y-117067203D01*
X116701997Y-117074076D01*
X116701998Y-117074077D01*
X116779621Y-117166421D01*
X116788470Y-117176948D01*
X116907813Y-117256390D01*
X117044657Y-117299142D01*
X117053629Y-117299306D01*
X117053632Y-117299307D01*
X117118963Y-117300504D01*
X117187999Y-117301770D01*
X117197033Y-117299307D01*
X117317658Y-117266421D01*
X117317660Y-117266420D01*
X117326317Y-117264060D01*
X117448491Y-117189045D01*
X117458250Y-117178264D01*
X117538678Y-117089407D01*
X117544700Y-117082754D01*
X117586507Y-116996464D01*
X117603295Y-116961814D01*
X117603295Y-116961813D01*
X117607210Y-116953733D01*
X117630996Y-116812354D01*
X117631147Y-116800000D01*
X117630262Y-116793823D01*
X119494391Y-116793823D01*
X119495555Y-116802725D01*
X119495555Y-116802728D01*
X119502108Y-116852839D01*
X119512980Y-116935979D01*
X119570720Y-117067203D01*
X119576497Y-117074076D01*
X119576498Y-117074077D01*
X119654121Y-117166421D01*
X119662970Y-117176948D01*
X119782313Y-117256390D01*
X119919157Y-117299142D01*
X119928129Y-117299306D01*
X119928132Y-117299307D01*
X119993463Y-117300504D01*
X120062499Y-117301770D01*
X120071533Y-117299307D01*
X120192158Y-117266421D01*
X120192160Y-117266420D01*
X120200817Y-117264060D01*
X120322991Y-117189045D01*
X120332750Y-117178264D01*
X120413178Y-117089407D01*
X120419200Y-117082754D01*
X120461007Y-116996464D01*
X120477795Y-116961814D01*
X120477795Y-116961813D01*
X120481710Y-116953733D01*
X120505496Y-116812354D01*
X120505647Y-116800000D01*
X120491214Y-116699216D01*
X120486596Y-116666968D01*
X120486595Y-116666965D01*
X120485323Y-116658082D01*
X120475274Y-116635979D01*
X120443896Y-116566968D01*
X120425984Y-116527572D01*
X120396904Y-116493823D01*
X120338260Y-116425763D01*
X120338257Y-116425760D01*
X120332400Y-116418963D01*
X120212095Y-116340985D01*
X120074739Y-116299907D01*
X120065763Y-116299852D01*
X120065762Y-116299852D01*
X120005555Y-116299484D01*
X119931376Y-116299031D01*
X119793529Y-116338428D01*
X119672280Y-116414930D01*
X119577377Y-116522388D01*
X119516447Y-116652163D01*
X119514142Y-116666968D01*
X119497372Y-116774679D01*
X119494391Y-116793823D01*
X117630262Y-116793823D01*
X117616714Y-116699216D01*
X117612096Y-116666968D01*
X117612095Y-116666965D01*
X117610823Y-116658082D01*
X117600774Y-116635979D01*
X117569396Y-116566968D01*
X117551484Y-116527572D01*
X117457900Y-116418963D01*
X117460249Y-116416939D01*
X117430351Y-116370079D01*
X117430586Y-116299083D01*
X117457948Y-116250425D01*
X117513178Y-116189407D01*
X117519200Y-116182754D01*
X117564426Y-116089407D01*
X117577795Y-116061814D01*
X117577795Y-116061813D01*
X117581710Y-116053733D01*
X117605496Y-115912354D01*
X117605647Y-115900000D01*
X117591326Y-115800000D01*
X117590441Y-115793823D01*
X121394391Y-115793823D01*
X121395555Y-115802725D01*
X121395555Y-115802728D01*
X121396814Y-115812354D01*
X121412980Y-115935979D01*
X121470720Y-116067203D01*
X121476497Y-116074076D01*
X121476498Y-116074077D01*
X121524666Y-116131380D01*
X121562970Y-116176948D01*
X121581143Y-116189045D01*
X121666511Y-116245871D01*
X121682313Y-116256390D01*
X121819157Y-116299142D01*
X121828129Y-116299306D01*
X121828132Y-116299307D01*
X121893463Y-116300504D01*
X121962499Y-116301770D01*
X121971533Y-116299307D01*
X122092158Y-116266421D01*
X122092160Y-116266420D01*
X122100817Y-116264060D01*
X122222991Y-116189045D01*
X122261826Y-116146141D01*
X122313178Y-116089407D01*
X122319200Y-116082754D01*
X122364602Y-115989045D01*
X122377795Y-115961814D01*
X122377795Y-115961813D01*
X122381710Y-115953733D01*
X122405496Y-115812354D01*
X122405647Y-115800000D01*
X122404762Y-115793823D01*
X122894391Y-115793823D01*
X122895555Y-115802725D01*
X122895555Y-115802728D01*
X122896814Y-115812354D01*
X122912980Y-115935979D01*
X122970720Y-116067203D01*
X122976497Y-116074076D01*
X122976498Y-116074077D01*
X123024666Y-116131380D01*
X123062970Y-116176948D01*
X123081143Y-116189045D01*
X123166511Y-116245871D01*
X123182313Y-116256390D01*
X123319157Y-116299142D01*
X123328129Y-116299306D01*
X123328132Y-116299307D01*
X123393463Y-116300504D01*
X123462499Y-116301770D01*
X123471533Y-116299307D01*
X123592158Y-116266421D01*
X123592160Y-116266420D01*
X123600817Y-116264060D01*
X123722991Y-116189045D01*
X123761826Y-116146141D01*
X123813178Y-116089407D01*
X123819200Y-116082754D01*
X123864602Y-115989045D01*
X123877795Y-115961814D01*
X123877795Y-115961813D01*
X123881710Y-115953733D01*
X123905496Y-115812354D01*
X123905647Y-115800000D01*
X123885323Y-115658082D01*
X123875168Y-115635746D01*
X123829700Y-115535746D01*
X123825984Y-115527572D01*
X123768652Y-115461035D01*
X123738260Y-115425763D01*
X123738257Y-115425760D01*
X123732400Y-115418963D01*
X123612095Y-115340985D01*
X123474739Y-115299907D01*
X123465763Y-115299852D01*
X123465762Y-115299852D01*
X123405555Y-115299484D01*
X123331376Y-115299031D01*
X123193529Y-115338428D01*
X123072280Y-115414930D01*
X123066338Y-115421658D01*
X123066337Y-115421659D01*
X123051527Y-115438428D01*
X122977377Y-115522388D01*
X122916447Y-115652163D01*
X122915066Y-115661035D01*
X122899375Y-115761814D01*
X122894391Y-115793823D01*
X122404762Y-115793823D01*
X122385323Y-115658082D01*
X122375168Y-115635746D01*
X122329700Y-115535746D01*
X122325984Y-115527572D01*
X122268652Y-115461035D01*
X122238260Y-115425763D01*
X122238257Y-115425760D01*
X122232400Y-115418963D01*
X122112095Y-115340985D01*
X121974739Y-115299907D01*
X121965763Y-115299852D01*
X121965762Y-115299852D01*
X121905555Y-115299484D01*
X121831376Y-115299031D01*
X121693529Y-115338428D01*
X121572280Y-115414930D01*
X121566338Y-115421658D01*
X121566337Y-115421659D01*
X121551527Y-115438428D01*
X121477377Y-115522388D01*
X121416447Y-115652163D01*
X121415066Y-115661035D01*
X121399375Y-115761814D01*
X121394391Y-115793823D01*
X117590441Y-115793823D01*
X117586596Y-115766968D01*
X117586595Y-115766965D01*
X117585323Y-115758082D01*
X117575274Y-115735979D01*
X117543896Y-115666968D01*
X117525984Y-115627572D01*
X117496904Y-115593823D01*
X117438260Y-115525763D01*
X117438257Y-115525760D01*
X117432400Y-115518963D01*
X117312095Y-115440985D01*
X117174739Y-115399907D01*
X117165763Y-115399852D01*
X117165762Y-115399852D01*
X117105555Y-115399484D01*
X117031376Y-115399031D01*
X116893529Y-115438428D01*
X116772280Y-115514930D01*
X116677377Y-115622388D01*
X116616447Y-115752163D01*
X116614142Y-115766968D01*
X116598536Y-115867203D01*
X116594391Y-115893823D01*
X100709182Y-115893823D01*
X100713176Y-115889411D01*
X100713181Y-115889404D01*
X100719200Y-115882754D01*
X100781710Y-115753733D01*
X100805496Y-115612354D01*
X100805647Y-115600000D01*
X100793464Y-115514930D01*
X100786596Y-115466968D01*
X100786595Y-115466965D01*
X100785323Y-115458082D01*
X100725984Y-115327572D01*
X100701391Y-115299031D01*
X100638260Y-115225763D01*
X100638257Y-115225760D01*
X100632400Y-115218963D01*
X100512095Y-115140985D01*
X100374739Y-115099907D01*
X100365763Y-115099852D01*
X100365762Y-115099852D01*
X100305555Y-115099484D01*
X100231376Y-115099031D01*
X100093529Y-115138428D01*
X99972280Y-115214930D01*
X99877377Y-115322388D01*
X99816447Y-115452163D01*
X99794391Y-115593823D01*
X99795555Y-115602725D01*
X99795555Y-115602728D01*
X99802020Y-115652163D01*
X99812980Y-115735979D01*
X99870720Y-115867203D01*
X99876497Y-115874076D01*
X99876498Y-115874077D01*
X99957077Y-115969937D01*
X99985598Y-116034952D01*
X99974442Y-116105067D01*
X99955069Y-116134418D01*
X99945740Y-116144982D01*
X99944716Y-116146141D01*
X99884631Y-116183960D01*
X99813637Y-116183291D01*
X99754820Y-116144983D01*
X99743099Y-116131380D01*
X99738259Y-116125762D01*
X99738257Y-116125760D01*
X99732400Y-116118963D01*
X99612095Y-116040985D01*
X99474739Y-115999907D01*
X99465763Y-115999852D01*
X99465762Y-115999852D01*
X99405555Y-115999484D01*
X99331376Y-115999031D01*
X99193529Y-116038428D01*
X99072280Y-116114930D01*
X99066338Y-116121658D01*
X99066337Y-116121659D01*
X99044715Y-116146142D01*
X98977377Y-116222388D01*
X98916447Y-116352163D01*
X98907420Y-116410140D01*
X98899956Y-116458082D01*
X98894391Y-116493823D01*
X98200000Y-116493823D01*
X98200000Y-113200000D01*
X116094318Y-113200000D01*
X116114956Y-113356762D01*
X116175464Y-113502841D01*
X116271718Y-113628282D01*
X116397159Y-113724536D01*
X116543238Y-113785044D01*
X116700000Y-113805682D01*
X116708188Y-113804604D01*
X116848574Y-113786122D01*
X116856762Y-113785044D01*
X117002841Y-113724536D01*
X117128282Y-113628282D01*
X117224536Y-113502841D01*
X117285044Y-113356762D01*
X117305682Y-113200000D01*
X117285044Y-113043238D01*
X117224536Y-112897159D01*
X117156059Y-112807918D01*
X117149983Y-112800000D01*
X125994318Y-112800000D01*
X126014956Y-112956762D01*
X126075464Y-113102841D01*
X126080491Y-113109392D01*
X126150017Y-113200000D01*
X126171718Y-113228282D01*
X126297159Y-113324536D01*
X126443238Y-113385044D01*
X126600000Y-113405682D01*
X126608188Y-113404604D01*
X126748574Y-113386122D01*
X126756762Y-113385044D01*
X126902841Y-113324536D01*
X127028282Y-113228282D01*
X127049984Y-113200000D01*
X127119509Y-113109392D01*
X127124536Y-113102841D01*
X127185044Y-112956762D01*
X127205682Y-112800000D01*
X127185044Y-112643238D01*
X127124536Y-112497159D01*
X127028282Y-112371718D01*
X127011798Y-112359069D01*
X126992082Y-112343941D01*
X126902841Y-112275464D01*
X126756762Y-112214956D01*
X126600000Y-112194318D01*
X126443238Y-112214956D01*
X126435609Y-112218116D01*
X126331694Y-112261159D01*
X126261104Y-112268748D01*
X126237438Y-112256902D01*
X126236076Y-112295041D01*
X126193227Y-112355213D01*
X126178267Y-112366692D01*
X126178264Y-112366695D01*
X126171718Y-112371718D01*
X126075464Y-112497159D01*
X126014956Y-112643238D01*
X125994318Y-112800000D01*
X117149983Y-112800000D01*
X117133305Y-112778264D01*
X117128282Y-112771718D01*
X117121736Y-112766695D01*
X117121733Y-112766692D01*
X117099931Y-112749963D01*
X117058063Y-112692625D01*
X117053841Y-112621754D01*
X117088605Y-112559851D01*
X117099931Y-112550037D01*
X117121733Y-112533308D01*
X117121736Y-112533305D01*
X117128282Y-112528282D01*
X117224536Y-112402841D01*
X117285044Y-112256762D01*
X117305682Y-112100000D01*
X117285044Y-111943238D01*
X117224536Y-111797159D01*
X117128282Y-111671718D01*
X117111798Y-111659069D01*
X117048273Y-111610325D01*
X117034817Y-111600000D01*
X125194318Y-111600000D01*
X125214956Y-111756762D01*
X125275464Y-111902841D01*
X125371718Y-112028282D01*
X125497159Y-112124536D01*
X125643238Y-112185044D01*
X125800000Y-112205682D01*
X125808188Y-112204604D01*
X125948574Y-112186122D01*
X125956762Y-112185044D01*
X126019679Y-112158983D01*
X126068306Y-112138841D01*
X126138896Y-112131252D01*
X126162562Y-112143098D01*
X126163924Y-112104959D01*
X126206773Y-112044787D01*
X126221733Y-112033308D01*
X126221736Y-112033305D01*
X126228282Y-112028282D01*
X126324536Y-111902841D01*
X126385044Y-111756762D01*
X126405682Y-111600000D01*
X126385044Y-111443238D01*
X126324536Y-111297159D01*
X126252077Y-111202728D01*
X126233305Y-111178264D01*
X126228282Y-111171718D01*
X126102841Y-111075464D01*
X125956762Y-111014956D01*
X125800000Y-110994318D01*
X125643238Y-111014956D01*
X125497159Y-111075464D01*
X125371718Y-111171718D01*
X125366695Y-111178264D01*
X125347923Y-111202728D01*
X125275464Y-111297159D01*
X125214956Y-111443238D01*
X125194318Y-111600000D01*
X117034817Y-111600000D01*
X117002841Y-111575464D01*
X116856762Y-111514956D01*
X116700000Y-111494318D01*
X116543238Y-111514956D01*
X116397159Y-111575464D01*
X116351727Y-111610325D01*
X116288203Y-111659069D01*
X116271718Y-111671718D01*
X116175464Y-111797159D01*
X116114956Y-111943238D01*
X116094318Y-112100000D01*
X116114956Y-112256762D01*
X116175464Y-112402841D01*
X116271718Y-112528282D01*
X116278264Y-112533305D01*
X116278267Y-112533308D01*
X116300069Y-112550037D01*
X116341937Y-112607375D01*
X116346159Y-112678246D01*
X116311395Y-112740149D01*
X116300069Y-112749963D01*
X116278267Y-112766692D01*
X116278264Y-112766695D01*
X116271718Y-112771718D01*
X116266695Y-112778264D01*
X116243941Y-112807918D01*
X116175464Y-112897159D01*
X116114956Y-113043238D01*
X116094318Y-113200000D01*
X98200000Y-113200000D01*
X98200000Y-113037312D01*
X98203254Y-113008860D01*
X98205142Y-113000716D01*
X98205143Y-113000000D01*
X98204658Y-112997872D01*
X98204950Y-112995335D01*
X98204089Y-112995378D01*
X98198914Y-112890608D01*
X98186873Y-112646810D01*
X98150488Y-112402841D01*
X98135171Y-112300134D01*
X98135170Y-112300129D01*
X98134712Y-112297058D01*
X98130901Y-112281925D01*
X98071023Y-112044199D01*
X98048341Y-111954147D01*
X97956571Y-111699142D01*
X97929653Y-111624342D01*
X97929650Y-111624336D01*
X97928600Y-111621417D01*
X97883915Y-111527511D01*
X97872707Y-111457405D01*
X97901180Y-111392368D01*
X97960294Y-111353049D01*
X98031282Y-111351931D01*
X98053421Y-111360488D01*
X98054693Y-111361222D01*
X98057918Y-111362631D01*
X98057922Y-111362633D01*
X98379416Y-111503091D01*
X98379420Y-111503092D01*
X98382637Y-111504498D01*
X98385994Y-111505537D01*
X98385999Y-111505539D01*
X98691154Y-111600000D01*
X98724509Y-111610325D01*
X98727965Y-111610984D01*
X98727964Y-111610984D01*
X99072595Y-111676726D01*
X99072600Y-111676727D01*
X99076046Y-111677384D01*
X99272145Y-111692473D01*
X99429371Y-111704571D01*
X99429372Y-111704571D01*
X99432868Y-111704840D01*
X99656962Y-111697014D01*
X99787012Y-111692473D01*
X99787016Y-111692473D01*
X99790527Y-111692350D01*
X99794008Y-111691836D01*
X100141072Y-111640587D01*
X100141078Y-111640586D01*
X100144564Y-111640071D01*
X100147968Y-111639172D01*
X100147971Y-111639171D01*
X100487176Y-111549549D01*
X100487177Y-111549549D01*
X100490567Y-111548653D01*
X100824224Y-111419236D01*
X101141375Y-111253433D01*
X101229750Y-111193823D01*
X106294391Y-111193823D01*
X106295555Y-111202725D01*
X106295555Y-111202728D01*
X106301928Y-111251462D01*
X106312980Y-111335979D01*
X106370720Y-111467203D01*
X106376497Y-111474076D01*
X106376498Y-111474077D01*
X106409954Y-111513878D01*
X106462970Y-111576948D01*
X106470447Y-111581925D01*
X106557798Y-111640071D01*
X106582313Y-111656390D01*
X106719157Y-111699142D01*
X106728129Y-111699306D01*
X106728132Y-111699307D01*
X106796330Y-111700557D01*
X106862499Y-111701770D01*
X106865062Y-111701071D01*
X106931991Y-111711987D01*
X106984760Y-111759484D01*
X107003474Y-111827970D01*
X107001996Y-111844977D01*
X106994391Y-111893823D01*
X106995555Y-111902725D01*
X106995555Y-111902728D01*
X107001923Y-111951426D01*
X107012980Y-112035979D01*
X107016597Y-112044199D01*
X107060114Y-112143098D01*
X107070720Y-112167203D01*
X107076497Y-112174076D01*
X107076498Y-112174077D01*
X107149698Y-112261159D01*
X107162970Y-112276948D01*
X107282313Y-112356390D01*
X107419157Y-112399142D01*
X107428129Y-112399306D01*
X107428132Y-112399307D01*
X107493463Y-112400504D01*
X107562499Y-112401770D01*
X107571533Y-112399307D01*
X107692158Y-112366421D01*
X107692160Y-112366420D01*
X107700817Y-112364060D01*
X107822991Y-112289045D01*
X107845307Y-112264391D01*
X107913178Y-112189407D01*
X107919200Y-112182754D01*
X107981710Y-112053733D01*
X108005496Y-111912354D01*
X108005647Y-111900000D01*
X107997759Y-111844920D01*
X108007902Y-111774652D01*
X108054424Y-111721022D01*
X108124795Y-111701079D01*
X108136034Y-111701285D01*
X108162499Y-111701770D01*
X108171533Y-111699307D01*
X108292158Y-111666421D01*
X108292160Y-111666420D01*
X108300817Y-111664060D01*
X108422991Y-111589045D01*
X108460700Y-111547385D01*
X108513178Y-111489407D01*
X108519200Y-111482754D01*
X108564833Y-111388568D01*
X108577795Y-111361814D01*
X108577795Y-111361813D01*
X108581710Y-111353733D01*
X108605496Y-111212354D01*
X108605647Y-111200000D01*
X108597473Y-111142924D01*
X108586596Y-111066968D01*
X108586595Y-111066965D01*
X108585323Y-111058082D01*
X108525984Y-110927572D01*
X108507598Y-110906234D01*
X108438260Y-110825763D01*
X108438257Y-110825760D01*
X108432400Y-110818963D01*
X108312095Y-110740985D01*
X108174739Y-110699907D01*
X108165763Y-110699852D01*
X108165762Y-110699852D01*
X108105555Y-110699484D01*
X108031376Y-110699031D01*
X107893529Y-110738428D01*
X107772280Y-110814930D01*
X107766338Y-110821658D01*
X107766337Y-110821659D01*
X107762713Y-110825763D01*
X107677377Y-110922388D01*
X107616447Y-111052163D01*
X107607210Y-111111490D01*
X107596188Y-111182284D01*
X107594391Y-111193823D01*
X107595555Y-111202725D01*
X107595555Y-111202728D01*
X107602649Y-111256974D01*
X107591649Y-111327113D01*
X107544474Y-111380170D01*
X107476944Y-111399309D01*
X107449858Y-111399144D01*
X107431693Y-111399033D01*
X107431377Y-111399031D01*
X107431384Y-111397853D01*
X107369736Y-111388568D01*
X107316393Y-111341717D01*
X107296847Y-111273464D01*
X107298590Y-111253402D01*
X107304689Y-111217149D01*
X107305496Y-111212354D01*
X107305647Y-111200000D01*
X107297473Y-111142924D01*
X107286596Y-111066968D01*
X107286595Y-111066965D01*
X107285323Y-111058082D01*
X107225984Y-110927572D01*
X107207598Y-110906234D01*
X107138260Y-110825763D01*
X107138257Y-110825760D01*
X107132400Y-110818963D01*
X107012095Y-110740985D01*
X106874739Y-110699907D01*
X106865763Y-110699852D01*
X106865762Y-110699852D01*
X106805555Y-110699484D01*
X106731376Y-110699031D01*
X106593529Y-110738428D01*
X106472280Y-110814930D01*
X106466338Y-110821658D01*
X106466337Y-110821659D01*
X106462713Y-110825763D01*
X106377377Y-110922388D01*
X106316447Y-111052163D01*
X106307210Y-111111490D01*
X106296188Y-111182284D01*
X106294391Y-111193823D01*
X101229750Y-111193823D01*
X101438068Y-111053311D01*
X101593805Y-110920769D01*
X101707932Y-110823639D01*
X101707933Y-110823638D01*
X101710605Y-110821364D01*
X101713000Y-110818814D01*
X101713008Y-110818806D01*
X101953177Y-110563051D01*
X101953181Y-110563046D01*
X101955588Y-110560483D01*
X101957693Y-110557669D01*
X101957699Y-110557662D01*
X102167856Y-110276739D01*
X102169965Y-110273920D01*
X102351062Y-109965247D01*
X102496624Y-109638311D01*
X102604835Y-109297186D01*
X102674347Y-108946125D01*
X102704293Y-108589504D01*
X102704341Y-108586122D01*
X102705513Y-108502178D01*
X102705513Y-108502166D01*
X102705543Y-108500000D01*
X102704768Y-108486122D01*
X102693351Y-108281925D01*
X102685566Y-108142682D01*
X102668909Y-108044199D01*
X102626472Y-107793298D01*
X102626471Y-107793294D01*
X102625883Y-107789817D01*
X102527239Y-107445804D01*
X102434170Y-107220002D01*
X102392201Y-107118176D01*
X102392197Y-107118168D01*
X102390863Y-107114931D01*
X102358901Y-107056792D01*
X102343612Y-106987461D01*
X102368233Y-106920870D01*
X102424947Y-106878161D01*
X102495748Y-106872895D01*
X102520649Y-106881022D01*
G37*
%TD.AperFunction*%
%TD*%
M02*
