%TF.GenerationSoftware,KiCad,Pcbnew,(6.0.0)*%
%TF.CreationDate,2022-11-20T17:05:32+07:00*%
%TF.ProjectId,ESP32-S3-MINI,45535033-322d-4533-932d-4d494e492e6b,rev?*%
%TF.SameCoordinates,Original*%
%TF.FileFunction,Copper,L2,Inr*%
%TF.FilePolarity,Positive*%
%FSLAX46Y46*%
G04 Gerber Fmt 4.6, Leading zero omitted, Abs format (unit mm)*
G04 Created by KiCad (PCBNEW (6.0.0)) date 2022-11-20 17:05:32*
%MOMM*%
%LPD*%
G01*
G04 APERTURE LIST*
%TA.AperFunction,ComponentPad*%
%ADD10C,6.000000*%
%TD*%
%TA.AperFunction,ComponentPad*%
%ADD11O,0.900000X1.700000*%
%TD*%
%TA.AperFunction,ComponentPad*%
%ADD12O,0.900000X2.000000*%
%TD*%
%TA.AperFunction,ViaPad*%
%ADD13C,0.600000*%
%TD*%
%TA.AperFunction,ViaPad*%
%ADD14C,0.800000*%
%TD*%
G04 APERTURE END LIST*
D10*
%TO.N,N/C*%
%TO.C,H4*%
X99500000Y-149500000D03*
%TD*%
%TO.N,N/C*%
%TO.C,H2*%
X140500000Y-108500000D03*
%TD*%
%TO.N,N/C*%
%TO.C,H1*%
X99500000Y-108500000D03*
%TD*%
%TO.N,N/C*%
%TO.C,H3*%
X140500000Y-149500000D03*
%TD*%
D11*
%TO.N,GND*%
%TO.C,J1*%
X115680000Y-148640000D03*
D12*
X115680000Y-144470000D03*
D11*
X124320000Y-148640000D03*
D12*
X124320000Y-144470000D03*
%TD*%
D13*
%TO.N,GND*%
X123400000Y-115800000D03*
X117100000Y-115900000D03*
X102300000Y-116500000D03*
D14*
X116700000Y-113200000D03*
D13*
X130900000Y-126900000D03*
X104900000Y-126000000D03*
X121100000Y-133900000D03*
X105900000Y-107900000D03*
X100300000Y-115600000D03*
X119900000Y-124600000D03*
X103300000Y-128700000D03*
X131500000Y-118100000D03*
X103100000Y-123200000D03*
D14*
X132000000Y-108000000D03*
D13*
X108100000Y-111200000D03*
X111500000Y-121400000D03*
X106800000Y-111200000D03*
D14*
X106000000Y-144900000D03*
D13*
X110106233Y-123606233D03*
X118500000Y-133900000D03*
X120400000Y-129300000D03*
X114200000Y-136200000D03*
X101200000Y-116500000D03*
X129100000Y-122100000D03*
D14*
X116700000Y-112100000D03*
D13*
X121100000Y-136500000D03*
X118800000Y-125800000D03*
X121000000Y-123400000D03*
X127600000Y-134400000D03*
X108900000Y-126399503D03*
X132500000Y-119600000D03*
X121000000Y-125800000D03*
D14*
X140600000Y-137000000D03*
X126600000Y-112800000D03*
D13*
X105200000Y-141500000D03*
D14*
X130200000Y-146200000D03*
D13*
X118500000Y-136500000D03*
X102300000Y-129600000D03*
X108400000Y-107900000D03*
X124600000Y-141200000D03*
X121900000Y-115800000D03*
X113700000Y-133100000D03*
X127500000Y-136100000D03*
X116200000Y-142000000D03*
X105900000Y-140300000D03*
X123800000Y-142000000D03*
X105200000Y-122200000D03*
D14*
X119800000Y-135200000D03*
D13*
X118800000Y-123400000D03*
D14*
X129500000Y-145000000D03*
D13*
X107500000Y-111900000D03*
X119100000Y-138600000D03*
D14*
X134400000Y-107900000D03*
X140300000Y-131300000D03*
D13*
X135900000Y-118200000D03*
X116100000Y-133100000D03*
X101400000Y-128600000D03*
X129100000Y-120400000D03*
X115400000Y-128000000D03*
X102000000Y-123200000D03*
X128400000Y-126800000D03*
D14*
X106800000Y-146100000D03*
D13*
X100300000Y-116500000D03*
X123900000Y-129300000D03*
X114800000Y-120400000D03*
D14*
X125800000Y-111600000D03*
D13*
X99400000Y-116500000D03*
%TO.N,+3V3*%
X123800000Y-138900000D03*
X121800000Y-118900000D03*
X122800000Y-118900000D03*
X134700000Y-111700000D03*
X127500000Y-132900000D03*
X101700000Y-125600000D03*
D14*
X113452973Y-123821620D03*
X134800000Y-125500000D03*
X99000000Y-113100000D03*
D13*
X122000000Y-141100000D03*
X101395000Y-131795000D03*
X116300000Y-128300000D03*
X103500000Y-108800000D03*
X105100000Y-124200000D03*
X100900000Y-121600000D03*
X126000000Y-122000000D03*
X117900000Y-141200000D03*
D14*
X137400000Y-139800000D03*
X99000000Y-112300000D03*
X138300000Y-140800000D03*
D13*
X125900000Y-126000000D03*
D14*
%TO.N,+5V*%
X106400000Y-117600000D03*
X104200000Y-117550500D03*
D13*
%TO.N,/WS2812B*%
X131500000Y-136000000D03*
X119725500Y-118100000D03*
X110000000Y-141918267D03*
X133900000Y-136000000D03*
X117000000Y-118100000D03*
X107200000Y-142200000D03*
D14*
%TO.N,/VBUS*%
X122400000Y-142800000D03*
X117600000Y-142800000D03*
D13*
%TO.N,/USB_D+*%
X120900000Y-145300000D03*
X119700011Y-145300000D03*
%TO.N,/I2C_SDA*%
X123000000Y-131700000D03*
X123000000Y-129325500D03*
%TO.N,/I2C_SCL*%
X121500000Y-131673540D03*
X121300000Y-129300000D03*
%TO.N,/~{RST}*%
X113725500Y-134000000D03*
X115574500Y-133800000D03*
%TO.N,/RESET*%
X120874500Y-118700000D03*
X109100000Y-122700000D03*
X108900000Y-128400000D03*
X108800000Y-132800000D03*
%TO.N,/BOOT*%
X113900000Y-116800000D03*
X107598945Y-127850989D03*
X120000000Y-116800000D03*
X107993483Y-133518983D03*
X108100000Y-123000000D03*
X108000000Y-116700000D03*
X111000000Y-116600000D03*
X117125500Y-116800000D03*
%TO.N,/USER_BTN*%
X107000000Y-141400000D03*
X117000000Y-119500000D03*
X118900000Y-139600000D03*
X121000000Y-139600000D03*
X109356233Y-141343767D03*
X119525500Y-119556233D03*
%TO.N,/SPI2_CS*%
X114856233Y-121243767D03*
X112400000Y-121300000D03*
%TO.N,/GYRO_INT*%
X106700000Y-125600000D03*
X108900000Y-125600000D03*
D14*
%TO.N,/SPI_WP*%
X106700000Y-131900000D03*
X106700000Y-129100000D03*
D13*
%TO.N,/UART_RX*%
X114200000Y-135300000D03*
X115800000Y-135125500D03*
%TO.N,/UART1_TX*%
X113000000Y-131574500D03*
X113300000Y-128425500D03*
%TO.N,/UART1_RX*%
X114300000Y-131700000D03*
X114500000Y-128000000D03*
D14*
%TO.N,/VIN*%
X104900000Y-143900000D03*
X112100000Y-143900000D03*
%TD*%
%TA.AperFunction,Conductor*%
%TO.N,GND*%
G36*
X102520649Y-106881022D02*
G01*
X102690772Y-106956915D01*
X102818067Y-107000000D01*
X103005219Y-107063345D01*
X103005224Y-107063346D01*
X103007994Y-107064284D01*
X103102001Y-107086605D01*
X103330973Y-107140971D01*
X103330984Y-107140973D01*
X103333835Y-107141650D01*
X103495020Y-107164343D01*
X103662550Y-107187930D01*
X103662556Y-107187931D01*
X103665464Y-107188340D01*
X103668398Y-107188477D01*
X103668399Y-107188477D01*
X103988941Y-107203434D01*
X103993500Y-107203802D01*
X103999284Y-107205142D01*
X104000000Y-107205143D01*
X104008718Y-107203154D01*
X104036733Y-107200000D01*
X135962690Y-107200000D01*
X135991139Y-107203254D01*
X135991917Y-107203434D01*
X135999286Y-107205142D01*
X136000002Y-107205143D01*
X136005831Y-107203814D01*
X136010044Y-107203480D01*
X136331603Y-107188474D01*
X136331606Y-107188474D01*
X136334536Y-107188337D01*
X136656434Y-107143016D01*
X136726677Y-107153325D01*
X136780197Y-107199975D01*
X136800000Y-107267785D01*
X136800000Y-123700000D01*
X141674000Y-123700000D01*
X141742121Y-123720002D01*
X141788614Y-123773658D01*
X141800000Y-123826000D01*
X141800000Y-144962690D01*
X141796746Y-144991139D01*
X141796514Y-144992141D01*
X141794858Y-144999286D01*
X141794857Y-145000002D01*
X141796186Y-145005831D01*
X141796520Y-145010044D01*
X141811527Y-145331604D01*
X141811664Y-145334537D01*
X141858356Y-145666165D01*
X141859031Y-145669008D01*
X141859032Y-145669013D01*
X141878597Y-145751413D01*
X141935723Y-145992004D01*
X141936661Y-145994774D01*
X141936662Y-145994779D01*
X141991103Y-146155624D01*
X142043092Y-146309225D01*
X142112796Y-146465475D01*
X142118399Y-146478034D01*
X142127885Y-146548394D01*
X142097826Y-146612713D01*
X142037765Y-146650570D01*
X141966771Y-146649947D01*
X141941861Y-146639356D01*
X141928147Y-146631691D01*
X141905218Y-146618877D01*
X141575304Y-146480194D01*
X141571935Y-146479203D01*
X141571931Y-146479201D01*
X141416604Y-146433486D01*
X141231989Y-146379151D01*
X140950508Y-146329518D01*
X140883009Y-146317616D01*
X140883007Y-146317616D01*
X140879549Y-146317006D01*
X140876040Y-146316785D01*
X140876038Y-146316785D01*
X140525897Y-146294756D01*
X140525891Y-146294756D01*
X140522379Y-146294535D01*
X140420609Y-146299512D01*
X140168437Y-146311845D01*
X140168428Y-146311846D01*
X140164930Y-146312017D01*
X140161462Y-146312579D01*
X140161459Y-146312579D01*
X139815132Y-146368672D01*
X139815129Y-146368673D01*
X139811657Y-146369235D01*
X139466963Y-146465475D01*
X139135146Y-146599538D01*
X138820341Y-146769753D01*
X138526471Y-146973998D01*
X138523829Y-146976311D01*
X138523825Y-146976314D01*
X138313420Y-147160509D01*
X138257199Y-147209727D01*
X138015882Y-147474003D01*
X137805528Y-147763531D01*
X137628757Y-148074703D01*
X137487775Y-148403640D01*
X137384337Y-148746242D01*
X137383701Y-148749709D01*
X137321281Y-149089812D01*
X137319734Y-149098239D01*
X137294769Y-149455244D01*
X137309756Y-149812806D01*
X137364506Y-150166470D01*
X137458337Y-150511827D01*
X137459630Y-150515092D01*
X137577812Y-150813586D01*
X137590080Y-150844572D01*
X137591735Y-150847684D01*
X137591737Y-150847689D01*
X137644064Y-150946101D01*
X137658384Y-151015638D01*
X137632836Y-151081879D01*
X137575532Y-151123791D01*
X137504664Y-151128069D01*
X137478673Y-151119029D01*
X137381404Y-151072744D01*
X137381398Y-151072741D01*
X137378583Y-151071402D01*
X137375665Y-151070352D01*
X137375658Y-151070349D01*
X137048779Y-150952714D01*
X137048773Y-150952712D01*
X137045852Y-150951661D01*
X136871298Y-150907694D01*
X136705949Y-150866046D01*
X136705941Y-150866044D01*
X136702942Y-150865289D01*
X136353191Y-150813127D01*
X136005542Y-150795956D01*
X136005404Y-150795944D01*
X136000717Y-150794858D01*
X136000001Y-150794857D01*
X135991283Y-150796846D01*
X135963268Y-150800000D01*
X104037312Y-150800000D01*
X104008863Y-150796746D01*
X104000716Y-150794858D01*
X104000000Y-150794857D01*
X103997872Y-150795342D01*
X103995335Y-150795050D01*
X103995378Y-150795911D01*
X103646810Y-150813127D01*
X103453773Y-150841916D01*
X103300134Y-150864829D01*
X103300129Y-150864830D01*
X103297058Y-150865288D01*
X103294043Y-150866047D01*
X103294040Y-150866048D01*
X103108318Y-150912827D01*
X102954147Y-150951659D01*
X102779705Y-151014436D01*
X102624342Y-151070347D01*
X102624337Y-151070349D01*
X102621417Y-151071400D01*
X102570037Y-151095849D01*
X102526388Y-151116619D01*
X102456281Y-151127827D01*
X102391244Y-151099354D01*
X102351926Y-151040239D01*
X102350808Y-150969252D01*
X102357141Y-150951594D01*
X102495192Y-150641528D01*
X102495194Y-150641523D01*
X102496624Y-150638311D01*
X102604835Y-150297186D01*
X102674347Y-149946125D01*
X102704293Y-149589504D01*
X102705543Y-149500000D01*
X102685566Y-149142682D01*
X102677464Y-149094782D01*
X102626472Y-148793298D01*
X102626471Y-148793294D01*
X102625883Y-148789817D01*
X102527239Y-148445804D01*
X102479354Y-148329627D01*
X102392201Y-148118176D01*
X102392197Y-148118168D01*
X102390863Y-148114931D01*
X102218455Y-147801321D01*
X102175417Y-147740310D01*
X102014194Y-147511763D01*
X102014193Y-147511762D01*
X102012163Y-147508884D01*
X101774560Y-147241265D01*
X101508605Y-147001799D01*
X101505755Y-146999758D01*
X101505748Y-146999753D01*
X101220470Y-146795514D01*
X101220467Y-146795512D01*
X101217616Y-146793471D01*
X100905218Y-146618877D01*
X100575304Y-146480194D01*
X100571935Y-146479203D01*
X100571931Y-146479201D01*
X100416604Y-146433486D01*
X100231989Y-146379151D01*
X99950508Y-146329518D01*
X99883009Y-146317616D01*
X99883007Y-146317616D01*
X99879549Y-146317006D01*
X99876040Y-146316785D01*
X99876038Y-146316785D01*
X99525897Y-146294756D01*
X99525891Y-146294756D01*
X99522379Y-146294535D01*
X99420609Y-146299512D01*
X99168437Y-146311845D01*
X99168428Y-146311846D01*
X99164930Y-146312017D01*
X99161462Y-146312579D01*
X99161459Y-146312579D01*
X98815132Y-146368672D01*
X98815129Y-146368673D01*
X98811657Y-146369235D01*
X98466963Y-146465475D01*
X98135146Y-146599538D01*
X98132055Y-146601209D01*
X98132045Y-146601214D01*
X98055546Y-146642577D01*
X97986110Y-146657383D01*
X97919693Y-146632298D01*
X97877381Y-146575288D01*
X97872608Y-146504452D01*
X97880548Y-146480409D01*
X97931732Y-146365674D01*
X97956913Y-146309227D01*
X98064282Y-145992005D01*
X98121407Y-145751413D01*
X98140972Y-145669013D01*
X98140973Y-145669009D01*
X98141648Y-145666165D01*
X98188339Y-145334536D01*
X98189823Y-145302728D01*
X98203080Y-145018624D01*
X116609031Y-145018624D01*
X116648428Y-145156471D01*
X116724930Y-145277720D01*
X116832388Y-145372623D01*
X116962163Y-145433553D01*
X117071009Y-145450500D01*
X117145940Y-145450500D01*
X117189939Y-145444199D01*
X117243032Y-145436596D01*
X117243035Y-145436595D01*
X117251918Y-145435323D01*
X117382428Y-145375984D01*
X117427152Y-145337447D01*
X117477781Y-145293823D01*
X119194402Y-145293823D01*
X119195566Y-145302725D01*
X119195566Y-145302728D01*
X119196825Y-145312354D01*
X119212991Y-145435979D01*
X119270731Y-145567203D01*
X119276508Y-145574076D01*
X119276509Y-145574077D01*
X119283803Y-145582754D01*
X119362981Y-145676948D01*
X119482324Y-145756390D01*
X119619168Y-145799142D01*
X119628140Y-145799306D01*
X119628143Y-145799307D01*
X119693474Y-145800504D01*
X119762510Y-145801770D01*
X119771544Y-145799307D01*
X119892169Y-145766421D01*
X119892171Y-145766420D01*
X119900828Y-145764060D01*
X120023002Y-145689045D01*
X120119211Y-145582754D01*
X120181721Y-145453733D01*
X120182097Y-145451498D01*
X120219974Y-145395482D01*
X120285226Y-145367506D01*
X120355245Y-145379248D01*
X120407800Y-145426982D01*
X120415566Y-145441857D01*
X120470720Y-145567203D01*
X120476497Y-145574076D01*
X120476498Y-145574077D01*
X120483792Y-145582754D01*
X120562970Y-145676948D01*
X120682313Y-145756390D01*
X120819157Y-145799142D01*
X120828129Y-145799306D01*
X120828132Y-145799307D01*
X120893463Y-145800504D01*
X120962499Y-145801770D01*
X120971533Y-145799307D01*
X121092158Y-145766421D01*
X121092160Y-145766420D01*
X121100817Y-145764060D01*
X121222991Y-145689045D01*
X121319200Y-145582754D01*
X121381710Y-145453733D01*
X121405496Y-145312354D01*
X121405647Y-145300000D01*
X121387471Y-145173078D01*
X121386596Y-145166968D01*
X121386595Y-145166965D01*
X121385323Y-145158082D01*
X121325984Y-145027572D01*
X121318274Y-145018624D01*
X122389031Y-145018624D01*
X122428428Y-145156471D01*
X122504930Y-145277720D01*
X122612388Y-145372623D01*
X122742163Y-145433553D01*
X122851009Y-145450500D01*
X122925940Y-145450500D01*
X122969939Y-145444199D01*
X123023032Y-145436596D01*
X123023035Y-145436595D01*
X123031918Y-145435323D01*
X123162428Y-145375984D01*
X123207152Y-145337447D01*
X123264237Y-145288260D01*
X123264240Y-145288257D01*
X123271037Y-145282400D01*
X123349015Y-145162095D01*
X123390093Y-145024739D01*
X123390149Y-145015659D01*
X123390914Y-144890351D01*
X123390969Y-144881376D01*
X123351572Y-144743529D01*
X123275070Y-144622280D01*
X123167612Y-144527377D01*
X123037837Y-144466447D01*
X122928991Y-144449500D01*
X122854060Y-144449500D01*
X122812661Y-144455429D01*
X122756968Y-144463404D01*
X122756965Y-144463405D01*
X122748082Y-144464677D01*
X122617572Y-144524016D01*
X122610768Y-144529878D01*
X122610769Y-144529878D01*
X122515763Y-144611740D01*
X122515760Y-144611743D01*
X122508963Y-144617600D01*
X122430985Y-144737905D01*
X122389907Y-144875261D01*
X122389031Y-145018624D01*
X121318274Y-145018624D01*
X121295615Y-144992327D01*
X121238260Y-144925763D01*
X121238257Y-144925760D01*
X121232400Y-144918963D01*
X121112095Y-144840985D01*
X120974739Y-144799907D01*
X120965763Y-144799852D01*
X120965762Y-144799852D01*
X120905555Y-144799484D01*
X120831376Y-144799031D01*
X120693529Y-144838428D01*
X120572280Y-144914930D01*
X120477377Y-145022388D01*
X120416447Y-145152163D01*
X120414986Y-145151477D01*
X120381549Y-145202262D01*
X120316647Y-145231040D01*
X120246489Y-145220160D01*
X120193350Y-145173078D01*
X120186387Y-145157603D01*
X120185334Y-145158082D01*
X120129711Y-145035746D01*
X120125995Y-145027572D01*
X120095626Y-144992327D01*
X120038271Y-144925763D01*
X120038268Y-144925760D01*
X120032411Y-144918963D01*
X119912106Y-144840985D01*
X119774750Y-144799907D01*
X119765774Y-144799852D01*
X119765773Y-144799852D01*
X119705566Y-144799484D01*
X119631387Y-144799031D01*
X119493540Y-144838428D01*
X119372291Y-144914930D01*
X119277388Y-145022388D01*
X119216458Y-145152163D01*
X119215077Y-145161035D01*
X119195984Y-145283663D01*
X119194402Y-145293823D01*
X117477781Y-145293823D01*
X117484237Y-145288260D01*
X117484240Y-145288257D01*
X117491037Y-145282400D01*
X117569015Y-145162095D01*
X117610093Y-145024739D01*
X117610149Y-145015659D01*
X117610914Y-144890351D01*
X117610969Y-144881376D01*
X117571572Y-144743529D01*
X117495070Y-144622280D01*
X117387612Y-144527377D01*
X117257837Y-144466447D01*
X117148991Y-144449500D01*
X117074060Y-144449500D01*
X117032661Y-144455429D01*
X116976968Y-144463404D01*
X116976965Y-144463405D01*
X116968082Y-144464677D01*
X116837572Y-144524016D01*
X116830768Y-144529878D01*
X116830769Y-144529878D01*
X116735763Y-144611740D01*
X116735760Y-144611743D01*
X116728963Y-144617600D01*
X116650985Y-144737905D01*
X116609907Y-144875261D01*
X116609031Y-145018624D01*
X98203080Y-145018624D01*
X98203433Y-145011058D01*
X98203801Y-145006502D01*
X98205142Y-145000717D01*
X98205143Y-145000001D01*
X98203154Y-144991283D01*
X98200000Y-144963268D01*
X98200000Y-143900000D01*
X104294318Y-143900000D01*
X104314956Y-144056762D01*
X104375464Y-144202841D01*
X104471718Y-144328282D01*
X104597159Y-144424536D01*
X104743238Y-144485044D01*
X104900000Y-144505682D01*
X104908188Y-144504604D01*
X105048574Y-144486122D01*
X105056762Y-144485044D01*
X105202841Y-144424536D01*
X105328282Y-144328282D01*
X105424536Y-144202841D01*
X105485044Y-144056762D01*
X105505682Y-143900000D01*
X111494318Y-143900000D01*
X111514956Y-144056762D01*
X111575464Y-144202841D01*
X111671718Y-144328282D01*
X111797159Y-144424536D01*
X111943238Y-144485044D01*
X112100000Y-144505682D01*
X112108188Y-144504604D01*
X112248574Y-144486122D01*
X112256762Y-144485044D01*
X112402841Y-144424536D01*
X112528282Y-144328282D01*
X112624536Y-144202841D01*
X112685044Y-144056762D01*
X112705682Y-143900000D01*
X112685044Y-143743238D01*
X112624536Y-143597159D01*
X112528282Y-143471718D01*
X112402841Y-143375464D01*
X112256762Y-143314956D01*
X112100000Y-143294318D01*
X111943238Y-143314956D01*
X111797159Y-143375464D01*
X111671718Y-143471718D01*
X111575464Y-143597159D01*
X111514956Y-143743238D01*
X111494318Y-143900000D01*
X105505682Y-143900000D01*
X105485044Y-143743238D01*
X105424536Y-143597159D01*
X105328282Y-143471718D01*
X105202841Y-143375464D01*
X105056762Y-143314956D01*
X104900000Y-143294318D01*
X104743238Y-143314956D01*
X104597159Y-143375464D01*
X104471718Y-143471718D01*
X104375464Y-143597159D01*
X104314956Y-143743238D01*
X104294318Y-143900000D01*
X98200000Y-143900000D01*
X98200000Y-142800000D01*
X116994318Y-142800000D01*
X117014956Y-142956762D01*
X117075464Y-143102841D01*
X117171718Y-143228282D01*
X117297159Y-143324536D01*
X117443238Y-143385044D01*
X117600000Y-143405682D01*
X117608188Y-143404604D01*
X117748574Y-143386122D01*
X117756762Y-143385044D01*
X117902841Y-143324536D01*
X118028282Y-143228282D01*
X118124536Y-143102841D01*
X118185044Y-142956762D01*
X118205682Y-142800000D01*
X121794318Y-142800000D01*
X121814956Y-142956762D01*
X121875464Y-143102841D01*
X121971718Y-143228282D01*
X122097159Y-143324536D01*
X122243238Y-143385044D01*
X122400000Y-143405682D01*
X122408188Y-143404604D01*
X122548574Y-143386122D01*
X122556762Y-143385044D01*
X122702841Y-143324536D01*
X122828282Y-143228282D01*
X122924536Y-143102841D01*
X122985044Y-142956762D01*
X123005682Y-142800000D01*
X122987128Y-142659069D01*
X122986122Y-142651426D01*
X122985044Y-142643238D01*
X122924536Y-142497159D01*
X122828282Y-142371718D01*
X122702841Y-142275464D01*
X122556762Y-142214956D01*
X122501450Y-142207674D01*
X122408188Y-142195396D01*
X122400000Y-142194318D01*
X122391812Y-142195396D01*
X122298551Y-142207674D01*
X122243238Y-142214956D01*
X122097159Y-142275464D01*
X121971718Y-142371718D01*
X121875464Y-142497159D01*
X121814956Y-142643238D01*
X121813878Y-142651426D01*
X121812872Y-142659069D01*
X121794318Y-142800000D01*
X118205682Y-142800000D01*
X118187128Y-142659069D01*
X118186122Y-142651426D01*
X118185044Y-142643238D01*
X118124536Y-142497159D01*
X118028282Y-142371718D01*
X117902841Y-142275464D01*
X117756762Y-142214956D01*
X117701450Y-142207674D01*
X117608188Y-142195396D01*
X117600000Y-142194318D01*
X117591812Y-142195396D01*
X117498551Y-142207674D01*
X117443238Y-142214956D01*
X117297159Y-142275464D01*
X117171718Y-142371718D01*
X117075464Y-142497159D01*
X117014956Y-142643238D01*
X117013878Y-142651426D01*
X117012872Y-142659069D01*
X116994318Y-142800000D01*
X98200000Y-142800000D01*
X98200000Y-141393823D01*
X106494391Y-141393823D01*
X106495555Y-141402725D01*
X106495555Y-141402728D01*
X106500599Y-141441299D01*
X106512980Y-141535979D01*
X106570720Y-141667203D01*
X106576497Y-141674076D01*
X106576498Y-141674077D01*
X106615701Y-141720715D01*
X106662970Y-141776948D01*
X106711785Y-141809442D01*
X106757406Y-141863838D01*
X106766378Y-141934265D01*
X106756021Y-141967873D01*
X106716447Y-142052163D01*
X106694391Y-142193823D01*
X106695555Y-142202725D01*
X106695555Y-142202728D01*
X106703685Y-142264901D01*
X106712980Y-142335979D01*
X106770720Y-142467203D01*
X106776497Y-142474076D01*
X106776498Y-142474077D01*
X106802314Y-142504789D01*
X106862970Y-142576948D01*
X106982313Y-142656390D01*
X107119157Y-142699142D01*
X107128129Y-142699306D01*
X107128132Y-142699307D01*
X107193463Y-142700504D01*
X107262499Y-142701770D01*
X107271533Y-142699307D01*
X107392158Y-142666421D01*
X107392160Y-142666420D01*
X107400817Y-142664060D01*
X107522991Y-142589045D01*
X107619200Y-142482754D01*
X107654089Y-142410743D01*
X107677795Y-142361814D01*
X107677795Y-142361813D01*
X107681710Y-142353733D01*
X107705496Y-142212354D01*
X107705647Y-142200000D01*
X107697473Y-142142924D01*
X107686596Y-142066968D01*
X107686595Y-142066965D01*
X107685323Y-142058082D01*
X107625984Y-141927572D01*
X107607598Y-141906234D01*
X107538260Y-141825763D01*
X107538257Y-141825760D01*
X107532400Y-141818963D01*
X107489411Y-141791099D01*
X107443127Y-141737264D01*
X107433296Y-141666951D01*
X107444551Y-141630429D01*
X107481710Y-141553733D01*
X107505496Y-141412354D01*
X107505647Y-141400000D01*
X107496709Y-141337590D01*
X108850624Y-141337590D01*
X108851788Y-141346492D01*
X108851788Y-141346495D01*
X108856416Y-141381884D01*
X108869213Y-141479746D01*
X108872830Y-141487966D01*
X108921866Y-141599408D01*
X108926953Y-141610970D01*
X108932730Y-141617843D01*
X108932731Y-141617844D01*
X108998818Y-141696464D01*
X109019203Y-141720715D01*
X109138546Y-141800157D01*
X109275390Y-141842909D01*
X109284362Y-141843073D01*
X109284365Y-141843074D01*
X109335175Y-141844005D01*
X109377300Y-141844777D01*
X109445042Y-141866024D01*
X109490544Y-141920523D01*
X109499926Y-141954419D01*
X109511815Y-142045341D01*
X109511816Y-142045345D01*
X109512980Y-142054246D01*
X109570720Y-142185470D01*
X109576497Y-142192343D01*
X109576498Y-142192344D01*
X109650593Y-142280491D01*
X109662970Y-142295215D01*
X109670447Y-142300192D01*
X109750880Y-142353733D01*
X109782313Y-142374657D01*
X109790888Y-142377336D01*
X109806864Y-142382327D01*
X109919157Y-142417409D01*
X109928129Y-142417573D01*
X109928132Y-142417574D01*
X109993463Y-142418771D01*
X110062499Y-142420037D01*
X110071533Y-142417574D01*
X110192158Y-142384688D01*
X110192160Y-142384687D01*
X110200817Y-142382327D01*
X110322991Y-142307312D01*
X110419200Y-142201021D01*
X110481710Y-142072000D01*
X110505496Y-141930621D01*
X110505647Y-141918267D01*
X110491426Y-141818963D01*
X110486596Y-141785235D01*
X110486595Y-141785232D01*
X110485323Y-141776349D01*
X110425984Y-141645839D01*
X110388012Y-141601770D01*
X110338260Y-141544030D01*
X110338257Y-141544027D01*
X110332400Y-141537230D01*
X110212095Y-141459252D01*
X110074739Y-141418174D01*
X110065763Y-141418119D01*
X110065762Y-141418119D01*
X110033300Y-141417921D01*
X109980924Y-141417601D01*
X109912928Y-141397183D01*
X109866764Y-141343244D01*
X109856968Y-141309466D01*
X109850882Y-141266968D01*
X109841556Y-141201849D01*
X109837907Y-141193823D01*
X117394391Y-141193823D01*
X117395555Y-141202725D01*
X117395555Y-141202728D01*
X117402020Y-141252163D01*
X117412980Y-141335979D01*
X117416597Y-141344199D01*
X117449123Y-141418119D01*
X117470720Y-141467203D01*
X117476497Y-141474076D01*
X117476498Y-141474077D01*
X117554121Y-141566421D01*
X117562970Y-141576948D01*
X117614080Y-141610970D01*
X117666463Y-141645839D01*
X117682313Y-141656390D01*
X117819157Y-141699142D01*
X117828129Y-141699306D01*
X117828132Y-141699307D01*
X117893463Y-141700504D01*
X117962499Y-141701770D01*
X117971533Y-141699307D01*
X118092158Y-141666421D01*
X118092160Y-141666420D01*
X118100817Y-141664060D01*
X118222991Y-141589045D01*
X118257054Y-141551413D01*
X118313178Y-141489407D01*
X118319200Y-141482754D01*
X118366586Y-141384950D01*
X118377795Y-141361814D01*
X118377795Y-141361813D01*
X118381710Y-141353733D01*
X118405496Y-141212354D01*
X118405647Y-141200000D01*
X118391326Y-141100000D01*
X118390441Y-141093823D01*
X121494391Y-141093823D01*
X121495555Y-141102725D01*
X121495555Y-141102728D01*
X121498126Y-141122388D01*
X121512980Y-141235979D01*
X121570720Y-141367203D01*
X121576497Y-141374076D01*
X121576498Y-141374077D01*
X121600582Y-141402728D01*
X121662970Y-141476948D01*
X121670447Y-141481925D01*
X121753530Y-141537230D01*
X121782313Y-141556390D01*
X121919157Y-141599142D01*
X121928129Y-141599306D01*
X121928132Y-141599307D01*
X121993463Y-141600504D01*
X122062499Y-141601770D01*
X122071533Y-141599307D01*
X122192158Y-141566421D01*
X122192160Y-141566420D01*
X122200817Y-141564060D01*
X122322991Y-141489045D01*
X122419200Y-141382754D01*
X122481710Y-141253733D01*
X122505496Y-141112354D01*
X122505647Y-141100000D01*
X122493464Y-141014930D01*
X122486596Y-140966968D01*
X122486595Y-140966965D01*
X122485323Y-140958082D01*
X122475168Y-140935746D01*
X122459596Y-140901498D01*
X122425984Y-140827572D01*
X122353299Y-140743217D01*
X122338260Y-140725763D01*
X122338257Y-140725760D01*
X122332400Y-140718963D01*
X122212095Y-140640985D01*
X122074739Y-140599907D01*
X122065763Y-140599852D01*
X122065762Y-140599852D01*
X122005555Y-140599484D01*
X121931376Y-140599031D01*
X121793529Y-140638428D01*
X121672280Y-140714930D01*
X121666338Y-140721658D01*
X121666337Y-140721659D01*
X121651527Y-140738428D01*
X121577377Y-140822388D01*
X121516447Y-140952163D01*
X121515066Y-140961035D01*
X121497434Y-141074281D01*
X121494391Y-141093823D01*
X118390441Y-141093823D01*
X118386596Y-141066968D01*
X118386595Y-141066965D01*
X118385323Y-141058082D01*
X118325984Y-140927572D01*
X118289088Y-140884752D01*
X118238260Y-140825763D01*
X118238257Y-140825760D01*
X118232400Y-140818963D01*
X118112095Y-140740985D01*
X117974739Y-140699907D01*
X117965763Y-140699852D01*
X117965762Y-140699852D01*
X117905555Y-140699484D01*
X117831376Y-140699031D01*
X117693529Y-140738428D01*
X117572280Y-140814930D01*
X117477377Y-140922388D01*
X117416447Y-141052163D01*
X117394391Y-141193823D01*
X109837907Y-141193823D01*
X109782217Y-141071339D01*
X109733612Y-141014930D01*
X109694493Y-140969530D01*
X109694490Y-140969527D01*
X109688633Y-140962730D01*
X109568328Y-140884752D01*
X109430972Y-140843674D01*
X109421996Y-140843619D01*
X109421995Y-140843619D01*
X109361788Y-140843251D01*
X109287609Y-140842798D01*
X109149762Y-140882195D01*
X109028513Y-140958697D01*
X108933610Y-141066155D01*
X108872680Y-141195930D01*
X108864275Y-141249913D01*
X108855003Y-141309466D01*
X108850624Y-141337590D01*
X107496709Y-141337590D01*
X107485323Y-141258082D01*
X107475274Y-141235979D01*
X107460155Y-141202728D01*
X107425984Y-141127572D01*
X107396904Y-141093823D01*
X107338260Y-141025763D01*
X107338257Y-141025760D01*
X107332400Y-141018963D01*
X107212095Y-140940985D01*
X107074739Y-140899907D01*
X107065763Y-140899852D01*
X107065762Y-140899852D01*
X107005555Y-140899484D01*
X106931376Y-140899031D01*
X106793529Y-140938428D01*
X106672280Y-141014930D01*
X106577377Y-141122388D01*
X106516447Y-141252163D01*
X106514142Y-141266968D01*
X106496250Y-141381884D01*
X106494391Y-141393823D01*
X98200000Y-141393823D01*
X98200000Y-139593823D01*
X118394391Y-139593823D01*
X118395555Y-139602725D01*
X118395555Y-139602728D01*
X118396814Y-139612354D01*
X118412980Y-139735979D01*
X118470720Y-139867203D01*
X118476497Y-139874076D01*
X118476498Y-139874077D01*
X118557190Y-139970072D01*
X118562970Y-139976948D01*
X118682313Y-140056390D01*
X118819157Y-140099142D01*
X118828129Y-140099306D01*
X118828132Y-140099307D01*
X118893463Y-140100504D01*
X118962499Y-140101770D01*
X118971533Y-140099307D01*
X119092158Y-140066421D01*
X119092160Y-140066420D01*
X119100817Y-140064060D01*
X119222991Y-139989045D01*
X119245307Y-139964391D01*
X119313178Y-139889407D01*
X119319200Y-139882754D01*
X119381710Y-139753733D01*
X119405496Y-139612354D01*
X119405647Y-139600000D01*
X119404762Y-139593823D01*
X120494391Y-139593823D01*
X120495555Y-139602725D01*
X120495555Y-139602728D01*
X120496814Y-139612354D01*
X120512980Y-139735979D01*
X120570720Y-139867203D01*
X120576497Y-139874076D01*
X120576498Y-139874077D01*
X120657190Y-139970072D01*
X120662970Y-139976948D01*
X120782313Y-140056390D01*
X120919157Y-140099142D01*
X120928129Y-140099306D01*
X120928132Y-140099307D01*
X120993463Y-140100504D01*
X121062499Y-140101770D01*
X121071533Y-140099307D01*
X121192158Y-140066421D01*
X121192160Y-140066420D01*
X121200817Y-140064060D01*
X121322991Y-139989045D01*
X121345307Y-139964391D01*
X121413178Y-139889407D01*
X121419200Y-139882754D01*
X121459294Y-139800000D01*
X136794318Y-139800000D01*
X136814956Y-139956762D01*
X136875464Y-140102841D01*
X136880491Y-140109392D01*
X136955333Y-140206928D01*
X136971718Y-140228282D01*
X137097159Y-140324536D01*
X137243238Y-140385044D01*
X137400000Y-140405682D01*
X137408188Y-140404604D01*
X137548574Y-140386122D01*
X137556762Y-140385044D01*
X137595781Y-140368882D01*
X137666369Y-140361293D01*
X137729856Y-140393072D01*
X137766084Y-140454130D01*
X137763550Y-140525081D01*
X137760407Y-140533509D01*
X137731839Y-140602480D01*
X137714956Y-140643238D01*
X137713878Y-140651426D01*
X137707503Y-140699852D01*
X137694318Y-140800000D01*
X137714956Y-140956762D01*
X137775464Y-141102841D01*
X137780491Y-141109392D01*
X137850017Y-141200000D01*
X137871718Y-141228282D01*
X137997159Y-141324536D01*
X138143238Y-141385044D01*
X138300000Y-141405682D01*
X138308188Y-141404604D01*
X138448574Y-141386122D01*
X138456762Y-141385044D01*
X138602841Y-141324536D01*
X138728282Y-141228282D01*
X138749984Y-141200000D01*
X138819509Y-141109392D01*
X138824536Y-141102841D01*
X138885044Y-140956762D01*
X138905682Y-140800000D01*
X138892497Y-140699852D01*
X138886122Y-140651426D01*
X138885044Y-140643238D01*
X138824536Y-140497159D01*
X138753516Y-140404604D01*
X138733305Y-140378264D01*
X138728282Y-140371718D01*
X138602841Y-140275464D01*
X138456762Y-140214956D01*
X138300000Y-140194318D01*
X138143238Y-140214956D01*
X138104219Y-140231118D01*
X138033631Y-140238707D01*
X137970144Y-140206928D01*
X137933916Y-140145870D01*
X137936450Y-140074919D01*
X137939593Y-140066491D01*
X137981884Y-139964392D01*
X137981885Y-139964389D01*
X137985044Y-139956762D01*
X138005682Y-139800000D01*
X137985044Y-139643238D01*
X137924536Y-139497159D01*
X137828282Y-139371718D01*
X137811798Y-139359069D01*
X137709392Y-139280491D01*
X137702841Y-139275464D01*
X137556762Y-139214956D01*
X137400000Y-139194318D01*
X137243238Y-139214956D01*
X137097159Y-139275464D01*
X137090608Y-139280491D01*
X136988203Y-139359069D01*
X136971718Y-139371718D01*
X136875464Y-139497159D01*
X136814956Y-139643238D01*
X136794318Y-139800000D01*
X121459294Y-139800000D01*
X121481710Y-139753733D01*
X121505496Y-139612354D01*
X121505647Y-139600000D01*
X121485323Y-139458082D01*
X121425984Y-139327572D01*
X121392787Y-139289045D01*
X121338260Y-139225763D01*
X121338257Y-139225760D01*
X121332400Y-139218963D01*
X121212095Y-139140985D01*
X121074739Y-139099907D01*
X121065763Y-139099852D01*
X121065762Y-139099852D01*
X121005555Y-139099484D01*
X120931376Y-139099031D01*
X120793529Y-139138428D01*
X120672280Y-139214930D01*
X120577377Y-139322388D01*
X120516447Y-139452163D01*
X120494391Y-139593823D01*
X119404762Y-139593823D01*
X119385323Y-139458082D01*
X119325984Y-139327572D01*
X119292787Y-139289045D01*
X119238260Y-139225763D01*
X119238257Y-139225760D01*
X119232400Y-139218963D01*
X119112095Y-139140985D01*
X118974739Y-139099907D01*
X118965763Y-139099852D01*
X118965762Y-139099852D01*
X118905555Y-139099484D01*
X118831376Y-139099031D01*
X118693529Y-139138428D01*
X118572280Y-139214930D01*
X118477377Y-139322388D01*
X118416447Y-139452163D01*
X118394391Y-139593823D01*
X98200000Y-139593823D01*
X98200000Y-138893823D01*
X123294391Y-138893823D01*
X123295555Y-138902725D01*
X123295555Y-138902728D01*
X123296814Y-138912354D01*
X123312980Y-139035979D01*
X123370720Y-139167203D01*
X123376497Y-139174076D01*
X123376498Y-139174077D01*
X123457190Y-139270072D01*
X123462970Y-139276948D01*
X123582313Y-139356390D01*
X123719157Y-139399142D01*
X123728129Y-139399306D01*
X123728132Y-139399307D01*
X123793463Y-139400504D01*
X123862499Y-139401770D01*
X123871533Y-139399307D01*
X123992158Y-139366421D01*
X123992160Y-139366420D01*
X124000817Y-139364060D01*
X124122991Y-139289045D01*
X124219200Y-139182754D01*
X124281710Y-139053733D01*
X124305496Y-138912354D01*
X124305647Y-138900000D01*
X124285323Y-138758082D01*
X124225984Y-138627572D01*
X124207598Y-138606234D01*
X124138260Y-138525763D01*
X124138257Y-138525760D01*
X124132400Y-138518963D01*
X124012095Y-138440985D01*
X123874739Y-138399907D01*
X123865763Y-138399852D01*
X123865762Y-138399852D01*
X123805555Y-138399484D01*
X123731376Y-138399031D01*
X123593529Y-138438428D01*
X123472280Y-138514930D01*
X123377377Y-138622388D01*
X123316447Y-138752163D01*
X123294391Y-138893823D01*
X98200000Y-138893823D01*
X98200000Y-135993823D01*
X130994391Y-135993823D01*
X130995555Y-136002725D01*
X130995555Y-136002728D01*
X130996814Y-136012354D01*
X131012980Y-136135979D01*
X131070720Y-136267203D01*
X131076497Y-136274076D01*
X131076498Y-136274077D01*
X131083792Y-136282754D01*
X131162970Y-136376948D01*
X131282313Y-136456390D01*
X131419157Y-136499142D01*
X131428129Y-136499306D01*
X131428132Y-136499307D01*
X131493463Y-136500504D01*
X131562499Y-136501770D01*
X131571533Y-136499307D01*
X131692158Y-136466421D01*
X131692160Y-136466420D01*
X131700817Y-136464060D01*
X131822991Y-136389045D01*
X131919200Y-136282754D01*
X131981710Y-136153733D01*
X132005496Y-136012354D01*
X132005647Y-136000000D01*
X132004762Y-135993823D01*
X133394391Y-135993823D01*
X133395555Y-136002725D01*
X133395555Y-136002728D01*
X133396814Y-136012354D01*
X133412980Y-136135979D01*
X133470720Y-136267203D01*
X133476497Y-136274076D01*
X133476498Y-136274077D01*
X133483792Y-136282754D01*
X133562970Y-136376948D01*
X133682313Y-136456390D01*
X133819157Y-136499142D01*
X133828129Y-136499306D01*
X133828132Y-136499307D01*
X133893463Y-136500504D01*
X133962499Y-136501770D01*
X133971533Y-136499307D01*
X134092158Y-136466421D01*
X134092160Y-136466420D01*
X134100817Y-136464060D01*
X134222991Y-136389045D01*
X134319200Y-136282754D01*
X134381710Y-136153733D01*
X134405496Y-136012354D01*
X134405647Y-136000000D01*
X134385323Y-135858082D01*
X134325984Y-135727572D01*
X134292787Y-135689045D01*
X134238260Y-135625763D01*
X134238257Y-135625760D01*
X134232400Y-135618963D01*
X134112095Y-135540985D01*
X133974739Y-135499907D01*
X133965763Y-135499852D01*
X133965762Y-135499852D01*
X133905555Y-135499484D01*
X133831376Y-135499031D01*
X133693529Y-135538428D01*
X133572280Y-135614930D01*
X133477377Y-135722388D01*
X133416447Y-135852163D01*
X133394391Y-135993823D01*
X132004762Y-135993823D01*
X131985323Y-135858082D01*
X131925984Y-135727572D01*
X131892787Y-135689045D01*
X131838260Y-135625763D01*
X131838257Y-135625760D01*
X131832400Y-135618963D01*
X131712095Y-135540985D01*
X131574739Y-135499907D01*
X131565763Y-135499852D01*
X131565762Y-135499852D01*
X131505555Y-135499484D01*
X131431376Y-135499031D01*
X131293529Y-135538428D01*
X131172280Y-135614930D01*
X131077377Y-135722388D01*
X131016447Y-135852163D01*
X130994391Y-135993823D01*
X98200000Y-135993823D01*
X98200000Y-135293823D01*
X113694391Y-135293823D01*
X113695555Y-135302725D01*
X113695555Y-135302728D01*
X113696814Y-135312354D01*
X113712980Y-135435979D01*
X113770720Y-135567203D01*
X113776497Y-135574076D01*
X113776498Y-135574077D01*
X113821073Y-135627105D01*
X113862970Y-135676948D01*
X113982313Y-135756390D01*
X114119157Y-135799142D01*
X114128129Y-135799306D01*
X114128132Y-135799307D01*
X114193463Y-135800504D01*
X114262499Y-135801770D01*
X114271533Y-135799307D01*
X114392158Y-135766421D01*
X114392160Y-135766420D01*
X114400817Y-135764060D01*
X114522991Y-135689045D01*
X114619200Y-135582754D01*
X114681710Y-135453733D01*
X114705496Y-135312354D01*
X114705647Y-135300000D01*
X114685323Y-135158082D01*
X114667700Y-135119323D01*
X115294391Y-135119323D01*
X115295555Y-135128225D01*
X115295555Y-135128228D01*
X115298391Y-135149913D01*
X115312980Y-135261479D01*
X115370720Y-135392703D01*
X115376497Y-135399576D01*
X115376498Y-135399577D01*
X115383792Y-135408254D01*
X115462970Y-135502448D01*
X115517022Y-135538428D01*
X115547901Y-135558983D01*
X115582313Y-135581890D01*
X115719157Y-135624642D01*
X115728129Y-135624806D01*
X115728132Y-135624807D01*
X115793463Y-135626004D01*
X115862499Y-135627270D01*
X115871533Y-135624807D01*
X115992158Y-135591921D01*
X115992160Y-135591920D01*
X116000817Y-135589560D01*
X116122991Y-135514545D01*
X116134801Y-135501498D01*
X116213178Y-135414907D01*
X116219200Y-135408254D01*
X116270327Y-135302728D01*
X116277795Y-135287314D01*
X116277795Y-135287313D01*
X116281710Y-135279233D01*
X116305496Y-135137854D01*
X116305647Y-135125500D01*
X116297473Y-135068424D01*
X116286596Y-134992468D01*
X116286595Y-134992465D01*
X116285323Y-134983582D01*
X116225984Y-134853072D01*
X116180174Y-134799907D01*
X116138260Y-134751263D01*
X116138257Y-134751260D01*
X116132400Y-134744463D01*
X116012095Y-134666485D01*
X115874739Y-134625407D01*
X115865763Y-134625352D01*
X115865762Y-134625352D01*
X115805555Y-134624984D01*
X115731376Y-134624531D01*
X115593529Y-134663928D01*
X115472280Y-134740430D01*
X115377377Y-134847888D01*
X115316447Y-134977663D01*
X115294391Y-135119323D01*
X114667700Y-135119323D01*
X114625984Y-135027572D01*
X114588080Y-134983582D01*
X114538260Y-134925763D01*
X114538257Y-134925760D01*
X114532400Y-134918963D01*
X114412095Y-134840985D01*
X114274739Y-134799907D01*
X114265763Y-134799852D01*
X114265762Y-134799852D01*
X114205555Y-134799484D01*
X114131376Y-134799031D01*
X113993529Y-134838428D01*
X113872280Y-134914930D01*
X113777377Y-135022388D01*
X113716447Y-135152163D01*
X113715066Y-135161035D01*
X113696663Y-135279233D01*
X113694391Y-135293823D01*
X98200000Y-135293823D01*
X98200000Y-133512806D01*
X107487874Y-133512806D01*
X107489038Y-133521708D01*
X107489038Y-133521711D01*
X107497169Y-133583884D01*
X107506463Y-133654962D01*
X107564203Y-133786186D01*
X107569980Y-133793059D01*
X107569981Y-133793060D01*
X107575815Y-133800000D01*
X107656453Y-133895931D01*
X107775796Y-133975373D01*
X107912640Y-134018125D01*
X107921612Y-134018289D01*
X107921615Y-134018290D01*
X107986946Y-134019487D01*
X108055982Y-134020753D01*
X108065016Y-134018290D01*
X108154760Y-133993823D01*
X113219891Y-133993823D01*
X113221055Y-134002725D01*
X113221055Y-134002728D01*
X113223391Y-134020588D01*
X113238480Y-134135979D01*
X113296220Y-134267203D01*
X113301997Y-134274076D01*
X113301998Y-134274077D01*
X113382690Y-134370072D01*
X113388470Y-134376948D01*
X113507813Y-134456390D01*
X113644657Y-134499142D01*
X113653629Y-134499306D01*
X113653632Y-134499307D01*
X113718963Y-134500504D01*
X113787999Y-134501770D01*
X113797033Y-134499307D01*
X113917658Y-134466421D01*
X113917660Y-134466420D01*
X113926317Y-134464060D01*
X114048491Y-134389045D01*
X114144700Y-134282754D01*
X114193551Y-134181925D01*
X114203295Y-134161814D01*
X114203295Y-134161813D01*
X114207210Y-134153733D01*
X114230996Y-134012354D01*
X114231147Y-134000000D01*
X114216956Y-133900908D01*
X114212096Y-133866968D01*
X114212095Y-133866965D01*
X114210823Y-133858082D01*
X114181606Y-133793823D01*
X115068891Y-133793823D01*
X115070055Y-133802725D01*
X115070055Y-133802728D01*
X115076520Y-133852163D01*
X115087480Y-133935979D01*
X115145220Y-134067203D01*
X115150997Y-134074076D01*
X115150998Y-134074077D01*
X115231690Y-134170072D01*
X115237470Y-134176948D01*
X115356813Y-134256390D01*
X115493657Y-134299142D01*
X115502629Y-134299306D01*
X115502632Y-134299307D01*
X115567963Y-134300504D01*
X115636999Y-134301770D01*
X115646033Y-134299307D01*
X115766658Y-134266421D01*
X115766660Y-134266420D01*
X115775317Y-134264060D01*
X115897491Y-134189045D01*
X115993700Y-134082754D01*
X116041086Y-133984950D01*
X116052295Y-133961814D01*
X116052295Y-133961813D01*
X116056210Y-133953733D01*
X116079996Y-133812354D01*
X116080147Y-133800000D01*
X116059823Y-133658082D01*
X116000484Y-133527572D01*
X115975891Y-133499031D01*
X115912760Y-133425763D01*
X115912757Y-133425760D01*
X115906900Y-133418963D01*
X115786595Y-133340985D01*
X115649239Y-133299907D01*
X115640263Y-133299852D01*
X115640262Y-133299852D01*
X115580055Y-133299484D01*
X115505876Y-133299031D01*
X115368029Y-133338428D01*
X115246780Y-133414930D01*
X115151877Y-133522388D01*
X115090947Y-133652163D01*
X115088642Y-133666968D01*
X115071360Y-133777966D01*
X115068891Y-133793823D01*
X114181606Y-133793823D01*
X114151484Y-133727572D01*
X114099264Y-133666968D01*
X114063760Y-133625763D01*
X114063757Y-133625760D01*
X114057900Y-133618963D01*
X113937595Y-133540985D01*
X113800239Y-133499907D01*
X113791263Y-133499852D01*
X113791262Y-133499852D01*
X113731055Y-133499484D01*
X113656876Y-133499031D01*
X113519029Y-133538428D01*
X113397780Y-133614930D01*
X113302877Y-133722388D01*
X113241947Y-133852163D01*
X113234358Y-133900908D01*
X113222301Y-133978347D01*
X113219891Y-133993823D01*
X108154760Y-133993823D01*
X108185641Y-133985404D01*
X108185643Y-133985403D01*
X108194300Y-133983043D01*
X108316474Y-133908028D01*
X108361683Y-133858082D01*
X108406661Y-133808390D01*
X108412683Y-133801737D01*
X108475193Y-133672716D01*
X108498979Y-133531337D01*
X108499130Y-133518983D01*
X108484176Y-133414564D01*
X108494318Y-133344297D01*
X108540841Y-133290667D01*
X108608973Y-133270703D01*
X108646474Y-133276435D01*
X108719157Y-133299142D01*
X108728129Y-133299306D01*
X108728132Y-133299307D01*
X108793463Y-133300504D01*
X108862499Y-133301770D01*
X108871533Y-133299307D01*
X108992158Y-133266421D01*
X108992160Y-133266420D01*
X109000817Y-133264060D01*
X109122991Y-133189045D01*
X109219200Y-133082754D01*
X109281710Y-132953733D01*
X109291789Y-132893823D01*
X126994391Y-132893823D01*
X126995555Y-132902725D01*
X126995555Y-132902728D01*
X127002225Y-132953733D01*
X127012980Y-133035979D01*
X127070720Y-133167203D01*
X127076497Y-133174076D01*
X127076498Y-133174077D01*
X127154121Y-133266421D01*
X127162970Y-133276948D01*
X127170447Y-133281925D01*
X127266511Y-133345871D01*
X127282313Y-133356390D01*
X127419157Y-133399142D01*
X127428129Y-133399306D01*
X127428132Y-133399307D01*
X127493463Y-133400504D01*
X127562499Y-133401770D01*
X127571533Y-133399307D01*
X127692158Y-133366421D01*
X127692160Y-133366420D01*
X127700817Y-133364060D01*
X127822991Y-133289045D01*
X127919200Y-133182754D01*
X127964426Y-133089407D01*
X127977795Y-133061814D01*
X127977795Y-133061813D01*
X127981710Y-133053733D01*
X128005496Y-132912354D01*
X128005572Y-132906136D01*
X128005588Y-132904859D01*
X128005588Y-132904854D01*
X128005647Y-132900000D01*
X127991326Y-132800000D01*
X127986596Y-132766968D01*
X127986595Y-132766965D01*
X127985323Y-132758082D01*
X127925984Y-132627572D01*
X127907598Y-132606234D01*
X127838260Y-132525763D01*
X127838257Y-132525760D01*
X127832400Y-132518963D01*
X127712095Y-132440985D01*
X127574739Y-132399907D01*
X127565763Y-132399852D01*
X127565762Y-132399852D01*
X127505555Y-132399484D01*
X127431376Y-132399031D01*
X127293529Y-132438428D01*
X127172280Y-132514930D01*
X127077377Y-132622388D01*
X127016447Y-132752163D01*
X126994391Y-132893823D01*
X109291789Y-132893823D01*
X109305496Y-132812354D01*
X109305647Y-132800000D01*
X109285323Y-132658082D01*
X109275168Y-132635746D01*
X109229700Y-132535746D01*
X109225984Y-132527572D01*
X109190268Y-132486122D01*
X109138260Y-132425763D01*
X109138257Y-132425760D01*
X109132400Y-132418963D01*
X109012095Y-132340985D01*
X108874739Y-132299907D01*
X108865763Y-132299852D01*
X108865762Y-132299852D01*
X108805555Y-132299484D01*
X108731376Y-132299031D01*
X108593529Y-132338428D01*
X108472280Y-132414930D01*
X108466338Y-132421658D01*
X108466337Y-132421659D01*
X108451527Y-132438428D01*
X108377377Y-132522388D01*
X108316447Y-132652163D01*
X108315066Y-132661035D01*
X108299956Y-132758082D01*
X108294391Y-132793823D01*
X108295555Y-132802725D01*
X108295555Y-132802728D01*
X108309019Y-132905689D01*
X108298019Y-132975828D01*
X108250844Y-133028885D01*
X108182474Y-133048016D01*
X108147981Y-133042743D01*
X108101643Y-133028885D01*
X108068222Y-133018890D01*
X108059246Y-133018835D01*
X108059245Y-133018835D01*
X107999038Y-133018467D01*
X107924859Y-133018014D01*
X107787012Y-133057411D01*
X107665763Y-133133913D01*
X107570860Y-133241371D01*
X107509930Y-133371146D01*
X107505530Y-133399408D01*
X107489482Y-133502480D01*
X107487874Y-133512806D01*
X98200000Y-133512806D01*
X98200000Y-131788823D01*
X100889391Y-131788823D01*
X100890555Y-131797725D01*
X100890555Y-131797728D01*
X100895557Y-131835979D01*
X100907980Y-131930979D01*
X100911597Y-131939199D01*
X100953251Y-132033864D01*
X100965720Y-132062203D01*
X100971497Y-132069076D01*
X100971498Y-132069077D01*
X101044892Y-132156390D01*
X101057970Y-132171948D01*
X101177313Y-132251390D01*
X101314157Y-132294142D01*
X101323129Y-132294306D01*
X101323132Y-132294307D01*
X101388463Y-132295504D01*
X101457499Y-132296770D01*
X101466533Y-132294307D01*
X101587158Y-132261421D01*
X101587160Y-132261420D01*
X101595817Y-132259060D01*
X101717991Y-132184045D01*
X101725898Y-132175310D01*
X101808178Y-132084407D01*
X101814200Y-132077754D01*
X101864431Y-131974077D01*
X101872795Y-131956814D01*
X101872795Y-131956813D01*
X101876710Y-131948733D01*
X101884909Y-131900000D01*
X106094318Y-131900000D01*
X106095396Y-131908188D01*
X106112871Y-132040921D01*
X106114956Y-132056762D01*
X106175464Y-132202841D01*
X106271718Y-132328282D01*
X106278264Y-132333305D01*
X106288273Y-132340985D01*
X106397159Y-132424536D01*
X106543238Y-132485044D01*
X106700000Y-132505682D01*
X106708188Y-132504604D01*
X106848574Y-132486122D01*
X106856762Y-132485044D01*
X107002841Y-132424536D01*
X107111727Y-132340985D01*
X107121736Y-132333305D01*
X107128282Y-132328282D01*
X107224536Y-132202841D01*
X107285044Y-132056762D01*
X107287130Y-132040921D01*
X107304604Y-131908188D01*
X107305682Y-131900000D01*
X107285044Y-131743238D01*
X107224536Y-131597159D01*
X107202409Y-131568323D01*
X112494391Y-131568323D01*
X112495555Y-131577225D01*
X112495555Y-131577228D01*
X112499159Y-131604789D01*
X112512980Y-131710479D01*
X112524348Y-131736314D01*
X112560176Y-131817739D01*
X112570720Y-131841703D01*
X112576497Y-131848576D01*
X112576498Y-131848577D01*
X112657190Y-131944572D01*
X112662970Y-131951448D01*
X112782313Y-132030890D01*
X112919157Y-132073642D01*
X112928129Y-132073806D01*
X112928132Y-132073807D01*
X112993463Y-132075004D01*
X113062499Y-132076270D01*
X113071533Y-132073807D01*
X113192158Y-132040921D01*
X113192160Y-132040920D01*
X113200817Y-132038560D01*
X113322991Y-131963545D01*
X113344411Y-131939881D01*
X113413178Y-131863907D01*
X113419200Y-131857254D01*
X113481710Y-131728233D01*
X113487499Y-131693823D01*
X113794391Y-131693823D01*
X113795555Y-131702725D01*
X113795555Y-131702728D01*
X113799855Y-131735609D01*
X113812980Y-131835979D01*
X113816597Y-131844199D01*
X113865978Y-131956425D01*
X113870720Y-131967203D01*
X113876497Y-131974076D01*
X113876498Y-131974077D01*
X113950897Y-132062585D01*
X113962970Y-132076948D01*
X114082313Y-132156390D01*
X114219157Y-132199142D01*
X114228129Y-132199306D01*
X114228132Y-132199307D01*
X114293463Y-132200504D01*
X114362499Y-132201770D01*
X114371533Y-132199307D01*
X114492158Y-132166421D01*
X114492160Y-132166420D01*
X114500817Y-132164060D01*
X114622991Y-132089045D01*
X114645307Y-132064391D01*
X114713178Y-131989407D01*
X114719200Y-131982754D01*
X114781710Y-131853733D01*
X114805496Y-131712354D01*
X114805647Y-131700000D01*
X114800973Y-131667363D01*
X120994391Y-131667363D01*
X120995555Y-131676265D01*
X120995555Y-131676268D01*
X121000029Y-131710479D01*
X121012980Y-131809519D01*
X121070720Y-131940743D01*
X121076497Y-131947616D01*
X121076498Y-131947617D01*
X121154928Y-132040921D01*
X121162970Y-132050488D01*
X121202720Y-132076948D01*
X121227948Y-132093741D01*
X121282313Y-132129930D01*
X121419157Y-132172682D01*
X121428129Y-132172846D01*
X121428132Y-132172847D01*
X121493463Y-132174044D01*
X121562499Y-132175310D01*
X121571533Y-132172847D01*
X121692158Y-132139961D01*
X121692160Y-132139960D01*
X121700817Y-132137600D01*
X121822991Y-132062585D01*
X121919200Y-131956294D01*
X121973179Y-131844881D01*
X121977795Y-131835354D01*
X121977795Y-131835353D01*
X121981710Y-131827273D01*
X122004162Y-131693823D01*
X122494391Y-131693823D01*
X122495555Y-131702725D01*
X122495555Y-131702728D01*
X122499855Y-131735609D01*
X122512980Y-131835979D01*
X122516597Y-131844199D01*
X122565978Y-131956425D01*
X122570720Y-131967203D01*
X122576497Y-131974076D01*
X122576498Y-131974077D01*
X122650897Y-132062585D01*
X122662970Y-132076948D01*
X122782313Y-132156390D01*
X122919157Y-132199142D01*
X122928129Y-132199306D01*
X122928132Y-132199307D01*
X122993463Y-132200504D01*
X123062499Y-132201770D01*
X123071533Y-132199307D01*
X123192158Y-132166421D01*
X123192160Y-132166420D01*
X123200817Y-132164060D01*
X123322991Y-132089045D01*
X123345307Y-132064391D01*
X123413178Y-131989407D01*
X123419200Y-131982754D01*
X123481710Y-131853733D01*
X123505496Y-131712354D01*
X123505647Y-131700000D01*
X123489981Y-131590608D01*
X123486596Y-131566968D01*
X123486595Y-131566965D01*
X123485323Y-131558082D01*
X123473293Y-131531622D01*
X123429700Y-131435746D01*
X123425984Y-131427572D01*
X123406655Y-131405140D01*
X123338260Y-131325763D01*
X123338257Y-131325760D01*
X123332400Y-131318963D01*
X123212095Y-131240985D01*
X123074739Y-131199907D01*
X123065763Y-131199852D01*
X123065762Y-131199852D01*
X123005555Y-131199484D01*
X122931376Y-131199031D01*
X122793529Y-131238428D01*
X122672280Y-131314930D01*
X122577377Y-131422388D01*
X122516447Y-131552163D01*
X122512213Y-131579359D01*
X122498299Y-131668724D01*
X122494391Y-131693823D01*
X122004162Y-131693823D01*
X122005496Y-131685894D01*
X122005647Y-131673540D01*
X121994709Y-131597159D01*
X121986596Y-131540508D01*
X121986595Y-131540505D01*
X121985323Y-131531622D01*
X121925984Y-131401112D01*
X121869867Y-131335985D01*
X121838260Y-131299303D01*
X121838257Y-131299300D01*
X121832400Y-131292503D01*
X121712095Y-131214525D01*
X121574739Y-131173447D01*
X121565763Y-131173392D01*
X121565762Y-131173392D01*
X121505555Y-131173024D01*
X121431376Y-131172571D01*
X121293529Y-131211968D01*
X121172280Y-131288470D01*
X121166338Y-131295198D01*
X121166337Y-131295199D01*
X121146098Y-131318116D01*
X121077377Y-131395928D01*
X121016447Y-131525703D01*
X121008425Y-131577228D01*
X120996155Y-131656035D01*
X120994391Y-131667363D01*
X114800973Y-131667363D01*
X114789981Y-131590608D01*
X114786596Y-131566968D01*
X114786595Y-131566965D01*
X114785323Y-131558082D01*
X114773293Y-131531622D01*
X114729700Y-131435746D01*
X114725984Y-131427572D01*
X114706655Y-131405140D01*
X114638260Y-131325763D01*
X114638257Y-131325760D01*
X114632400Y-131318963D01*
X114512095Y-131240985D01*
X114374739Y-131199907D01*
X114365763Y-131199852D01*
X114365762Y-131199852D01*
X114305555Y-131199484D01*
X114231376Y-131199031D01*
X114093529Y-131238428D01*
X113972280Y-131314930D01*
X113877377Y-131422388D01*
X113816447Y-131552163D01*
X113812213Y-131579359D01*
X113798299Y-131668724D01*
X113794391Y-131693823D01*
X113487499Y-131693823D01*
X113505496Y-131586854D01*
X113505647Y-131574500D01*
X113490928Y-131471718D01*
X113486596Y-131441468D01*
X113486595Y-131441465D01*
X113485323Y-131432582D01*
X113476858Y-131413963D01*
X113457916Y-131372304D01*
X113425984Y-131302072D01*
X113369020Y-131235962D01*
X113338260Y-131200263D01*
X113338257Y-131200260D01*
X113332400Y-131193463D01*
X113212095Y-131115485D01*
X113074739Y-131074407D01*
X113065763Y-131074352D01*
X113065762Y-131074352D01*
X113005555Y-131073984D01*
X112931376Y-131073531D01*
X112793529Y-131112928D01*
X112672280Y-131189430D01*
X112666338Y-131196158D01*
X112666337Y-131196159D01*
X112663027Y-131199907D01*
X112577377Y-131296888D01*
X112516447Y-131426663D01*
X112515066Y-131435535D01*
X112498722Y-131540508D01*
X112494391Y-131568323D01*
X107202409Y-131568323D01*
X107128282Y-131471718D01*
X107002841Y-131375464D01*
X106856762Y-131314956D01*
X106700000Y-131294318D01*
X106543238Y-131314956D01*
X106397159Y-131375464D01*
X106271718Y-131471718D01*
X106175464Y-131597159D01*
X106114956Y-131743238D01*
X106094318Y-131900000D01*
X101884909Y-131900000D01*
X101900496Y-131807354D01*
X101900572Y-131801136D01*
X101900588Y-131799859D01*
X101900588Y-131799854D01*
X101900647Y-131795000D01*
X101887042Y-131700000D01*
X101881596Y-131661968D01*
X101881595Y-131661965D01*
X101880323Y-131653082D01*
X101820984Y-131522572D01*
X101745988Y-131435535D01*
X101733260Y-131420763D01*
X101733257Y-131420760D01*
X101727400Y-131413963D01*
X101607095Y-131335985D01*
X101469739Y-131294907D01*
X101460763Y-131294852D01*
X101460762Y-131294852D01*
X101400555Y-131294484D01*
X101326376Y-131294031D01*
X101188529Y-131333428D01*
X101067280Y-131409930D01*
X101061338Y-131416658D01*
X101061337Y-131416659D01*
X101044480Y-131435746D01*
X100972377Y-131517388D01*
X100911447Y-131647163D01*
X100906584Y-131678399D01*
X100895214Y-131751426D01*
X100889391Y-131788823D01*
X98200000Y-131788823D01*
X98200000Y-129100000D01*
X106094318Y-129100000D01*
X106114956Y-129256762D01*
X106175464Y-129402841D01*
X106271718Y-129528282D01*
X106397159Y-129624536D01*
X106543238Y-129685044D01*
X106700000Y-129705682D01*
X106708188Y-129704604D01*
X106848574Y-129686122D01*
X106856762Y-129685044D01*
X107002841Y-129624536D01*
X107128282Y-129528282D01*
X107224536Y-129402841D01*
X107269693Y-129293823D01*
X120794391Y-129293823D01*
X120795555Y-129302725D01*
X120795555Y-129302728D01*
X120799513Y-129332993D01*
X120812980Y-129435979D01*
X120816597Y-129444199D01*
X120855805Y-129533305D01*
X120870720Y-129567203D01*
X120876497Y-129574076D01*
X120876498Y-129574077D01*
X120957190Y-129670072D01*
X120962970Y-129676948D01*
X121082313Y-129756390D01*
X121219157Y-129799142D01*
X121228129Y-129799306D01*
X121228132Y-129799307D01*
X121293463Y-129800504D01*
X121362499Y-129801770D01*
X121371533Y-129799307D01*
X121492158Y-129766421D01*
X121492160Y-129766420D01*
X121500817Y-129764060D01*
X121622991Y-129689045D01*
X121719200Y-129582754D01*
X121765440Y-129487314D01*
X121777795Y-129461814D01*
X121777795Y-129461813D01*
X121781710Y-129453733D01*
X121804324Y-129319323D01*
X122494391Y-129319323D01*
X122495555Y-129328225D01*
X122495555Y-129328228D01*
X122496814Y-129337854D01*
X122512980Y-129461479D01*
X122570720Y-129592703D01*
X122576497Y-129599576D01*
X122576498Y-129599577D01*
X122655651Y-129693741D01*
X122662970Y-129702448D01*
X122670447Y-129707425D01*
X122755528Y-129764060D01*
X122782313Y-129781890D01*
X122919157Y-129824642D01*
X122928129Y-129824806D01*
X122928132Y-129824807D01*
X122993463Y-129826004D01*
X123062499Y-129827270D01*
X123071533Y-129824807D01*
X123192158Y-129791921D01*
X123192160Y-129791920D01*
X123200817Y-129789560D01*
X123322991Y-129714545D01*
X123419200Y-129608254D01*
X123481710Y-129479233D01*
X123505496Y-129337854D01*
X123505647Y-129325500D01*
X123495803Y-129256762D01*
X123486596Y-129192468D01*
X123486595Y-129192465D01*
X123485323Y-129183582D01*
X123425984Y-129053072D01*
X123338400Y-128951426D01*
X123338260Y-128951263D01*
X123338257Y-128951260D01*
X123332400Y-128944463D01*
X123212095Y-128866485D01*
X123074739Y-128825407D01*
X123065763Y-128825352D01*
X123065762Y-128825352D01*
X123005555Y-128824984D01*
X122931376Y-128824531D01*
X122793529Y-128863928D01*
X122672280Y-128940430D01*
X122577377Y-129047888D01*
X122516447Y-129177663D01*
X122515066Y-129186535D01*
X122496233Y-129307493D01*
X122494391Y-129319323D01*
X121804324Y-129319323D01*
X121805496Y-129312354D01*
X121805647Y-129300000D01*
X121797473Y-129242924D01*
X121786596Y-129166968D01*
X121786595Y-129166965D01*
X121785323Y-129158082D01*
X121725984Y-129027572D01*
X121707598Y-129006234D01*
X121638260Y-128925763D01*
X121638257Y-128925760D01*
X121632400Y-128918963D01*
X121512095Y-128840985D01*
X121374739Y-128799907D01*
X121365763Y-128799852D01*
X121365762Y-128799852D01*
X121305555Y-128799484D01*
X121231376Y-128799031D01*
X121093529Y-128838428D01*
X120972280Y-128914930D01*
X120966338Y-128921658D01*
X120966337Y-128921659D01*
X120940192Y-128951263D01*
X120877377Y-129022388D01*
X120816447Y-129152163D01*
X120794391Y-129293823D01*
X107269693Y-129293823D01*
X107285044Y-129256762D01*
X107305682Y-129100000D01*
X107285044Y-128943238D01*
X107224536Y-128797159D01*
X107128282Y-128671718D01*
X107002841Y-128575464D01*
X106856762Y-128514956D01*
X106700000Y-128494318D01*
X106543238Y-128514956D01*
X106397159Y-128575464D01*
X106271718Y-128671718D01*
X106175464Y-128797159D01*
X106114956Y-128943238D01*
X106094318Y-129100000D01*
X98200000Y-129100000D01*
X98200000Y-128393823D01*
X108394391Y-128393823D01*
X108395555Y-128402725D01*
X108395555Y-128402728D01*
X108402923Y-128459069D01*
X108412980Y-128535979D01*
X108470720Y-128667203D01*
X108476497Y-128674076D01*
X108476498Y-128674077D01*
X108554121Y-128766421D01*
X108562970Y-128776948D01*
X108570447Y-128781925D01*
X108666511Y-128845871D01*
X108682313Y-128856390D01*
X108819157Y-128899142D01*
X108828129Y-128899306D01*
X108828132Y-128899307D01*
X108893463Y-128900504D01*
X108962499Y-128901770D01*
X108971533Y-128899307D01*
X109092158Y-128866421D01*
X109092160Y-128866420D01*
X109100817Y-128864060D01*
X109222991Y-128789045D01*
X109257054Y-128751413D01*
X109313178Y-128689407D01*
X109319200Y-128682754D01*
X109365440Y-128587314D01*
X109377795Y-128561814D01*
X109377795Y-128561813D01*
X109381710Y-128553733D01*
X109404324Y-128419323D01*
X112794391Y-128419323D01*
X112795555Y-128428225D01*
X112795555Y-128428228D01*
X112799238Y-128456390D01*
X112812980Y-128561479D01*
X112822341Y-128582754D01*
X112865978Y-128681925D01*
X112870720Y-128692703D01*
X112876497Y-128699576D01*
X112876498Y-128699577D01*
X112953017Y-128790608D01*
X112962970Y-128802448D01*
X113017022Y-128838428D01*
X113066511Y-128871371D01*
X113082313Y-128881890D01*
X113219157Y-128924642D01*
X113228129Y-128924806D01*
X113228132Y-128924807D01*
X113293463Y-128926004D01*
X113362499Y-128927270D01*
X113371533Y-128924807D01*
X113492158Y-128891921D01*
X113492160Y-128891920D01*
X113500817Y-128889560D01*
X113622991Y-128814545D01*
X113634801Y-128801498D01*
X113713178Y-128714907D01*
X113719200Y-128708254D01*
X113781710Y-128579233D01*
X113805496Y-128437854D01*
X113805647Y-128425500D01*
X113794877Y-128350296D01*
X113786596Y-128292468D01*
X113786595Y-128292465D01*
X113785323Y-128283582D01*
X113781002Y-128274077D01*
X113760023Y-128227937D01*
X113725984Y-128153072D01*
X113693747Y-128115659D01*
X113638260Y-128051263D01*
X113638257Y-128051260D01*
X113632400Y-128044463D01*
X113554272Y-127993823D01*
X113994391Y-127993823D01*
X113995555Y-128002725D01*
X113995555Y-128002728D01*
X114001013Y-128044463D01*
X114012980Y-128135979D01*
X114016597Y-128144199D01*
X114055838Y-128233380D01*
X114070720Y-128267203D01*
X114076497Y-128274076D01*
X114076498Y-128274077D01*
X114142498Y-128352594D01*
X114162970Y-128376948D01*
X114204900Y-128404859D01*
X114243208Y-128430359D01*
X114282313Y-128456390D01*
X114290888Y-128459069D01*
X114306864Y-128464060D01*
X114419157Y-128499142D01*
X114428129Y-128499306D01*
X114428132Y-128499307D01*
X114493463Y-128500504D01*
X114562499Y-128501770D01*
X114571533Y-128499307D01*
X114692158Y-128466421D01*
X114692160Y-128466420D01*
X114700817Y-128464060D01*
X114822991Y-128389045D01*
X114909181Y-128293823D01*
X115794391Y-128293823D01*
X115795555Y-128302725D01*
X115795555Y-128302728D01*
X115797441Y-128317149D01*
X115812980Y-128435979D01*
X115870720Y-128567203D01*
X115876497Y-128574076D01*
X115876498Y-128574077D01*
X115877664Y-128575464D01*
X115962970Y-128676948D01*
X116082313Y-128756390D01*
X116219157Y-128799142D01*
X116228129Y-128799306D01*
X116228132Y-128799307D01*
X116293463Y-128800504D01*
X116362499Y-128801770D01*
X116371533Y-128799307D01*
X116492158Y-128766421D01*
X116492160Y-128766420D01*
X116500817Y-128764060D01*
X116622991Y-128689045D01*
X116632750Y-128678264D01*
X116713178Y-128589407D01*
X116719200Y-128582754D01*
X116761007Y-128496464D01*
X116777795Y-128461814D01*
X116777795Y-128461813D01*
X116781710Y-128453733D01*
X116805496Y-128312354D01*
X116805647Y-128300000D01*
X116785323Y-128158082D01*
X116775274Y-128135979D01*
X116763449Y-128109972D01*
X116725984Y-128027572D01*
X116690997Y-127986968D01*
X116638260Y-127925763D01*
X116638257Y-127925760D01*
X116632400Y-127918963D01*
X116512095Y-127840985D01*
X116374739Y-127799907D01*
X116365763Y-127799852D01*
X116365762Y-127799852D01*
X116305555Y-127799484D01*
X116231376Y-127799031D01*
X116093529Y-127838428D01*
X115972280Y-127914930D01*
X115966338Y-127921658D01*
X115966337Y-127921659D01*
X115951527Y-127938428D01*
X115877377Y-128022388D01*
X115816447Y-128152163D01*
X115814142Y-128166968D01*
X115798536Y-128267203D01*
X115794391Y-128293823D01*
X114909181Y-128293823D01*
X114919200Y-128282754D01*
X114981710Y-128153733D01*
X115005496Y-128012354D01*
X115005647Y-128000000D01*
X114997473Y-127942924D01*
X114986596Y-127866968D01*
X114986595Y-127866965D01*
X114985323Y-127858082D01*
X114979909Y-127846173D01*
X114959596Y-127801498D01*
X114925984Y-127727572D01*
X114897940Y-127695025D01*
X114838260Y-127625763D01*
X114838257Y-127625760D01*
X114832400Y-127618963D01*
X114712095Y-127540985D01*
X114574739Y-127499907D01*
X114565763Y-127499852D01*
X114565762Y-127499852D01*
X114505555Y-127499484D01*
X114431376Y-127499031D01*
X114293529Y-127538428D01*
X114172280Y-127614930D01*
X114077377Y-127722388D01*
X114016447Y-127852163D01*
X114014142Y-127866968D01*
X113996845Y-127978063D01*
X113994391Y-127993823D01*
X113554272Y-127993823D01*
X113512095Y-127966485D01*
X113374739Y-127925407D01*
X113365763Y-127925352D01*
X113365762Y-127925352D01*
X113305555Y-127924984D01*
X113231376Y-127924531D01*
X113093529Y-127963928D01*
X112972280Y-128040430D01*
X112877377Y-128147888D01*
X112816447Y-128277663D01*
X112811803Y-128307493D01*
X112796233Y-128407493D01*
X112794391Y-128419323D01*
X109404324Y-128419323D01*
X109405496Y-128412354D01*
X109405647Y-128400000D01*
X109392809Y-128310353D01*
X109386596Y-128266968D01*
X109386595Y-128266965D01*
X109385323Y-128258082D01*
X109325984Y-128127572D01*
X109260232Y-128051263D01*
X109238260Y-128025763D01*
X109238257Y-128025760D01*
X109232400Y-128018963D01*
X109112095Y-127940985D01*
X108974739Y-127899907D01*
X108965763Y-127899852D01*
X108965762Y-127899852D01*
X108905555Y-127899484D01*
X108831376Y-127899031D01*
X108693529Y-127938428D01*
X108572280Y-128014930D01*
X108566338Y-128021658D01*
X108566337Y-128021659D01*
X108540192Y-128051263D01*
X108477377Y-128122388D01*
X108416447Y-128252163D01*
X108410648Y-128289407D01*
X108396171Y-128382391D01*
X108394391Y-128393823D01*
X98200000Y-128393823D01*
X98200000Y-127844812D01*
X107093336Y-127844812D01*
X107094500Y-127853714D01*
X107094500Y-127853717D01*
X107100877Y-127902480D01*
X107111925Y-127986968D01*
X107169665Y-128118192D01*
X107175442Y-128125065D01*
X107175443Y-128125066D01*
X107206333Y-128161814D01*
X107261915Y-128227937D01*
X107269392Y-128232914D01*
X107345509Y-128283582D01*
X107381258Y-128307379D01*
X107518102Y-128350131D01*
X107527074Y-128350295D01*
X107527077Y-128350296D01*
X107592408Y-128351493D01*
X107661444Y-128352759D01*
X107670478Y-128350296D01*
X107791103Y-128317410D01*
X107791105Y-128317409D01*
X107799762Y-128315049D01*
X107921936Y-128240034D01*
X108018145Y-128133743D01*
X108058106Y-128051263D01*
X108076740Y-128012803D01*
X108076740Y-128012802D01*
X108080655Y-128004722D01*
X108104441Y-127863343D01*
X108104592Y-127850989D01*
X108086918Y-127727572D01*
X108085541Y-127717957D01*
X108085540Y-127717954D01*
X108084268Y-127709071D01*
X108024929Y-127578561D01*
X107996761Y-127545871D01*
X107937205Y-127476752D01*
X107937202Y-127476749D01*
X107931345Y-127469952D01*
X107811040Y-127391974D01*
X107673684Y-127350896D01*
X107664708Y-127350841D01*
X107664707Y-127350841D01*
X107604500Y-127350473D01*
X107530321Y-127350020D01*
X107392474Y-127389417D01*
X107271225Y-127465919D01*
X107176322Y-127573377D01*
X107115392Y-127703152D01*
X107114011Y-127712024D01*
X107100328Y-127799907D01*
X107093336Y-127844812D01*
X98200000Y-127844812D01*
X98200000Y-125593823D01*
X101194391Y-125593823D01*
X101195555Y-125602725D01*
X101195555Y-125602728D01*
X101202621Y-125656762D01*
X101212980Y-125735979D01*
X101270720Y-125867203D01*
X101276497Y-125874076D01*
X101276498Y-125874077D01*
X101322062Y-125928282D01*
X101362970Y-125976948D01*
X101482313Y-126056390D01*
X101619157Y-126099142D01*
X101628129Y-126099306D01*
X101628132Y-126099307D01*
X101693463Y-126100504D01*
X101762499Y-126101770D01*
X101771533Y-126099307D01*
X101892158Y-126066421D01*
X101892160Y-126066420D01*
X101900817Y-126064060D01*
X102022991Y-125989045D01*
X102119200Y-125882754D01*
X102181710Y-125753733D01*
X102205496Y-125612354D01*
X102205647Y-125600000D01*
X102204762Y-125593823D01*
X106194391Y-125593823D01*
X106195555Y-125602725D01*
X106195555Y-125602728D01*
X106202621Y-125656762D01*
X106212980Y-125735979D01*
X106270720Y-125867203D01*
X106276497Y-125874076D01*
X106276498Y-125874077D01*
X106322062Y-125928282D01*
X106362970Y-125976948D01*
X106482313Y-126056390D01*
X106619157Y-126099142D01*
X106628129Y-126099306D01*
X106628132Y-126099307D01*
X106693463Y-126100504D01*
X106762499Y-126101770D01*
X106771533Y-126099307D01*
X106892158Y-126066421D01*
X106892160Y-126066420D01*
X106900817Y-126064060D01*
X107022991Y-125989045D01*
X107119200Y-125882754D01*
X107181710Y-125753733D01*
X107205496Y-125612354D01*
X107205647Y-125600000D01*
X107204762Y-125593823D01*
X108394391Y-125593823D01*
X108395555Y-125602725D01*
X108395555Y-125602728D01*
X108402621Y-125656762D01*
X108412980Y-125735979D01*
X108470720Y-125867203D01*
X108476497Y-125874076D01*
X108476498Y-125874077D01*
X108522062Y-125928282D01*
X108562970Y-125976948D01*
X108682313Y-126056390D01*
X108819157Y-126099142D01*
X108828129Y-126099306D01*
X108828132Y-126099307D01*
X108893463Y-126100504D01*
X108962499Y-126101770D01*
X108971533Y-126099307D01*
X109092158Y-126066421D01*
X109092160Y-126066420D01*
X109100817Y-126064060D01*
X109215209Y-125993823D01*
X125394391Y-125993823D01*
X125395555Y-126002725D01*
X125395555Y-126002728D01*
X125402923Y-126059069D01*
X125412980Y-126135979D01*
X125470720Y-126267203D01*
X125476497Y-126274076D01*
X125476498Y-126274077D01*
X125483792Y-126282754D01*
X125562970Y-126376948D01*
X125682313Y-126456390D01*
X125819157Y-126499142D01*
X125828129Y-126499306D01*
X125828132Y-126499307D01*
X125893463Y-126500504D01*
X125962499Y-126501770D01*
X125971533Y-126499307D01*
X126092158Y-126466421D01*
X126092160Y-126466420D01*
X126100817Y-126464060D01*
X126222991Y-126389045D01*
X126319200Y-126282754D01*
X126381710Y-126153733D01*
X126405496Y-126012354D01*
X126405647Y-126000000D01*
X126389809Y-125889407D01*
X126386596Y-125866968D01*
X126386595Y-125866965D01*
X126385323Y-125858082D01*
X126325984Y-125727572D01*
X126307598Y-125706234D01*
X126238260Y-125625763D01*
X126238257Y-125625760D01*
X126232400Y-125618963D01*
X126112095Y-125540985D01*
X125975050Y-125500000D01*
X134194318Y-125500000D01*
X134214956Y-125656762D01*
X134275464Y-125802841D01*
X134371718Y-125928282D01*
X134497159Y-126024536D01*
X134643238Y-126085044D01*
X134800000Y-126105682D01*
X134808188Y-126104604D01*
X134948574Y-126086122D01*
X134956762Y-126085044D01*
X135102841Y-126024536D01*
X135228282Y-125928282D01*
X135324536Y-125802841D01*
X135385044Y-125656762D01*
X135405682Y-125500000D01*
X135385044Y-125343238D01*
X135324536Y-125197159D01*
X135228282Y-125071718D01*
X135102841Y-124975464D01*
X134956762Y-124914956D01*
X134800000Y-124894318D01*
X134643238Y-124914956D01*
X134497159Y-124975464D01*
X134371718Y-125071718D01*
X134275464Y-125197159D01*
X134214956Y-125343238D01*
X134194318Y-125500000D01*
X125975050Y-125500000D01*
X125974739Y-125499907D01*
X125965763Y-125499852D01*
X125965762Y-125499852D01*
X125905555Y-125499484D01*
X125831376Y-125499031D01*
X125693529Y-125538428D01*
X125572280Y-125614930D01*
X125477377Y-125722388D01*
X125416447Y-125852163D01*
X125413035Y-125874077D01*
X125396171Y-125982391D01*
X125394391Y-125993823D01*
X109215209Y-125993823D01*
X109222991Y-125989045D01*
X109319200Y-125882754D01*
X109381710Y-125753733D01*
X109405496Y-125612354D01*
X109405647Y-125600000D01*
X109397473Y-125542924D01*
X109386596Y-125466968D01*
X109386595Y-125466965D01*
X109385323Y-125458082D01*
X109325984Y-125327572D01*
X109307598Y-125306234D01*
X109238260Y-125225763D01*
X109238257Y-125225760D01*
X109232400Y-125218963D01*
X109112095Y-125140985D01*
X108974739Y-125099907D01*
X108965763Y-125099852D01*
X108965762Y-125099852D01*
X108905555Y-125099484D01*
X108831376Y-125099031D01*
X108693529Y-125138428D01*
X108572280Y-125214930D01*
X108477377Y-125322388D01*
X108416447Y-125452163D01*
X108394391Y-125593823D01*
X107204762Y-125593823D01*
X107197473Y-125542924D01*
X107186596Y-125466968D01*
X107186595Y-125466965D01*
X107185323Y-125458082D01*
X107125984Y-125327572D01*
X107107598Y-125306234D01*
X107038260Y-125225763D01*
X107038257Y-125225760D01*
X107032400Y-125218963D01*
X106912095Y-125140985D01*
X106774739Y-125099907D01*
X106765763Y-125099852D01*
X106765762Y-125099852D01*
X106705555Y-125099484D01*
X106631376Y-125099031D01*
X106493529Y-125138428D01*
X106372280Y-125214930D01*
X106277377Y-125322388D01*
X106216447Y-125452163D01*
X106194391Y-125593823D01*
X102204762Y-125593823D01*
X102197473Y-125542924D01*
X102186596Y-125466968D01*
X102186595Y-125466965D01*
X102185323Y-125458082D01*
X102125984Y-125327572D01*
X102107598Y-125306234D01*
X102038260Y-125225763D01*
X102038257Y-125225760D01*
X102032400Y-125218963D01*
X101912095Y-125140985D01*
X101774739Y-125099907D01*
X101765763Y-125099852D01*
X101765762Y-125099852D01*
X101705555Y-125099484D01*
X101631376Y-125099031D01*
X101493529Y-125138428D01*
X101372280Y-125214930D01*
X101277377Y-125322388D01*
X101216447Y-125452163D01*
X101194391Y-125593823D01*
X98200000Y-125593823D01*
X98200000Y-124193823D01*
X104594391Y-124193823D01*
X104595555Y-124202725D01*
X104595555Y-124202728D01*
X104596814Y-124212354D01*
X104612980Y-124335979D01*
X104620792Y-124353733D01*
X104644557Y-124407742D01*
X104670720Y-124467203D01*
X104676497Y-124474076D01*
X104676498Y-124474077D01*
X104683792Y-124482754D01*
X104762970Y-124576948D01*
X104882313Y-124656390D01*
X105019157Y-124699142D01*
X105028129Y-124699306D01*
X105028132Y-124699307D01*
X105093463Y-124700504D01*
X105162499Y-124701770D01*
X105171533Y-124699307D01*
X105292158Y-124666421D01*
X105292160Y-124666420D01*
X105300817Y-124664060D01*
X105422991Y-124589045D01*
X105519200Y-124482754D01*
X105581710Y-124353733D01*
X105605496Y-124212354D01*
X105605647Y-124200000D01*
X105594829Y-124124461D01*
X105586596Y-124066968D01*
X105586595Y-124066965D01*
X105585323Y-124058082D01*
X105525984Y-123927572D01*
X105441745Y-123829808D01*
X105438260Y-123825763D01*
X105438257Y-123825760D01*
X105434690Y-123821620D01*
X112847291Y-123821620D01*
X112867929Y-123978382D01*
X112928437Y-124124461D01*
X113024691Y-124249902D01*
X113150132Y-124346156D01*
X113296211Y-124406664D01*
X113452973Y-124427302D01*
X113461161Y-124426224D01*
X113601547Y-124407742D01*
X113609735Y-124406664D01*
X113755814Y-124346156D01*
X113881255Y-124249902D01*
X113977509Y-124124461D01*
X114038017Y-123978382D01*
X114058655Y-123821620D01*
X114038017Y-123664858D01*
X113977509Y-123518779D01*
X113881255Y-123393338D01*
X113755814Y-123297084D01*
X113609735Y-123236576D01*
X113452973Y-123215938D01*
X113296211Y-123236576D01*
X113150132Y-123297084D01*
X113024691Y-123393338D01*
X112928437Y-123518779D01*
X112867929Y-123664858D01*
X112847291Y-123821620D01*
X105434690Y-123821620D01*
X105432400Y-123818963D01*
X105312095Y-123740985D01*
X105174739Y-123699907D01*
X105165763Y-123699852D01*
X105165762Y-123699852D01*
X105105555Y-123699484D01*
X105031376Y-123699031D01*
X104893529Y-123738428D01*
X104772280Y-123814930D01*
X104677377Y-123922388D01*
X104616447Y-124052163D01*
X104594391Y-124193823D01*
X98200000Y-124193823D01*
X98200000Y-122993823D01*
X107594391Y-122993823D01*
X107612980Y-123135979D01*
X107670720Y-123267203D01*
X107676497Y-123274076D01*
X107676498Y-123274077D01*
X107700063Y-123302111D01*
X107762970Y-123376948D01*
X107882313Y-123456390D01*
X108019157Y-123499142D01*
X108028129Y-123499306D01*
X108028132Y-123499307D01*
X108093463Y-123500504D01*
X108162499Y-123501770D01*
X108171533Y-123499307D01*
X108292158Y-123466421D01*
X108292160Y-123466420D01*
X108300817Y-123464060D01*
X108422991Y-123389045D01*
X108519200Y-123282754D01*
X108581710Y-123153733D01*
X108582677Y-123147987D01*
X108621555Y-123090485D01*
X108686806Y-123062506D01*
X108756825Y-123074246D01*
X108771640Y-123082719D01*
X108882313Y-123156390D01*
X109019157Y-123199142D01*
X109028129Y-123199306D01*
X109028132Y-123199307D01*
X109093463Y-123200504D01*
X109162499Y-123201770D01*
X109171533Y-123199307D01*
X109292158Y-123166421D01*
X109292160Y-123166420D01*
X109300817Y-123164060D01*
X109422991Y-123089045D01*
X109519200Y-122982754D01*
X109581710Y-122853733D01*
X109605496Y-122712354D01*
X109605647Y-122700000D01*
X109585323Y-122558082D01*
X109525984Y-122427572D01*
X109492787Y-122389045D01*
X109438260Y-122325763D01*
X109438257Y-122325760D01*
X109432400Y-122318963D01*
X109312095Y-122240985D01*
X109174739Y-122199907D01*
X109165763Y-122199852D01*
X109165762Y-122199852D01*
X109105555Y-122199484D01*
X109031376Y-122199031D01*
X108893529Y-122238428D01*
X108772280Y-122314930D01*
X108677377Y-122422388D01*
X108616447Y-122552163D01*
X108616441Y-122552199D01*
X108579872Y-122607737D01*
X108514968Y-122636512D01*
X108444810Y-122625629D01*
X108429889Y-122617335D01*
X108319633Y-122545871D01*
X108319634Y-122545871D01*
X108312095Y-122540985D01*
X108174739Y-122499907D01*
X108165763Y-122499852D01*
X108165762Y-122499852D01*
X108105555Y-122499484D01*
X108031376Y-122499031D01*
X107893529Y-122538428D01*
X107772280Y-122614930D01*
X107766338Y-122621658D01*
X107766337Y-122621659D01*
X107724828Y-122668659D01*
X107677377Y-122722388D01*
X107616447Y-122852163D01*
X107607210Y-122911490D01*
X107598536Y-122967203D01*
X107594391Y-122993823D01*
X98200000Y-122993823D01*
X98200000Y-121593823D01*
X100394391Y-121593823D01*
X100395555Y-121602725D01*
X100395555Y-121602728D01*
X100398619Y-121626158D01*
X100412980Y-121735979D01*
X100470720Y-121867203D01*
X100476497Y-121874076D01*
X100476498Y-121874077D01*
X100483792Y-121882754D01*
X100562970Y-121976948D01*
X100682313Y-122056390D01*
X100819157Y-122099142D01*
X100828129Y-122099306D01*
X100828132Y-122099307D01*
X100893463Y-122100504D01*
X100962499Y-122101770D01*
X100971533Y-122099307D01*
X101092158Y-122066421D01*
X101092160Y-122066420D01*
X101100817Y-122064060D01*
X101215209Y-121993823D01*
X125494391Y-121993823D01*
X125495555Y-122002725D01*
X125495555Y-122002728D01*
X125502923Y-122059069D01*
X125512980Y-122135979D01*
X125570720Y-122267203D01*
X125576497Y-122274076D01*
X125576498Y-122274077D01*
X125657190Y-122370072D01*
X125662970Y-122376948D01*
X125782313Y-122456390D01*
X125919157Y-122499142D01*
X125928129Y-122499306D01*
X125928132Y-122499307D01*
X125993463Y-122500504D01*
X126062499Y-122501770D01*
X126071533Y-122499307D01*
X126192158Y-122466421D01*
X126192160Y-122466420D01*
X126200817Y-122464060D01*
X126322991Y-122389045D01*
X126419200Y-122282754D01*
X126481710Y-122153733D01*
X126505496Y-122012354D01*
X126505647Y-122000000D01*
X126489809Y-121889407D01*
X126486596Y-121866968D01*
X126486595Y-121866965D01*
X126485323Y-121858082D01*
X126425984Y-121727572D01*
X126392787Y-121689045D01*
X126338260Y-121625763D01*
X126338257Y-121625760D01*
X126332400Y-121618963D01*
X126212095Y-121540985D01*
X126074739Y-121499907D01*
X126065763Y-121499852D01*
X126065762Y-121499852D01*
X126005555Y-121499484D01*
X125931376Y-121499031D01*
X125793529Y-121538428D01*
X125672280Y-121614930D01*
X125577377Y-121722388D01*
X125516447Y-121852163D01*
X125513035Y-121874077D01*
X125496171Y-121982391D01*
X125494391Y-121993823D01*
X101215209Y-121993823D01*
X101222991Y-121989045D01*
X101319200Y-121882754D01*
X101381710Y-121753733D01*
X101405496Y-121612354D01*
X101405647Y-121600000D01*
X101397473Y-121542924D01*
X101386596Y-121466968D01*
X101386595Y-121466965D01*
X101385323Y-121458082D01*
X101375274Y-121435979D01*
X101329700Y-121335746D01*
X101325984Y-121327572D01*
X101296904Y-121293823D01*
X111894391Y-121293823D01*
X111895555Y-121302725D01*
X111895555Y-121302728D01*
X111898126Y-121322388D01*
X111912980Y-121435979D01*
X111916597Y-121444199D01*
X111949266Y-121518444D01*
X111970720Y-121567203D01*
X111976497Y-121574076D01*
X111976498Y-121574077D01*
X112020277Y-121626158D01*
X112062970Y-121676948D01*
X112112905Y-121710188D01*
X112162461Y-121743175D01*
X112182313Y-121756390D01*
X112190888Y-121759069D01*
X112206864Y-121764060D01*
X112319157Y-121799142D01*
X112328129Y-121799306D01*
X112328132Y-121799307D01*
X112393463Y-121800504D01*
X112462499Y-121801770D01*
X112471533Y-121799307D01*
X112592158Y-121766421D01*
X112592160Y-121766420D01*
X112600817Y-121764060D01*
X112722991Y-121689045D01*
X112819200Y-121582754D01*
X112881710Y-121453733D01*
X112905496Y-121312354D01*
X112905647Y-121300000D01*
X112896709Y-121237590D01*
X114350624Y-121237590D01*
X114351788Y-121246492D01*
X114351788Y-121246495D01*
X114353047Y-121256121D01*
X114369213Y-121379746D01*
X114426953Y-121510970D01*
X114432730Y-121517843D01*
X114432731Y-121517844D01*
X114489139Y-121584950D01*
X114519203Y-121620715D01*
X114638546Y-121700157D01*
X114775390Y-121742909D01*
X114784362Y-121743073D01*
X114784365Y-121743074D01*
X114849696Y-121744271D01*
X114918732Y-121745537D01*
X114927766Y-121743074D01*
X115048391Y-121710188D01*
X115048393Y-121710187D01*
X115057050Y-121707827D01*
X115179224Y-121632812D01*
X115185605Y-121625763D01*
X115264670Y-121538412D01*
X115275433Y-121526521D01*
X115337943Y-121397500D01*
X115361729Y-121256121D01*
X115361880Y-121243767D01*
X115349609Y-121158082D01*
X115342829Y-121110735D01*
X115342828Y-121110732D01*
X115341556Y-121101849D01*
X115282217Y-120971339D01*
X115233612Y-120914930D01*
X115194493Y-120869530D01*
X115194490Y-120869527D01*
X115188633Y-120862730D01*
X115068328Y-120784752D01*
X114930972Y-120743674D01*
X114921996Y-120743619D01*
X114921995Y-120743619D01*
X114861788Y-120743251D01*
X114787609Y-120742798D01*
X114649762Y-120782195D01*
X114528513Y-120858697D01*
X114433610Y-120966155D01*
X114372680Y-121095930D01*
X114350624Y-121237590D01*
X112896709Y-121237590D01*
X112893464Y-121214930D01*
X112886596Y-121166968D01*
X112886595Y-121166965D01*
X112885323Y-121158082D01*
X112825984Y-121027572D01*
X112807598Y-121006234D01*
X112738260Y-120925763D01*
X112738257Y-120925760D01*
X112732400Y-120918963D01*
X112612095Y-120840985D01*
X112474739Y-120799907D01*
X112465763Y-120799852D01*
X112465762Y-120799852D01*
X112405555Y-120799484D01*
X112331376Y-120799031D01*
X112193529Y-120838428D01*
X112072280Y-120914930D01*
X111977377Y-121022388D01*
X111916447Y-121152163D01*
X111915066Y-121161035D01*
X111899515Y-121260916D01*
X111894391Y-121293823D01*
X101296904Y-121293823D01*
X101238260Y-121225763D01*
X101238257Y-121225760D01*
X101232400Y-121218963D01*
X101112095Y-121140985D01*
X100974739Y-121099907D01*
X100965763Y-121099852D01*
X100965762Y-121099852D01*
X100905555Y-121099484D01*
X100831376Y-121099031D01*
X100693529Y-121138428D01*
X100572280Y-121214930D01*
X100566338Y-121221658D01*
X100566337Y-121221659D01*
X100546812Y-121243767D01*
X100477377Y-121322388D01*
X100416447Y-121452163D01*
X100414142Y-121466968D01*
X100398536Y-121567203D01*
X100394391Y-121593823D01*
X98200000Y-121593823D01*
X98200000Y-119493823D01*
X116494391Y-119493823D01*
X116495555Y-119502725D01*
X116495555Y-119502728D01*
X116496814Y-119512354D01*
X116512980Y-119635979D01*
X116570720Y-119767203D01*
X116576497Y-119774076D01*
X116576498Y-119774077D01*
X116636653Y-119845640D01*
X116662970Y-119876948D01*
X116782313Y-119956390D01*
X116919157Y-119999142D01*
X116928129Y-119999306D01*
X116928132Y-119999307D01*
X116993463Y-120000504D01*
X117062499Y-120001770D01*
X117071533Y-119999307D01*
X117192158Y-119966421D01*
X117192160Y-119966420D01*
X117200817Y-119964060D01*
X117322991Y-119889045D01*
X117419200Y-119782754D01*
X117481710Y-119653733D01*
X117499153Y-119550056D01*
X119019891Y-119550056D01*
X119021055Y-119558958D01*
X119021055Y-119558961D01*
X119022314Y-119568587D01*
X119038480Y-119692212D01*
X119042097Y-119700432D01*
X119074766Y-119774677D01*
X119096220Y-119823436D01*
X119101997Y-119830309D01*
X119101998Y-119830310D01*
X119141201Y-119876948D01*
X119188470Y-119933181D01*
X119238405Y-119966421D01*
X119287961Y-119999408D01*
X119307813Y-120012623D01*
X119444657Y-120055375D01*
X119453629Y-120055539D01*
X119453632Y-120055540D01*
X119518963Y-120056737D01*
X119587999Y-120058003D01*
X119597033Y-120055540D01*
X119717658Y-120022654D01*
X119717660Y-120022653D01*
X119726317Y-120020293D01*
X119848491Y-119945278D01*
X119944700Y-119838987D01*
X120007210Y-119709966D01*
X120030996Y-119568587D01*
X120031147Y-119556233D01*
X120010823Y-119414315D01*
X119951484Y-119283805D01*
X119933098Y-119262467D01*
X119863760Y-119181996D01*
X119863757Y-119181993D01*
X119857900Y-119175196D01*
X119737595Y-119097218D01*
X119600239Y-119056140D01*
X119591263Y-119056085D01*
X119591262Y-119056085D01*
X119531055Y-119055717D01*
X119456876Y-119055264D01*
X119319029Y-119094661D01*
X119197780Y-119171163D01*
X119191838Y-119177891D01*
X119191837Y-119177892D01*
X119176236Y-119195557D01*
X119102877Y-119278621D01*
X119041947Y-119408396D01*
X119040566Y-119417268D01*
X119025015Y-119517149D01*
X119019891Y-119550056D01*
X117499153Y-119550056D01*
X117505496Y-119512354D01*
X117505647Y-119500000D01*
X117493376Y-119414315D01*
X117486596Y-119366968D01*
X117486595Y-119366965D01*
X117485323Y-119358082D01*
X117425984Y-119227572D01*
X117401397Y-119199037D01*
X117338260Y-119125763D01*
X117338257Y-119125760D01*
X117332400Y-119118963D01*
X117212095Y-119040985D01*
X117074739Y-118999907D01*
X117065763Y-118999852D01*
X117065762Y-118999852D01*
X117005555Y-118999484D01*
X116931376Y-118999031D01*
X116793529Y-119038428D01*
X116672280Y-119114930D01*
X116666338Y-119121658D01*
X116666337Y-119121659D01*
X116632464Y-119160013D01*
X116577377Y-119222388D01*
X116516447Y-119352163D01*
X116494391Y-119493823D01*
X98200000Y-119493823D01*
X98200000Y-118693823D01*
X120368891Y-118693823D01*
X120370055Y-118702725D01*
X120370055Y-118702728D01*
X120376520Y-118752163D01*
X120387480Y-118835979D01*
X120413531Y-118895184D01*
X120433862Y-118941389D01*
X120445220Y-118967203D01*
X120450997Y-118974076D01*
X120450998Y-118974077D01*
X120531690Y-119070072D01*
X120537470Y-119076948D01*
X120656813Y-119156390D01*
X120793657Y-119199142D01*
X120802629Y-119199306D01*
X120802632Y-119199307D01*
X120867963Y-119200504D01*
X120936999Y-119201770D01*
X120946033Y-119199307D01*
X121066658Y-119166421D01*
X121066660Y-119166420D01*
X121075317Y-119164060D01*
X121183713Y-119097505D01*
X121252230Y-119078907D01*
X121319925Y-119100304D01*
X121364970Y-119154136D01*
X121370720Y-119167203D01*
X121376497Y-119174076D01*
X121376498Y-119174077D01*
X121411451Y-119215659D01*
X121462970Y-119276948D01*
X121582313Y-119356390D01*
X121719157Y-119399142D01*
X121728129Y-119399306D01*
X121728132Y-119399307D01*
X121793463Y-119400504D01*
X121862499Y-119401770D01*
X121871533Y-119399307D01*
X121992158Y-119366421D01*
X121992160Y-119366420D01*
X122000817Y-119364060D01*
X122122991Y-119289045D01*
X122129014Y-119282391D01*
X122129018Y-119282388D01*
X122207613Y-119195557D01*
X122268156Y-119158476D01*
X122339136Y-119160013D01*
X122397479Y-119199037D01*
X122411451Y-119215659D01*
X122462970Y-119276948D01*
X122582313Y-119356390D01*
X122719157Y-119399142D01*
X122728129Y-119399306D01*
X122728132Y-119399307D01*
X122793463Y-119400504D01*
X122862499Y-119401770D01*
X122871533Y-119399307D01*
X122992158Y-119366421D01*
X122992160Y-119366420D01*
X123000817Y-119364060D01*
X123122991Y-119289045D01*
X123219200Y-119182754D01*
X123269513Y-119078907D01*
X123277795Y-119061814D01*
X123277795Y-119061813D01*
X123281710Y-119053733D01*
X123305496Y-118912354D01*
X123305647Y-118900000D01*
X123285323Y-118758082D01*
X123225984Y-118627572D01*
X123207598Y-118606234D01*
X123138260Y-118525763D01*
X123138257Y-118525760D01*
X123132400Y-118518963D01*
X123012095Y-118440985D01*
X122874739Y-118399907D01*
X122865763Y-118399852D01*
X122865762Y-118399852D01*
X122805555Y-118399484D01*
X122731376Y-118399031D01*
X122593529Y-118438428D01*
X122472280Y-118514930D01*
X122466338Y-118521658D01*
X122466337Y-118521659D01*
X122431562Y-118561035D01*
X122395123Y-118602295D01*
X122394099Y-118603454D01*
X122334013Y-118641273D01*
X122263020Y-118640603D01*
X122204204Y-118602295D01*
X122138260Y-118525763D01*
X122138257Y-118525760D01*
X122132400Y-118518963D01*
X122012095Y-118440985D01*
X121874739Y-118399907D01*
X121865763Y-118399852D01*
X121865762Y-118399852D01*
X121805555Y-118399484D01*
X121731376Y-118399031D01*
X121593529Y-118438428D01*
X121585942Y-118443215D01*
X121585940Y-118443216D01*
X121581732Y-118445871D01*
X121513306Y-118489045D01*
X121491800Y-118502614D01*
X121423515Y-118522048D01*
X121355564Y-118501479D01*
X121309864Y-118448202D01*
X121304202Y-118435748D01*
X121304200Y-118435745D01*
X121300484Y-118427572D01*
X121254390Y-118374077D01*
X121212760Y-118325763D01*
X121212757Y-118325760D01*
X121206900Y-118318963D01*
X121086595Y-118240985D01*
X120949239Y-118199907D01*
X120940263Y-118199852D01*
X120940262Y-118199852D01*
X120880055Y-118199484D01*
X120805876Y-118199031D01*
X120668029Y-118238428D01*
X120546780Y-118314930D01*
X120451877Y-118422388D01*
X120390947Y-118552163D01*
X120368891Y-118693823D01*
X98200000Y-118693823D01*
X98200000Y-117550500D01*
X103594318Y-117550500D01*
X103614956Y-117707262D01*
X103675464Y-117853341D01*
X103771718Y-117978782D01*
X103897159Y-118075036D01*
X104043238Y-118135544D01*
X104200000Y-118156182D01*
X104208188Y-118155104D01*
X104348574Y-118136622D01*
X104356762Y-118135544D01*
X104502841Y-118075036D01*
X104628282Y-117978782D01*
X104724536Y-117853341D01*
X104785044Y-117707262D01*
X104799165Y-117600000D01*
X105794318Y-117600000D01*
X105814956Y-117756762D01*
X105875464Y-117902841D01*
X105971718Y-118028282D01*
X106097159Y-118124536D01*
X106243238Y-118185044D01*
X106400000Y-118205682D01*
X106408188Y-118204604D01*
X106548574Y-118186122D01*
X106556762Y-118185044D01*
X106702841Y-118124536D01*
X106742867Y-118093823D01*
X116494391Y-118093823D01*
X116495555Y-118102725D01*
X116495555Y-118102728D01*
X116502404Y-118155104D01*
X116512980Y-118235979D01*
X116570720Y-118367203D01*
X116576497Y-118374076D01*
X116576498Y-118374077D01*
X116657190Y-118470072D01*
X116662970Y-118476948D01*
X116782313Y-118556390D01*
X116919157Y-118599142D01*
X116928129Y-118599306D01*
X116928132Y-118599307D01*
X116993463Y-118600504D01*
X117062499Y-118601770D01*
X117071533Y-118599307D01*
X117192158Y-118566421D01*
X117192160Y-118566420D01*
X117200817Y-118564060D01*
X117322991Y-118489045D01*
X117419200Y-118382754D01*
X117481710Y-118253733D01*
X117505496Y-118112354D01*
X117505647Y-118100000D01*
X117504762Y-118093823D01*
X119219891Y-118093823D01*
X119221055Y-118102725D01*
X119221055Y-118102728D01*
X119227904Y-118155104D01*
X119238480Y-118235979D01*
X119296220Y-118367203D01*
X119301997Y-118374076D01*
X119301998Y-118374077D01*
X119382690Y-118470072D01*
X119388470Y-118476948D01*
X119507813Y-118556390D01*
X119644657Y-118599142D01*
X119653629Y-118599306D01*
X119653632Y-118599307D01*
X119718963Y-118600504D01*
X119787999Y-118601770D01*
X119797033Y-118599307D01*
X119917658Y-118566421D01*
X119917660Y-118566420D01*
X119926317Y-118564060D01*
X120048491Y-118489045D01*
X120144700Y-118382754D01*
X120207210Y-118253733D01*
X120230996Y-118112354D01*
X120231147Y-118100000D01*
X120214507Y-117983805D01*
X120212096Y-117966968D01*
X120212095Y-117966965D01*
X120210823Y-117958082D01*
X120151484Y-117827572D01*
X120133098Y-117806234D01*
X120063760Y-117725763D01*
X120063757Y-117725760D01*
X120057900Y-117718963D01*
X119937595Y-117640985D01*
X119800239Y-117599907D01*
X119791263Y-117599852D01*
X119791262Y-117599852D01*
X119731055Y-117599484D01*
X119656876Y-117599031D01*
X119519029Y-117638428D01*
X119397780Y-117714930D01*
X119302877Y-117822388D01*
X119241947Y-117952163D01*
X119232710Y-118011490D01*
X119223599Y-118070009D01*
X119219891Y-118093823D01*
X117504762Y-118093823D01*
X117489007Y-117983805D01*
X117486596Y-117966968D01*
X117486595Y-117966965D01*
X117485323Y-117958082D01*
X117425984Y-117827572D01*
X117407598Y-117806234D01*
X117338260Y-117725763D01*
X117338257Y-117725760D01*
X117332400Y-117718963D01*
X117212095Y-117640985D01*
X117074739Y-117599907D01*
X117065763Y-117599852D01*
X117065762Y-117599852D01*
X117005555Y-117599484D01*
X116931376Y-117599031D01*
X116793529Y-117638428D01*
X116672280Y-117714930D01*
X116577377Y-117822388D01*
X116516447Y-117952163D01*
X116507210Y-118011490D01*
X116498099Y-118070009D01*
X116494391Y-118093823D01*
X106742867Y-118093823D01*
X106828282Y-118028282D01*
X106924536Y-117902841D01*
X106985044Y-117756762D01*
X107005682Y-117600000D01*
X106985044Y-117443238D01*
X106924536Y-117297159D01*
X106828282Y-117171718D01*
X106811798Y-117159069D01*
X106737124Y-117101770D01*
X106702841Y-117075464D01*
X106556762Y-117014956D01*
X106400000Y-116994318D01*
X106243238Y-117014956D01*
X106097159Y-117075464D01*
X106062876Y-117101770D01*
X105988203Y-117159069D01*
X105971718Y-117171718D01*
X105875464Y-117297159D01*
X105814956Y-117443238D01*
X105794318Y-117600000D01*
X104799165Y-117600000D01*
X104805682Y-117550500D01*
X104785044Y-117393738D01*
X104724536Y-117247659D01*
X104628282Y-117122218D01*
X104502841Y-117025964D01*
X104356762Y-116965456D01*
X104307595Y-116958983D01*
X104278381Y-116955137D01*
X104200000Y-116944818D01*
X104121619Y-116955137D01*
X104092406Y-116958983D01*
X104043238Y-116965456D01*
X103897159Y-117025964D01*
X103771718Y-117122218D01*
X103675464Y-117247659D01*
X103614956Y-117393738D01*
X103594318Y-117550500D01*
X98200000Y-117550500D01*
X98200000Y-116693823D01*
X107494391Y-116693823D01*
X107495555Y-116702725D01*
X107495555Y-116702728D01*
X107502225Y-116753733D01*
X107512980Y-116835979D01*
X107570720Y-116967203D01*
X107576497Y-116974076D01*
X107576498Y-116974077D01*
X107654121Y-117066421D01*
X107662970Y-117076948D01*
X107782313Y-117156390D01*
X107919157Y-117199142D01*
X107928129Y-117199306D01*
X107928132Y-117199307D01*
X107993463Y-117200504D01*
X108062499Y-117201770D01*
X108071533Y-117199307D01*
X108192158Y-117166421D01*
X108192160Y-117166420D01*
X108200817Y-117164060D01*
X108322991Y-117089045D01*
X108357054Y-117051413D01*
X108413178Y-116989407D01*
X108419200Y-116982754D01*
X108464426Y-116889407D01*
X108477795Y-116861814D01*
X108477795Y-116861813D01*
X108481710Y-116853733D01*
X108505496Y-116712354D01*
X108505647Y-116700000D01*
X108491326Y-116600000D01*
X108490441Y-116593823D01*
X110494391Y-116593823D01*
X110495555Y-116602725D01*
X110495555Y-116602728D01*
X110502020Y-116652163D01*
X110512980Y-116735979D01*
X110570720Y-116867203D01*
X110576497Y-116874076D01*
X110576498Y-116874077D01*
X110652404Y-116964378D01*
X110662970Y-116976948D01*
X110782313Y-117056390D01*
X110919157Y-117099142D01*
X110928129Y-117099306D01*
X110928132Y-117099307D01*
X110993463Y-117100504D01*
X111062499Y-117101770D01*
X111071533Y-117099307D01*
X111192158Y-117066421D01*
X111192160Y-117066420D01*
X111200817Y-117064060D01*
X111322991Y-116989045D01*
X111419200Y-116882754D01*
X111462287Y-116793823D01*
X113394391Y-116793823D01*
X113395555Y-116802725D01*
X113395555Y-116802728D01*
X113402225Y-116853733D01*
X113412980Y-116935979D01*
X113470720Y-117067203D01*
X113476497Y-117074076D01*
X113476498Y-117074077D01*
X113554121Y-117166421D01*
X113562970Y-117176948D01*
X113682313Y-117256390D01*
X113819157Y-117299142D01*
X113828129Y-117299306D01*
X113828132Y-117299307D01*
X113893463Y-117300504D01*
X113962499Y-117301770D01*
X113971533Y-117299307D01*
X114092158Y-117266421D01*
X114092160Y-117266420D01*
X114100817Y-117264060D01*
X114222991Y-117189045D01*
X114232750Y-117178264D01*
X114313178Y-117089407D01*
X114319200Y-117082754D01*
X114354089Y-117010743D01*
X114377795Y-116961814D01*
X114377795Y-116961813D01*
X114381710Y-116953733D01*
X114405496Y-116812354D01*
X114405647Y-116800000D01*
X114404762Y-116793823D01*
X116619891Y-116793823D01*
X116621055Y-116802725D01*
X116621055Y-116802728D01*
X116627725Y-116853733D01*
X116638480Y-116935979D01*
X116696220Y-117067203D01*
X116701997Y-117074076D01*
X116701998Y-117074077D01*
X116779621Y-117166421D01*
X116788470Y-117176948D01*
X116907813Y-117256390D01*
X117044657Y-117299142D01*
X117053629Y-117299306D01*
X117053632Y-117299307D01*
X117118963Y-117300504D01*
X117187999Y-117301770D01*
X117197033Y-117299307D01*
X117317658Y-117266421D01*
X117317660Y-117266420D01*
X117326317Y-117264060D01*
X117448491Y-117189045D01*
X117458250Y-117178264D01*
X117538678Y-117089407D01*
X117544700Y-117082754D01*
X117579589Y-117010743D01*
X117603295Y-116961814D01*
X117603295Y-116961813D01*
X117607210Y-116953733D01*
X117630996Y-116812354D01*
X117631147Y-116800000D01*
X117630262Y-116793823D01*
X119494391Y-116793823D01*
X119495555Y-116802725D01*
X119495555Y-116802728D01*
X119502225Y-116853733D01*
X119512980Y-116935979D01*
X119570720Y-117067203D01*
X119576497Y-117074076D01*
X119576498Y-117074077D01*
X119654121Y-117166421D01*
X119662970Y-117176948D01*
X119782313Y-117256390D01*
X119919157Y-117299142D01*
X119928129Y-117299306D01*
X119928132Y-117299307D01*
X119993463Y-117300504D01*
X120062499Y-117301770D01*
X120071533Y-117299307D01*
X120192158Y-117266421D01*
X120192160Y-117266420D01*
X120200817Y-117264060D01*
X120322991Y-117189045D01*
X120332750Y-117178264D01*
X120413178Y-117089407D01*
X120419200Y-117082754D01*
X120454089Y-117010743D01*
X120477795Y-116961814D01*
X120477795Y-116961813D01*
X120481710Y-116953733D01*
X120505496Y-116812354D01*
X120505647Y-116800000D01*
X120491326Y-116700000D01*
X120486596Y-116666968D01*
X120486595Y-116666965D01*
X120485323Y-116658082D01*
X120425984Y-116527572D01*
X120368652Y-116461035D01*
X120338260Y-116425763D01*
X120338257Y-116425760D01*
X120332400Y-116418963D01*
X120212095Y-116340985D01*
X120074739Y-116299907D01*
X120065763Y-116299852D01*
X120065762Y-116299852D01*
X120005555Y-116299484D01*
X119931376Y-116299031D01*
X119793529Y-116338428D01*
X119672280Y-116414930D01*
X119577377Y-116522388D01*
X119516447Y-116652163D01*
X119515066Y-116661035D01*
X119499375Y-116761814D01*
X119494391Y-116793823D01*
X117630262Y-116793823D01*
X117616826Y-116700000D01*
X117612096Y-116666968D01*
X117612095Y-116666965D01*
X117610823Y-116658082D01*
X117551484Y-116527572D01*
X117494152Y-116461035D01*
X117463760Y-116425763D01*
X117463757Y-116425760D01*
X117457900Y-116418963D01*
X117337595Y-116340985D01*
X117200239Y-116299907D01*
X117191263Y-116299852D01*
X117191262Y-116299852D01*
X117131055Y-116299484D01*
X117056876Y-116299031D01*
X116919029Y-116338428D01*
X116797780Y-116414930D01*
X116702877Y-116522388D01*
X116641947Y-116652163D01*
X116640566Y-116661035D01*
X116624875Y-116761814D01*
X116619891Y-116793823D01*
X114404762Y-116793823D01*
X114391326Y-116700000D01*
X114386596Y-116666968D01*
X114386595Y-116666965D01*
X114385323Y-116658082D01*
X114325984Y-116527572D01*
X114268652Y-116461035D01*
X114238260Y-116425763D01*
X114238257Y-116425760D01*
X114232400Y-116418963D01*
X114112095Y-116340985D01*
X113974739Y-116299907D01*
X113965763Y-116299852D01*
X113965762Y-116299852D01*
X113905555Y-116299484D01*
X113831376Y-116299031D01*
X113693529Y-116338428D01*
X113572280Y-116414930D01*
X113477377Y-116522388D01*
X113416447Y-116652163D01*
X113415066Y-116661035D01*
X113399375Y-116761814D01*
X113394391Y-116793823D01*
X111462287Y-116793823D01*
X111481710Y-116753733D01*
X111505496Y-116612354D01*
X111505647Y-116600000D01*
X111485323Y-116458082D01*
X111475168Y-116435746D01*
X111432082Y-116340985D01*
X111425984Y-116327572D01*
X111353299Y-116243217D01*
X111338260Y-116225763D01*
X111338257Y-116225760D01*
X111332400Y-116218963D01*
X111212095Y-116140985D01*
X111074739Y-116099907D01*
X111065763Y-116099852D01*
X111065762Y-116099852D01*
X111005555Y-116099484D01*
X110931376Y-116099031D01*
X110793529Y-116138428D01*
X110672280Y-116214930D01*
X110666338Y-116221658D01*
X110666337Y-116221659D01*
X110651527Y-116238428D01*
X110577377Y-116322388D01*
X110516447Y-116452163D01*
X110515066Y-116461035D01*
X110499956Y-116558082D01*
X110494391Y-116593823D01*
X108490441Y-116593823D01*
X108486596Y-116566968D01*
X108486595Y-116566965D01*
X108485323Y-116558082D01*
X108475168Y-116535746D01*
X108443896Y-116466968D01*
X108425984Y-116427572D01*
X108353299Y-116343217D01*
X108338260Y-116325763D01*
X108338257Y-116325760D01*
X108332400Y-116318963D01*
X108212095Y-116240985D01*
X108074739Y-116199907D01*
X108065763Y-116199852D01*
X108065762Y-116199852D01*
X108005555Y-116199484D01*
X107931376Y-116199031D01*
X107793529Y-116238428D01*
X107672280Y-116314930D01*
X107666338Y-116321658D01*
X107666337Y-116321659D01*
X107651527Y-116338428D01*
X107577377Y-116422388D01*
X107516447Y-116552163D01*
X107515066Y-116561035D01*
X107499956Y-116658082D01*
X107494391Y-116693823D01*
X98200000Y-116693823D01*
X98200000Y-113371257D01*
X98220002Y-113303136D01*
X98273658Y-113256643D01*
X98343932Y-113246539D01*
X98408512Y-113276033D01*
X98442409Y-113323039D01*
X98475464Y-113402841D01*
X98571718Y-113528282D01*
X98697159Y-113624536D01*
X98843238Y-113685044D01*
X99000000Y-113705682D01*
X99008188Y-113704604D01*
X99148574Y-113686122D01*
X99156762Y-113685044D01*
X99302841Y-113624536D01*
X99428282Y-113528282D01*
X99524536Y-113402841D01*
X99585044Y-113256762D01*
X99605682Y-113100000D01*
X99585044Y-112943238D01*
X99524536Y-112797159D01*
X99508839Y-112776702D01*
X99483239Y-112710485D01*
X99497503Y-112640936D01*
X99508835Y-112623303D01*
X99524536Y-112602841D01*
X99585044Y-112456762D01*
X99605682Y-112300000D01*
X99587128Y-112159069D01*
X99586122Y-112151426D01*
X99585044Y-112143238D01*
X99524536Y-111997159D01*
X99452623Y-111903440D01*
X99427023Y-111837220D01*
X99441288Y-111767671D01*
X99490889Y-111716875D01*
X99548188Y-111700813D01*
X99748353Y-111693823D01*
X134194391Y-111693823D01*
X134195555Y-111702725D01*
X134195555Y-111702728D01*
X134203685Y-111764901D01*
X134212980Y-111835979D01*
X134270720Y-111967203D01*
X134276497Y-111974076D01*
X134276498Y-111974077D01*
X134302314Y-112004789D01*
X134362970Y-112076948D01*
X134482313Y-112156390D01*
X134619157Y-112199142D01*
X134628129Y-112199306D01*
X134628132Y-112199307D01*
X134693463Y-112200504D01*
X134762499Y-112201770D01*
X134771533Y-112199307D01*
X134892158Y-112166421D01*
X134892160Y-112166420D01*
X134900817Y-112164060D01*
X135022991Y-112089045D01*
X135119200Y-111982754D01*
X135169825Y-111878264D01*
X135177795Y-111861814D01*
X135177795Y-111861813D01*
X135181710Y-111853733D01*
X135205496Y-111712354D01*
X135205647Y-111700000D01*
X135197473Y-111642924D01*
X135186596Y-111566968D01*
X135186595Y-111566965D01*
X135185323Y-111558082D01*
X135180460Y-111547385D01*
X135160320Y-111503091D01*
X135125984Y-111427572D01*
X135068813Y-111361222D01*
X135038260Y-111325763D01*
X135038257Y-111325760D01*
X135032400Y-111318963D01*
X134912095Y-111240985D01*
X134774739Y-111199907D01*
X134765763Y-111199852D01*
X134765762Y-111199852D01*
X134705555Y-111199484D01*
X134631376Y-111199031D01*
X134493529Y-111238428D01*
X134372280Y-111314930D01*
X134277377Y-111422388D01*
X134216447Y-111552163D01*
X134215066Y-111561035D01*
X134195923Y-111683984D01*
X134194391Y-111693823D01*
X99748353Y-111693823D01*
X99787012Y-111692473D01*
X99787016Y-111692473D01*
X99790527Y-111692350D01*
X99794008Y-111691836D01*
X100141072Y-111640587D01*
X100141078Y-111640586D01*
X100144564Y-111640071D01*
X100147968Y-111639172D01*
X100147971Y-111639171D01*
X100487176Y-111549549D01*
X100487177Y-111549549D01*
X100490567Y-111548653D01*
X100824224Y-111419236D01*
X101141375Y-111253433D01*
X101438068Y-111053311D01*
X101710605Y-110821364D01*
X101713000Y-110818814D01*
X101713008Y-110818806D01*
X101953177Y-110563051D01*
X101953181Y-110563046D01*
X101955588Y-110560483D01*
X101957693Y-110557669D01*
X101957699Y-110557662D01*
X102167856Y-110276739D01*
X102169965Y-110273920D01*
X102351062Y-109965247D01*
X102496624Y-109638311D01*
X102604835Y-109297186D01*
X102674347Y-108946125D01*
X102687136Y-108793823D01*
X102994391Y-108793823D01*
X102995555Y-108802725D01*
X102995555Y-108802728D01*
X102996814Y-108812354D01*
X103012980Y-108935979D01*
X103070720Y-109067203D01*
X103076497Y-109074076D01*
X103076498Y-109074077D01*
X103083792Y-109082754D01*
X103162970Y-109176948D01*
X103282313Y-109256390D01*
X103419157Y-109299142D01*
X103428129Y-109299306D01*
X103428132Y-109299307D01*
X103493463Y-109300504D01*
X103562499Y-109301770D01*
X103571533Y-109299307D01*
X103692158Y-109266421D01*
X103692160Y-109266420D01*
X103700817Y-109264060D01*
X103822991Y-109189045D01*
X103919200Y-109082754D01*
X103981710Y-108953733D01*
X104005496Y-108812354D01*
X104005647Y-108800000D01*
X103985323Y-108658082D01*
X103925984Y-108527572D01*
X103900355Y-108497828D01*
X103838260Y-108425763D01*
X103838257Y-108425760D01*
X103832400Y-108418963D01*
X103712095Y-108340985D01*
X103574739Y-108299907D01*
X103565763Y-108299852D01*
X103565762Y-108299852D01*
X103505555Y-108299484D01*
X103431376Y-108299031D01*
X103293529Y-108338428D01*
X103172280Y-108414930D01*
X103077377Y-108522388D01*
X103016447Y-108652163D01*
X103015066Y-108661035D01*
X102998495Y-108767467D01*
X102994391Y-108793823D01*
X102687136Y-108793823D01*
X102697788Y-108666968D01*
X102704110Y-108591688D01*
X102704111Y-108591677D01*
X102704293Y-108589504D01*
X102705231Y-108522388D01*
X102705513Y-108502178D01*
X102705513Y-108502166D01*
X102705543Y-108500000D01*
X102701013Y-108418963D01*
X102685762Y-108146195D01*
X102685566Y-108142682D01*
X102625883Y-107789817D01*
X102527239Y-107445804D01*
X102428046Y-107205143D01*
X102392201Y-107118176D01*
X102392197Y-107118168D01*
X102390863Y-107114931D01*
X102358901Y-107056792D01*
X102343612Y-106987461D01*
X102368233Y-106920870D01*
X102424947Y-106878161D01*
X102495748Y-106872895D01*
X102520649Y-106881022D01*
G37*
%TD.AperFunction*%
%TD*%
M02*
